<?xml version="1.0" standalone="no"?>
<!DOCTYPE svg PUBLIC "-//W3C//DTD SVG 20010904//EN"
 "http://www.w3.org/TR/2001/REC-SVG-20010904/DTD/svg10.dtd">
<svg version="1.0" xmlns="http://www.w3.org/2000/svg"
 width="512.000000pt" height="512.000000pt" viewBox="0 0 512.000000 512.000000"
 preserveAspectRatio="xMidYMid meet">
<metadata>
Created by potrace 1.11, written by Peter Selinger 2001-2013
</metadata>
<g transform="translate(0.000000,512.000000) scale(0.100000,-0.100000)"
fill="#000000" stroke="none">
<path d="M2565 4636 c-58 -25 -136 -109 -284 -305 -190 -251 -265 -321 -341
-321 -44 0 -107 46 -237 172 -141 136 -201 175 -251 163 -97 -23 -299 -223
-532 -524 l-94 -121 -177 0 -178 0 -3 -112 c-4 -158 9 -632 22 -780 77 -887
228 -1149 747 -1291 51 -14 95 -22 97 -19 3 6 46 191 94 408 l9 42 -84 22
c-183 48 -252 106 -298 251 -51 163 -98 518 -111 852 l-7 167 1621 0 1620 0
-4 -72 c-39 -682 -92 -986 -192 -1091 -37 -39 -122 -81 -220 -108 -47 -12 -82
-27 -82 -35 0 -12 87 -407 95 -431 3 -9 28 -5 92 12 399 106 571 284 669 690
68 285 114 812 114 1323 l0 172 -178 0 -178 0 -90 132 c-204 302 -398 533
-478 568 -68 31 -126 1 -246 -128 -116 -124 -145 -145 -195 -137 -72 11 -127
55 -335 266 -210 214 -256 249 -325 248 -16 0 -43 -6 -60 -13z"/>
<path d="M3033 1775 c-101 -22 -189 -71 -269 -150 -214 -211 -221 -545 -16
-766 214 -231 572 -237 796 -14 182 182 214 473 76 683 -87 132 -189 205 -337
243 -88 22 -162 23 -250 4z"/>
<path d="M1865 1770 c-443 -96 -606 -620 -290 -935 269 -269 713 -197 882 142
180 360 -66 780 -467 798 -47 2 -103 0 -125 -5z"/>
<path d="M707 1393 c-4 -3 -7 -82 -7 -175 l0 -168 305 0 305 0 -2 173 -3 172
-296 3 c-162 1 -298 -1 -302 -5z"/>
<path d="M3810 1215 l0 -175 305 0 305 0 -2 173 -3 172 -302 3 -303 2 0 -175z"/>
</g>
</svg>
