<?xml version="1.0" encoding="utf-8"?>
<!-- Generator: Adobe Illustrator 16.0.0, SVG Export Plug-In . SVG Version: 6.00 Build 0)  -->
<!DOCTYPE svg PUBLIC "-//W3C//DTD SVG 1.1//EN" "http://www.w3.org/Graphics/SVG/1.1/DTD/svg11.dtd">
<svg version="1.1" id="Layer_1" xmlns="http://www.w3.org/2000/svg" xmlns:xlink="http://www.w3.org/1999/xlink" x="0px" y="0px"
	 width="20px" height="20px" viewBox="0 0 20 20" enable-background="new 0 0 20 20" xml:space="preserve">
<g>
	<path d="M10.977,3.563l5.461,5.459L5.518,19.941H0.059v-5.459L10.977,3.563z M4.822,18.262l1.194-1.193
		l-3.084-3.084l-1.194,1.193v1.404h1.681v1.68H4.822z M11.687,6.082c0-0.192-0.097-0.289-0.289-0.289
		c-0.087,0-0.162,0.032-0.223,0.092L4.062,13C4,13.061,3.97,13.135,3.97,13.223c0,0.193,0.096,0.289,0.289,0.289
		c0.087,0,0.162-0.031,0.223-0.094l7.113-7.113C11.655,6.244,11.687,6.17,11.687,6.082z M19.941,4.823
		c0,0.463-0.161,0.857-0.486,1.181l-2.179,2.178l-5.459-5.459l2.179-2.166c0.314-0.332,0.708-0.499,1.182-0.499
		c0.463,0,0.862,0.167,1.191,0.499l3.086,3.072C19.78,3.969,19.941,4.367,19.941,4.823z"/>
</g>
</svg>
