<?xml version="1.0" encoding="utf-8"?>
<!-- Generator: Adobe Illustrator 16.0.0, SVG Export Plug-In . SVG Version: 6.00 Build 0)  -->
<!DOCTYPE svg PUBLIC "-//W3C//DTD SVG 1.1//EN" "http://www.w3.org/Graphics/SVG/1.1/DTD/svg11.dtd">
<svg version="1.1" id="Layer_1" xmlns="http://www.w3.org/2000/svg" xmlns:xlink="http://www.w3.org/1999/xlink" x="0px" y="0px"
	 width="29px" height="28px" viewBox="0 0 29 28" enable-background="new 0 0 29 28" xml:space="preserve">
<path d="M27.939,3.687v20.726c0,0.979-0.35,1.821-1.051,2.525c-0.703,0.699-1.545,1.051-2.523,1.051H3.637
	c-0.981,0-1.821-0.352-2.524-1.051c-0.702-0.704-1.052-1.546-1.052-2.525V3.687c0-0.981,0.351-1.821,1.052-2.522
	c0.703-0.702,1.543-1.054,2.524-1.054h20.728c0.979,0,1.82,0.352,2.523,1.054C27.59,1.866,27.939,2.706,27.939,3.687z M24.783,23.67
	V11.91h-2.451c0.242,0.762,0.363,1.555,0.363,2.377c0,1.524-0.389,2.932-1.162,4.218c-0.773,1.289-1.826,2.309-3.158,3.061
	c-1.332,0.751-2.781,1.125-4.356,1.125c-2.384,0-4.423-0.818-6.116-2.459c-1.696-1.642-2.542-3.621-2.542-5.945
	c0-0.822,0.121-1.615,0.363-2.377h-2.56v11.76c0,0.314,0.106,0.579,0.318,0.791c0.211,0.212,0.475,0.317,0.79,0.317h19.401
	c0.305,0,0.564-0.105,0.781-0.317S24.783,23.984,24.783,23.67z M17.986,17.833c1.094-1.059,1.641-2.335,1.641-3.836
	c0-1.5-0.547-2.78-1.641-3.839c-1.096-1.059-2.42-1.588-3.968-1.588c-1.537,0-2.852,0.529-3.948,1.588
	c-1.094,1.059-1.642,2.339-1.642,3.839c0,1.501,0.548,2.778,1.642,3.836c1.096,1.059,2.412,1.588,3.948,1.588
	C15.566,19.421,16.891,18.892,17.986,17.833z M24.783,7.463V4.468c0-0.339-0.121-0.633-0.365-0.88
	c-0.24-0.249-0.537-0.373-0.889-0.373h-3.158c-0.352,0-0.648,0.125-0.889,0.373c-0.242,0.248-0.363,0.542-0.363,0.88v2.995
	c0,0.351,0.121,0.647,0.363,0.889c0.24,0.242,0.537,0.363,0.889,0.363h3.158c0.352,0,0.648-0.121,0.889-0.363
	C24.662,8.11,24.783,7.813,24.783,7.463z"/>
</svg>
