<?xml version="1.0" encoding="utf-8"?>
<!-- Generator: Adobe Illustrator 16.0.0, SVG Export Plug-In . SVG Version: 6.00 Build 0)  -->
<!DOCTYPE svg PUBLIC "-//W3C//DTD SVG 1.1//EN" "http://www.w3.org/Graphics/SVG/1.1/DTD/svg11.dtd">
<svg version="1.1" id="Layer_1" xmlns="http://www.w3.org/2000/svg" xmlns:xlink="http://www.w3.org/1999/xlink" x="0px" y="0px"
	 width="20.7px" height="25px" viewBox="0 0 20.7 25" enable-background="new 0 0 20.7 25" xml:space="preserve">
<g>
	<path d="M20.384,20.387c0,0.239-0.086,0.446-0.261,0.619c-0.175,0.175-0.382,0.262-0.621,0.262h-6.36
		c0.01,0.155,0.036,0.558,0.083,1.205c0.045,0.647,0.067,1.145,0.067,1.494c0,0.229-0.082,0.424-0.247,0.585
		c-0.166,0.16-0.363,0.241-0.592,0.241H8.046c-0.229,0-0.427-0.081-0.591-0.241c-0.166-0.161-0.249-0.355-0.249-0.585
		c0-0.35,0.022-0.847,0.069-1.494s0.073-1.05,0.083-1.205H0.998c-0.239,0-0.445-0.087-0.621-0.262
		c-0.173-0.173-0.261-0.38-0.261-0.619c0-0.238,0.087-0.445,0.261-0.62l5.537-5.548H2.76c-0.238,0-0.445-0.086-0.62-0.261
		c-0.175-0.175-0.262-0.382-0.262-0.619c0-0.239,0.087-0.446,0.262-0.621L7.676,7.17H4.962c-0.238,0-0.444-0.087-0.62-0.262
		c-0.175-0.175-0.261-0.381-0.261-0.62c0-0.238,0.086-0.444,0.261-0.62l5.287-5.288c0.176-0.173,0.381-0.261,0.621-0.261
		c0.238,0,0.445,0.087,0.62,0.261l5.288,5.288c0.175,0.175,0.261,0.381,0.261,0.62c0,0.239-0.086,0.445-0.261,0.62
		s-0.381,0.262-0.62,0.262h-2.713l5.536,5.547c0.174,0.175,0.261,0.382,0.261,0.621c0,0.237-0.087,0.444-0.261,0.619
		c-0.175,0.175-0.382,0.261-0.621,0.261h-3.15l5.534,5.548C20.298,19.941,20.384,20.148,20.384,20.387z"/>
</g>
</svg>
