<?xml version="1.0" encoding="utf-8"?>
<!DOCTYPE svg PUBLIC "-//W3C//DTD SVG 1.1//EN" "http://www.w3.org/Graphics/SVG/1.1/DTD/svg11.dtd">
<svg version="1.1" id="Layer_1" xmlns="http://www.w3.org/2000/svg" xmlns:xlink="http://www.w3.org/1999/xlink" x="0px" y="0px"
	 width="303.825px" height="396.834px" viewBox="0 0 303.825 396.834" enable-background="new 0 0 303.825 396.834"
	 xml:space="preserve">
	<path d="M36.031,84.022c0,0,32.478-41.43,45.13-43.125c9.016-1.207,22.501,25.432,31.591,25.072
		c14.349-0.568,30.77-47.637,45.13-47.637c13.539,0,30.421,38.418,45.13,38.612c6.578,0.086,18.052-25.073,27.078-20.56
		c12.151,6.076,40.617,47.637,40.617,47.637H36.031z"/>
	<path d="M71.884,215.412c-15.921-1.128-40.592-17.775-46.208-39.625c-3.242-12.615-4.618-77.206-4.764-85.1
		l-0.152-8.172h269.075l-0.15,8.172c-0.146,7.894-1.523,72.486-4.765,85.102c-5.584,21.726-31.974,39.667-48.061,39.79l-4.263-13.953
		c13.707-1.505,31.476-13.079,35.783-29.831c1.903-7.408,4.429-43.912,5.092-73.232H37.125c0.665,29.32,3.19,65.823,5.093,73.23
		c4.26,16.575,22.396,28.203,33.176,28.955L71.884,215.412z"/>
	<circle cx="115.301" cy="230.196" r="34.349"/>
	<circle cx="194.785" cy="230.196" r="34.349"/>
	<rect x="35.78" y="222.389" width="36.104" height="17"/>
	<rect x="236.859" y="222.389" width="36.104" height="17"/>
	<path d="M79.278,297.827v62.843H59.195v-62.843h-23.58v-16.246h67.469v16.246H79.278z"/>
	<path d="M145.023,360.67l-30.688-78.977h21.437l20.195,58.104l20.195-58.104h20.647l-31.027,78.977H145.023z"/>
	<path d="M272.771,289.591l-7.559,15.683c-8.35-4.852-18.842-8.236-25.273-8.236c-5.19,0-8.688,1.918-8.688,5.754
		c0,13.652,41.745,5.867,41.745,34.412c0,15.795-13.99,24.144-31.59,24.144c-13.2,0-26.739-4.964-36.104-12.636l7.785-15.457
		c8.124,7.107,20.309,11.847,28.544,11.847c6.318,0,10.267-2.369,10.267-6.883c0-13.99-41.745-5.641-41.745-33.621
		c0-14.555,12.523-23.806,31.478-23.806C253.026,280.791,264.647,284.288,272.771,289.591z"/>
</svg>
