<?xml version="1.0" encoding="utf-8"?>
<!-- Generator: Adobe Illustrator 16.0.0, SVG Export Plug-In . SVG Version: 6.00 Build 0)  -->
<!DOCTYPE svg PUBLIC "-//W3C//DTD SVG 1.1//EN" "http://www.w3.org/Graphics/SVG/1.1/DTD/svg11.dtd">
<svg version="1.1" id="Layer_1" xmlns="http://www.w3.org/2000/svg" xmlns:xlink="http://www.w3.org/1999/xlink" x="0px" y="0px"
	 width="62.118px" height="86.83px" viewBox="0 0 62.118 86.83" enable-background="new 0 0 62.118 86.83" xml:space="preserve">
	<path class="u-fill" fill="#757575" d="M9.852,1c3.016,0,5.311,1.243,6.869,3.72c0.387,1.452,0.582,2.725,0.582,3.819
		c0,0.674-0.069,2.979-0.215,6.911c0,2.01,0.364,7.113,1.098,15.291c6.825,0.248,13.475,0.367,19.959,0.367
		c3.75,0,5.628-0.152,5.628-0.476c1.021-11.114,1.971-18.955,2.851-23.521c1.511-2.517,3.752-3.77,6.726-3.77h0.734
		c2.922,0,5.119,1.213,6.576,3.661c0.248,0.493,0.367,0.936,0.367,1.329V8.86c-0.582,4.143-1.533,12.374-2.85,24.695
		c-0.344,1.664-0.881,3.039-1.607,4.14c-1.125,1.531-2.881,2.573-5.265,3.132c-0.688,0.426-4.999,0.764-12.942,1.008
		c-17.06,0-26.467-0.506-28.227-1.538c-2.289-0.668-3.995-1.766-5.116-3.293c-0.731-0.635-1.339-3.218-1.829-7.751
		c-0.536-7.434-0.8-12.037-0.8-13.803c0-0.959,0.073-3.228,0.218-6.802C2.366,7.375,2.247,6.575,2.247,6.254
		c0-2.401,1.872-4.1,5.625-5.096C8.751,1.056,9.406,1,9.852,1"/>
	<path class="u-border" fill="none" stroke="#757575" stroke-miterlimit="10" d="M9.852,1c3.016,0,5.311,1.243,6.869,3.72
		c0.387,1.452,0.582,2.725,0.582,3.819c0,0.674-0.069,2.979-0.215,6.911c0,2.01,0.364,7.113,1.098,15.291
		c6.825,0.248,13.475,0.367,19.959,0.367c3.75,0,5.628-0.152,5.628-0.476c1.021-11.114,1.971-18.955,2.851-23.521
		c1.511-2.517,3.752-3.77,6.726-3.77h0.734c2.922,0,5.119,1.213,6.576,3.661c0.248,0.493,0.367,0.936,0.367,1.329V8.86
		c-0.582,4.143-1.533,12.374-2.85,24.695c-0.344,1.664-0.881,3.039-1.607,4.14c-1.125,1.531-2.881,2.573-5.265,3.132
		c-0.688,0.426-4.999,0.764-12.942,1.008c-17.06,0-26.467-0.506-28.227-1.538c-2.289-0.668-3.995-1.766-5.116-3.293
		c-0.731-0.635-1.339-3.218-1.829-7.751c-0.536-7.434-0.8-12.037-0.8-13.803c0-0.959,0.073-3.228,0.218-6.802
		C2.366,7.375,2.247,6.575,2.247,6.254c0-2.401,1.872-4.1,5.625-5.096C8.751,1.056,9.406,1,9.852,1z"/>
	<path class="topDash-fill" fill="#757575" d="M49.255,50.387c2.969,0,5.239,1.416,6.799,4.242c0.348,0.867,0.516,1.674,0.516,2.414
		c0,2.83-1.688,4.895-5.046,6.201c-1.27,0.693-12.043,1.045-32.314,1.045c-3.026,0.131-6.706,0.416-11.044,0.846
		c-2.973,0-5.268-1.498-6.875-4.5C1.103,59.852,1,59.26,1,58.869v-0.391c0-3.264,2.073-5.424,6.22-6.461
		c4.676-0.697,15.694-1.042,33.042-1.042C42.894,50.975,45.89,50.774,49.255,50.387"/>
	<path class="topDash-border" fill="none" stroke="#757575" stroke-width="0.2" stroke-miterlimit="10" d="M49.255,50.387c2.969,0,5.239,1.416,6.799,4.242
		c0.348,0.867,0.516,1.674,0.516,2.414c0,2.83-1.688,4.895-5.046,6.201c-1.27,0.693-12.043,1.045-32.314,1.045
		c-3.026,0.131-6.706,0.416-11.044,0.846c-2.973,0-5.268-1.498-6.875-4.5C1.103,59.852,1,59.26,1,58.869v-0.391
		c0-3.264,2.073-5.424,6.22-6.461c4.676-0.697,15.694-1.042,33.042-1.042C42.894,50.975,45.89,50.774,49.255,50.387z"/>
	<path class="bottomDash" fill="#FFFFFF" stroke="#FFFFFF" stroke-width="0.2" stroke-miterlimit="10" d="M40.854,69.357
		c2.047,0,3.925,0.979,5.625,2.938c0.83,1.176,1.243,2.436,1.243,3.785c0,2.914-1.849,5.008-5.556,6.264
		c-4.729,0.525-11.746,1.068-21.058,1.637c-5.654,0-9.061-1.006-10.234-3.006c-0.976-1.174-1.461-2.461-1.461-3.85
		c0-3.045,1.855-5.178,5.559-6.398c0.777-0.129,1.316-0.197,1.607-0.197c2.778,0.135,4.289,0.225,4.53,0.264L40.854,69.357z"/>
</svg>
