<?xml version="1.0" standalone="no"?>
<!DOCTYPE svg PUBLIC "-//W3C//DTD SVG 20010904//EN"
 "http://www.w3.org/TR/2001/REC-SVG-20010904/DTD/svg10.dtd">
<svg version="1.0" xmlns="http://www.w3.org/2000/svg"
 width="320.000000pt" height="320.000000pt" viewBox="0 0 320.000000 320.000000"
 preserveAspectRatio="xMidYMid meet">
<metadata>
Created by potrace 1.11, written by Peter Selinger 2001-2013
</metadata>
<g transform="translate(0.000000,320.000000) scale(0.100000,-0.100000)"
fill="#000000" stroke="none">
<path d="M1593 2765 c-42 -18 -98 -84 -202 -237 -102 -152 -157 -208 -205
-208 -26 0 -48 18 -142 115 -62 63 -123 117 -137 120 -47 12 -99 -25 -255
-182 l-152 -153 -102 0 -101 0 7 -232 c8 -282 23 -542 36 -622 28 -179 193
-352 389 -410 30 -9 58 -13 62 -9 11 12 38 121 31 127 -3 3 -14 6 -24 6 -37 0
-143 63 -198 119 -101 101 -112 144 -130 526 -5 121 -10 246 -10 278 l0 57
1140 0 1140 0 0 -57 c0 -108 -21 -498 -30 -576 -13 -104 -38 -156 -109 -227
-61 -61 -182 -130 -228 -130 -13 0 -23 -3 -23 -7 0 -22 37 -116 47 -120 24 -9
149 36 213 78 137 88 230 216 250 344 13 81 28 340 36 623 l7 232 -120 0 -119
0 -91 118 c-102 131 -214 249 -250 263 -37 14 -65 -4 -153 -100 -72 -79 -88
-91 -116 -91 -46 0 -104 47 -206 170 -146 176 -194 211 -255 185z"/>
<path d="M1090 1064 c-172 -60 -264 -260 -197 -425 57 -137 169 -213 312 -212
229 1 385 231 304 448 -28 76 -108 156 -184 184 -67 25 -169 27 -235 5z"/>
<path d="M1870 1064 c-172 -60 -264 -260 -197 -425 57 -137 169 -213 312 -212
229 1 385 231 304 448 -28 76 -108 156 -184 184 -67 25 -169 27 -235 5z"/>
<path d="M437 823 c-4 -3 -7 -39 -7 -80 l0 -73 175 0 175 0 0 80 0 80 -168 0
c-93 0 -172 -3 -175 -7z"/>
<path d="M2377 824 c-4 -4 -7 -40 -7 -81 l0 -73 180 0 181 0 -3 78 -3 77 -171
3 c-93 1 -173 -1 -177 -4z"/>
</g>
</svg>
