<!DOCTYPE svg PUBLIC "-//W3C//DTD SVG 1.1//EN" "http://www.w3.org/Graphics/SVG/1.1/DTD/svg11.dtd">
<svg version="1.1" id="contourPlot" xmlns="http://www.w3.org/2000/svg" xmlns:xlink="http://www.w3.org/1999/xlink" x="0px"
	 y="0px" width="500.5px" height="500px" viewBox="0 0 500.5 500" enable-background="new 0 0 500.5 500" xml:space="preserve">
<path fill="none" stroke="#D6AF14" stroke-width="1.5" d="M0,450.815c0,1.641,4.918,0.24,6.558,0.187
	c11.796-0.401,35.194-4.201,46.992-4.553c0.501-0.017,1.504,0.064,2.006,0.074c0.516,0.008,1.549,0.02,2.064-0.016
	c4.332-0.273,17.335,2.274,17.238-2.063c-0.099-4.499-13.464-1.003-17.949-1.354c-0.339-0.024-1.015-0.101-1.354-0.106
	c-0.353-0.01-1.058,0.058-1.41,0.052c-12.348-0.21-36.932-3.207-49.278-3.456C3.649,439.554,0,438.506,0,439.724"/>
<path fill="none" stroke="#D6AF14" stroke-width="1.5" d="M6.613,0c0,2.098,1.45,6.144,1.623,8.235
	c0.829,10.042-2.753,30.331-1.202,40.288c0.286,1.841,2.969,5.234,2.478,7.032c-0.445,1.628-3.984,3.14-5.168,4.342
	C3.135,61.125,0,63.52,0,65.241"/>
<path fill="none" stroke="#D6AF14" stroke-width="1.5" d="M232.488,0c0,2.664,0.392,7.985,0.385,10.649
	c-0.024,8.944-1.492,26.802-1.488,35.746c0.001,2.292,0.816,6.909,0.388,9.161c-0.338,1.776-2.015,5.055-2.938,6.609
	c-1.388,2.331-3.942,8.113-6.609,8.601c-2.717,0.497-7.307-4.006-9.396-5.813c-2.323-2.007-7.108-6.432-7.905-9.397
	c-0.97-3.607,2.386-10.985,2.589-14.714c0.334-6.136-1.755-18.384-1.601-24.527c0.104-4.104,1.894-12.208,1.894-16.314"/>
<path fill="none" stroke="#D6AF14" stroke-width="1.5" d="M500,102.389c0,1.906-0.509,5.751-1.193,7.53
	c-0.128,0.333-0.752,0.837-0.778,1.193c-0.027,0.371,0.319,1.131,0.616,1.354c0.274,0.206,1.355-0.144,1.355,0.198"/>
<path fill="none" stroke="#D6AF14" stroke-width="1.5" d="M0,467.135c0,5.841,17.517,0.863,23.354,0.664
	c2.459-0.084,7.336-0.876,9.796-0.949c5.604-0.168,16.802,0.742,22.405,0.826c5.769,0.087,17.316,0.205,23.073-0.158
	c2.686-0.17,8.003-1.106,10.688-1.278c5.438-0.351,16.713,1.782,21.793-0.188c3.566-1.383,7.902-8.641,11.387-10.219
	c8.545-3.872,28.145-2.249,37.258-4.475c1.793-0.438,5.096-2.268,6.911-2.6c1.059-0.192,3.229,0.029,4.306-0.01
	c12.666-0.465,37.902-3.132,50.566-3.621c0.171-0.007,0.514,0.02,0.684-0.002c0.142-0.017,0.421-0.077,0.554-0.129
	c0.263-0.104,0.971-0.271,0.979-0.553c0.009-0.276-0.688-0.467-0.923-0.609c-0.149-0.092-0.438-0.319-0.61-0.349
	c-0.203-0.034-0.604,0.137-0.811,0.146c-12.47,0.608-37.278-4.366-49.761-4.173c-1.254,0.02-3.731,0.626-4.984,0.572
	c-1.409-0.063-4.137-0.909-5.53-1.118c-10.063-1.508-30.491-2.189-40.506-3.988c-2.422-0.435-7.092-2.09-9.52-2.502
	c-3.229-0.549-9.793-0.785-13.059-1.038c-6.843-0.53-20.533-1.531-27.375-2.063c-3.781-0.294-11.331-1.134-15.122-1.214
	c-3.941-0.088-11.816,0.646-15.757,0.578c-5.63-0.094-16.837-1.463-22.467-1.574C12.998,427.025,0,423.296,0,427.631"/>
<path fill="none" stroke="#D6AF14" stroke-width="1.5" d="M24.135,0c0,6.688,2.922,19.95,5.172,26.249
	c0.628,1.758,2.771,4.875,3.524,6.583c2.43,5.512,9.594,16.914,8.007,22.724c-1.909,6.991-17.108,13.481-22.19,18.647
	C13.465,79.472,0,89.754,0,97.146"/>
<path fill="none" stroke="#D6AF14" stroke-width="1.5" d="M242.753,0c0,5.328,0.783,15.97,0.768,21.298
	c-0.01,3.383-0.564,10.139-0.563,13.522c0.002,5.188,1.848,15.639,0.878,20.735c-0.766,4.021-4.56,11.443-6.652,14.96
	c-3.139,5.274-8.923,18.364-14.961,19.467c-6.149,1.124-16.54-9.068-21.271-13.157c-5.259-4.544-16.09-14.56-17.895-21.271
	c-1.311-4.876,2.234-15.002,3.499-19.89c0.777-3.003,3.357-8.705,4.046-11.73C191.94,18.062,193.38,6.024,193.38,0"/>
<path fill="none" stroke="#D6AF14" stroke-width="1.5" d="M331.402,0c0,0.489-0.063,1.47-0.025,1.958
	c0.225,2.923-0.975,11.606,1.958,11.563c2.994-0.044,1.229-8.901,1.653-11.866c0.061-0.414,0.244-1.237,0.244-1.655"/>
<path fill="none" stroke="#D6AF14" stroke-width="1.5" d="M500,45.051c0,1.878-3.622,4.363-4.464,6.042
	c-0.521,1.042-0.979,3.355-1.342,4.462c-0.737,2.259-2.576,6.66-3.159,8.963c-2.02,7.971-2.188,24.813-5.146,32.484
	c-1.518,3.932-8.906,9.906-9.227,14.108c-0.333,4.391,3.786,13.383,7.308,16.027c3.238,2.432,16.027-1.706,16.027,2.344"/>
<path fill="none" stroke="#D6AF14" stroke-width="1.5" d="M0,415.539c0-6.473,19.425-0.242,25.875-0.773
	c1.106-0.093,3.297-0.504,4.403-0.601c6.301-0.545,18.954-1.067,25.276-0.931c6.637,0.144,19.854,1.58,26.469,2.123
	c0.604,0.051,1.811,0.153,2.413,0.205c6.667,0.545,20.079,1,26.674,2.119c5.4,0.918,15.802,4.603,21.192,5.567
	c3.612,0.646,10.979,0.895,14.607,1.438c4.982,0.746,14.721,3.779,19.755,3.994c4.477,0.19,13.326-1.977,17.806-2.046
	c5.461-0.084,16.316,2.088,21.771,1.826c4.055-0.194,11.977-3.586,15.979-2.898c3.409,0.585,9.064,5.057,12.011,6.867
	c4.642,2.855,18.376,6.565,18.187,12.013c-0.194,5.537-14.143,8.88-19.307,10.891c-2.604,1.015-8.113,2.216-10.891,2.539
	c-3.343,0.389-10.1-0.092-13.463,0.033c-6.691,0.248-20.024,1.668-26.716,1.914c-3.842,0.142-11.596-0.658-15.377,0.031
	c-6.486,1.188-18.283,7.715-24.688,9.278c-1.35,0.33-4.252,0.089-5.518,0.662c-7.756,3.516-17.41,19.672-25.351,22.751
	c-1.723,0.668-5.545,0.152-7.391,0.063c-9.269-0.443-27.647-3.406-36.916-3.857c-2.809-0.137-8.438,0.119-11.249,0.077
	c-2.901-0.044-8.712-0.146-11.6-0.43c-7.022-0.689-20.843-3.824-27.867-4.487C12.083,483.533,0,487.478,0,483.453"/>
<path fill="none" stroke="#D6AF14" stroke-width="1.5" d="M41.656,0c0,2.958,1.294,8.825,2.288,11.61
	c2.069,5.792,8.292,16.51,11.611,21.688c2.144,3.344,6.662,9.984,9.595,12.662c2.563,2.34,9.828,6.131,10.031,9.596
	c0.204,3.479-5.657,9.421-8.88,10.746c-2.499,1.027-8.268,0.06-10.746,1.134c-7.103,3.078-17.994,14.734-23.43,20.246
	c-5.373,5.447-15.713,16.892-19.688,23.43c-1.235,2.033-2.678,6.617-3.648,8.789C6.716,124.537,0,133.137,0,138.216"/>
<path fill="none" stroke="#D6AF14" stroke-width="1.5" d="M253.018,0c0,5.979,0.398,17.938,0.861,23.898
	c0.172,2.212,0.875,6.601,1.054,8.812c0.46,5.698,2.037,17.229,0.968,22.845c-1.191,6.266-7.104,17.83-10.366,23.312
	c-4.892,8.219-13.903,28.615-23.313,30.334c-1.448,0.265-3.717-2.388-5.007-3.097c-7.469-4.105-24.065-9.487-30.687-14.856
	c-6.3-5.109-13.35-20.818-19.862-25.652c-1.562-1.159-5.789-1.51-7.265-2.776c-1.584-1.361-4.493-5.209-4.122-7.264
	c0.359-1.989,4.833-3.699,6.198-5.188c1.529-1.668,4.16-5.403,5.188-7.42c3.833-7.525,9.14-23.699,11.015-31.934
	c0.615-2.703,1.277-8.242,1.277-11.014"/>
<path fill="none" stroke="#D6AF14" stroke-width="1.5" d="M350.681,0c0,3.821-1.687,11.338-2.229,15.12
	c-1.054,7.351-3.056,22.067-4.104,29.419c-0.393,2.755-0.719,8.377-1.603,11.017c-0.55,1.644-2.618,4.502-3.332,6.083
	c-1.842,4.083-1.634,16.331-6.083,16.853c-4.113,0.482-6.935-10.314-9.076-13.859c-1.343-2.222-4.416-6.558-5.042-9.077
	c-0.836-3.361,0.522-10.398,0.268-13.853c-0.448-6.022-3.566-17.797-4.032-23.818c-0.346-4.458,0.235-13.413,0.235-17.885"/>
<path fill="none" stroke="#D6AF14" stroke-width="1.5" d="M500,146.301c0-6.027-18.302-5.831-23.854-3.489
	c-6.789,2.862-12.212,18.531-17.306,23.854c-1.771,1.851-6.67,4.2-8.02,6.378c-4.037,6.523,1.292,30.174-6.378,30.013
	c-7.892-0.166-4.672-23.259-5.262-31.13c-0.098-1.312-0.08-3.958,0.097-5.261c0.143-1.052,0.816-3.079,1.05-4.115
	c1.182-5.252,0.891-16.827,4.115-21.137c3.366-4.5,18.125-5.034,19.958-10.346c1.789-5.183-9.515-14.49-9.101-19.958
	c0.609-8.049,14.77-19.493,17.673-27.024c0.163-0.423,0.173-1.352,0.283-1.791c1.738-6.872,7.226-20.002,9.424-26.74
	c1.078-3.304,2.448-10.205,4.004-13.313C489.195,37.233,500,29.819,500,24.217"/>
<polyline fill="none" stroke="#D6AF14" stroke-width="1.5" points="1.598,500 0.222,499.778 0,499.772 "/>
<path fill="none" stroke="#D6AF14" stroke-width="1.5" d="M0,403.445c0-3.534,10.61-0.131,14.135-0.422
	c7.942-0.657,23.646-3.617,31.586-4.301c2.452-0.211,7.375-0.416,9.835-0.361c2.582,0.057,7.724,0.613,10.298,0.826
	c8.063,0.662,24.18,2.059,32.24,2.719c3.254,0.267,9.799,0.488,13.018,1.035c4.857,0.824,14.354,3.549,19.062,5.008
	c3.255,1.009,9.549,3.688,12.832,4.603c5.813,1.621,17.632,4.529,23.662,4.786c6.416,0.273,19.269-1.454,25.518-2.932
	c1.845-0.438,5.294-2.107,7.124-2.604c5.619-1.522,17.176-5.143,22.914-4.157c6.646,1.143,17.669,9.854,23.412,13.39
	c6.563,4.037,19.259,12.785,25.719,16.984c1.6,1.04,4.57,3.672,6.425,4.113c0.627,0.15,1.925-0.216,2.568-0.257
	c12.242-0.784,36.815-0.481,49.052-1.367c0.987-0.071,3.013-0.822,3.937-0.461c0.727,0.284,1.507,1.789,2.027,2.368
	c0.466,0.519,1.802,1.341,1.914,2.028c0.12,0.73-0.669,2.229-1.248,2.692c-0.538,0.435-2.013,0.49-2.693,0.594
	c-0.887,0.132-2.675,0.26-3.569,0.281c-12.417,0.331-37.256-1.712-49.669-1.253c-0.582,0.021-1.751,0.091-2.316,0.23
	c-1.118,0.274-3.235,1.229-4.273,1.729c-7.772,3.743-22.015,13.823-30.053,16.953c-5.078,1.979-15.815,4.319-21.229,4.949
	c-6.517,0.758-19.686-0.175-26.242,0.063c-0.718,0.026-2.146,0.181-2.864,0.205c-6.608,0.241-19.944-1.132-26.448,0.06
	c-5.547,1.014-16.328,4.954-21.114,7.935C139.007,482.96,123.076,500,123.076,500"/>
<path fill="none" stroke="#D6AF14" stroke-width="1.5" d="M61.323,0c0,8.645,16.107,20.326,21.396,27.165
	c0.134,0.173,0.384,0.535,0.529,0.698c0.896,1.006,2.922,2.792,3.895,3.726c6,5.758,15.654,22.857,23.968,23.068
	c2.273,0.058,5.136-4.491,6.865-5.967c5.647-4.817,17.75-13.586,22.768-19.057c2.543-2.773,6.412-9.29,8.625-12.333
	c3.185-4.384,13.054-11.882,13.054-17.3"/>
<path fill="none" stroke="#D6AF14" stroke-width="1.5" d="M263.283,0c0,3.5,0.232,10.501,0.504,13.99
	c0.609,7.862,3.108,23.459,3.743,31.319c0.207,2.556,0.913,7.728,0.435,10.247c-0.904,4.75-6.135,13.153-7.857,17.67
	c-1.432,3.756-3.115,11.711-4.902,15.312c-3.065,6.175-12.072,16.8-15.84,22.574c-1.705,2.614-5.46,7.725-6.464,10.68
	c-3.109,9.161-2.248,29-4.266,38.462c-0.351,1.646-1.956,4.732-2.054,6.414c-0.081,1.379,1.102,4.042,1.063,5.423
	c-0.154,5.481,0.023,20.62-5.424,21.253c-4.909,0.571-7.093-13.03-9.153-17.522c-1.026-2.239-2.66-6.896-3.643-9.154
	c-2.683-6.165-9.038-18.054-11.51-24.306c-0.508-1.283-1.014-4.052-1.688-5.256c-4.187-7.478-15.559-20.768-22.353-25.993
	c-1.069-0.823-3.811-1.502-4.857-2.352c-0.746-0.604-1.582-2.465-2.353-3.037c-1.875-1.392-6.394-3.176-8.723-3.333
	c-9.523-0.642-27.736,7.27-37.171,8.723c-2.227,0.343-6.74,0.844-8.985,0.676c-0.174-0.013-0.504-0.137-0.677-0.154
	c-0.133-0.014-0.402,0.04-0.532,0.011c-0.292-0.065-0.821-0.372-1.074-0.532c-8.12-5.128-20.945-21.113-30.172-23.777
	c-5.743-1.658-18.292,0.134-23.776,2.51c-3.459,1.499-8.762,7.175-11.409,9.858c-2.616,2.652-7.65,8.226-9.586,11.409
	c-3.434,5.648-7.441,18.385-10.141,24.42c-1.461,3.268-4.681,9.667-6.195,12.911c-2.12,4.535-6.139,13.706-8.292,18.225
	c-0.796,1.672-2.006,5.308-3.303,6.63c-1.311,1.336-6.63,1.601-6.63,3.471"/>
<path fill="none" stroke="#D6AF14" stroke-width="1.5" d="M366.129,0c0,6.745-2.934,20.022-3.934,26.692
	c-0.071,0.471-0.219,1.412-0.288,1.883c-1.007,6.741-1.76,20.517-3.922,26.98c-1.439,4.306-6.857,11.789-8.727,15.928
	c-4.054,8.985-9.768,27.917-13.387,37.086c-0.254,0.644-0.938,1.868-1.093,2.542c-0.078,0.337,0.035,1.052-0.064,1.383
	c-0.193,0.638-0.718,2.27-1.385,2.284c-0.66,0.015-1.03-1.703-1.468-2.2c-0.368-0.419-1.318-1.043-1.683-1.467
	c-1.644-1.918-4.025-6.418-5.394-8.542c-3.757-5.843-11.633-17.3-15.227-23.247c-3.515-5.817-11.561-17.171-13.202-23.767
	c-1.145-4.598-0.148-14.24,0.364-18.95c0.406-3.727,2.556-10.976,2.951-14.704c0.578-5.445,0.29-16.425,0.29-21.901"/>
<path fill="none" stroke="#D6AF14" stroke-width="1.5" d="M386.477,277.777c0,0.461,0.447,1.322,0.709,1.703
	c0.333,0.48,1.146,1.427,1.703,1.608c0.707,0.233,2.222-0.235,2.956-0.354c3.66-0.592,13.464,0.593,14.533-2.957
	c0.892-2.961-5.691-8.233-8.74-8.75c-2.396-0.404-6.901,2.656-8.749,4.236c-0.615,0.526-1.496,1.936-1.851,2.663
	C386.828,276.363,386.477,277.295,386.477,277.777"/>
<path fill="none" stroke="#D6AF14" stroke-width="1.5" d="M500,163.12c0-1.05-3.188-1.016-4.155-0.608
	c-1.183,0.499-2.126,3.229-3.015,4.155c-5.951,6.221-22.421,14.114-26.951,21.435c-2.167,3.501-2.124,12.202-3.424,16.109
	c-1.563,4.707-6.858,13.271-8.314,18.012c-0.618,2.016-0.889,6.271-1.373,8.324c-1.617,6.865-1.479,25.262-8.322,26.958
	c-6.055,1.501-15.867-11.658-17.646-17.636c-1.286-4.321,3.184-13.169,3.709-17.646c0.396-3.371,0.604-10.187,0.363-13.573
	c-0.433-6.146-3.646-18.158-4.105-24.303c-0.33-4.408-0.268-13.299,0.322-17.68c0.478-3.536,2.746-10.348,3.527-13.829
	c1.936-8.608,4.903-26.012,6.743-34.641c0.379-1.778,1.406-5.282,1.643-7.085c0.17-1.309-0.41-4.091,0.166-5.278
	c0.752-1.55,4.091-3.183,5.277-4.431c5.639-5.928,15.886-18.879,19.763-26.084c2.481-4.613,5.34-14.782,6.965-19.762
	c1.795-5.5,4.074-16.989,6.665-22.163C482.011,25.053,500,12.709,500,3.382"/>
<path fill="none" stroke="#D6AF14" stroke-width="1.5" d="M381.576,0c0,2.167-0.94,6.432-1.264,8.574
	c-1.251,8.33-3.857,24.975-5.102,33.306c-0.511,3.417-0.892,10.399-1.987,13.676c-2.331,6.968-11.099,19.076-14.12,25.773
	c-0.686,1.521-1.651,4.723-2.265,6.274c-2.351,5.949-8.665,17.275-10.104,23.508c-0.721,3.12,0.323,9.731-0.609,12.794
	c-1.803,5.906-6.621,20.991-12.795,21.125c-6.112,0.133-9.535-15.754-13.57-20.348c-3.405-3.877-12.192-9.652-15.549-13.571
	c-3.116-3.639-7.833-12.057-10.23-16.205c-4.348-7.521-7.55-31.501-16.205-30.741c-9.298,0.817-7.234,27.199-11.387,35.559
	c-1.547,3.115-6.089,8.475-7.989,11.387c-3.599,5.516-11.523,16.301-13.642,22.538c-0.953,2.807-0.688,8.888-1.307,11.787
	c-1.163,5.451-6.477,15.667-6.801,21.23c-0.266,4.565,3.649,13.381,3.521,17.952c-0.191,6.805-7.95,19.687-6.732,26.384
	c0.611,3.365,8.187,7.817,7.83,11.219c-0.351,3.351-6.767,7.821-9.835,9.215c-2.107,0.958-6.913,1.17-9.215,0.924
	c-2-0.214-5.852-1.591-7.657-2.481c-3.027-1.493-8.931-5.089-11.121-7.658c-4.476-5.251-9.246-18.534-11.854-24.921
	c-0.871-2.133-2.199-6.552-3-8.712c-2.051-5.53-6.369-16.514-8.724-21.922c-0.988-2.272-2.867-6.895-4.241-8.957
	c-1.855-2.785-6.313-7.895-8.957-9.946c-5.364-4.162-17.413-11.218-24.063-12.59c-1.697-0.35-5.184,0.648-6.912,0.52
	c-6.286-0.47-18.311-4.965-24.581-5.606c-4.818-0.493-14.643,1.451-19.37,0.395c-9.078-2.029-24.218-14.703-33.341-16.525
	c-0.698-0.14-2.271-0.234-2.845,0.188c-8.18,6.002-10.758,28.477-14.697,37.826c-1.566,3.72-4.951,11.053-6.688,14.697
	c-2.74,5.751-6.903,18.259-11.362,22.809C18.304,194.072,0,194.98,0,201.417"/>
<path fill="none" stroke="#D6AF14" stroke-width="1.5" d="M139.725,500c0,0,9.847-10.531,13.893-13.05
	c2.959-1.843,9.62-4.278,13.05-4.905c4.425-0.81,13.498-0.185,17.994-0.039c5.252,0.17,15.72,1.236,20.973,1.405
	c4.146,0.134,12.469,0.438,16.589-0.042c5.53-0.646,16.165-4.344,21.688-5.056c2.94-0.381,8.956,0.28,11.858-0.323
	c5.811-1.212,16.248-7.479,22.01-8.896c5.47-1.348,16.79-2.021,22.418-2.229c2.612-0.099,7.842,0.334,10.456,0.264
	c5.687-0.153,17.055-0.96,22.683-1.797c4.335-0.646,13.705-1.017,17.122-3.761c3.68-2.954,8.693-12.468,7.938-17.124
	c-0.711-4.375-9.203-9.599-12.166-12.895c-3.313-3.685-8.279-13.247-12.895-15.052c-5.863-2.294-18.732,2.477-25.014,2.932
	c-1.419,0.104-4.269,0.068-5.688,0.158c-6.232,0.396-18.781,3.938-24.854,2.481c-5.84-1.398-15.064-9.89-20.229-12.952
	c-8.183-4.854-25.072-13.631-33.372-18.277c-0.491-0.273-1.398-1.021-1.953-1.117c-0.256-0.043-0.771,0.117-1.021,0.188
	c-10.066,2.74-29.042,11.916-39.194,14.316c-3.756,0.891-11.483,1.928-15.34,1.764c-3.625-0.154-10.73-1.902-14.226-2.877
	c-10.146-2.829-30.313-9.367-39.658-14.227c-0.267-0.139-0.705-0.572-0.98-0.689c-0.162-0.069-0.519-0.1-0.69-0.139
	c-0.284-0.065-0.845-0.246-1.132-0.303c-11.754-2.264-35.937-2.794-47.533-5.76c-1.797-0.46-5.047-2.96-6.891-2.754
	c-1.723,0.191-4.111,3.265-5.711,3.934c-7.015,2.934-22.368,4.483-29.871,5.711c-4.377,0.717-13.16,2.028-17.58,2.396
	c-0.6,0.048-2.396-0.528-2.396,0.069"/>
<path fill="none" stroke="#D6AF14" stroke-width="1.5" d="M89.215,0c0,3.898,7.031,9.359,9.646,12.249
	c2.854,3.15,8,11.681,12.249,11.789c4.259,0.108,9.954-8.063,12.86-11.176c2.748-2.945,9.705-8.833,9.705-12.861"/>
<path fill="none" stroke="#D6AF14" stroke-width="1.5" d="M273.548,0c0,1.021,0.068,3.064,0.146,4.082
	c0.665,8.573-4.51,33.811,4.082,34.151c8.113,0.321,5.535-23.769,6.392-31.842c0.168-1.589,0.085-4.793,0.085-6.391"/>
<path fill="none" stroke="#D6AF14" stroke-width="1.5" d="M480.573,0c0,6.576-11.656,16.225-13.631,22.498
	c-0.851,2.7-0.236,8.514-0.739,11.299c-1.01,5.59-4.781,16.358-6.544,21.759c-0.925,2.835-2.552,8.624-3.965,11.25
	c-2.207,4.102-8.039,11.474-11.249,14.849c-3.604,3.788-13.73,8.742-16.015,13.444c-1.749,3.603,0.016,12.042-0.503,16.013
	c-0.713,5.47-3.831,16.101-4.979,21.496c-0.559,2.62-1.46,7.902-2.047,10.516c-1.332,5.926-5.195,17.523-6.008,23.543
	c-0.854,6.329,0.26,19.195-0.466,25.54c-0.165,1.443-1.036,4.241-1.207,5.683c-0.717,6.043,0.059,18.289-0.651,24.333
	c-0.583,4.964-1.035,15.629-4.113,19.567c-3.347,4.282-15.437,5.942-19.565,9.476c-3.62,3.094-8.787,11.362-10.862,15.649
	c-1.238,2.555-3.448,8.026-3.309,10.862c0.134,2.707,2.628,7.773,4.167,10.005c1.955,2.833,6.734,8.382,10.004,9.46
	c4.152,1.369,13.051-1.397,17.367-2.096c6.583-1.065,19.564-4.189,26.137-5.316c2.998-0.516,9.386-0.223,12.053-1.688
	c1.61-0.886,3.57-4.201,4.766-5.6c1.021-1.191,3.395-3.357,4.09-4.768c1.271-2.571,1.651-8.45,2.373-11.229
	c1.661-6.404,6.291-18.85,7.81-25.291c1.104-4.695,1.723-14.426,3.14-19.037c1.847-6.011,6.781-17.797,10.543-22.836
	c4.546-6.09,22.837-12.463,22.837-20.063"/>
<path fill="none" stroke="#D6AF14" stroke-width="1.5" d="M0,224.319c0,0.549,1.646,0.091,2.194,0.099
	c13.02,0.182,39.058-1.133,52.075-0.911c0.322,0.005,0.982,0.174,1.285,0.066c0.225-0.081,0.578-0.443,0.706-0.644
	c0.1-0.156,0.16-0.532,0.222-0.707c0.141-0.394,0.542-1.141,0.623-1.551c2.526-12.745-6.308-40.894,0.484-51.969
	c0.576-0.939,2.94-1.513,3.911-2.036c8.023-4.325,23.045-15.38,31.844-17.765c4.288-1.162,13.346-0.814,17.766-0.362
	c3.766,0.385,11.307,1.82,14.761,3.367c5.813,2.604,15.494,11.195,20.772,14.76c3.003,2.027,10.19,4.807,12.201,7.821
	c6.193,9.279,5.017,33.135,7.82,43.933c0.188,0.724,0.691,2.136,0.975,2.829c0.103,0.25,0.288,0.768,0.463,0.974
	c6.31,7.405,23.325,17.766,32.05,22.068c5.201,2.565,16.303,6.534,22.068,7.15c6.635,0.711,20.481,0.098,26.557-2.664
	c8.842-4.016,27.333-16.899,28.345-26.556c0.068-0.659-1.109-1.649-1.517-2.171c-5.58-7.158-19.809-19.267-23.79-27.423
	c-2.9-5.943-5.475-19.359-5.091-25.961c0.358-6.164,4.74-18.013,7.532-23.52c4.355-8.593,17.329-23.146,22.656-31.172
	c0.14-0.21,0.385-0.652,0.521-0.863c0.034-0.051,0.113-0.146,0.142-0.201c0.072-0.147,0.036-0.611,0.199-0.625
	c0.152-0.014,0.208,0.409,0.285,0.541c0.042,0.073,0.125,0.221,0.181,0.285c6.346,7.417,22.975,18.341,29.415,25.675
	c2.504,2.851,6.252,9.514,8.422,12.627c3.051,4.376,10.87,12.191,12.556,17.253c0.365,1.1-0.729,3.789,0.063,4.635
	c0.794,0.85,3.481,0.229,4.635,0.378c1.539,0.201,4.653,1.631,6.11,1.097c1.86-0.682,4.235-4.303,5.05-6.11
	c1.374-3.052,0.922-10.085,2.068-13.229c1.814-4.976,9.43-13.056,10.976-18.122c1.769-5.794-0.207-18.302,1.155-24.204
	c1.292-5.6,6.453-16.006,9.076-21.12c4.464-8.698,15.305-25.023,20.181-33.497c0.134-0.232,0.429-0.686,0.516-0.939
	c0.029-0.089,0.04-0.278,0.054-0.371c0.089-0.606,0.124-1.86,0.371-2.421c3.78-8.585,19.773-20.637,23.527-29.235
	c2.38-5.449,3.454-17.583,3.454-23.529"/>
<path fill="none" stroke="#D6AF14" stroke-width="1.5" d="M392.25,500l-0.163-3.198c0,0-1.05-13.972-3.198-18.006
	c-2.855-5.36-16.367-10.896-17.482-16.869c-0.884-4.732,8.875-12.729,8.103-17.48c-1.312-8.063-16.957-17.687-22.417-23.759
	c-6.104-6.789-15.255-24.406-23.757-27.732c-1.079-0.422-3.458,0.363-4.604,0.539c-9.813,1.492-29.197,5.916-39.021,7.324
	c-2.967,0.428-9.016,1.89-11.931,1.19c-2.31-0.553-5.957-3.909-7.999-5.12c-3.58-2.123-11.406-5.334-14.604-8
	c-4.499-3.748-9.585-15.469-14.78-18.17c-4.041-2.103-13.638-1.736-18.171-1.297c-3.947,0.385-11.735,2.438-15.31,4.156
	c-5.849,2.811-15.232,12.254-20.955,15.311c-3.317,1.771-10.471,4.297-14.129,5.162c-1.265,0.299-3.864,0.647-5.162,0.592
	c-1.219-0.053-3.61-0.639-4.786-0.967c-3.414-0.953-10.2-3.152-13.345-4.787c-5.957-3.096-15.781-12.822-21.95-15.475
	c-3.625-1.559-11.631-2.201-15.475-3.098c-6.385-1.49-18.901-5.523-25.34-6.769c-1.076-0.208-3.289-0.256-4.35-0.526
	c-6.747-1.728-18.946-11.112-25.866-10.338c-6.468,0.724-15.432,12.258-21.437,14.77c-3.684,1.54-11.838,1.918-15.682,2.997
	C13.699,371.781,0,372.447,0,377.37"/>
<path fill="none" stroke="#D6AF14" stroke-width="1.5" d="M376.645,500c0,0-14.096-19.69-21.434-21.878
	c-5.366-1.6-16.34,3.979-21.879,4.805c-3.924,0.584-11.89,0.704-15.818,1.254c-7.566,1.062-22.404,4.908-29.959,6.043
	c-2.429,0.365-7.392,0.387-9.776,0.975c-1.642,0.402-4.614,2.188-6.27,2.534c-10.827,2.26-33.253-0.207-44.223,1.204
	c-1.289,0.166-5.063,1.183-5.063,1.183l-3.873,0.01c0,0-33.586-2.639-44.808-3.001c-1.718-0.056-5.186-0.295-6.875,0.015
	c-1.311,0.239-3.855,1.171-4.985,1.874c-1.545,0.963-5.307,4.985-5.307,4.985"/>
<path fill="none" stroke="#D6AF14" stroke-width="1.5" d="M500,195.363c0,4.758-11.453,8.749-14.3,12.562
	c-2.354,3.155-5.444,10.534-6.602,14.298c-1.861,6.062-3.415,18.726-4.127,25.026c-0.146,1.29-0.146,3.897-0.319,5.183
	c-0.872,6.418-2.491,19.539-5.357,25.346c-1.951,3.951-8.612,10.027-11.476,13.379c-3.353,3.922-8.854,13.229-13.376,15.715
	c-5.138,2.82-17.385,2.678-23.218,3.248c-2.406,0.234-7.251,0.324-9.661,0.538c-5.688,0.501-17.254,4.524-22.678,2.735
	c-5.98-1.974-14.729-12.127-18.306-17.311c-2.814-4.08-7.38-13.354-7.626-18.305c-0.257-5.188,3.788-15.203,6.054-19.877
	c3.8-7.843,13.255-22.975,19.878-28.64c1.001-0.855,3.933-1.259,4.743-2.297c0.746-0.955,0.854-3.54,0.996-4.744
	c0.173-1.465-0.016-4.434,0.158-5.899c1.086-9.16,6.62-26.927,7.667-36.091c0.386-3.37-0.207-10.204,0.247-13.566
	c0.641-4.741,3.473-13.928,4.73-18.543c0.98-3.593,3.222-10.702,4.162-14.306c1.472-5.638,4.508-16.928,5.261-22.706
	c0.864-6.634-2.081-20.73,0.842-26.749c3.813-7.855,20.729-16.13,26.747-22.457c0.781-0.821,2.2-2.615,2.737-3.613
	c0.344-0.639,0.739-2.047,0.965-2.737c0.43-1.314,1.347-3.935,1.592-5.295c1.88-10.405-0.412-32.119,2.763-42.205
	c0.707-2.246,4.88-5.701,4.88-8.056"/>
<path fill="none" stroke="#D6AF14" stroke-width="1.5" d="M0,237.769c0,4.074,12.207,0.679,16.28,0.735
	c5.852,0.081,17.553-0.509,23.402-0.41c3.973,0.067,12.132,2.156,15.872,0.817c2.78-0.996,7.144-5.468,8.731-7.957
	c1.23-1.929,1.972-6.577,2.74-8.731c1.735-4.861,6.687-14.098,7.688-19.162c0.829-4.188-2.072-13.434,0.159-17.073
	c5.195-8.472,26.864-13.041,35.266-18.352c0.257-0.163,0.665-0.739,0.97-0.735c0.364,0.004,0.846,0.696,1.143,0.908
	c7.839,5.611,27.111,12.79,32.464,20.808c1.999,2.995,1.438,10.748,2.524,14.181c1.614,5.108,7.56,14.28,9.056,19.425
	c0.646,2.22,0.615,6.934,1.197,9.173c1.56,6.001,5.104,18.363,9.172,23.042c2.807,3.229,10.814,7.101,14.864,8.478
	c7.158,2.435,22.588,2.44,29.956,4.13c2.75,0.63,7.931,3.18,10.734,3.479c2.015,0.217,6.085-1.239,8.065-0.811
	c3.906,0.852,11.385,4.889,13.813,8.064c4.172,5.457,5.833,19.787,7.148,26.529c0.137,0.702,0.229,2.141,0.349,2.846
	c1.105,6.603,7.598,19.798,5.588,26.183c-1.856,5.897-12.261,14.812-18.092,16.871c-3.987,1.409-12.663-1.612-16.872-1.203
	c-5.546,0.539-15.989,5.08-21.509,5.84c-3.08,0.425-9.435-0.713-12.434,0.105c-6.021,1.644-15.376,12.288-21.613,12.501
	c-6.369,0.217-16.593-10.213-22.884-11.23c-2.146-0.349-6.442,1.239-8.615,1.172c-6.13-0.19-18.083-3.424-24.057-4.815
	c-3.826-0.894-11.521-2.636-15.186-4.056c-7.681-2.979-21.884-11.485-29.246-15.185c-1.86-0.935-5.616-2.729-7.49-3.635
	c-0.908-0.438-2.626-1.747-3.634-1.742c-1.004,0.005-2.821,1.146-3.604,1.771c-0.905,0.726-2.083,2.793-2.909,3.605
	c-6.228,6.126-19.922,17.229-27.541,21.5c-5.008,2.809-21.5,2.327-21.5,8.068"/>
<path fill="none" stroke="#D6AF14" stroke-width="1.5" d="M404.509,500c0,0-0.339-11.165-0.761-14.86
	c-0.902-7.925-4.621-23.496-5.579-31.415c-0.279-2.309,0.126-7.07-0.604-9.278c-0.493-1.489-2.49-3.996-3.407-5.271
	c-1.231-1.709-3.885-4.989-5.27-6.578c-5.076-5.829-16.066-16.725-21.249-22.459c-4.704-5.207-15.316-14.914-18.332-21.25
	c-1.479-3.106-0.003-11.103-2.421-13.553c-2.423-2.457-10.223-1.715-13.555-2.613c-6.354-1.711-18.266-8.686-24.846-8.68
	c-2.396,0.002-7.166,4.67-9.046,3.182c-2.178-1.724,1.729-8.326,1.179-11.049c-1.297-6.4-11.437-16.429-12.668-22.842
	c-0.555-2.887,1.217-8.736,1.488-11.663c0.706-7.594,0.991-22.866,1.778-30.452c0.351-3.38,1.742-10.055,2.012-13.441
	c0.311-3.893-0.167-11.725,0.163-15.613c0.448-5.291,2.912-15.68,3.354-20.972c0.394-4.726,0.09-14.226,0.146-18.968
	c0.059-4.857,3.86-16.11,0.313-19.426c-3.562-3.327-14.912,3.467-19.428,1.631c-6.198-2.521-14.604-14.206-17.54-20.22
	c-1.96-4.016-3.698-13.079-3.438-17.541c0.243-4.165,3.203-12.17,5.089-15.891c3.055-6.027,9.171-21.154,15.891-21.864
	c6.646-0.702,15.412,12.904,19.89,17.866c4.118,4.566,12.53,14.054,14.473,19.889c1.65,4.96-3.284,17.09,0.284,20.91
	c3.581,3.832,15.709,1.027,20.91,1.705c6.942,0.904,20.99,7.36,27.564,4.951c8.396-3.076,19.111-19.413,22.781-27.565
	c0.469-1.039,0.86-3.375,0.704-4.503c-1.206-8.692-12.98-23.282-14.65-31.897c-0.913-4.707-0.164-14.483,0.914-19.155
	c0.78-3.383,3.897-9.669,5.482-12.758c2.821-5.499,6.634-20.342,12.758-21.177c5.946-0.811,15.155,10.945,17.441,16.493
	c1.663,4.034,0.017,13.116-0.548,17.443c-0.455,3.491-2.289,10.311-3.179,13.717c-2.608,9.992-8.821,29.701-11.542,39.664
	c-0.147,0.541-0.479,1.619-0.555,2.175c-0.054,0.395,0.017,1.196-0.029,1.591c-0.218,1.902-0.532,5.896-1.591,7.491
	c-4.611,6.955-18.782,13.033-20.972,21.085c-1.979,7.268,6.479,17.863,6.166,25.389c-0.311,7.472-12.446,18.924-14.691,26.058
	c-0.287,0.913-0.184,2.871-0.369,3.809c-1.308,6.584-8.154,18.983-7.821,25.688c0.356,7.194,6.992,20.675,11.084,26.604
	c5.199,7.534,17.912,22.289,26.604,25.158c1.031,0.342,3.229-0.426,4.313-0.521c11.089-0.976,33.376-1.396,44.454-2.478
	c1.706-0.166,5.288-0.125,6.79-0.95c7.434-4.082,16.479-19.383,21.985-25.828c4.705-5.506,15.655-15.494,18.861-21.986
	c1.374-2.781,2.148-9.066,2.565-12.143c1.123-8.271,1.121-25.037,2.061-33.333c0.287-2.539,0.912-7.64,1.662-10.082
	c0.466-1.516,1.71-4.489,2.658-5.76c1.146-1.536,5.762-3.144,5.762-5.061"/>
<path fill="none" stroke="#D6AF14" stroke-width="1.5" d="M0,251.219c0,6.359,19.071,0.646,25.412,1.146
	c1.338,0.105,3.999,0.496,5.337,0.605c6.188,0.51,18.96,3.368,24.807,1.275c5.336-1.91,13.707-10.492,16.756-15.27
	c2.362-3.701,3.786-12.621,5.263-16.756c2.168-6.072,5.692-18.809,9.604-23.935c4.556-5.971,16.425-18.24,23.935-18.154
	c7.488,0.085,18.811,12.761,23.446,18.642c4.004,5.079,9.125,17.236,10.931,23.447c1.319,4.536,1.257,14.163,2.444,18.734
	c2.034,7.826,9.622,22.312,11.962,30.05c0.501,1.656,1.6,5.049,1.433,6.771c-0.243,2.51-3.501,6.8-3.94,9.281
	c-1.7,9.611,7.912,31.228,2.003,38.996c-5.063,6.659-24.43,5.805-32.665,7.278c-3.413,0.61-10.276,1.979-13.742,1.87
	c-0.477-0.016-1.405-0.268-1.87-0.374c-0.298-0.069-0.896-0.206-1.182-0.316c-0.597-0.229-1.702-0.893-2.273-1.18
	c-8.714-4.371-26.3-12.787-35.079-17.021c-4.25-2.051-12.303-8.18-17.021-8.156c-4.703,0.021-13.211,5.356-16.885,8.294
	c-4.237,3.386-9.759,13.081-13.625,16.885c-3.18,3.129-10.174,8.798-14.065,10.979C8.423,345.747,0,345.503,0,348.436"/>
<path fill="none" stroke="#D6AF14" stroke-width="1.5" d="M266.869,166.667c0,2.323,0.769,7.032,1.787,9.12
	c1.526,3.126,5.897,9.202,9.12,10.513c4.209,1.711,15.06,1.845,18.112-1.521c3.042-3.354,1.185-13.815-0.246-18.112
	c-1.01-3.033-5.383-7.967-7.524-10.341c-2.328-2.581-6.886-9.654-10.342-9.289c-3.493,0.369-6.673,8.234-8.262,11.368
	C268.535,160.339,266.869,164.498,266.869,166.667"/>
<path fill="none" stroke="#D6AF14" stroke-width="1.5" d="M310.463,333.334c0,4.206,4.942,12.001,8.158,14.711
	c2.979,2.51,10.949,4.125,14.711,5.139c6.046,1.631,19.253,8.012,24.592,4.741c5.456-3.343,8.848-18.437,7.098-24.591
	c-1.535-5.395-13.979-10.113-16.636-15.054c-3.598-6.69-2.535-22.72-4.584-30.034c-0.766-2.73-4.222-7.637-4.36-10.469
	c-0.114-2.293,2.228-6.53,2.674-8.781c1.694-8.534,0.741-26.34,3.354-34.639c1.046-3.322,6.697-8.655,6.842-12.135
	c0.148-3.574-3.145-10.814-5.973-13.004c-2.611-2.021-9.729-1.909-13.004-2.336c-4.154-0.541-13.6-4.176-16.702-1.361
	c-3.094,2.806-0.219,12.526-0.269,16.702c-0.051,4.275-0.417,12.836-0.133,17.102c0.418,6.27,3.125,18.616,3.534,24.887
	c0.222,3.386,0.128,10.187-0.143,13.565c-0.323,4.063-1.678,12.113-2.412,16.123c-0.884,4.82-3.328,14.324-4.159,19.152
	C312.185,318.09,310.463,328.223,310.463,333.334"/>
<path fill="none" stroke="#D6AF14" stroke-width="1.5" d="M416.768,500c0,0-0.604-19.926-1.355-26.522
	c-0.087-0.77-0.448-2.282-0.542-3.053c-0.78-6.462,0.354-19.801-1.69-25.979c-1.379-4.169-6.972-11.188-9.54-14.749
	c-3.449-4.785-10.875-13.971-14.749-18.42c-2.601-2.983-8.229-8.564-10.885-11.504c-2.409-2.666-7.847-7.64-9.392-10.885
	c-2.693-5.66-7.688-19.341-4.408-24.684c3.372-5.494,19.034-4.35,24.685-7.453c3.64-1.998,8.729-9.286,12.579-10.84
	c7.476-3.018,24.281-0.255,32.191-1.795c2.796-0.545,7.949-3.4,10.784-3.678c2.062-0.201,6.563,2.357,8.209,1.104
	c1.646-1.256,0.266-6.316,1.108-8.209c3.344-7.486,15.938-18.736,21.269-24.971c6.229-7.283,24.971-19.506,24.971-29.09"/>
<path fill="none" stroke="#D6AF14" stroke-width="1.5" d="M382.602,111.111c0,1.652-0.629,4.979-0.313,6.601
	c0.752,3.881,2.659,14.662,6.603,14.371c4.219-0.312,3.658-12.153,4.728-16.245c0.308-1.174,0.938-3.524,1.097-4.727
	c0.193-1.491,0.762-4.622,0.188-6.012c-0.789-1.912-3.961-5.963-6.012-5.684c-2.11,0.288-3.425,5.403-4.396,7.298
	C383.945,107.779,382.602,109.915,382.602,111.111"/>
<path fill="none" stroke="#D6AF14" stroke-width="1.5" d="M500,377.747c0,2.416-8.064-0.31-9.529,1.612
	c-1.453,1.904,1.041,7.137,0.952,9.529c-0.099,2.639-1.724,7.764-1.828,10.402c-0.385,9.625,4.767,28.796,3.612,38.359
	c-0.215,1.782-2.63,5.016-2.354,6.792c0.25,1.613,2.555,4.323,3.91,5.234c1.123,0.754,5.236,0.006,5.236,1.358"/>
<path fill="none" stroke="#D6AF14" stroke-width="1.5" d="M0,264.668c0,3.139,9.415,0.318,12.544,0.566
	c8.622,0.684,25.755,3.195,34.375,3.906c2.155,0.178,6.601,1.174,8.637,0.443c7.892-2.825,20.271-15.518,24.78-22.583
	c3.493-5.474,5.598-18.666,7.781-24.781c1.485-4.163,3.902-12.895,6.584-16.409c3.124-4.094,11.261-12.505,16.409-12.446
	c5.135,0.059,12.896,8.749,16.074,12.781c2.745,3.482,6.256,11.817,7.494,16.075c1.908,6.562,3.354,20.273,3.536,27.105
	c0.01,0.365-0.134,1.091-0.11,1.456c0.455,6.883,6.372,20.128,5.706,26.993c-0.602,6.205-5.695,18.218-9.746,22.955
	c-4.395,5.143-16.2,13.955-22.954,14.319c-6.968,0.376-18.843-9.122-25.134-12.143c-2.525-1.212-7.587-3.617-10.115-4.825
	c-5.078-2.428-14.677-9.76-20.307-9.73c-5.789,0.027-15.335,8.256-20.785,10.209c-2.735,0.979-8.924,1.019-11.315,2.668
	c-6.62,4.568-13.231,20.191-18.014,26.66c-1.039,1.405-3.145,4.217-4.391,5.442c-0.133,0.131-0.428,0.368-0.591,0.46
	c-0.107,0.061-0.46,0.05-0.46,0.173"/>
<path fill="none" stroke="#D6AF14" stroke-width="1.5" d="M276.942,166.667c0,0.178,0.06,0.54,0.138,0.7
	c0.116,0.239,0.451,0.705,0.698,0.806c0.323,0.131,1.155,0.142,1.39-0.116c0.232-0.257,0.091-1.06-0.02-1.389
	c-0.078-0.233-0.413-0.61-0.577-0.792c-0.179-0.198-0.527-0.74-0.793-0.712c-0.268,0.028-0.512,0.631-0.634,0.872
	C277.069,166.181,276.942,166.5,276.942,166.667"/>
<path fill="none" stroke="#D6AF14" stroke-width="1.5" d="M332.975,333.334c0,0.064,0.078,0.188,0.128,0.23
	c0.048,0.039,0.172,0.063,0.229,0.08c0.096,0.023,0.302,0.125,0.386,0.072c0.085-0.052,0.14-0.287,0.11-0.385
	c-0.023-0.084-0.219-0.159-0.261-0.234c-0.187-0.346,0.155-1.533-0.234-1.547c-0.374-0.012-0.257,1.096-0.318,1.465
	C333.001,333.096,332.975,333.253,332.975,333.334"/>
<path fill="none" stroke="#D6AF14" stroke-width="1.5" d="M500,362.49c0,5.725-19.105-0.729-22.578,3.82
	c-3.44,4.51,2.466,16.907,2.256,22.578c-0.231,6.252-4.08,18.398-4.33,24.65c-0.068,1.73,0.857,5.184,0.649,6.9
	c-0.759,6.307-9.292,17.728-8.318,24.003c0.886,5.705,9.023,15.283,13.815,18.505c3.968,2.666,18.506,0.021,18.506,4.801"/>
<path fill="none" stroke="#D6AF14" stroke-width="1.5" d="M500,297.844c0,6.292-12.305,14.315-16.394,19.098
	c-3.498,4.094-11.769,11.479-13.963,16.395c-2.283,5.114,1.454,18.807-3,22.201c-4.452,3.396-16.627-3.527-22.2-2.98
	c-7.124,0.695-20.945,5.579-27.098,9.238c-5.072,3.02-12.958,12.074-17.363,16.001c-2.733,2.437-7.886,7.798-11.096,9.562
	c-0.271,0.146-1.02,0.092-1.181,0.354c-0.156,0.255,0.082,0.909,0.212,1.182c0.073,0.153,0.333,0.393,0.447,0.52
	c0.127,0.141,0.396,0.408,0.521,0.551c6.358,7.313,18.563,22.396,24.229,30.256c4.22,5.854,13.407,17.38,15.673,24.229
	c1.156,3.495,0.952,11.015,0.956,14.694c0.007,6.165-1.516,18.446-1.552,24.61c-0.023,4.067,0.829,16.249,0.829,16.249"/>
<path fill="none" stroke="#D6AF14" stroke-width="1.5" d="M74.972,277.777c0,6.777,18.357,8.74,24.467,11.673
	c2.921,1.401,8.438,5.813,11.673,5.639c3.138-0.17,8.619-4.263,10.66-6.649c1.881-2.2,4.247-7.778,4.526-10.662
	c0.309-3.188-2.438-9.34-2.65-12.535c-0.473-7.092,2.331-21.24,2.139-28.343c-0.102-3.698-0.882-11.122-1.914-14.675
	c-0.67-2.305-2.57-6.818-4.058-8.703c-1.721-2.183-5.924-6.888-8.703-6.919c-2.787-0.032-7.193,4.522-8.885,6.738
	c-1.452,1.903-2.76,6.63-3.563,8.884c-1.6,4.478-5.201,13.418-5.698,18.147c-0.56,5.315,4.098,16.357,2.021,21.281
	C92.49,267.573,74.972,271.352,74.972,277.777"/>
<path fill="none" stroke="#D6AF14" stroke-width="1.5" d="M500,484.46c0-5.42-15.572-5.729-20.984-5.443
	c-5.803,0.309-16.559,10.763-21.76,8.173c-9.921-4.939-3.448-32.44-8.423-42.345c-0.033-0.063-0.166-0.164-0.177-0.234
	c-0.004-0.023,0.021-0.07,0.03-0.094c4.173-9.271,12.322-26.066,15.736-35.646c1.703-4.777,3.32-14.912,3.51-19.979
	c0.199-5.361,1.596-17.498-2.134-21.355c-3.744-3.873-15.994-3.395-21.354-2.869c-4.749,0.465-13.964,3.721-18.063,6.16
	c-5.728,3.406-19.059,11.423-19.604,18.064c-0.549,6.687,12.685,15.646,16.509,21.156c5.732,8.264,15.657,25.791,21.043,34.283
	c0.019,0.028,0.063,0.082,0.074,0.114c0.003,0.009,0.003,0.026,0.003,0.038c0.239,13.068-3.292,52.188-3.292,52.188l0.17,3.33"/>
<path fill="none" stroke="#D6AF14" stroke-width="1.5" d="M500,316.414c0,3-5.866,6.824-7.815,9.104
	c-1.668,1.951-5.609,5.474-6.655,7.815c-1.722,3.854-5.294,13.797-2.262,16.731c3.051,2.949,16.732,1.41,16.732-2.832"/>
<path fill="none" stroke="#D6AF14" stroke-width="1.5" d="M109.207,222.222c0,0.727-0.796,2.053-0.872,2.776
	c-0.771,7.3-4.564,29.301,2.775,29.229c7.461-0.07,2.448-22.302,2.244-29.761c-0.016-0.565-0.135-1.701-0.293-2.245
	c-0.103-0.352-0.393-1.043-0.62-1.331c-0.263-0.334-0.905-1.054-1.331-1.059c-0.427-0.005-1.101,0.691-1.358,1.031
	C109.53,221.154,109.207,221.856,109.207,222.222"/>
<path fill="none" stroke="#D6AF14" stroke-width="1.5" d="M425.611,388.889c0,3.354,6.343,7.823,8.255,10.579
	c2.882,4.153,5.523,17.337,10.579,17.235c5.106-0.102,8.274-13.014,9.988-17.824c0.852-2.389,1.661-7.457,1.756-9.99
	c0.1-2.681,0.798-8.748-1.066-10.678c-1.871-1.938-7.996-1.697-10.678-1.436c-2.375,0.231-6.981,1.86-9.032,3.082
	C432.549,381.563,425.611,385.557,425.611,388.889"/>
</svg>
