<svg xmlns="http://www.w3.org/2000/svg">
	<symbol id="logo-tvs" viewBox="0 0 300 400">
		<path d="M34.92,92.542c0,0,31.824-44.516,44.221-45.99c8.834-1.051,22.049,22.126,30.955,21.813
			c14.06-0.494,30.15-41.445,44.222-41.445c13.267,0,29.807,33.424,44.221,33.592c6.446,0.076,17.688-21.813,26.533-17.886
			c11.906,5.286,39.798,49.917,39.798,49.917H34.92z"/>
		<path d="M147.351,248.702c0,19.758-16.017,35.776-35.777,35.776c-19.759,0-35.777-16.019-35.777-35.776
			c0-19.762,16.018-35.779,35.777-35.779C131.334,212.923,147.351,228.94,147.351,248.702z"/>
		<path d="M224.288,248.05c0,19.758-16.021,35.776-35.78,35.776c-19.758,0-35.776-16.019-35.776-35.776
			c0-19.763,16.019-35.779,35.776-35.779C208.268,212.271,224.288,228.287,224.288,248.05z"/>
		<rect x="30.048" y="237.54" width="38.757" height="22.32"/>
		<rect x="231.421" y="238.192" width="38.778" height="22.32"/>
		<path d="M79.753,312.767v58.94H60.918v-58.94H38.801v-15.238h63.28v15.238H79.753z"/>
		<path d="M139.542,371.707l-28.783-74.072h20.106l18.941,54.496l18.941-54.496h19.365l-29.101,74.072H139.542z"/>
		<path d="M261.235,305.042l-7.09,14.708c-7.83-4.55-17.671-7.725-23.703-7.725c-4.867,0-8.148,1.798-8.148,5.397
			c0,12.803,39.152,5.502,39.152,32.273c0,14.815-13.12,22.646-29.628,22.646c-12.381,0-25.079-4.655-33.862-11.852l7.302-14.498
			c7.619,6.669,19.047,11.112,26.771,11.112c5.927,0,9.63-2.222,9.63-6.455c0-13.121-39.153-5.29-39.153-31.534
			c0-13.65,11.747-22.327,29.523-22.327C242.718,296.788,253.616,300.067,261.235,305.042z"/>
		<path d="M229.075,231.196l-6.586-29.268c18.07-4.066,20.189-7.84,22.433-11.835
			c6.09-10.845,9.262-44.565,10.065-71.821H44.805c0.81,27.267,3.983,60.994,10.063,71.821c2.244,3.996,4.362,7.77,22.432,11.835
			l-6.585,29.268c-22.673-5.101-34.057-12.26-42.005-26.415c-13.722-24.438-14.164-88.896-14.113-101.569l0.06-14.94h270.474
			l0.061,14.939c0.051,12.673-0.39,77.132-14.111,101.57C263.132,218.937,251.747,226.096,229.075,231.196z"/>
    </symbol>
	<symbol id="logo-cumbre" viewBox="0 0 62 86">
		<path class="u-fill" fill="#757575" d="M9.852,1c3.016,0,5.311,1.243,6.869,3.72c0.387,1.452,0.582,2.725,0.582,3.819
			c0,0.674-0.069,2.979-0.215,6.911c0,2.01,0.364,7.113,1.098,15.291c6.825,0.248,13.475,0.367,19.959,0.367
			c3.75,0,5.628-0.152,5.628-0.476c1.021-11.114,1.971-18.955,2.851-23.521c1.511-2.517,3.752-3.77,6.726-3.77h0.734
			c2.922,0,5.119,1.213,6.576,3.661c0.248,0.493,0.367,0.936,0.367,1.329V8.86c-0.582,4.143-1.533,12.374-2.85,24.695
			c-0.344,1.664-0.881,3.039-1.607,4.14c-1.125,1.531-2.881,2.573-5.265,3.132c-0.688,0.426-4.999,0.764-12.942,1.008
			c-17.06,0-26.467-0.506-28.227-1.538c-2.289-0.668-3.995-1.766-5.116-3.293c-0.731-0.635-1.339-3.218-1.829-7.751
			c-0.536-7.434-0.8-12.037-0.8-13.803c0-0.959,0.073-3.228,0.218-6.802C2.366,7.375,2.247,6.575,2.247,6.254
			c0-2.401,1.872-4.1,5.625-5.096C8.751,1.056,9.406,1,9.852,1"/>
		<path class="u-border" fill="none" stroke="#757575" stroke-miterlimit="10" d="M9.852,1c3.016,0,5.311,1.243,6.869,3.72
			c0.387,1.452,0.582,2.725,0.582,3.819c0,0.674-0.069,2.979-0.215,6.911c0,2.01,0.364,7.113,1.098,15.291
			c6.825,0.248,13.475,0.367,19.959,0.367c3.75,0,5.628-0.152,5.628-0.476c1.021-11.114,1.971-18.955,2.851-23.521
			c1.511-2.517,3.752-3.77,6.726-3.77h0.734c2.922,0,5.119,1.213,6.576,3.661c0.248,0.493,0.367,0.936,0.367,1.329V8.86
			c-0.582,4.143-1.533,12.374-2.85,24.695c-0.344,1.664-0.881,3.039-1.607,4.14c-1.125,1.531-2.881,2.573-5.265,3.132
			c-0.688,0.426-4.999,0.764-12.942,1.008c-17.06,0-26.467-0.506-28.227-1.538c-2.289-0.668-3.995-1.766-5.116-3.293
			c-0.731-0.635-1.339-3.218-1.829-7.751c-0.536-7.434-0.8-12.037-0.8-13.803c0-0.959,0.073-3.228,0.218-6.802
			C2.366,7.375,2.247,6.575,2.247,6.254c0-2.401,1.872-4.1,5.625-5.096C8.751,1.056,9.406,1,9.852,1z"/>
		<path class="topDash-fill" fill="#757575" d="M49.255,50.387c2.969,0,5.239,1.416,6.799,4.242c0.348,0.867,0.516,1.674,0.516,2.414
			c0,2.83-1.688,4.895-5.046,6.201c-1.27,0.693-12.043,1.045-32.314,1.045c-3.026,0.131-6.706,0.416-11.044,0.846
			c-2.973,0-5.268-1.498-6.875-4.5C1.103,59.852,1,59.26,1,58.869v-0.391c0-3.264,2.073-5.424,6.22-6.461
			c4.676-0.697,15.694-1.042,33.042-1.042C42.894,50.975,45.89,50.774,49.255,50.387"/>
		<path class="topDash-border" fill="none" stroke="#757575" stroke-width="0.2" stroke-miterlimit="10" d="M49.255,50.387c2.969,0,5.239,1.416,6.799,4.242
			c0.348,0.867,0.516,1.674,0.516,2.414c0,2.83-1.688,4.895-5.046,6.201c-1.27,0.693-12.043,1.045-32.314,1.045
			c-3.026,0.131-6.706,0.416-11.044,0.846c-2.973,0-5.268-1.498-6.875-4.5C1.103,59.852,1,59.26,1,58.869v-0.391
			c0-3.264,2.073-5.424,6.22-6.461c4.676-0.697,15.694-1.042,33.042-1.042C42.894,50.975,45.89,50.774,49.255,50.387z"/>
		<path class="bottomDash" fill="#FFFFFF" stroke="#FFFFFF" stroke-width="0.2" stroke-miterlimit="10" d="M40.854,69.357
			c2.047,0,3.925,0.979,5.625,2.938c0.83,1.176,1.243,2.436,1.243,3.785c0,2.914-1.849,5.008-5.556,6.264
			c-4.729,0.525-11.746,1.068-21.058,1.637c-5.654,0-9.061-1.006-10.234-3.006c-0.976-1.174-1.461-2.461-1.461-3.85
			c0-3.045,1.855-5.178,5.559-6.398c0.777-0.129,1.316-0.197,1.607-0.197c2.778,0.135,4.289,0.225,4.53,0.264L40.854,69.357z"/>	
	</symbol>
	<symbol id="x" viewBox="0 0 300 281">
		<path d="M0.731,0l115.827,154.87L0,280.789h26.232l102.046-110.242l82.451,110.242H300L177.657,117.206L286.147,0h-26.231l-93.979,101.53L90.002,0H0.731z M39.309,19.323h41.011l181.099,242.14h-41.012L39.309,19.323z"/>
	</symbol>
	<symbol id="facebook" viewBox="0 0 16 31">
		<path d="M16,0.363v4.89h-2.905c-1.064,0-1.777,0.223-2.15,0.667c-0.367,0.445-0.553,1.112-0.553,2v3.501h5.426
			l-0.724,5.479h-4.702v14.06H4.723v-14.06H0V11.42h4.723V7.382c0-2.296,0.642-4.077,1.926-5.343c1.285-1.266,2.995-1.898,5.131-1.898
			C13.595,0.141,15.001,0.215,16,0.363z"/>	
	</symbol>
	<symbol id="instagram" viewBox="0 0 29 28">
		<path d="M27.939,3.687v20.726c0,0.979-0.35,1.821-1.051,2.525c-0.703,0.699-1.545,1.051-2.523,1.051H3.637
			c-0.981,0-1.821-0.352-2.524-1.051c-0.702-0.704-1.052-1.546-1.052-2.525V3.687c0-0.981,0.351-1.821,1.052-2.522
			c0.703-0.702,1.543-1.054,2.524-1.054h20.728c0.979,0,1.82,0.352,2.523,1.054C27.59,1.866,27.939,2.706,27.939,3.687z M24.783,23.67
			V11.91h-2.451c0.242,0.762,0.363,1.555,0.363,2.377c0,1.524-0.389,2.932-1.162,4.218c-0.773,1.289-1.826,2.309-3.158,3.061
			c-1.332,0.751-2.781,1.125-4.356,1.125c-2.384,0-4.423-0.818-6.116-2.459c-1.696-1.642-2.542-3.621-2.542-5.945
			c0-0.822,0.121-1.615,0.363-2.377h-2.56v11.76c0,0.314,0.106,0.579,0.318,0.791c0.211,0.212,0.475,0.317,0.79,0.317h19.401
			c0.305,0,0.564-0.105,0.781-0.317S24.783,23.984,24.783,23.67z M17.986,17.833c1.094-1.059,1.641-2.335,1.641-3.836
			c0-1.5-0.547-2.78-1.641-3.839c-1.096-1.059-2.42-1.588-3.968-1.588c-1.537,0-2.852,0.529-3.948,1.588
			c-1.094,1.059-1.642,2.339-1.642,3.839c0,1.501,0.548,2.778,1.642,3.836c1.096,1.059,2.412,1.588,3.948,1.588
			C15.566,19.421,16.891,18.892,17.986,17.833z M24.783,7.463V4.468c0-0.339-0.121-0.633-0.365-0.88
			c-0.24-0.249-0.537-0.373-0.889-0.373h-3.158c-0.352,0-0.648,0.125-0.889,0.373c-0.242,0.248-0.363,0.542-0.363,0.88v2.995
			c0,0.351,0.121,0.647,0.363,0.889c0.24,0.242,0.537,0.363,0.889,0.363h3.158c0.352,0,0.648-0.121,0.889-0.363
			C24.662,8.11,24.783,7.813,24.783,7.463z"/>	
	</symbol>
	<symbol id="inscripcion-icon" viewBox="0 0 20 20">
		<path d="M10.977,3.563l5.461,5.459L5.518,19.941H0.059v-5.459L10.977,3.563z M4.822,18.262l1.194-1.193
			l-3.084-3.084l-1.194,1.193v1.404h1.681v1.68H4.822z M11.687,6.082c0-0.192-0.097-0.289-0.289-0.289
			c-0.087,0-0.162,0.032-0.223,0.092L4.062,13C4,13.061,3.97,13.135,3.97,13.223c0,0.193,0.096,0.289,0.289,0.289
			c0.087,0,0.162-0.031,0.223-0.094l7.113-7.113C11.655,6.244,11.687,6.17,11.687,6.082z M19.941,4.823
			c0,0.463-0.161,0.857-0.486,1.181l-2.179,2.178l-5.459-5.459l2.179-2.166c0.314-0.332,0.708-0.499,1.182-0.499
			c0.463,0,0.862,0.167,1.191,0.499l3.086,3.072C19.78,3.969,19.941,4.367,19.941,4.823z"/>
	</symbol>
	<symbol id="roadbook-icon" viewBox="0 0 26 25">
		<path d="M23.199,6.27c1.108,1.898,1.663,3.97,1.663,6.217c0,2.247-0.555,4.319-1.663,6.218c-1.107,1.897-2.61,3.398-4.509,4.507
			c-1.895,1.106-3.969,1.661-6.214,1.661c-2.248,0-4.32-0.555-6.217-1.661c-1.898-1.108-3.401-2.609-4.508-4.507
			c-1.108-1.898-1.662-3.971-1.662-6.218c0-2.248,0.554-4.319,1.662-6.217c1.106-1.898,2.609-3.4,4.508-4.508
			c1.897-1.108,3.97-1.662,6.217-1.662c2.246,0,4.32,0.554,6.214,1.662C20.589,2.87,22.092,4.372,23.199,6.27z M20.071,16.89
			c0.785-1.344,1.179-2.812,1.179-4.402c0-1.591-0.394-3.059-1.179-4.403c-0.785-1.344-1.85-2.409-3.192-3.194
			c-1.345-0.784-2.813-1.177-4.403-1.177c-1.592,0-3.06,0.393-4.403,1.177c-1.344,0.786-2.41,1.85-3.194,3.194
			c-0.784,1.344-1.177,2.812-1.177,4.403c0,1.591,0.393,3.059,1.177,4.402c0.785,1.344,1.85,2.409,3.194,3.192
			c1.343,0.786,2.811,1.179,4.403,1.179c1.59,0,3.058-0.393,4.403-1.179C18.222,19.299,19.286,18.233,20.071,16.89z M16.604,6.052
			v8.742l-8.256,4.128v-8.741L16.604,6.052z M10.411,15.584l4.129-2.064l-4.129-2.065V15.584z"/>		
	</symbol>
	<symbol id="patrimonioIndustrial-icon" viewBox="0 0 25 25">
		<path d="M6.121,0.089c0.233,0,0.435,0.085,0.605,0.255c0.171,0.171,0.256,0.373,0.256,0.606v11.995l7.217-5.775
			c0.151-0.126,0.331-0.188,0.537-0.188c0.234,0,0.436,0.085,0.606,0.255c0.171,0.171,0.256,0.374,0.256,0.606v5.103l7.217-5.775
			c0.152-0.126,0.331-0.188,0.537-0.188c0.234,0,0.438,0.085,0.606,0.255c0.17,0.171,0.256,0.374,0.256,0.606v15.511
			c0,0.23-0.086,0.432-0.256,0.604c-0.169,0.17-0.372,0.256-0.606,0.256H0.951c-0.233,0-0.436-0.086-0.605-0.256
			c-0.171-0.173-0.256-0.374-0.256-0.604V0.951c0-0.233,0.085-0.436,0.256-0.606c0.17-0.17,0.372-0.255,0.605-0.255H6.121z"/>		
	</symbol>
	<symbol id="patrimonioNatural-icon" viewBox="0 0 21 25">
		<path d="M20.384,20.387c0,0.239-0.086,0.446-0.261,0.619c-0.175,0.175-0.382,0.262-0.621,0.262h-6.36
			c0.01,0.155,0.036,0.558,0.083,1.205c0.045,0.647,0.067,1.145,0.067,1.494c0,0.229-0.082,0.424-0.247,0.585
			c-0.166,0.16-0.363,0.241-0.592,0.241H8.046c-0.229,0-0.427-0.081-0.591-0.241c-0.166-0.161-0.249-0.355-0.249-0.585
			c0-0.35,0.022-0.847,0.069-1.494s0.073-1.05,0.083-1.205H0.998c-0.239,0-0.445-0.087-0.621-0.262
			c-0.173-0.173-0.261-0.38-0.261-0.619c0-0.238,0.087-0.445,0.261-0.62l5.537-5.548H2.76c-0.238,0-0.445-0.086-0.62-0.261
			c-0.175-0.175-0.262-0.382-0.262-0.619c0-0.239,0.087-0.446,0.262-0.621L7.676,7.17H4.962c-0.238,0-0.444-0.087-0.62-0.262
			c-0.175-0.175-0.261-0.381-0.261-0.62c0-0.238,0.086-0.444,0.261-0.62l5.287-5.288c0.176-0.173,0.381-0.261,0.621-0.261
			c0.238,0,0.445,0.087,0.62,0.261l5.288,5.288c0.175,0.175,0.261,0.381,0.261,0.62c0,0.239-0.086,0.445-0.261,0.62
			s-0.381,0.262-0.62,0.262h-2.713l5.536,5.547c0.174,0.175,0.261,0.382,0.261,0.621c0,0.237-0.087,0.444-0.261,0.619
			c-0.175,0.175-0.382,0.261-0.621,0.261h-3.15l5.534,5.548C20.298,19.941,20.384,20.148,20.384,20.387z"/>		
	</symbol>
	<symbol id="recorrido-icon" viewBox="0 0 25 25">
		<path d="M21.503,10.554c0.236,0,0.441,0.087,0.614,0.26s0.259,0.377,0.259,0.613v3.493c0,0.236-0.086,0.44-0.259,0.613
			s-0.378,0.26-0.614,0.26H3.167c-0.364,0-0.673-0.128-0.927-0.382l-1.924-1.924c-0.091-0.091-0.136-0.195-0.136-0.313
			s0.045-0.224,0.136-0.314l1.924-1.924c0.254-0.254,0.563-0.382,0.927-0.382h6.985V7.935h3.493v2.619H21.503z M23.481,4.128
			c0.091,0.091,0.137,0.196,0.137,0.314s-0.046,0.223-0.137,0.314L21.558,6.68c-0.255,0.255-0.563,0.382-0.928,0.382H2.294
			c-0.236,0-0.441-0.086-0.614-0.259C1.508,6.63,1.421,6.425,1.421,6.188V2.696c0-0.236,0.086-0.441,0.259-0.614
			C1.854,1.91,2.058,1.823,2.294,1.823h7.858V0.95c0-0.237,0.086-0.441,0.259-0.614c0.173-0.172,0.377-0.259,0.614-0.259h1.747
			c0.237,0,0.441,0.087,0.614,0.259c0.173,0.173,0.26,0.377,0.26,0.614v0.873h6.984c0.364,0,0.673,0.127,0.928,0.382L23.481,4.128z
			 M10.152,16.666h3.493v6.984c0,0.236-0.087,0.441-0.26,0.614s-0.377,0.259-0.614,0.259h-1.747c-0.236,0-0.441-0.086-0.614-0.259
			s-0.259-0.378-0.259-0.614V16.666z"/>		
	</symbol>
	<symbol id="email" viewBox="0 0 30 24">
		<path d="M29.489,3.2v17.599c0,0.713-0.253,1.322-0.76,1.828c-0.509,0.508-1.116,0.762-1.828,0.762H3.088
			c-0.712,0-1.322-0.254-1.828-0.762c-0.507-0.506-0.76-1.115-0.76-1.828V3.2c0-0.712,0.253-1.321,0.76-1.828
			c0.506-0.507,1.116-0.76,1.828-0.76h23.813c0.712,0,1.319,0.253,1.828,0.76C29.236,1.878,29.489,2.488,29.489,3.2z M27.419,3.798
			c0-0.022,0-0.081,0-0.178s0-0.17,0-0.218s-0.002-0.119-0.009-0.21c-0.006-0.091-0.022-0.159-0.049-0.202
			c-0.025-0.043-0.056-0.091-0.088-0.146c-0.033-0.054-0.081-0.095-0.146-0.121c-0.063-0.027-0.139-0.041-0.226-0.041H3.088
			c-0.141,0-0.262,0.051-0.364,0.154C2.622,2.938,2.571,3.06,2.571,3.2c0,1.812,0.792,3.343,2.378,4.594
			c2.082,1.64,4.244,3.348,6.487,5.127c0.064,0.054,0.253,0.213,0.566,0.477c0.313,0.265,0.56,0.467,0.744,0.607
			c0.183,0.141,0.422,0.311,0.72,0.51c0.296,0.2,0.568,0.349,0.817,0.445c0.248,0.097,0.479,0.146,0.695,0.146h0.015h0.016
			c0.216,0,0.448-0.049,0.696-0.146c0.249-0.097,0.52-0.246,0.818-0.445c0.296-0.199,0.535-0.369,0.72-0.51
			c0.185-0.14,0.431-0.342,0.744-0.607c0.313-0.264,0.501-0.423,0.566-0.477c2.242-1.779,4.406-3.488,6.487-5.127
			c0.582-0.464,1.124-1.086,1.625-1.868C27.168,5.144,27.419,4.435,27.419,3.798z M27.419,20.799V8.376
			c-0.347,0.388-0.718,0.744-1.116,1.068c-2.89,2.221-5.188,4.043-6.892,5.467c-0.55,0.464-0.997,0.825-1.343,1.084
			c-0.346,0.259-0.811,0.521-1.399,0.783c-0.589,0.266-1.142,0.396-1.659,0.396h-0.016h-0.015c-0.518,0-1.071-0.131-1.658-0.396
			c-0.588-0.263-1.054-0.524-1.399-0.783c-0.345-0.26-0.793-0.621-1.343-1.084c-1.704-1.424-4-3.246-6.891-5.467
			c-0.399-0.324-0.771-0.68-1.116-1.068v12.422c0,0.141,0.051,0.262,0.154,0.365c0.102,0.104,0.223,0.152,0.364,0.152h23.813
			c0.14,0,0.261-0.049,0.363-0.152C27.368,21.061,27.419,20.939,27.419,20.799z"/>		
	</symbol>
	<symbol id="marker" viewBox="0 0 17 25">
		<path d="M16.531,8.133c0,1.141-0.17,2.076-0.516,2.809l-5.711,12.142c-0.168,0.344-0.416,0.616-0.746,0.815
			c-0.329,0.198-0.682,0.297-1.058,0.297s-0.729-0.099-1.06-0.297c-0.329-0.199-0.573-0.472-0.729-0.815L0.986,10.941
			c-0.345-0.732-0.518-1.668-0.518-2.809c0-2.217,0.784-4.11,2.353-5.679c1.569-1.568,3.462-2.353,5.68-2.353
			c2.217,0,4.11,0.785,5.679,2.353C15.748,4.023,16.531,5.916,16.531,8.133z M11.34,10.972c0.785-0.784,1.178-1.73,1.178-2.839
			c0-1.108-0.393-2.055-1.178-2.839c-0.784-0.785-1.73-1.177-2.839-1.177c-1.109,0-2.056,0.393-2.84,1.177
			c-0.784,0.784-1.177,1.73-1.177,2.839c0,1.109,0.393,2.056,1.177,2.839c0.784,0.785,1.73,1.177,2.84,1.177
			C9.609,12.149,10.556,11.757,11.34,10.972z"/>		
	</symbol>
	<symbol id="homologacion" viewBox="0 0 490 137">
		<g fill="#AAA" fill-rule="evenodd" clip-rule="evenodd"><path d="M52.042 54.581c-1.889 0-3.098.833-3.625 2.5-.278.805-.417 2.68-.417 5.624s.139 4.819.417 5.625c.528 1.667 1.736 2.499 3.625 2.499s3.096-.833 3.624-2.499c.278-.806.417-2.681.417-5.625s-.139-4.819-.417-5.625c-.527-1.666-1.735-2.499-3.624-2.499zM110.373 54.581c-1.889 0-3.097.833-3.625 2.5-.278.806-.417 2.68-.417 5.625s.139 4.819.417 5.625c.528 1.667 1.736 2.499 3.625 2.499s3.097-.833 3.625-2.499c.278-.806.417-2.681.417-5.625s-.139-4.819-.417-5.625c-.528-1.667-1.736-2.5-3.625-2.5zM152.663 21.216h-.126l-2.749 10.103h5.5zM123.248 24.248h2.958c2.25 0 3.375-.581 3.375-2.525 0-1.945-1.125-2.526-3.375-2.526h-2.958c-.167 0 .01-.353.01-.187v5.333c0 .166-.177-.095-.01-.095zM50.792 25.258c1.028 0 1.84-.187 2.437-.727.598-.544.896-1.23.896-2.147 0-.917-.299-1.739-.896-2.281-.597-.541-1.409-.907-2.437-.907h-3.26c-.166 0-.047.313-.047.481v5.499c-.001.166 3.307.082 3.307.082zM158.622 54.581c-1.889 0-3.098.833-3.625 2.5-.278.806-.417 2.68-.417 5.625s.14 4.819.417 5.625c.527 1.667 1.736 2.499 3.625 2.499 1.888 0 3.096-.833 3.624-2.499.277-.806.417-2.681.417-5.625s-.14-4.819-.417-5.625c-.528-1.667-1.737-2.5-3.624-2.5zM123.248 36.371h3.332c2.306 0 3.459-1.251 3.459-3.389 0-1-.292-1.531-.875-2.086-.583-.556-1.444-.586-2.584-.586h-3.332c-.167 0 0-.167 0 0l.01 5.45c0 .166-.177.611-.01.611zM21.376 25.258h3.75c1.139 0 2.021.021 2.646-.563.625-.583.938-1.217.938-2.218 0-1-.313-1.82-.938-2.391-.625-.569-1.507-.891-2.646-.891h-3.75c-.167 0-.16.313-.16.481l-.006 5.581c0 .167 0 .001.166.001zM239.68 55.928c-.736-.417-1.757-.361-3.063-.361h-2.208c-.167 0-.681-.016-1.028-.031v14.585c0 .167.861.601 1.028.601h2.208a6.149 6.149 0 0 0 3.063-.8c.735-.417 1.27-1.198 1.603-2.171.277-.916.417-2.614.417-5.001 0-2.39-.14-3.932-.417-4.848-.333-.973-.867-1.559-1.603-1.974zM210.494 57.587l-2.751 9.093h5.5l-2.625-9.093zM263.574 57.587l-2.75 9.093h5.5l-2.625-9.093z"/><path d="M0 0v90.928h279.791L330.268 0H0zm115.175 13.634c0-.277.628-.5.905-.5h11.542c3.083 0 5.396.716 6.938 2.063 1.542 1.347 2.286 3.209 2.286 5.541 0 2.834-1.464 4.882-3.485 6.104v.083a6.341 6.341 0 0 1 2.838 2.374c.764 1.168 1.159 2.529 1.159 4.084 0 2.695-.869 4.665-2.619 6.04-1.749 1.375-4.159 1.999-7.242 1.999H116.08c-.277 0-.905-.011-.905-.29V13.634zm-22.227 0c0-.277-.353-.5-.075-.5h18.542c.277 0 .729.223.729.5v5.375c0 .277-.452.187-.729.187H100.04c-.167 0-1.03.313-1.03.481v4.292c0 .166.863.279 1.03.279h9.333c.277 0 .75.109.75.387v5.25c0 .277-.473.424-.75.424h-9.333c-.167 0-1.03.075-1.03.242v4.541c0 .167.863.269 1.03.269h11.375c.277 0 .729.12.729.398v5.374c0 .278-.452.29-.729.29H92.873c-.277 0 .075-.011.075-.29V13.634zm-78.803 0c0-.277-.212-.5.066-.5h11.333c3.36 0 5.951.904 7.77 2.626 1.82 1.721 2.729 4.02 2.729 6.854 0 2.805-.917 5.212-2.75 6.961-1.833 1.751-4.417 2.755-7.75 2.755h-4.167c-.167 0-.16-.154-.16.012v8.791c0 .278-.229.29-.506.29h-6.5c-.278 0-.066-.011-.066-.29V13.634zm22.226 62.82c0 .278.158.33-.12.33h-6.5c-.278 0-.453-.051-.453-.33V65.996c0-.167-.048.684-.214.684h-7.708c-.167 0-.16-.851-.16-.684v10.458c0 .278-.229.33-.506.33h-6.5c-.278 0-.066-.051-.066-.33V48.956c0-.278-.212-.461.066-.461h6.5c.277 0 .506.183.506.461v10.042c0 .166-.006-.399.16-.399h7.708c.166 0 .214.565.214.399V48.956c0-.278.175-.461.453-.461h6.5c.278 0 .12.183.12.461v27.498zm3.031-35.321V13.634c0-.277.029-.5.308-.5h11.54c3.194 0 5.694.882 7.5 2.563 1.805 1.68 2.708 3.903 2.708 6.625 0 1.778-.402 3.364-1.208 4.739-.806 1.374-1.958 2.442-3.458 3.192L62 41.047c.055.111.055.16 0 .271-.056.113-.154.105-.292.105H54.5c-.306 0-.514-.148-.625-.427l-4.292-9.677H47.61c-.167 0-.126.232-.126.398v9.416c0 .278-.998.29-1.275.29h-6.5c-.278 0-.307-.011-.307-.29zm23.265 29.28c-.722 2.249-2.028 3.972-3.917 5.166-1.889 1.195-4.125 1.793-6.708 1.793s-4.82-.598-6.708-1.793c-1.889-1.194-3.194-2.917-3.917-5.166-.556-1.806-.833-4.375-.833-7.708s.278-5.902.833-7.708c.723-2.25 2.028-3.972 3.917-5.167 1.889-1.194 4.125-1.791 6.708-1.791s4.818.597 6.708 1.791c1.889 1.195 3.194 2.917 3.917 5.167.556 1.695.833 4.264.833 7.708 0 3.443-.278 6.013-.833 7.708zm1.993-56.779c0-.277.896-.5 1.174-.5h6.499c.278 0 .41.223.41.5V31.05c0 1.389.364 2.479 1.087 3.271.723.792 1.683 1.188 2.877 1.188 1.222 0 2.281-.39 2.975-1.167s1.143-1.875 1.143-3.292V13.634c0-.277-.062-.5.216-.5h6.5c.277 0 .356.223.356.5v16.958c0 3.695-.984 6.528-3.011 8.5-2.027 1.972-4.749 2.959-8.193 2.959-3.5 0-6.628-.987-8.641-2.959-2.014-1.972-3.392-4.805-3.392-8.5V13.634zm30.309 62.82c0 .278-.11.33-.387.33H88.79c-.278 0 .117-.051.117-.33V61.629h-.742l-4.541 10.578c-.167.361-.43.536-.792.536h-3.25c-.305 0-.569-.175-.792-.536l-4.54-10.578h-.497v14.825c0 .278.15.33-.128.33h-5.791c-.278 0-.143-.051-.143-.33V48.956c0-.278-.136-.461.143-.461H74c.362 0 .598.113.708.391L81.25 63.65h.167l6.375-14.764c.111-.278.347-.391.708-.391h6.083c.277 0 .387.183.387.461v27.498zm26.029-6.041c-.723 2.249-2.029 3.972-3.917 5.166-1.889 1.195-4.125 1.793-6.708 1.793s-4.819-.598-6.708-1.793c-1.889-1.194-3.194-2.917-3.916-5.166-.556-1.806-.834-4.375-.834-7.708s.278-5.902.834-7.708c.722-2.25 2.027-3.972 3.916-5.167 1.889-1.194 4.125-1.791 6.708-1.791s4.819.597 6.708 1.791c1.887 1.195 3.194 2.917 3.917 5.167.555 1.695.833 4.264.833 7.708 0 3.443-.278 6.013-.833 7.708zm24.486 6.041c0 .278.124.33-.155.33h-19.166c-.278 0 .125-.051.125-.33V48.956c0-.278-.402-.461-.125-.461h6.499c.278 0 .698.183.698.461v21.166c0 .167-.197.601-.03.601h11.999c.278 0 .155-.211.155.066v5.665zm.554-35.031h-6.833c-.278 0-.375-.075-.291-.354l9.791-27.509c.083-.277.264-.426.541-.426h6.792c.277 0 .458.182.541.459l9.583 27.456c.083.279-.014.375-.292.375h-6.874c-.278 0-.459-.269-.543-.548l-1.333-4.504h-9.208l-1.334 4.504c-.082.278-.262.547-.54.547zm23.207 28.99c-.721 2.249-2.027 3.972-3.917 5.166-1.889 1.195-4.124 1.793-6.707 1.793-2.584 0-4.82-.598-6.709-1.793-1.889-1.194-3.193-2.917-3.917-5.166-.556-1.806-.833-4.375-.833-7.708s.277-5.902.833-7.708c.723-2.25 2.027-3.972 3.917-5.167 1.889-1.194 4.125-1.791 6.709-1.791 2.583 0 4.818.597 6.707 1.791 1.889 1.195 3.195 2.917 3.917 5.167.555 1.695.833 4.264.833 7.708 0 3.443-.278 6.013-.833 7.708zM196 63.538c0 2.889-.128 5.084-.628 6.583-.75 2.334-2.001 4.125-3.875 5.375-1.875 1.25-4.088 1.875-6.698 1.875-2.584 0-4.811-.598-6.713-1.793-1.903-1.194-3.208-2.917-3.932-5.166-.555-1.806-.828-4.375-.828-7.708s.279-5.902.835-7.708c.723-2.25 2.036-3.972 3.938-5.167 1.903-1.194 4.146-1.791 6.73-1.791 2.527 0 4.673.542 6.437 1.625 1.763 1.083 3.049 2.555 3.854 4.417.139.306.07.527-.208.667l-5.416 2.292c-.278.139-.486.083-.625-.167-.945-1.527-2.292-2.292-4.042-2.292-1.917 0-3.139.833-3.667 2.5-.277.833-.417 2.708-.417 5.625 0 2.833.139 4.708.417 5.625.583 1.667 1.875 2.499 3.875 2.499 2.027 0 3.278-.749 3.75-2.249.167-.5.25-1.02.25-1.741 0-.167-.083-.159-.25-.159h-2.842c-.047-.323-.047-.323-.047-.601v-4.708c0-.278-.011-.375-.063-.753h9.993c.278 0 .173.476.173.753v2.167zm27.826 13.246h-6.875c-.278 0-.458.236-.542-.042l-1.333-4h-9.209l-1.333 4c-.083.277-.264.042-.542.042h-6.833c-.277 0-.375-.094-.292-.374l9.792-27.499c.083-.277.264-.417.542-.417h6.791c.279 0 .459.161.542.439l9.583 27.466c.085.278-.013.385-.291.385zm24.458-6.413c-1.39 4.304-4.751 6.413-10.083 6.413h-10.958c-.278 0-.934-.051-.934-.33V48.956c0-.278.656-.461.934-.461h10.958c5.332 0 8.693 2.175 10.083 6.48.555 1.75.832 4.309.832 7.697 0 3.39-.277 5.949-.832 7.699zm28.622 6.413h-6.872c-.279 0-.459.236-.543-.042l-1.334-4h-9.208l-1.333 4c-.083.277-.264.042-.542.042h-6.832c-.278 0-.375-.094-.292-.374l9.791-27.499c.084-.277.265-.417.542-.417h6.791c.277 0 .458.161.542.439l9.582 27.466c.084.278-.014.385-.292.385z"/></g><g fill="#EEE" fill-rule="evenodd" clip-rule="evenodd"><path d="M159.727 107.093c0-3.814-2.502-6.062-6.046-6.062h-8.197v12.123h8.197c3.544 0 6.046-2.249 6.046-6.061z"/><path d="M6.062 90.928v45.464h238.424l25.787-45.464H6.062zm28.223 29.657c.511.677 1.454.919 2.71.919 2.278 0 3.142-1.277 3.574-3.298h6.992c-1.021 7.072-5.303 9.501-10.605 9.501-3.26 0-5.734-.976-7.776-3.044-2.946-2.983-2.828-6.89-2.828-11.146 0-4.255-.119-8.198 2.828-11.181 2.042-2.066 4.517-2.814 7.776-2.814 5.303 0 9.584 2.519 10.605 9.591h-6.992c-.432-2.021-1.296-3.372-3.574-3.372-1.256 0-2.199.344-2.71 1.021-.628.835-1.061 1.742-1.061 6.912s.433 6.076 1.061 6.911zm26.9 7.725-2.935-7.219-2.935 7.219h-6.633l6.104-15.008-5.681-14.291h6.602l2.542 6.501 2.542-6.501h6.602l-5.681 14.291 6.103 15.008h-6.63zm36.815 0h-6.062v-14.127l-4.727 6.044h-4.55l-3.856-6.044v14.127h-7.072V99.011h6.704l6.5 12.486 6.5-12.486H98v29.299zm36.371-27.279h-8.083v26.268h-2.021v-26.268h-9.093v-1.011h19.196v1.011zm25.318 26.268-6.548-13.134h-7.657v13.134h-2.021v-27.278h10.486c4.469 0 7.857 2.508 7.857 7.283 0 4.12-2.464 6.703-6.317 7.358l6.626 12.637h-2.426zm29.119 0-2.388-7.072h-12.787l-2.389 7.072h-2.233l10.091-27.278h1.848l10.091 27.278h-2.233zm13.254 0h-2.021v-27.278h2.021v27.278zm28.289 0h-16.165v-27.278h1.01v25.258h15.155v2.02z"/><path d="M174.287 118.206h11.478l-5.739-16.14z"/></g><g fill="#EEE" fill-rule="evenodd" clip-rule="evenodd"><path d="M404.357 108.104h-4.275v5.051h4.275c1.755 0 2.779-1.164 2.779-2.525s-1.024-2.526-2.779-2.526z"/><path d="m426.913 33.3-31.308 52.51L344.958.14l-77.509 136.252H490L426.913 33.3zm-88.46 74.804H326.33v5.051h10.103v5.052H326.33v11.113h-6.063v-27.278h18.186v6.062zm21.217 0h-10.103v4.041h9.093v6.062h-9.093v5.052h10.103v6.062h-17.175v-27.278h17.175v6.061zm-3.661-33.324-10.13-18.417-12.892 20.258-5.524-6.446-14.733 12.893 33.149-56.172 32.845 58.013-18.11-13.812-4.605 3.683zm32.96 54.539h-7.072v-13.197l-2.922 7.136h-4.096l-3.085-7.136v13.197h-7.072v-27.278h6.354l5.851 11.56 5.854-11.56h6.189v27.278zm15.68-10.102h-4.567v10.103h-6.062v-27.278h10.629c5.779 0 8.888 4.281 8.888 8.588s-3.108 8.587-8.888 8.587zm25.354 10.102-1.206-4.041h-8.009l-1.281 4.041h-6.692l9.473-27.278h4.938l9.474 27.278h-6.697zm4.584-40.232-7.583-13.791-9.655 15.17-4.137-4.826-11.033 9.653 24.825-42.063 24.595 43.442-13.563-10.344-3.449 2.759z"/><path d="M422.58 119.217h4.534l-2.194-6.993z"/></g>	
	</symbol>
	<symbol id="langreocalidadturistica" viewBox="0 0 400 400">
		<path d="M130.626,320.451v15.271c0,4.173-0.029,8.347,0.021,12.521c0.008,0.877-0.236,1.097-1.095,1.085 	c-4.078-0.043-8.16-0.051-12.241,0.004c-0.959,0.016-1.139-0.31-1.139-1.192c0.021-16.789,0.027-33.578-0.006-50.368 	c-0.002-1.013,0.287-1.235,1.252-1.222c3.751,0.058,7.505,0.047,11.256,0.004c0.83-0.008,1.347,0.233,1.867,0.905 	c6.733,8.716,13.5,17.402,20.26,26.096c0.137,0.178,0.278,0.348,0.647,0.82v-1.77c0-8.254,0.026-16.507-0.027-24.762 	c-0.005-1.077,0.286-1.313,1.32-1.296c4.034,0.065,8.068,0.055,12.1,0.006c0.87-0.012,1.105,0.229,1.105,1.098 	c-0.026,16.837-0.028,33.675,0,50.511c0.002,0.941-0.281,1.178-1.192,1.166c-3.561-0.051-7.126-0.037-10.69-0.004 	c-0.734,0.004-1.174-0.245-1.625-0.828c-6.852-8.856-13.734-17.696-20.607-26.536C131.517,321.557,131.191,321.162,130.626,320.451" 	/> <path d="M280.646,349.31c-5.563,0-10.807-0.021-16.058,0.017c-0.83,0.011-1.123-0.472-1.489-1.026 	c-3.071-4.645-6.175-9.273-9.214-13.935c-0.5-0.766-1.026-1.075-1.932-1.021c-1.356,0.077-2.719,0.077-4.075,0 	c-0.896-0.055-1.083,0.264-1.075,1.107c0.041,4.547-0.01,9.095,0.041,13.64c0.014,0.985-0.258,1.253-1.239,1.24 	c-4.126-0.055-8.252-0.044-12.376-0.006c-0.763,0.006-1.045-0.152-1.042-0.99c0.027-16.923,0.024-33.843,0.002-50.768 	c-0.002-0.793,0.218-1.013,1.013-1.01c8.767,0.04,17.533,0.006,26.297,0.081c3.058,0.03,6.054,0.635,8.892,1.805 	c8.086,3.332,11.331,10.232,10.39,18.702c-0.687,6.188-4.038,10.544-9.581,13.244c-0.92,0.447-0.975,0.756-0.409,1.576 	c3.676,5.308,7.306,10.652,10.948,15.986C279.993,348.328,280.244,348.707,280.646,349.31 M246.822,315.606c0,1.779,0,3.562,0,5.345 	c0,0.461-0.095,0.963,0.662,0.938c3.791-0.119,7.604,0.307,11.375-0.267c3.353-0.51,5.351-2.838,5.392-6.007 	c0.043-3.255-1.783-5.492-5.229-6.079c-3.854-0.662-7.762-0.162-11.645-0.291c-0.694-0.024-0.549,0.487-0.549,0.876 	C246.817,311.95,246.822,313.776,246.822,315.606"/> <path d="M332.508,323.057c-0.03-13.382,9.56-24.751,22.83-27.029c8.855-1.52,17.025,0.107,24.045,5.852 	c15.416,12.626,12.32,37.082-5.688,45.646c-11.773,5.598-26.068,2.898-34.499-6.588 	C334.679,335.857,332.592,329.818,332.508,323.057 M347.55,323.063c-0.051,0.925,0.061,2.045,0.324,3.142 	c1.177,4.933,3.939,8.617,8.831,10.242c4.838,1.604,9.36,0.735,13.205-2.721c5.193-4.673,5.924-13.638,1.65-19.525 	c-2.529-3.479-5.98-5.346-10.26-5.47C353.362,308.508,347.544,314.537,347.55,323.063"/> <path d="M222.081,303.206c-2.705,3.258-5.389,6.452-8.011,9.697c-0.609,0.76-0.954,0.331-1.424-0.044 	c-3.155-2.522-6.683-4.063-10.777-4.246c-6.121-0.274-11.168,2.928-13.439,8.631c-2.614,6.565-0.602,14.359,4.874,17.995 	c5.025,3.337,10.375,3.277,15.791,0.884c0.676-0.296,0.975-0.705,0.931-1.497c-0.075-1.449-0.081-2.909,0-4.358 	c0.055-0.917-0.287-1.073-1.112-1.063c-2.722,0.051-5.439-0.022-8.162,0.043c-0.952,0.021-1.172-0.299-1.155-1.193 	c0.054-2.812,0.051-5.628,0.002-8.441c-0.013-0.839,0.193-1.128,1.083-1.126c7.361,0.032,14.725,0.038,22.086-0.002 	c0.971-0.006,1.155,0.324,1.149,1.2c-0.03,7.224-0.024,14.443-0.008,21.664c0.002,0.621-0.157,1.061-0.668,1.432 	c-11.229,8.13-23.309,10.24-36.12,4.421c-10.127-4.6-15.653-15.408-14.714-26.522c1.27-15.021,14.198-26.699,31.749-25.06 	c6.225,0.586,11.839,2.623,16.723,6.571C221.277,302.514,221.66,302.851,222.081,303.206"/> <path d="M285.413,322.921c0-8.349,0.02-16.695-0.024-25.043c-0.008-1.028,0.215-1.33,1.295-1.33 	c13.271,0.043,26.544,0.038,39.817,0.006c0.982,0,1.395,0.138,1.365,1.274c-0.087,3.327-0.073,6.658-0.006,9.988 	c0.024,1.036-0.345,1.213-1.278,1.204c-8.395-0.032-16.789,0.014-25.185-0.052c-1.277-0.011-1.582,0.35-1.508,1.55 	c0.105,1.731,0.086,3.473,0.002,5.203c-0.049,0.996,0.261,1.249,1.239,1.243c7.506-0.041,15.011,0.008,22.516-0.057 	c1.256-0.011,1.576,0.314,1.53,1.553c-0.099,2.905-0.093,5.816,0,8.72c0.041,1.17-0.372,1.362-1.419,1.356 	c-7.459-0.043-14.915,0.003-22.371-0.049c-1.145-0.011-1.56,0.261-1.495,1.457c0.098,1.869,0.09,3.752,0.003,5.625 	c-0.052,1.042,0.228,1.323,1.299,1.317c8.488-0.048,16.978-0.002,25.468-0.053c1.183-0.012,1.59,0.197,1.547,1.492 	c-0.111,3.326-0.063,6.66-0.02,9.99c0.011,0.803-0.228,1.009-1.021,1.009c-13.553-0.024-27.108-0.03-40.66,0.006 	c-1.013,0.005-1.111-0.395-1.107-1.225C285.423,339.71,285.413,331.318,285.413,322.921"/> <path d="M111.405,349.31c-5.069,0-9.945-0.016-14.82,0.017c-0.727,0.002-0.938-0.366-1.164-0.934 	c-1-2.521-2.069-5.014-3.042-7.543c-0.284-0.732-0.647-0.955-1.426-0.949c-6.048,0.034-12.1,0.044-18.147-0.006 	c-0.94-0.011-1.285,0.364-1.584,1.156c-0.944,2.491-1.979,4.946-2.942,7.429c-0.208,0.529-0.422,0.849-1.078,0.845 	c-4.734-0.03-9.472-0.024-14.209-0.036c-0.08,0-0.162-0.071-0.342-0.157c1.532-3.651,3.057-7.308,4.597-10.956 	c5.7-13.521,11.424-27.035,17.086-40.572c0.472-1.131,1.037-1.506,2.256-1.478c3.796,0.089,7.596,0.054,11.394,0.016 	c0.753-0.006,1.183,0.19,1.489,0.922c7.213,17.143,14.445,34.28,21.669,51.417C111.23,348.69,111.283,348.919,111.405,349.31 	 M81.913,313.57c-2.048,5.178-3.945,9.969-5.89,14.892h8.921c2.776,0,2.779,0,1.787-2.551 	C85.177,321.919,83.616,317.935,81.913,313.57"/> <path d="M8.481,322.844c0-8.345,0.017-16.693-0.022-25.04c-0.005-0.95,0.181-1.27,1.206-1.256 	c4.079,0.065,8.16,0.065,12.238,0c1.02-0.014,1.217,0.304,1.214,1.262c-0.033,12.378,0.002,24.759-0.056,37.139 	c-0.008,1.349,0.414,1.583,1.643,1.577c7.5-0.057,15.005-0.006,22.506-0.055c1.097-0.008,1.42,0.264,1.395,1.385 	c-0.078,3.371-0.086,6.752,0,10.125c0.031,1.178-0.388,1.352-1.43,1.348c-12.476-0.032-24.947-0.034-37.422,0.006 	c-1.064,0.006-1.303-0.266-1.297-1.308C8.501,339.635,8.481,331.239,8.481,322.844"/> <path d="M258.265,383.98c1.563,2.029,3.126,4.059,4.688,6.088c1.541,2.003,3.079,4.011,4.681,6.094 	c-1.611,0.3-2.809,0.185-3.875-1.332c-2.338-3.334-4.936-6.482-7.383-9.74c-0.534-0.714-1.102-0.985-1.994-0.963 	c-2.39,0.064-4.784,0.07-7.169,0c-0.962-0.028-1.172,0.298-1.158,1.194c0.047,3.277-0.002,6.56,0.033,9.841 	c0.008,0.773-0.058,1.217-1.025,1.152c-0.798-0.055-1.238-0.07-1.232-1.115c0.049-9.046,0.024-18.089,0.036-27.135 	c0-0.459-0.234-1.118,0.642-1.091c4.914,0.151,9.857-0.456,14.736,0.322c5.552,0.888,8.608,5.676,7.005,10.672 	c-1.047,3.25-3.618,4.722-6.698,5.552c-0.313,0.087-0.641,0.13-0.958,0.208C258.512,383.75,258.449,383.836,258.265,383.98 	 M251.901,382.167v-0.016c1.594,0,3.191,0.093,4.773-0.017c3.009-0.217,5.769-1.059,7.193-4.049 	c1.909-4.021-0.636-8.215-5.381-8.863c-3.863-0.526-7.76-0.128-11.637-0.247c-0.787-0.021-0.782,0.45-0.782,0.998 	c0.009,3.745,0.03,7.492-0.014,11.233c-0.01,0.865,0.342,0.996,1.075,0.977C248.719,382.141,250.31,382.167,251.901,382.167"/> <path d="M96.283,381.473c0-4.405,0.047-8.807-0.03-13.214c-0.023-1.155,0.355-1.383,1.403-1.334 	c3.923,0.174,7.871-0.312,11.779,0.325c7.166,1.161,12.158,7.068,12.158,14.31c-0.002,7.242-4.99,13.203-12.116,14.37 	c-4.137,0.678-8.322,0.162-12.484,0.317c-1,0.041-0.7-0.659-0.703-1.144C96.277,390.563,96.283,386.018,96.283,381.473 	 M98.506,381.451c0,3.889-0.007,7.777,0.006,11.664c0.002,0.508-0.243,1.175,0.732,1.134c3.085-0.124,6.18,0.193,9.263-0.225 	c6.14-0.832,10.429-5.486,10.801-11.765c0.355-6.008-3.46-11.262-9.274-12.773c-3.411-0.891-6.899-0.375-10.349-0.554 	c-1.045-0.052-1.212,0.341-1.198,1.272C98.533,373.952,98.506,377.701,98.506,381.451"/> <path d="M152.284,381.457c0-4.452,0.023-8.906-0.019-13.355c-0.008-0.873,0.158-1.226,1.129-1.181 	c3.972,0.183,7.967-0.319,11.924,0.318c7.301,1.175,12.283,7.022,12.277,14.337c-0.002,7.294-5.04,13.229-12.271,14.369 	c-4.096,0.646-8.232,0.146-12.348,0.304c-0.875,0.033-0.689-0.542-0.689-1.02C152.282,390.638,152.284,386.048,152.284,381.457 	 M154.508,381.622c0,3.843-0.003,7.688,0.003,11.529c0,0.531-0.181,1.139,0.767,1.102c3.04-0.131,6.087,0.192,9.125-0.221 	c6.284-0.852,10.552-5.462,10.91-11.808c0.345-6.113-3.528-11.289-9.584-12.799c-3.327-0.83-6.718-0.316-10.075-0.488 	c-0.925-0.047-1.179,0.238-1.168,1.162C154.538,373.936,154.508,377.78,154.508,381.622"/> <path d="M120.977,396.162c4.061-8.796,8.054-17.446,12.049-26.099c0.334-0.722,0.681-1.436,0.989-2.167 	c0.297-0.717,0.57-1.271,1.577-1.232c0.91,0.036,1.26,0.398,1.61,1.161c4.207,9.176,8.454,18.336,12.689,27.501 	c0.114,0.251,0.206,0.517,0.314,0.782c-2.228,0.336-2.228,0.336-3.129-1.645c-0.809-1.79-1.664-3.56-2.402-5.377 	c-0.342-0.845-0.829-1.053-1.693-1.048c-4.923,0.044-9.846,0.052-14.77,0c-0.933-0.014-1.428,0.233-1.787,1.112 	c-0.738,1.818-1.594,3.587-2.4,5.373C123.203,396.351,123.203,396.351,120.977,396.162 M135.579,369.198 	c-2.522,5.529-4.932,10.825-7.357,16.117c-0.427,0.927,0.228,0.759,0.72,0.765c4.359,0,8.715-0.03,13.075,0.022 	c1.056,0.011,1.178-0.223,0.741-1.156c-1.546-3.3-3.022-6.632-4.528-9.947C137.383,373.138,136.53,371.276,135.579,369.198"/> <path d="M389.188,396.152c-1.7,0.431-2.637,0.004-3.195-1.632c-0.659-1.939-1.68-3.752-2.494-5.641 	c-0.261-0.607-0.599-0.819-1.265-0.813c-5.157,0.026-10.315,0.026-15.474,0c-0.672-0.006-0.979,0.228-1.236,0.836 	c-0.826,1.932-1.832,3.798-2.554,5.762c-0.548,1.498-1.397,1.96-2.908,1.492c0.038-0.626,0.434-1.154,0.694-1.725 	c4.081-8.872,8.169-17.745,12.258-26.617c0.275-0.597,0.47-1.213,1.365-1.096c0.635,0.084,1.232-0.082,1.604,0.732 	C380.356,377.009,384.763,386.552,389.188,396.152 M382.185,386.08c-2.579-5.682-5.075-11.171-7.658-16.865 	c-2.624,5.763-5.124,11.258-7.679,16.865H382.185z"/> <path d="M65.035,396.087c-1.812,0.626-2.643-0.119-3.215-1.693c-0.669-1.839-1.62-3.573-2.387-5.378 	c-0.292-0.678-0.625-0.985-1.434-0.977c-5.106,0.044-10.213,0.035-15.321,0.005c-0.716-0.002-1.061,0.223-1.339,0.891 	c-0.794,1.894-1.783,3.712-2.493,5.639c-0.557,1.524-1.432,2.037-3.044,1.54c1.734-3.753,3.47-7.515,5.207-11.281 	c2.644-5.722,5.297-11.445,7.917-17.178c0.31-0.681,0.641-1.045,1.442-0.963c0.612,0.06,1.124-0.006,1.459,0.729 	C56.202,376.969,60.611,386.504,65.035,396.087 M58.042,386.056c-2.573-5.668-5.065-11.154-7.662-16.876 	c-2.634,5.787-5.132,11.278-7.68,16.876H58.042z"/> <path d="M290.094,366.577c3.156,0.036,5.959,1.068,8.479,2.938c0.543,0.404,0.859,0.733,0.228,1.284 	c-0.441,0.385-0.564,1.334-1.571,0.53c-3.19-2.571-6.861-3.391-10.822-2.356c-3.311,0.864-4.931,3.656-4.136,6.726 	c0.396,1.536,1.493,2.437,2.83,3.109c2.027,1.026,4.241,1.433,6.428,1.935c1.693,0.386,3.346,0.888,4.876,1.718 	c4.677,2.539,5.209,8.813,0.974,12.071c-3.516,2.705-7.502,2.58-11.533,1.587c-2.445-0.607-4.54-1.929-6.496-3.512 	c-0.766-0.617-0.375-0.96,0.057-1.438c0.413-0.458,0.67-0.925,1.393-0.261c3.294,3.034,7.192,4.277,11.643,3.644 	c3.891-0.545,6.186-3.607,5.401-7.086c-0.342-1.506-1.321-2.429-2.613-3.113c-1.97-1.044-4.143-1.432-6.28-1.915 	c-1.739-0.387-3.438-0.889-5.039-1.69c-2.518-1.259-3.974-3.247-4.042-6.1c-0.065-2.862,1.216-5.033,3.63-6.552 	C285.52,366.821,287.77,366.51,290.094,366.577"/> <path d="M237.904,376.932c0-2.996,0.047-5.996-0.024-8.995c-0.026-1.05,0.534-0.937,1.221-0.979 	c0.787-0.052,1.031,0.192,1.026,1.001c-0.041,5.763,0.051,11.528-0.07,17.292c-0.122,5.676-3.324,9.854-8.401,11.086 	c-7.278,1.77-15.393-1.563-15.5-11.803c-0.057-5.48,0.002-10.967-0.022-16.448c-0.002-0.775,0.068-1.185,1.031-1.147 	c0.86,0.036,1.219,0.172,1.208,1.147c-0.049,5.063-0.03,10.127-0.017,15.184c0.003,1.263,0.017,2.519,0.279,3.775 	c1.09,5.152,4.854,8.05,10.115,7.719c5.535-0.342,8.877-3.696,9.09-9.258c0.107-2.852,0.019-5.714,0.019-8.573H237.904z"/> <path d="M34.615,391.647c-4.159,4.331-9.178,6.094-15.031,4.694c-5.951-1.427-9.552-5.438-10.758-11.353 	c-1.644-8.065,2.521-15.591,9.78-17.831c5.571-1.721,10.63-0.565,15.073,3.234c0.475,0.407,1.003,0.749,0.213,1.389 	c-0.552,0.45-0.828,1.14-1.756,0.302c-4.117-3.723-8.846-4.775-14.028-2.57c-5.426,2.312-8.252,8.434-7.088,14.912 	c1.037,5.764,5.731,10.018,11.529,10.338c3.527,0.195,6.612-0.999,9.274-3.321C33.248,390.198,33.265,390.215,34.615,391.647"/> <path d="M333.702,381.614c0.279-6.219,2.8-11.233,8.736-13.835c6.002-2.635,11.612-1.5,16.608,2.732 	c0.494,0.418,0.813,0.74,0.136,1.286c-0.54,0.429-0.796,1.223-1.745,0.347c-3.729-3.45-8.102-4.594-12.983-3.011 	c-5.519,1.785-8.79,7.209-8.397,13.625c0.434,7.041,6.108,12.318,12.985,12.047c3.39-0.13,6.26-1.524,8.626-3.88 	c0.86-0.857,1.188-0.25,1.747,0.23c0.784,0.67,0.041,0.963-0.298,1.291c-4.499,4.339-11.128,5.671-16.643,3.162 	C336.559,392.923,333.97,388.028,333.702,381.614"/> <path d="M202.667,382.667c0,4.173-0.019,8.341,0.016,12.514c0.006,0.798-0.107,1.166-1.047,1.14 	c-0.878-0.03-1.202-0.207-1.196-1.17c0.038-8.246-0.002-16.494,0.049-24.742c0.006-1.178-0.314-1.493-1.476-1.449 	c-2.573,0.093-5.155-0.002-7.729,0.043c-0.795,0.017-1.032-0.217-1.026-1.014c0.006-0.771,0.186-1.037,1.008-1.031 	c6.888,0.03,13.776,0.026,20.663,0c0.733-0.006,0.988,0.195,0.954,0.934c-0.026,0.668,0.004,1.14-0.93,1.117 	c-2.717-0.059-5.436,0.022-8.15-0.043c-0.953-0.021-1.164,0.293-1.153,1.193C202.692,374.326,202.667,378.499,202.667,382.667"/> <path d="M312.158,382.58c0-4.124-0.03-8.248,0.022-12.369c0.014-0.98-0.247-1.273-1.241-1.246 	c-2.669,0.067-5.341-0.016-8.012,0.037c-0.88,0.022-0.961-0.352-0.961-1.073c0.004-0.689,0.14-0.978,0.921-0.972 	c6.935,0.03,13.87,0.03,20.8-0.002c0.844-0.004,0.879,0.379,0.873,1.017c-0.005,0.619,0,1.051-0.857,1.03 	c-2.528-0.053-5.063,0.061-7.589-0.048c-1.351-0.055-1.804,0.217-1.786,1.71c0.091,8.104,0.024,16.211,0.065,24.315 	c0.006,1.007-0.171,1.405-1.28,1.341c-0.85-0.049-0.974-0.353-0.969-1.091C312.172,391.013,312.158,386.797,312.158,382.58"/> <path d="M67.034,381.535c0-4.502,0.023-9.005-0.02-13.503c-0.008-0.842,0.178-1.132,1.072-1.121 	c0.887,0.008,1.19,0.192,1.187,1.149c-0.042,8.254,0.003,16.506-0.056,24.76c-0.005,1.178,0.289,1.47,1.458,1.451 	c4.876-0.073,9.753-0.019,14.631-0.047c0.774-0.002,1.153,0.077,1.161,1.032c0.005,0.998-0.464,0.998-1.186,0.992 	c-5.678-0.016-11.351-0.032-17.025,0.011c-0.963,0.012-1.263-0.211-1.249-1.217C67.068,390.541,67.034,386.036,67.034,381.535"/> <path d="M271.596,381.592c0-4.451,0.019-8.899-0.017-13.352c-0.006-0.854,0.021-1.348,1.142-1.321 	c1.023,0.022,1.1,0.435,1.096,1.249c-0.023,8.993-0.028,17.987,0.012,26.98c0.003,0.943-0.279,1.128-1.17,1.172 	c-1.071,0.057-1.077-0.456-1.074-1.24C271.608,390.585,271.596,386.086,271.596,381.592"/> <path d="M327.597,381.489c0-4.446,0.017-8.892-0.016-13.338c-0.006-0.844,0.108-1.232,1.109-1.219 	c0.949,0.014,1.149,0.313,1.147,1.199c-0.032,8.988-0.03,17.976-0.002,26.964c0.002,0.866-0.152,1.227-1.132,1.227 	c-0.978,0.004-1.129-0.35-1.123-1.207C327.615,390.573,327.597,386.031,327.597,381.489"/> <path d="M89.776,381.473c0-4.455,0.021-8.91-0.016-13.365c-0.008-0.862,0.144-1.211,1.122-1.205 	c0.992,0,1.131,0.377,1.127,1.232c-0.024,8.953-0.03,17.913,0.007,26.867c0.002,0.96-0.223,1.245-1.223,1.286 	c-1.163,0.04-1.022-0.598-1.02-1.312C89.779,390.474,89.776,385.972,89.776,381.473"/> <path d="M278.329,360.57c-2.349,1.161-3.381,3.879-6.585,3.723c1.354-1.71,2.54-3.211,3.73-4.711 	c0.299-0.374,0.579-0.1,0.86,0.032C276.875,359.876,277.416,360.133,278.329,360.57"/> <path d="M196.894,3.097C125.327,4.125,67.084,62.496,67.036,135.255c0.145,73.155,59.258,132.185,132.174,131.968 	c73.229-0.218,131.976-59.725,131.433-133.222C330.109,60.907,270.26,2.042,196.894,3.097 M272.026,189.466 	c-9.011,12.893-20.686,22.335-36.108,26.394c-17.645,4.646-35.055,4.16-51.644-4.098c-18.71-9.306-30.158-24.462-34.814-44.795 	c-1.217-5.322-1.609-10.739-1.614-16.188c-0.011-10.691-0.027-21.386,0.028-32.079c0.006-1.325-0.397-1.614-1.656-1.608 	c-11.069,0.046-22.138,0.027-33.205,0.027h-1.867c3.09-4.121,5.954-7.938,8.822-11.753c4.958-6.596,9.929-13.181,14.863-19.793 	c0.528-0.708,1.06-1.024,1.973-1.008c3.187,0.063,6.38-0.023,9.567,0.058c1.175,0.03,1.501-0.317,1.494-1.489 	c-0.041-11.726-0.027-23.449-0.022-35.175c0.003-1.994-0.292-1.83,1.773-1.833c11.117-0.008,22.233,0.019,33.346-0.034 	c1.32-0.006,1.731,0.264,1.723,1.665c-0.061,11.771-0.012,23.544-0.071,35.316c-0.005,1.256,0.323,1.547,1.532,1.542 	c11.303-0.059,22.604-0.042,33.908-0.095c1.131-0.005,1.413,0.358,1.41,1.442c-0.038,9.896-0.046,19.791-0.006,29.687 	c0.006,1.167-0.317,1.498-1.487,1.495c-11.254-0.045-22.511-0.012-33.768-0.056c-1.197-0.005-1.592,0.242-1.587,1.53 	c0.059,11.397-0.104,22.797,0.084,34.191c0.154,9.362,3.103,17.787,9.785,24.591c6.89,7.022,15.42,9.394,25.044,8.474 	c10.21-0.974,17.965-6.24,24.4-13.84c1.818-2.146,3.57-4.328,6.074-5.779c6.654-3.869,15.064-2.68,20.34,2.949 	C275.491,174.695,276.335,183.304,272.026,189.466"/>
	</symbol>
	<symbol id="nortrail2017" viewBox="0 0 264 400">
		<g><path d="M5.046,184.495c3.131,2.023,14.52-1.207,14.52-1.207c5.997-0.48,8.536,0.354,10.35,2.301 		c-2.429-7.135-3.955-14.158-4.728-20.935c-0.083,0.204-0.164,0.421-0.25,0.593c-0.319,0.004-0.638,0.045-0.949,0.026 		c-1.346-0.054-2.703-0.297-4.02-0.702c-2.637-0.795-5.535-1.8-7.785-3.507c2.039,1.95,4.788,3.265,7.448,4.422 		c1.331,0.576,2.745,1.01,4.21,1.243c0.231,0.036,0.468,0.033,0.699,0.053c0.459,1.288,1.327,4.682-1.701,6.533 		c-4.324,2.641-9.627-0.701-13.24-5.432c-3.615-4.725-8.993-17.624-6.643-15.251c2.354,2.373,12.949,1.734,12.949,1.734 		c5.528,0.759,7.549,2.041,8.744,4.225c-0.425-7.766,0.049-15.067,1.055-21.709c-0.197,0.257-0.394,0.483-0.572,0.669 		c-0.257-0.079-0.526-0.13-0.773-0.22c-1.083-0.393-2.117-0.938-3.077-1.599c-1.933-1.324-4.025-2.88-5.416-4.839 		c1.156,2.104,3.045,3.873,4.907,5.49c0.928,0.809,1.966,1.521,3.091,2.088c0.18,0.088,0.374,0.144,0.555,0.223 		c0.043,1.158-0.125,4.13-3.052,4.854c-4.178,1.036-7.622-3.032-9.338-7.793c-1.719-4.756-2.771-16.582-1.475-14.057 		c1.298,2.52,10.048,4.723,10.048,4.723c4.158,1.969,5.513,3.494,5.966,5.478c1.123-5.62,2.588-10.611,4.167-14.807 		c-0.394,0.282-0.795,0.513-1.121,0.636c-0.158-0.134-0.323-0.256-0.472-0.397c-0.617-0.617-1.159-1.324-1.613-2.09 		c-0.914-1.527-1.864-3.269-2.201-5.064c0.128,1.823,0.872,3.647,1.639,5.356c0.389,0.855,0.876,1.678,1.475,2.426 		c0.097,0.122,0.211,0.217,0.309,0.33c-0.337,0.818-1.402,2.815-3.653,2.386c-3.219-0.618-4.304-4.524-3.972-8.362 		c0.329-3.836,3.368-12.343,3.459-10.183c0.092,2.154,5.441,6.459,5.441,6.459c1.653,1.979,2.27,3.287,2.391,4.455 		c1.525-3.177,3.945-6.965,6.833-10.965c-0.089,0.036-0.195,0.117-0.276,0.144c-0.135-0.126-0.28-0.237-0.404-0.361 		c-0.531-0.565-0.99-1.2-1.368-1.891c-0.773-1.375-1.565-2.936-1.817-4.537c0.067,1.616,0.676,3.249,1.307,4.778 		c0.324,0.766,0.729,1.508,1.24,2.185c0.084,0.107,0.181,0.197,0.266,0.3c-0.319,0.713-1.315,2.453-3.292,2.01 		c-2.826-0.628-3.682-4.113-3.29-7.497c0.394-3.383,3.31-10.818,3.334-8.908c0.023,1.911,4.636,5.857,4.636,5.857 		c1.755,2.238,2.193,3.53,2.003,4.757c2.319-3.061,4.796-6.149,7.235-9.085c-0.325,0.148-0.653,0.25-0.904,0.289 		c-0.095-0.118-0.193-0.224-0.275-0.348c-0.346-0.52-0.625-1.094-0.826-1.701c-0.424-1.207-0.84-2.562-0.818-3.876 		c-0.171,1.302,0.085,2.689,0.378,4c0.148,0.658,0.368,1.307,0.68,1.918c0.054,0.098,0.12,0.184,0.174,0.276 		c-0.36,0.525-1.396,1.776-2.913,1.146c-2.17-0.899-2.367-3.801-1.575-6.451c0.786-2.647,4.157-8.18,3.91-6.649 		c-0.25,1.529,2.881,5.328,2.881,5.328c1.097,2.048,1.263,3.146,0.93,4.106c3.154-3.744,6.148-7.16,8.482-9.769 		c-0.147,0.058-0.303,0.122-0.423,0.143c-0.061-0.077-0.121-0.145-0.172-0.221c-0.229-0.326-0.404-0.687-0.532-1.068 		c-0.279-0.759-0.546-1.615-0.543-2.45c-0.099,0.826,0.076,1.703,0.264,2.529c0.095,0.416,0.242,0.827,0.44,1.21 		c0.04,0.065,0.076,0.115,0.115,0.174c-0.223,0.329-0.875,1.13-1.835,0.743c-1.374-0.556-1.521-2.392-1.042-4.067 		c0.484-1.677,2.581-5.201,2.434-4.229c-0.152,0.965,1.858,3.354,1.858,3.354c0.703,1.284,0.811,1.974,0.608,2.588 		c0.733-0.816,1.397-1.548,1.928-2.126c-0.045-0.253-0.055-0.572,0.142-0.898c0.303-0.483,0.622-0.759,1.431-0.815 		c0.009-0.01,0.036-0.041,0.04-0.047c0,0-0.031,0.04-0.04,0.047c0.233-0.018,0.49-0.023,0.81,0c0,0,2.199,0.588,2.793,0.19 		c0.597-0.398-1.083,2.081-2.044,2.916c-0.967,0.842-2.222,1.315-3.018,0.579c-0.553-0.516-0.228-1.194-0.079-1.446 		c0.051,0.002,0.104,0.017,0.15,0.017c0.316,0.016,0.635-0.014,0.938-0.082c0.611-0.128,1.246-0.287,1.756-0.608 		c-0.547,0.26-1.199,0.349-1.79,0.405c-0.295,0.032-0.588,0.02-0.874-0.024c-0.065-0.009-0.13-0.032-0.198-0.042 		c-0.004-0.02-0.002-0.041-0.004-0.056c-1.07,1.273-2.59,3.099-4.439,5.367c0.616-0.353,1.473-0.516,3.025-0.411 		c0,0,4.019,1.072,5.107,0.348c1.09-0.729-1.987,3.805-3.744,5.34c-1.762,1.532-4.062,2.404-5.513,1.052 		c-1.02-0.946-0.421-2.188-0.145-2.644c0.089,0.006,0.185,0.026,0.276,0.028c0.58,0.029,1.154-0.024,1.71-0.148 		c1.112-0.23,2.274-0.526,3.211-1.115c-0.999,0.48-2.186,0.642-3.268,0.744c-0.539,0.051-1.074,0.033-1.6-0.047 		c-0.119-0.016-0.241-0.056-0.359-0.084c-0.103-0.385-0.119-0.986,0.108-1.592c-2.025,2.499-4.288,5.339-6.636,8.372 		c0.738-0.273,1.743-0.379,3.305-0.279c0,0,5.028,1.345,6.392,0.437c1.365-0.907-2.485,4.765-4.686,6.679 		c-2.2,1.922-5.077,3.007-6.895,1.315c-1.276-1.184-0.525-2.733-0.179-3.307c0.113,0.012,0.229,0.034,0.343,0.044 		c0.724,0.027,1.444-0.039,2.138-0.19c1.394-0.293,2.849-0.657,4.02-1.394c-1.25,0.602-2.737,0.799-4.086,0.927 		c-0.676,0.063-1.348,0.045-2.001-0.059c-0.15-0.021-0.299-0.073-0.455-0.105c-0.085-0.312-0.136-0.739-0.103-1.203 		c-2.492,3.281-4.966,6.655-7.192,9.88c0.942-0.287,2.201-0.398,4.034-0.309c0,0,6.657,1.664,8.435,0.435 		c1.774-1.23-3.172,6.329-6.032,8.906c-2.861,2.579-6.626,4.071-9.06,1.881c-1.703-1.532-0.758-3.594-0.312-4.354 		c0.148,0.014,0.302,0.036,0.454,0.05c0.962,0.02,1.907-0.086,2.817-0.295c1.833-0.419,3.738-0.932,5.265-1.928 		c-1.632,0.819-3.588,1.116-5.363,1.313c-0.887,0.098-1.775,0.088-2.637-0.033c-0.203-0.025-0.401-0.09-0.603-0.131 		c-0.062-0.22-0.117-0.485-0.153-0.774c-1.823,2.88-3.322,5.524-4.212,7.643c-0.179,0.425-1.148,2.896-2.253,6.911 		c1.011-0.645,2.386-1.25,4.349-1.858c0,0,8.965-0.949,10.604-3.269c1.635-2.316-1.058,9.25-3.423,13.715 		c-2.366,4.47-6.342,8.014-10.335,6.415c-2.797-1.128-2.552-4.095-2.346-5.238c0.19-0.053,0.387-0.085,0.583-0.141 		c1.192-0.407,2.315-0.966,3.345-1.638c2.074-1.348,4.188-2.832,5.629-4.755c-1.645,1.75-3.932,2.999-6.034,4.039 		c-1.052,0.522-2.146,0.914-3.269,1.154c-0.263,0.059-0.535,0.067-0.802,0.11c-0.065-0.092-0.135-0.219-0.2-0.322 		c-1.045,5.521-1.862,12.311-1.875,19.933c1.011-1.129,2.565-2.287,5.027-3.64c0,0,10.114-3.205,11.454-6.266 		c1.341-3.052,0.959,10.912-0.722,16.624c-1.673,5.71-5.424,10.732-10.406,9.825c-3.488-0.639-3.903-4.124-3.936-5.487 		c0.207-0.107,0.432-0.191,0.638-0.303c1.285-0.746,2.447-1.654,3.474-2.668c2.075-2.047,4.164-4.252,5.368-6.806 		c-1.482,2.4-3.832,4.377-6.004,6.073c-1.089,0.848-2.262,1.555-3.5,2.096c-0.286,0.128-0.595,0.205-0.897,0.317 		c-0.027-0.025-0.058-0.065-0.085-0.091c0.657,7.306,2.161,15.138,4.899,23.209c0.263-2.063,1.555-4.313,4.734-7.674 		c0,0,9.663-6.839,10.053-10.541c0.381-3.704,4.717,11.269,4.869,17.904c0.163,6.635-2.121,13.245-7.721,13.967 		c-3.922,0.506-5.549-3.054-6.047-4.488c0.185-0.184,0.391-0.35,0.58-0.542c1.104-1.227,2.032-2.589,2.782-4.016 		c1.509-2.874,2.979-5.93,3.395-9.05c-0.762,3.055-2.583,5.95-4.32,8.488c-0.867,1.272-1.875,2.424-3.002,3.419 		c-0.263,0.23-0.565,0.42-0.85,0.638c-0.547-0.249-1.212-0.654-1.854-1.184c3.143,7.383,7.398,14.888,13.077,22.303 		c-1.141-2.503-0.931-5.394,1.707-11.071c0,0,7.555-10.32,6.681-14.246c-0.875-3.926,8.696,9.923,11.132,16.666 		c2.44,6.745,2.369,14.298-3.12,16.959c-3.847,1.863-6.732-1.226-7.733-2.526c0.125-0.254,0.283-0.492,0.402-0.753 		c0.719-1.635,1.202-3.346,1.479-5.07c0.559-3.459,1.019-7.096,0.372-10.433c0.267,3.392-0.604,6.979-1.514,10.181 		c-0.452,1.597-1.09,3.124-1.903,4.527c-0.187,0.327-0.438,0.625-0.651,0.943c-1.029-0.11-2.462-0.465-3.774-1.343 		c0.125,0.15,0.243,0.307,0.371,0.461c6.557,7.75,13.597,13.691,20.672,18.33c-1.501-2.43-1.703-5.534,0.08-11.811 		c0,0,6.268-12.221,4.678-16.239c-1.596-4.018,10.903,9.057,14.626,15.796c3.729,6.737,4.933,14.759-0.441,18.512 		c-3.761,2.624-7.345-0.163-8.628-1.371c0.089-0.291,0.215-0.569,0.299-0.862c0.486-1.861,0.707-3.757,0.711-5.629 		c0.009-3.766-0.117-7.7-1.369-11.13c0.853,3.551,0.538,7.504,0.116,11.051c-0.209,1.772-0.625,3.502-1.252,5.124 		c-0.144,0.383-0.353,0.737-0.53,1.114c-0.151,0.007-0.348-0.007-0.513-0.007c25.885,13.558,50.083,10.752,50.391,10.699 		c0.305,0.053,24.506,2.858,50.396-10.699c-0.172,0-0.37,0.014-0.521,0.007c-0.171-0.377-0.383-0.731-0.525-1.114 		c-0.63-1.622-1.048-3.352-1.254-5.124c-0.425-3.547-0.741-7.5,0.116-11.051c-1.253,3.43-1.382,7.364-1.37,11.13 		c0.005,1.872,0.227,3.768,0.709,5.629c0.083,0.293,0.211,0.571,0.301,0.862c-1.283,1.208-4.866,3.995-8.627,1.371 		c-5.375-3.753-4.171-11.774-0.442-18.512c3.726-6.739,16.223-19.813,14.628-15.796c-1.587,4.019,4.676,16.239,4.676,16.239 		c1.78,6.277,1.582,9.381,0.077,11.811c7.08-4.639,14.121-10.58,20.678-18.33c0.126-0.154,0.239-0.311,0.368-0.461 		c-1.312,0.878-2.748,1.232-3.772,1.343c-0.217-0.318-0.463-0.616-0.65-0.943c-0.814-1.403-1.453-2.931-1.904-4.527 		c-0.91-3.201-1.781-6.789-1.514-10.181c-0.646,3.337-0.188,6.974,0.376,10.433c0.273,1.725,0.756,3.436,1.475,5.07 		c0.121,0.261,0.276,0.499,0.403,0.753c-1.002,1.301-3.886,4.39-7.732,2.526c-5.492-2.661-5.559-10.214-3.12-16.959 		c2.433-6.743,12.004-20.592,11.131-16.666s6.68,14.246,6.68,14.246c2.638,5.678,2.848,8.568,1.713,11.071 		c5.672-7.415,9.931-14.92,13.071-22.303c-0.643,0.53-1.308,0.935-1.854,1.184c-0.283-0.217-0.586-0.407-0.849-0.638 		c-1.13-0.995-2.136-2.147-3.003-3.419c-1.738-2.538-3.561-5.433-4.32-8.488c0.415,3.12,1.885,6.176,3.394,9.05 		c0.751,1.427,1.678,2.789,2.784,4.016c0.186,0.192,0.395,0.358,0.577,0.542c-0.498,1.434-2.122,4.994-6.045,4.488 		c-5.603-0.723-7.885-7.333-7.724-13.967c0.154-6.635,4.488-21.607,4.872-17.904c0.389,3.702,10.053,10.541,10.053,10.541 		c3.176,3.361,4.465,5.611,4.732,7.674c2.734-8.071,4.243-15.904,4.898-23.209c-0.026,0.026-0.056,0.065-0.082,0.091 		c-0.304-0.112-0.613-0.188-0.901-0.317c-1.235-0.541-2.407-1.248-3.498-2.096c-2.177-1.696-4.521-3.672-6.004-6.073 		c1.207,2.554,3.294,4.758,5.365,6.806c1.032,1.014,2.197,1.922,3.477,2.668c0.206,0.112,0.433,0.196,0.641,0.303 		c-0.033,1.363-0.45,4.848-3.938,5.487c-4.982,0.908-8.732-4.115-10.403-9.825c-1.682-5.712-2.065-19.676-0.725-16.624 		c1.34,3.062,11.456,6.266,11.456,6.266c2.462,1.353,4.018,2.51,5.031,3.64c-0.017-7.622-0.836-14.412-1.877-19.933 		c-0.067,0.103-0.135,0.229-0.202,0.322c-0.271-0.043-0.539-0.052-0.803-0.11c-1.122-0.24-2.216-0.632-3.268-1.154 		c-2.099-1.04-4.39-2.289-6.033-4.039c1.44,1.923,3.555,3.407,5.624,4.755c1.033,0.671,2.154,1.23,3.35,1.638 		c0.19,0.056,0.394,0.088,0.581,0.141c0.207,1.144,0.451,4.11-2.345,5.238c-3.994,1.599-7.97-1.945-10.334-6.415 		c-2.366-4.465-5.059-16.032-3.424-13.715c1.638,2.32,10.605,3.269,10.605,3.269c1.96,0.608,3.336,1.213,4.348,1.858 		c-1.108-4.015-2.077-6.486-2.253-6.911c-0.889-2.119-2.388-4.762-4.213-7.643c-0.035,0.29-0.088,0.554-0.152,0.774 		c-0.202,0.041-0.4,0.105-0.6,0.131c-0.865,0.121-1.749,0.131-2.639,0.033c-1.774-0.197-3.733-0.494-5.365-1.313 		c1.529,0.997,3.431,1.509,5.267,1.928c0.91,0.209,1.855,0.315,2.816,0.295c0.151-0.014,0.303-0.036,0.452-0.05 		c0.448,0.759,1.395,2.821-0.308,4.354c-2.437,2.19-6.199,0.698-9.063-1.881c-2.856-2.577-7.806-10.136-6.031-8.906 		c1.776,1.229,8.432-0.435,8.432-0.435c1.837-0.089,3.091,0.022,4.034,0.309c-2.226-3.225-4.694-6.599-7.188-9.88 		c0.032,0.464-0.02,0.892-0.104,1.203c-0.157,0.033-0.301,0.084-0.454,0.105c-0.655,0.104-1.325,0.122-2.001,0.059 		c-1.351-0.128-2.837-0.325-4.086-0.927c1.173,0.737,2.624,1.101,4.015,1.394c0.698,0.152,1.417,0.218,2.145,0.19 		c0.111-0.01,0.229-0.032,0.342-0.044c0.348,0.573,1.096,2.123-0.181,3.307c-1.816,1.692-4.692,0.607-6.896-1.315 		c-2.198-1.915-6.048-7.586-4.685-6.679c1.364,0.909,6.392-0.437,6.392-0.437c1.565-0.1,2.568,0.006,3.308,0.279 		c-2.348-3.033-4.613-5.873-6.636-8.372c0.225,0.606,0.215,1.207,0.109,1.592c-0.12,0.028-0.242,0.068-0.36,0.084 		c-0.521,0.081-1.061,0.099-1.6,0.047c-1.081-0.102-2.269-0.264-3.268-0.744c0.937,0.589,2.101,0.885,3.209,1.115 		c0.558,0.125,1.137,0.178,1.713,0.148c0.089-0.001,0.186-0.021,0.277-0.028c0.273,0.455,0.871,1.697-0.148,2.644 		c-1.45,1.352-3.752,0.48-5.509-1.052c-1.759-1.535-4.836-6.069-3.749-5.34c1.092,0.724,5.109-0.348,5.109-0.348 		c1.547-0.105,2.412,0.058,3.026,0.411c-1.849-2.269-3.369-4.094-4.438-5.367c-0.002,0.015,0,0.037-0.007,0.056 		c-0.065,0.011-0.131,0.033-0.196,0.042c-0.286,0.044-0.582,0.056-0.876,0.024c-0.593-0.056-1.241-0.145-1.788-0.405 		c0.509,0.322,1.146,0.48,1.757,0.608c0.305,0.068,0.621,0.098,0.935,0.082c0.05,0,0.104-0.014,0.152-0.017 		c0.148,0.252,0.477,0.931-0.078,1.446c-0.796,0.737-2.052,0.264-3.018-0.579c-0.961-0.835-2.643-3.314-2.047-2.916 		c0.596,0.397,2.796-0.19,2.796-0.19c0.326-0.023,0.577-0.018,0.805,0c-0.001-0.007-0.034-0.046-0.034-0.046 		c0.002,0.006,0.033,0.036,0.039,0.046c0.81,0.056,1.129,0.332,1.43,0.815c0.195,0.326,0.184,0.645,0.145,0.898 		c0.531,0.578,1.193,1.311,1.927,2.126c-0.202-0.614-0.095-1.304,0.608-2.588c0,0,2.008-2.388,1.857-3.354 		c-0.146-0.972,1.947,2.552,2.43,4.229c0.483,1.675,0.342,3.511-1.036,4.067c-0.963,0.387-1.613-0.415-1.834-0.743 		c0.036-0.059,0.072-0.108,0.111-0.174c0.199-0.383,0.348-0.795,0.444-1.21c0.186-0.826,0.361-1.703,0.263-2.529 		c0.003,0.835-0.263,1.691-0.542,2.45c-0.132,0.381-0.307,0.742-0.533,1.068c-0.053,0.076-0.116,0.144-0.177,0.221 		c-0.119-0.021-0.274-0.085-0.419-0.143c2.333,2.609,5.327,6.024,8.485,9.769c-0.337-0.959-0.171-2.058,0.925-4.106 		c0,0,3.131-3.798,2.882-5.328c-0.248-1.531,3.127,4.002,3.912,6.649c0.789,2.65,0.593,5.552-1.574,6.451 		c-1.518,0.63-2.56-0.621-2.914-1.146c0.058-0.092,0.118-0.178,0.172-0.276c0.314-0.612,0.533-1.26,0.681-1.918 		c0.293-1.312,0.549-2.698,0.377-4c0.023,1.314-0.392,2.669-0.812,3.876c-0.207,0.607-0.483,1.181-0.831,1.701 		c-0.081,0.124-0.181,0.229-0.274,0.348c-0.253-0.04-0.578-0.141-0.905-0.289c2.438,2.936,4.917,6.024,7.235,9.085 		c-0.189-1.228,0.25-2.519,2.003-4.757c0,0,4.609-3.946,4.637-5.857c0.022-1.91,2.94,5.525,3.333,8.908 		c0.396,3.384-0.464,6.869-3.289,7.497c-1.979,0.443-2.974-1.297-3.292-2.01c0.084-0.103,0.182-0.193,0.265-0.3 		c0.513-0.676,0.916-1.418,1.236-2.185c0.632-1.529,1.242-3.162,1.313-4.778c-0.254,1.601-1.046,3.162-1.816,4.537 		c-0.381,0.691-0.84,1.326-1.371,1.891c-0.12,0.125-0.265,0.235-0.403,0.361c-0.082-0.027-0.188-0.108-0.276-0.144 		c2.891,4,5.307,7.788,6.833,10.965c0.12-1.168,0.738-2.476,2.394-4.455c0,0,5.345-4.305,5.438-6.459 		c0.096-2.16,3.133,6.347,3.46,10.183c0.332,3.838-0.754,7.744-3.974,8.362c-2.248,0.429-3.313-1.568-3.651-2.386 		c0.102-0.112,0.214-0.208,0.312-0.33c0.598-0.749,1.085-1.571,1.474-2.426c0.769-1.709,1.51-3.534,1.643-5.356 		c-0.341,1.796-1.287,3.538-2.204,5.064c-0.454,0.766-0.995,1.474-1.618,2.09c-0.141,0.141-0.309,0.263-0.467,0.397 		c-0.322-0.124-0.729-0.354-1.118-0.636c1.577,4.195,3.042,9.187,4.165,14.807c0.454-1.984,1.808-3.509,5.965-5.478 		c0,0,8.752-2.204,10.051-4.723c1.297-2.525,0.243,9.3-1.475,14.057c-1.718,4.761-5.159,8.829-9.339,7.793 		c-2.929-0.723-3.096-3.695-3.053-4.854c0.183-0.079,0.375-0.135,0.554-0.223c1.127-0.567,2.162-1.28,3.092-2.088 		c1.863-1.617,3.751-3.386,4.905-5.49c-1.388,1.959-3.481,3.515-5.413,4.839c-0.96,0.661-1.995,1.206-3.076,1.599 		c-0.244,0.09-0.519,0.141-0.777,0.22c-0.181-0.186-0.374-0.412-0.567-0.669c1.002,6.642,1.479,13.943,1.051,21.709 		c1.197-2.184,3.217-3.466,8.746-4.225c0,0,10.599,0.638,12.949-1.734c2.348-2.373-3.03,10.526-6.643,15.251 		c-3.615,4.731-8.917,8.072-13.241,5.432c-3.029-1.852-2.16-5.245-1.707-6.533c0.238-0.021,0.475-0.017,0.705-0.053 		c1.467-0.233,2.88-0.667,4.21-1.243c2.662-1.157,5.407-2.472,7.448-4.422c-2.251,1.708-5.149,2.712-7.788,3.507 		c-1.313,0.405-2.67,0.648-4.019,0.702c-0.309,0.019-0.629-0.022-0.947-0.026c-0.085-0.171-0.167-0.389-0.252-0.593 		c-0.772,6.776-2.3,13.8-4.729,20.935c1.817-1.946,4.356-2.781,10.357-2.301c0,0,11.383,3.229,14.513,1.207 		c3.126-2.022-5.81,10.743-10.879,15.032c-5.072,4.285-11.642,6.663-15.725,2.75c-2.855-2.736-1.104-6.232-0.295-7.522 		c0.261,0.032,0.52,0.088,0.779,0.108c1.652,0.095,3.296-0.037,4.881-0.347c3.179-0.63,6.482-1.4,9.175-3.04 		c-2.86,1.324-6.257,1.723-9.322,1.962c-1.531,0.125-3.067,0.069-4.55-0.193c-0.343-0.057-0.681-0.171-1.026-0.26 		c-0.092-0.366-0.17-0.807-0.22-1.285c-2.442,5.892-5.565,11.81-9.482,17.683c2.302-0.896,5.159-0.654,10.386,1.46 		c0,0,10.693,7.02,14.57,5.945c3.88-1.07-9.471,9.189-16.083,11.965c-6.614,2.775-14.157,3.094-17.096-2.256 		c-2.054-3.748,0.886-6.787,2.133-7.852c0.259,0.113,0.51,0.26,0.773,0.361c1.668,0.639,3.404,1.032,5.14,1.224 		c3.478,0.385,7.135,0.66,10.438-0.158c-3.374,0.441-7.003-0.251-10.244-0.997c-1.616-0.368-3.18-0.926-4.62-1.668 		c-0.304-0.159-0.582-0.357-0.873-0.54c-0.558,0.701-1.034,1.408-1.613,2.107c-4.853,5.807-9.815,10.683-14.789,14.849 		c2.87-1.03,5.938-0.553,11.847,3.016c0,0,10.153,9.254,14.446,8.771c4.296-0.479-11.603,8.145-19.083,9.97 		c-7.479,1.824-15.538,0.881-17.746-5.286c-1.546-4.322,2.082-7.049,3.587-7.966c0.256,0.161,0.494,0.355,0.757,0.511 		c1.664,0.958,3.438,1.671,5.244,2.167c3.626,0.996,7.461,1.907,11.101,1.601c-3.652-0.108-7.385-1.452-10.696-2.791 		c-1.654-0.665-3.216-1.52-4.616-2.557c-0.329-0.239-0.617-0.534-0.937-0.802c0.162-0.738,0.467-1.669,0.976-2.601 		c-6.698,4.948-13.314,8.598-19.614,11.289c3.878-0.19,6.647,1.017,11.154,7.851c0,0,5.186,12.723,9.269,14.138 		c4.084,1.412-13.979,2.354-21.519,0.784c-7.538-1.574-14.402-5.891-13.745-12.409c0.467-4.566,4.916-5.465,6.669-5.646 		c0.16,0.259,0.29,0.538,0.463,0.79c1.089,1.58,2.382,2.985,3.801,4.209c2.844,2.464,5.912,4.933,9.331,6.225 		c-3.252-1.671-6.042-4.49-8.456-7.126c-1.204-1.309-2.249-2.753-3.071-4.291c-0.188-0.359-0.323-0.749-0.492-1.128 		c0.309-0.399,0.738-0.845,1.229-1.289c-11.783,4.18-22.02,5.126-28.649,5.126c-4.635,0-7.519,0.071-7.959,0 		c-0.441,0.071-3.324,0-7.96,0c-6.63,0-16.865-0.946-28.647-5.126c0.488,0.444,0.92,0.89,1.23,1.289 		c-0.168,0.379-0.306,0.769-0.497,1.128c-0.82,1.538-1.862,2.982-3.071,4.291c-2.413,2.636-5.207,5.455-8.454,7.126 		c3.417-1.292,6.49-3.761,9.332-6.225c1.417-1.224,2.709-2.629,3.798-4.209c0.174-0.252,0.305-0.531,0.466-0.79 		c1.75,0.182,6.202,1.08,6.666,5.646c0.658,6.519-6.206,10.835-13.744,12.409c-7.538,1.569-25.602,0.628-21.518-0.784 		c4.084-1.415,9.267-14.138,9.267-14.138c4.51-6.834,7.278-8.041,11.155-7.851c-6.296-2.691-12.916-6.341-19.613-11.289 		c0.51,0.932,0.812,1.862,0.974,2.601c-0.319,0.268-0.606,0.563-0.935,0.802c-1.401,1.037-2.962,1.892-4.619,2.557 		c-3.309,1.339-7.044,2.683-10.697,2.791c3.641,0.307,7.478-0.604,11.102-1.601c1.808-0.496,3.581-1.209,5.243-2.167 		c0.265-0.155,0.5-0.35,0.759-0.511c1.506,0.917,5.134,3.644,3.589,7.966c-2.21,6.167-10.27,7.11-17.749,5.286 		c-7.48-1.825-23.379-10.449-19.084-9.97c4.295,0.482,14.448-8.771,14.448-8.771c5.909-3.568,8.98-4.046,11.847-3.016 		c-4.973-4.166-9.938-9.042-14.787-14.849c-0.583-0.699-1.059-1.406-1.615-2.107c-0.292,0.183-0.573,0.381-0.872,0.54 		c-1.443,0.742-3.005,1.3-4.625,1.668c-3.237,0.746-6.867,1.438-10.24,0.997c3.301,0.818,6.958,0.543,10.436,0.158 		c1.736-0.191,3.472-0.585,5.139-1.224c0.265-0.102,0.517-0.248,0.777-0.361c1.244,1.064,4.183,4.104,2.127,7.852 		c-2.936,5.35-10.48,5.031-17.091,2.256c-6.613-2.775-19.962-13.035-16.083-11.965c3.879,1.074,14.569-5.945,14.569-5.945 		c5.226-2.114,8.083-2.355,10.385-1.46c-3.916-5.873-7.039-11.791-9.482-17.683c-0.05,0.479-0.126,0.919-0.22,1.285 		c-0.346,0.088-0.683,0.203-1.026,0.26c-1.48,0.262-3.016,0.318-4.548,0.193c-3.068-0.239-6.465-0.638-9.323-1.962 		c2.691,1.64,5.992,2.41,9.174,3.04c1.585,0.31,3.228,0.442,4.878,0.347c0.262-0.02,0.521-0.076,0.782-0.108 		c0.809,1.291,2.561,4.786-0.296,7.522c-4.081,3.912-10.651,1.534-15.723-2.75C10.859,195.238,1.922,182.473,5.046,184.495"/> 	<path d="M202.044,6.913c0.958-0.558,3.705-1.502,3.563-1.877c-0.29-0.769-3.674,0.4-4.553,0.8 		c-0.879,0.398-2.35,1.32-2.35,1.32L198.5,7.034c0,0,0.878-1.463,1.996-2.05c1.118-0.586,3.514-1.307,3.993-1.466 		c0.479-0.157,1.597-1.409-2.503-0.772l-0.372-0.051c0,0,0.222-0.775-1.004-0.669c-1.226,0.105-2.724,0.403-3.203,0.56 		c-0.478,0.161-1.864,1.599-1.864,1.599s-0.206-1.528,2.298-2.274c0.358,0.064,0.603-1.057-0.911-0.814 		c-1.413,0.224-3.517,2.501-3.836,4.314c-0.318,1.81-1.81,3.885-2.608,4.577s-3.141,2.024-6.656,3.568 		c-3.514,1.544-14.59,6.07-16.348,7.402c-1.755,1.332-10.169,11.712-10.169,11.712s-6.123,1.333-8.359,4.795 		c-2.236,3.459-2.662,6.121-2.662,6.121s-3.993,2.45-5.06,2.822c-1.064,0.375-8.465-0.583-8.465-0.583s-1.064-2.185-1.811-2.876 		c1.225-1.493,5.379-5.006,5.379-5.006l6.336-0.532c0,0,1.811-0.141,2.981-0.656c1.172-0.516,2.022-0.942,2.769-1.259 		c0.745-0.321,1.171-1.067,1.171-1.067s-0.532-0.531-2.236,0c-1.703,0.532-2.662,0.426-2.662,0.426s0.532-2.345,2.874-3.302 		c2.345-0.958,3.941-0.532,4.367-0.958c0.426-0.426,0.958-1.277-0.745-1.172c-1.704,0.106-3.301,0.215-3.939,0.32 		c-0.64,0.106-2.13,0.747-2.13,0.747s1.171-1.492,2.98-1.918c1.812-0.426,3.621-0.211,4.048-0.532 		c0.426-0.321-0.214-1.384-2.663-1.172c0.106-0.746-0.716-1.416-1.486-1.409c-1.611,0.017-1.708,0.131-1.708,0.131 		s-1.724,0.256-2.018,0.615c-0.294,0.359-0.654,1.079-0.654,1.079s0.23-1.243,0.524-1.374c0.293-0.127,2.147-0.32,2.147-0.32 		s0.856-1.127-1.703-0.852c-1.492,0.164-2.557,1.598-2.557,1.598s-2.343,3.62-4.26,5.433c-1.917,1.809-11.182,5.428-12.78,6.495 		c-1.597,1.063-3.088,2.13-2.663,4.471c0.427,2.345,2.876,8.307,2.876,8.627c0,0.319-7.774,7.135-9.798,35.461 		c-0.212,1.598-0.212,2.237-0.851,2.77s-8.199,4.971-10.33,16.648c-2.129,11.679-3.088,37.875-3.088,37.875l-2.241,1.941 		c0,0-2.738-1.761-8.409-1.761c-5.672,0-16.233,3.715-16.233,3.715s1.369-1.758,0-2.542c-1.368-0.783-9.778-5.085-11.343-4.107 		c-1.563,0.979-4.302,1.564-3.715,13.69c-5.477,4.106-4.107,9.191-3.912,10.756c0.195,1.564,0.586,7.626,3.715,7.626 		s5.867-3.911,6.65-7.235c0.781-3.324,9.973-7.042,10.169-7.627c0.195-0.587-0.196-2.739-0.196-2.739s10.562,0.443,19.752,1.494 		c9.193,1.049,15.646-0.727,16.819-4.923c1.173-4.197,6.063-30.208,6.063-30.208s3.519,1.173,4.302,2.346 		c0.782,1.173,4.063,1.173,4.063,1.173l16.275,23.469c0,0,0.196,3.324,0,4.497c-1.174,2.542-1.563,7.041-1.563,10.953 		c0,3.91,4.497,11.929,5.278,15.253c0.783,3.325,2.151,10.169,1.956,13.69c-1.173,0.194-0.782,1.173-1.759,2.933 		c-0.979,1.76-3.325,5.281-3.131,7.236c0.197,1.957-0.157,2.348,4.909,3.323c5.066,0.979,9.563,1.371,9.563,1.371 		s5.085,2.737,8.41,3.129c3.325,0.39,8.997-2.151,8.997-3.129s-6.454-3.129-7.432-3.913c-0.979-0.781-6.845-8.605-10.17-10.95 		c-0.782-3.13-1.957-10.951-1.957-20.34c-0.194-5.669-2.15-15.253-2.15-15.253s2.738-5.475,2.348-8.605 		c-0.392-3.127-2.934-6.257-2.934-6.257s-2.543-13.495-14.472-36.181c0.195-5.671,3.127-9.387,3.324-10.169 		c0.195-0.782,4.303-18.187,4.497-19.752c0.197-1.564,4.051-7.407,5.085-13.689c0.731-4.433,2.718-4.039,3.325-4.107 		c0.435-0.049,4.106-0.273,4.106-0.273s0.978-3.834,2.347-5.203c1.369-1.369,5.28-0.782,5.868-3.521 		c0.587-2.739-3.13-15.058-3.13-15.058s6.65-6.845,8.215-8.411c1.563-1.563,16.818-9.583,19.556-11.927 		c2.542,0,5.234-0.531,6.272-1.092c1.037-0.557,5.17-3.26,4.872-3.833c-0.642-1.224-2.582,0.829-3.103,1.047 		c-0.696,0.294-2.218,0.262-1.529-1.147C199.146,8.476,201.086,7.474,202.044,6.913 M146.875,27.277c0,0-1.257,0.452-1.729,1.044 		l-0.475,0.593C144.671,28.914,144.695,27.04,146.875,27.277 M197.245,5.28c0,0,0.612-1.25,1.004-1.592s2.524-0.538,2.524-0.538 		s-1.422,0.343-1.715,0.513C198.765,3.835,197.245,5.28,197.245,5.28"/> 	<path d="M68.293,295.591v8.775h-1.422v-25.298h6.639c1.93,0.263,3.568,1.069,4.917,2.42 		c1.614,1.611,2.42,3.557,2.42,5.833c0,2.288-0.806,4.236-2.42,5.851c-1.612,1.612-3.558,2.419-5.834,2.419H68.293z M68.293,280.508 		v13.644h4.3c1.876,0,3.481-0.665,4.815-1.998c1.333-1.334,2-2.944,2-4.832c0-1.886-0.667-3.494-2-4.821 		c-1.333-1.328-2.938-1.992-4.815-1.992H68.293z"/> 	<path d="M90.239,295.574c-0.137,0.01-0.279,0.017-0.427,0.017h-4.3v8.775h-1.422v-25.298h6.639 		c1.93,0.263,3.568,1.069,4.917,2.42c1.614,1.611,2.42,3.557,2.42,5.833c0,2.288-0.806,4.236-2.42,5.851 		c-1.117,1.117-2.398,1.849-3.842,2.196l5.835,8.998h-1.755L90.239,295.574z M85.512,280.508v13.644h4.3 		c1.876,0,3.481-0.665,4.815-1.998c1.333-1.334,2-2.944,2-4.832c0-1.886-0.667-3.494-2-4.821c-1.333-1.328-2.938-1.992-4.815-1.992 		H85.512z"/> 	<polygon points="113.954,279.068 113.954,280.49 102.729,280.49 102.729,291.005 113.954,291.005 113.954,292.43  		102.729,292.43 102.729,302.942 113.954,302.942 113.954,304.365 101.306,304.365 101.306,279.068 	"/> 	<polygon points="119.931,279.068 129.433,295.511 138.92,279.068 140.549,279.068 140.485,279.18 140.485,304.365  		139.062,304.365 139.062,281.646 129.433,298.311 119.788,281.646 119.788,304.365 118.365,304.365 118.365,279.18  		118.303,279.068 	"/> 	<rect x="145.606" y="279.068" width="1.424" height="25.297"/> 	<path d="M173.852,282.509c2.536,2.533,3.804,5.593,3.804,9.177c0,3.583-1.268,6.643-3.804,9.178 		c-2.533,2.535-5.595,3.802-9.177,3.802c-3.584,0-6.645-1.267-9.178-3.802c-2.535-2.535-3.802-5.595-3.802-9.178 		c0-3.584,1.267-6.644,3.802-9.177c2.533-2.536,5.594-3.805,9.178-3.805C168.257,278.704,171.318,279.973,173.852,282.509 		 M164.675,280.159c-3.184,0-5.901,1.126-8.15,3.377c-2.251,2.249-3.377,4.967-3.377,8.149s1.126,5.903,3.377,8.158 		c2.249,2.256,4.967,3.383,8.15,3.383c3.183,0,5.899-1.127,8.149-3.383c2.25-2.255,3.377-4.976,3.377-8.158s-1.127-5.9-3.377-8.149 		C170.574,281.285,167.857,280.159,164.675,280.159"/> 	<path d="M188.295,290.356c-1.803-0.601-3.225-1.422-4.269-2.466c-1.043-1.043-1.563-2.309-1.563-3.794 		c0-1.455,0.521-2.706,1.563-3.756c1.044-1.049,2.309-1.573,3.795-1.573c1.477,0,2.74,0.521,3.794,1.564 		c0.579,0.561,0.979,1.188,1.201,1.883l-1.28,0.506c-0.188-0.517-0.5-0.99-0.933-1.423c-0.77-0.76-1.697-1.139-2.782-1.139 		c-1.086,0-2.014,0.382-2.783,1.146c-0.77,0.764-1.153,1.694-1.153,2.791c0,1.086,0.384,2.013,1.153,2.782 		c0.717,0.706,1.707,1.354,2.973,1.945c2.023,0.652,3.727,1.67,5.106,3.052c1.464,1.452,2.197,3.215,2.197,5.281 		c0,2.074-0.733,3.845-2.197,5.311c-1.465,1.465-3.23,2.197-5.296,2.197c-2.066,0-3.832-0.737-5.296-2.214 		c-1.171-1.17-1.872-2.528-2.104-4.077l1.344-0.49c0.148,1.369,0.732,2.565,1.755,3.589c1.191,1.19,2.625,1.785,4.301,1.785 		c1.686,0,3.125-0.595,4.316-1.785c1.19-1.192,1.786-2.632,1.786-4.315c0-1.677-0.596-3.109-1.786-4.302 		C191.094,291.812,189.813,290.979,188.295,290.356"/> 	<polygon points="11.513,309.105 14.081,309.105 35.401,346.014 35.401,309.105 37.735,309.105 37.735,350.604  		35.401,350.604 13.848,313.334 13.848,350.604 11.513,350.604 	"/> 	<path d="M81.217,314.747c4.158,4.159,6.238,9.178,6.238,15.057s-2.08,10.897-6.238,15.056 		c-4.159,4.158-9.178,6.238-15.056,6.238c-5.879,0-10.897-2.08-15.056-6.238s-6.238-9.177-6.238-15.056s2.079-10.897,6.238-15.057 		s9.177-6.238,15.056-6.238C72.04,308.509,77.059,310.588,81.217,314.747 M66.161,310.896c-5.222,0-9.678,1.845-13.37,5.538 		c-3.691,3.691-5.538,8.147-5.538,13.37c0,5.222,1.846,9.683,5.538,13.384c3.692,3.699,8.148,5.551,13.37,5.551 		c5.222,0,9.678-1.852,13.371-5.551c3.691-3.701,5.537-8.162,5.537-13.384c0-5.223-1.845-9.679-5.537-13.37 		C75.839,312.74,71.383,310.896,66.161,310.896"/> 	<path d="M104.677,336.185c-0.224,0.018-0.458,0.025-0.701,0.025h-7.054v14.395h-2.334v-41.499h10.895 		c3.164,0.433,5.852,1.756,8.065,3.969c2.645,2.646,3.968,5.836,3.968,9.57c0,3.753-1.323,6.951-3.968,9.598 		c-1.834,1.833-3.934,3.033-6.303,3.605l9.571,14.757h-2.879L104.677,336.185z M96.922,311.467v22.384h7.054 		c3.078,0,5.711-1.094,7.898-3.282c2.188-2.187,3.282-4.827,3.282-7.924c0-3.095-1.095-5.731-3.282-7.909 		c-2.187-2.179-4.82-3.269-7.898-3.269H96.922z"/> 	<polygon points="135.309,314.475 135.309,350.604 129.914,350.604 129.914,314.475 120.239,314.475  		120.239,309.105 144.983,309.105 144.983,314.475 	"/> 	<path d="M160.44,337.325h-4.901v13.28h-5.369v-41.5h11.775c3.337,0.449,6.156,1.825,8.455,4.125 		c2.75,2.767,4.123,6.088,4.123,9.96c0,3.907-1.373,7.244-4.123,10.011c-1.901,1.901-3.354,2.973-4.357,3.216l9.207,14.188h-6.51 		L160.44,337.325z M155.539,314.501v17.429h4.901c2.386,0,4.431-0.852,6.136-2.554c1.703-1.704,2.554-3.765,2.554-6.186 		c0-2.404-0.851-4.454-2.554-6.148c-1.705-1.694-3.75-2.541-6.136-2.541H155.539z"/> 	<path d="M195.949,309.105l15.095,41.499h-5.707l-5.342-14.68h-10.999l-5.315,14.68h-5.732l15.095-41.499H195.949z 		 M198.05,330.556l-3.555-9.726l-3.527,9.726H198.05z"/> 	<rect x="216.75" y="309.105" width="5.369" height="41.499"/> 	<polygon points="230.444,350.604 230.444,309.105 235.813,309.105 235.813,345.209 250.647,345.209  		250.647,350.604 	"/> 	<line x1="58.824" y1="289.296" x2="12.739" y2="289.296"/> 	<rect x="12.739" y="287.516" width="46.085" height="3.56"/> 	<line x1="247.866" y1="289.296" x2="201.78" y2="289.296"/> 	<rect x="201.78" y="287.516" width="46.085" height="3.56"/> 	<g> 		<path d="M12.504,360.56l5.398,9.341l5.389-9.341h0.925l-0.036,0.063v14.309h-0.808v-12.907l-5.47,9.467 			l-5.479-9.467v12.907h-0.809v-14.309l-0.036-0.063H12.504z"/> 		<path d="M33.545,360.56v0.808h-6.377v5.974h6.377v0.809h-6.377v5.973h6.377v0.809h-7.186V360.56H33.545z"/> 		<path d="M40.422,372.2c0,0.91-0.24,1.604-0.719,2.084c-0.509,0.515-1.126,0.772-1.85,0.772 			c-0.725,0-1.342-0.256-1.851-0.769c-0.509-0.512-0.764-1.073-0.764-1.684l0.53-0.207c0.12,0.646,0.374,1.132,0.763,1.455 			c0.324,0.275,0.689,0.413,1.096,0.413c0.072,0,0.146-0.006,0.225-0.018c0.497,0,0.925-0.177,1.284-0.53 			c0.317-0.317,0.476-0.853,0.476-1.607V360.56h0.809V372.2z"/> 		<path d="M54.974,362.513c1.44,1.44,2.16,3.179,2.16,5.214c0,2.036-0.72,3.774-2.16,5.215 			c-1.44,1.439-3.178,2.16-5.214,2.16s-3.774-0.721-5.214-2.16c-1.44-1.44-2.161-3.179-2.161-5.215c0-2.035,0.72-3.773,2.161-5.214 			c1.44-1.44,3.178-2.16,5.214-2.16S53.533,361.072,54.974,362.513z M49.759,361.179c-1.809,0-3.352,0.64-4.63,1.918 			s-1.917,2.822-1.917,4.63c0,1.809,0.639,3.354,1.917,4.635c1.278,1.282,2.822,1.923,4.63,1.923s3.352-0.641,4.63-1.923 			c1.278-1.281,1.917-2.826,1.917-4.635c0-1.808-0.639-3.352-1.917-4.63S51.568,361.179,49.759,361.179z"/> 		<path d="M62.546,369.937c-0.078,0.006-0.159,0.009-0.242,0.009H59.86v4.985h-0.809V360.56h3.772 			c1.096,0.149,2.027,0.607,2.793,1.374c0.917,0.916,1.375,2.021,1.375,3.314c0,1.299-0.458,2.407-1.375,3.323 			c-0.635,0.635-1.362,1.051-2.183,1.248l3.314,5.111h-0.997L62.546,369.937z M59.86,361.377v7.751h2.443 			c1.065,0,1.977-0.378,2.735-1.136c0.757-0.758,1.136-1.672,1.136-2.744s-0.379-1.985-1.136-2.739 			c-0.758-0.755-1.669-1.132-2.735-1.132H59.86z"/> 		<path d="M85.559,372.641l0.611,0.548c-1.401,1.275-3.051,1.913-4.949,1.913c-2.036,0-3.771-0.717-5.205-2.151 			s-2.151-3.169-2.151-5.205c0-2.03,0.717-3.764,2.151-5.201c1.434-1.437,3.169-2.155,5.205-2.155c1.898,0,3.548,0.638,4.949,1.913 			l-0.611,0.557c-1.233-1.096-2.68-1.644-4.338-1.644c-1.802,0-3.341,0.638-4.617,1.913s-1.913,2.814-1.913,4.617 			c0,1.809,0.638,3.351,1.913,4.626s2.814,1.913,4.617,1.913C82.879,374.284,84.326,373.736,85.559,372.641z"/> 		<path d="M94.448,369.425h-4.976l-2.003,5.506h-0.862l5.354-14.704l5.344,14.704h-0.854L94.448,369.425z 			 M94.151,368.616l-2.191-6.027l-2.192,6.027H94.151z"/> 		<path d="M102.042,369.937c-0.078,0.006-0.159,0.009-0.242,0.009h-2.443v4.985h-0.809V360.56h3.772 			c1.096,0.149,2.027,0.607,2.793,1.374c0.917,0.916,1.375,2.021,1.375,3.314c0,1.299-0.458,2.407-1.375,3.323 			c-0.635,0.635-1.362,1.051-2.183,1.248l3.314,5.111h-0.997L102.042,369.937z M99.357,361.377v7.751h2.443 			c1.065,0,1.977-0.378,2.735-1.136c0.757-0.758,1.136-1.672,1.136-2.744s-0.379-1.985-1.136-2.739 			c-0.758-0.755-1.669-1.132-2.735-1.132H99.357z"/> 		<path d="M111.272,369.937c-0.078,0.006-0.159,0.009-0.242,0.009h-2.443v4.985h-0.809V360.56h3.772 			c1.096,0.149,2.027,0.607,2.793,1.374c0.917,0.916,1.375,2.021,1.375,3.314c0,1.299-0.458,2.407-1.375,3.323 			c-0.635,0.635-1.362,1.051-2.183,1.248l3.314,5.111h-0.997L111.272,369.937z M108.587,361.377v7.751h2.443 			c1.065,0,1.977-0.378,2.735-1.136c0.757-0.758,1.136-1.672,1.136-2.744s-0.379-1.985-1.136-2.739 			c-0.758-0.755-1.669-1.132-2.735-1.132H108.587z"/> 		<path d="M124.194,360.56v0.808h-6.377v5.974h6.377v0.809h-6.377v5.973h6.377v0.809h-7.186V360.56H124.194z"/> 		<path d="M129.606,369.937c-0.078,0.006-0.159,0.009-0.243,0.009h-2.443v4.985h-0.809V360.56h3.773 			c1.096,0.149,2.026,0.607,2.793,1.374c0.916,0.916,1.374,2.021,1.374,3.314c0,1.299-0.458,2.407-1.374,3.323 			c-0.635,0.635-1.362,1.051-2.183,1.248l3.314,5.111h-0.997L129.606,369.937z M126.92,361.377v7.751h2.443 			c1.066,0,1.978-0.378,2.735-1.136s1.136-1.672,1.136-2.744s-0.378-1.985-1.136-2.739c-0.758-0.755-1.669-1.132-2.735-1.132H126.92 			z"/> 		<path d="M142.285,369.425h-4.977l-2.003,5.506h-0.862l5.354-14.704l5.344,14.704h-0.853L142.285,369.425z 			 M141.988,368.616l-2.191-6.027l-2.192,6.027H141.988z"/> 		<path d="M153.001,368.49v6.44h-0.808V360.56h0.808v7.122h6.019v-7.122h0.809v14.371h-0.809v-6.44H153.001z"/> 		<path d="M168.915,369.425h-4.977l-2.003,5.506h-0.862l5.354-14.704l5.344,14.704h-0.853L168.915,369.425z 			 M168.618,368.616l-2.191-6.027l-2.192,6.027H168.618z"/> 		<path d="M177.102,366.973c-1.023-0.342-1.832-0.809-2.425-1.401s-0.89-1.312-0.89-2.156 			c0-0.826,0.297-1.537,0.89-2.133s1.312-0.894,2.155-0.894c0.839,0,1.558,0.296,2.156,0.889c0.329,0.317,0.557,0.674,0.683,1.069 			l-0.728,0.287c-0.107-0.293-0.284-0.563-0.53-0.809c-0.437-0.431-0.964-0.646-1.581-0.646c-0.616,0-1.144,0.218-1.58,0.651 			c-0.438,0.435-0.656,0.963-0.656,1.585c0,0.617,0.219,1.145,0.656,1.581c0.407,0.401,0.97,0.77,1.688,1.105 			c1.149,0.371,2.116,0.949,2.901,1.733c0.832,0.826,1.248,1.826,1.248,3c0,1.18-0.416,2.186-1.248,3.018 			c-0.833,0.833-1.836,1.249-3.01,1.249c-1.173,0-2.177-0.419-3.009-1.258c-0.664-0.665-1.063-1.438-1.194-2.317l0.764-0.278 			c0.083,0.778,0.416,1.458,0.997,2.039c0.676,0.677,1.49,1.015,2.442,1.015c0.958,0,1.775-0.338,2.452-1.015 			s1.016-1.494,1.016-2.452c0-0.952-0.339-1.767-1.016-2.443C178.691,367.799,177.964,367.326,177.102,366.973z"/> 		<path d="M185.883,361.367v13.563h-0.809v-13.563h-3.638v-0.808h8.084v0.808H185.883z"/> 		<path d="M197.053,369.425h-4.977l-2.003,5.506h-0.862l5.354-14.704l5.344,14.704h-0.853L197.053,369.425z 			 M196.756,368.616l-2.191-6.027l-2.192,6.027H196.756z"/> 		<path d="M208.914,371.037c0.991-0.739,1.867-1.396,2.628-1.968c0.76-0.571,1.467-1.214,2.119-1.926 			c0.652-0.713,0.979-1.542,0.979-2.488c0-0.952-0.336-1.764-1.006-2.435c-0.671-0.67-1.482-1.006-2.435-1.006 			c-0.94,0-1.749,0.336-2.425,1.006c-0.575,0.575-0.904,1.261-0.988,2.057l-0.817-0.296c0.138-0.898,0.539-1.683,1.203-2.354 			c0.839-0.844,1.848-1.267,3.027-1.267c1.186,0,2.196,0.42,3.031,1.258c0.836,0.838,1.253,1.851,1.253,3.036 			c0,1.18-0.41,2.209-1.23,3.09c-0.557,0.604-1.216,1.191-1.976,1.761c-0.761,0.568-1.617,1.209-2.569,1.922 			s-1.545,1.61-1.778,2.694h7.554v0.809h-8.47C207.29,373.074,207.923,371.776,208.914,371.037z"/> 		<path d="M218.822,365.023c0.299-0.096,0.635-0.186,1.006-0.27c0.383-0.065,0.755-0.099,1.113-0.099 			c0.659,0,1.291,0.104,1.896,0.314c1.354,0.461,2.359,1.312,3.019,2.551c0.413,0.772,0.619,1.563,0.619,2.371 			c0,0.503-0.078,1.009-0.233,1.518c-0.413,1.348-1.239,2.354-2.479,3.019c-0.755,0.401-1.533,0.602-2.336,0.602 			c-0.509,0-1.027-0.081-1.554-0.242c-1.078-0.329-1.922-0.91-2.533-1.743l0.575-0.638c0.509,0.755,1.245,1.279,2.209,1.572 			c0.432,0.132,0.856,0.197,1.276,0.197c0.67,0,1.323-0.167,1.958-0.503c1.035-0.551,1.728-1.389,2.074-2.515 			c0.132-0.432,0.198-0.856,0.198-1.275c0-0.671-0.171-1.326-0.513-1.967c-0.551-1.03-1.389-1.743-2.515-2.139 			c-0.485-0.167-1.018-0.251-1.599-0.251c-0.761,0-1.605,0.146-2.533,0.44l-0.646-0.566l1.652-4.554v-0.287h4.491v0.808h-3.817 			L218.822,365.023z"/> 		<path d="M229.121,367.97v6.961h-0.808V360.56h0.808v6.116l4.591-6.116h1.041l-4.311,5.784l5.568,8.587h-0.997 			l-5.102-7.94L229.121,367.97z"/> 		<path d="M238.539,360.56l5.398,9.341l5.39-9.341h0.925l-0.036,0.063v14.309h-0.809v-12.907l-5.47,9.467 			l-5.479-9.467v12.907h-0.809v-14.309l-0.035-0.063H238.539z"/> 	</g> 	<g> 		<path d="M107.285,387.167c0.186,0.184,0.279,0.407,0.279,0.67c0,0.271-0.093,0.498-0.279,0.682 			c-0.186,0.185-0.41,0.276-0.672,0.276c-0.258,0-0.481-0.092-0.669-0.276c-0.188-0.184-0.282-0.411-0.282-0.682 			c0-0.263,0.094-0.486,0.282-0.67c0.188-0.184,0.411-0.275,0.669-0.275C106.875,386.892,107.099,386.983,107.285,387.167z"/> 		<path d="M113.226,390.126c0.839-0.625,1.554-1.159,2.146-1.602c0.592-0.443,1.121-0.919,1.586-1.429 			s0.699-1.075,0.699-1.698s-0.22-1.153-0.66-1.591c-0.44-0.437-0.972-0.655-1.594-0.655c-0.613,0-1.14,0.219-1.583,0.655 			c-0.376,0.376-0.61,1.024-0.703,1.946l-1.598-0.579c0.165-1.07,0.548-1.909,1.15-2.517c0.756-0.762,1.667-1.143,2.733-1.143 			c1.076,0,1.99,0.378,2.744,1.135c0.754,0.756,1.131,1.673,1.131,2.748c0,1.061-0.366,1.984-1.096,2.771 			c-0.463,0.499-1.002,0.979-1.618,1.439c-0.615,0.461-1.298,0.975-2.049,1.54c-0.659,0.489-1.027,0.911-1.104,1.267h5.867v1.605 			h-7.743C111.824,392.05,112.387,390.751,113.226,390.126z"/> 		<path d="M129.816,389.829c0,1.209-0.429,2.242-1.285,3.099c-0.857,0.857-1.893,1.286-3.107,1.286 			c-1.209,0-2.243-0.429-3.1-1.286c-0.857-0.856-1.285-1.89-1.285-3.099v-3.775c0-1.209,0.428-2.243,1.285-3.1s1.89-1.285,3.1-1.285 			c1.214,0,2.25,0.429,3.107,1.285c0.856,0.856,1.285,1.891,1.285,3.1V389.829z M128.18,386.054c0-0.757-0.269-1.402-0.807-1.938 			c-0.538-0.535-1.188-0.803-1.949-0.803c-0.757,0-1.404,0.268-1.941,0.803c-0.538,0.535-0.807,1.181-0.807,1.938v3.775 			c0,0.762,0.269,1.41,0.807,1.945c0.538,0.535,1.185,0.803,1.941,0.803c0.762,0,1.411-0.268,1.949-0.803 			c0.538-0.535,0.807-1.184,0.807-1.945V386.054z"/> 		<path d="M137.296,381.669v12.352h-1.598v-10.268h-1.182l1.622-2.084H137.296z"/> 		<path d="M148.324,386.335c-1.279,1.434-2.269,2.647-2.968,3.641c-0.7,0.993-1.076,2.342-1.128,4.045H142.6 			c0.063-2.104,0.489-3.712,1.282-4.821c0.792-1.108,1.736-2.277,2.833-3.505c1.096-1.228,1.686-2.036,1.768-2.428h-5.867v-1.598 			h7.682C150.261,383.347,149.604,384.902,148.324,386.335z"/> 		<path d="M153.881,387.167c0.187,0.184,0.279,0.407,0.279,0.67c0,0.271-0.093,0.498-0.279,0.682 			c-0.186,0.185-0.409,0.276-0.672,0.276c-0.259,0-0.481-0.092-0.67-0.276c-0.188-0.184-0.281-0.411-0.281-0.682 c0-0.263,0.094-0.486,0.281-0.67c0.188-0.184,0.411-0.275,0.67-0.275C153.472,386.892,153.695,386.983,153.881,387.167z"/></g></g>
	</symbol>
</svg>