<svg xmlns="http://www.w3.org/2000/svg">
	<symbol id="logo-tvs" viewBox="0 0 300 400">
		<path d="M34.92,92.542c0,0,31.824-44.516,44.221-45.99c8.834-1.051,22.049,22.126,30.955,21.813
			c14.06-0.494,30.15-41.445,44.222-41.445c13.267,0,29.807,33.424,44.221,33.592c6.446,0.076,17.688-21.813,26.533-17.886
			c11.906,5.286,39.798,49.917,39.798,49.917H34.92z"/>
		<path d="M147.351,248.702c0,19.758-16.017,35.776-35.777,35.776c-19.759,0-35.777-16.019-35.777-35.776
			c0-19.762,16.018-35.779,35.777-35.779C131.334,212.923,147.351,228.94,147.351,248.702z"/>
		<path d="M224.288,248.05c0,19.758-16.021,35.776-35.78,35.776c-19.758,0-35.776-16.019-35.776-35.776
			c0-19.763,16.019-35.779,35.776-35.779C208.268,212.271,224.288,228.287,224.288,248.05z"/>
		<rect x="30.048" y="237.54" width="38.757" height="22.32"/>
		<rect x="231.421" y="238.192" width="38.778" height="22.32"/>
		<path d="M79.753,312.767v58.94H60.918v-58.94H38.801v-15.238h63.28v15.238H79.753z"/>
		<path d="M139.542,371.707l-28.783-74.072h20.106l18.941,54.496l18.941-54.496h19.365l-29.101,74.072H139.542z"/>
		<path d="M261.235,305.042l-7.09,14.708c-7.83-4.55-17.671-7.725-23.703-7.725c-4.867,0-8.148,1.798-8.148,5.397
			c0,12.803,39.152,5.502,39.152,32.273c0,14.815-13.12,22.646-29.628,22.646c-12.381,0-25.079-4.655-33.862-11.852l7.302-14.498
			c7.619,6.669,19.047,11.112,26.771,11.112c5.927,0,9.63-2.222,9.63-6.455c0-13.121-39.153-5.29-39.153-31.534
			c0-13.65,11.747-22.327,29.523-22.327C242.718,296.788,253.616,300.067,261.235,305.042z"/>
		<path d="M229.075,231.196l-6.586-29.268c18.07-4.066,20.189-7.84,22.433-11.835
			c6.09-10.845,9.262-44.565,10.065-71.821H44.805c0.81,27.267,3.983,60.994,10.063,71.821c2.244,3.996,4.362,7.77,22.432,11.835
			l-6.585,29.268c-22.673-5.101-34.057-12.26-42.005-26.415c-13.722-24.438-14.164-88.896-14.113-101.569l0.06-14.94h270.474
			l0.061,14.939c0.051,12.673-0.39,77.132-14.111,101.57C263.132,218.937,251.747,226.096,229.075,231.196z"/>
    </symbol>
	<symbol id="logo-cumbre" viewBox="0 0 62 86">
		<path class="u-fill" fill="#757575" d="M9.852,1c3.016,0,5.311,1.243,6.869,3.72c0.387,1.452,0.582,2.725,0.582,3.819
			c0,0.674-0.069,2.979-0.215,6.911c0,2.01,0.364,7.113,1.098,15.291c6.825,0.248,13.475,0.367,19.959,0.367
			c3.75,0,5.628-0.152,5.628-0.476c1.021-11.114,1.971-18.955,2.851-23.521c1.511-2.517,3.752-3.77,6.726-3.77h0.734
			c2.922,0,5.119,1.213,6.576,3.661c0.248,0.493,0.367,0.936,0.367,1.329V8.86c-0.582,4.143-1.533,12.374-2.85,24.695
			c-0.344,1.664-0.881,3.039-1.607,4.14c-1.125,1.531-2.881,2.573-5.265,3.132c-0.688,0.426-4.999,0.764-12.942,1.008
			c-17.06,0-26.467-0.506-28.227-1.538c-2.289-0.668-3.995-1.766-5.116-3.293c-0.731-0.635-1.339-3.218-1.829-7.751
			c-0.536-7.434-0.8-12.037-0.8-13.803c0-0.959,0.073-3.228,0.218-6.802C2.366,7.375,2.247,6.575,2.247,6.254
			c0-2.401,1.872-4.1,5.625-5.096C8.751,1.056,9.406,1,9.852,1"/>
		<path class="u-border" fill="none" stroke="#757575" stroke-miterlimit="10" d="M9.852,1c3.016,0,5.311,1.243,6.869,3.72
			c0.387,1.452,0.582,2.725,0.582,3.819c0,0.674-0.069,2.979-0.215,6.911c0,2.01,0.364,7.113,1.098,15.291
			c6.825,0.248,13.475,0.367,19.959,0.367c3.75,0,5.628-0.152,5.628-0.476c1.021-11.114,1.971-18.955,2.851-23.521
			c1.511-2.517,3.752-3.77,6.726-3.77h0.734c2.922,0,5.119,1.213,6.576,3.661c0.248,0.493,0.367,0.936,0.367,1.329V8.86
			c-0.582,4.143-1.533,12.374-2.85,24.695c-0.344,1.664-0.881,3.039-1.607,4.14c-1.125,1.531-2.881,2.573-5.265,3.132
			c-0.688,0.426-4.999,0.764-12.942,1.008c-17.06,0-26.467-0.506-28.227-1.538c-2.289-0.668-3.995-1.766-5.116-3.293
			c-0.731-0.635-1.339-3.218-1.829-7.751c-0.536-7.434-0.8-12.037-0.8-13.803c0-0.959,0.073-3.228,0.218-6.802
			C2.366,7.375,2.247,6.575,2.247,6.254c0-2.401,1.872-4.1,5.625-5.096C8.751,1.056,9.406,1,9.852,1z"/>
		<path class="topDash-fill" fill="#757575" d="M49.255,50.387c2.969,0,5.239,1.416,6.799,4.242c0.348,0.867,0.516,1.674,0.516,2.414
			c0,2.83-1.688,4.895-5.046,6.201c-1.27,0.693-12.043,1.045-32.314,1.045c-3.026,0.131-6.706,0.416-11.044,0.846
			c-2.973,0-5.268-1.498-6.875-4.5C1.103,59.852,1,59.26,1,58.869v-0.391c0-3.264,2.073-5.424,6.22-6.461
			c4.676-0.697,15.694-1.042,33.042-1.042C42.894,50.975,45.89,50.774,49.255,50.387"/>
		<path class="topDash-border" fill="none" stroke="#757575" stroke-width="0.2" stroke-miterlimit="10" d="M49.255,50.387c2.969,0,5.239,1.416,6.799,4.242
			c0.348,0.867,0.516,1.674,0.516,2.414c0,2.83-1.688,4.895-5.046,6.201c-1.27,0.693-12.043,1.045-32.314,1.045
			c-3.026,0.131-6.706,0.416-11.044,0.846c-2.973,0-5.268-1.498-6.875-4.5C1.103,59.852,1,59.26,1,58.869v-0.391
			c0-3.264,2.073-5.424,6.22-6.461c4.676-0.697,15.694-1.042,33.042-1.042C42.894,50.975,45.89,50.774,49.255,50.387z"/>
		<path class="bottomDash" fill="#FFFFFF" stroke="#FFFFFF" stroke-width="0.2" stroke-miterlimit="10" d="M40.854,69.357
			c2.047,0,3.925,0.979,5.625,2.938c0.83,1.176,1.243,2.436,1.243,3.785c0,2.914-1.849,5.008-5.556,6.264
			c-4.729,0.525-11.746,1.068-21.058,1.637c-5.654,0-9.061-1.006-10.234-3.006c-0.976-1.174-1.461-2.461-1.461-3.85
			c0-3.045,1.855-5.178,5.559-6.398c0.777-0.129,1.316-0.197,1.607-0.197c2.778,0.135,4.289,0.225,4.53,0.264L40.854,69.357z"/>	
	</symbol>
	<symbol id="twitter" viewBox="0 0 30 26">
		<path d="M29.207,3.72c-0.801,1.169-1.768,2.167-2.899,2.99c0.01,0.167,0.019,0.417,0.019,0.751
			c0,1.551-0.228,3.1-0.682,4.644c-0.454,1.547-1.143,3.03-2.067,4.448c-0.925,1.422-2.025,2.675-3.299,3.766
			c-1.279,1.094-2.818,1.963-4.62,2.615c-1.802,0.649-3.729,0.977-5.781,0.977c-3.233,0-6.192-0.867-8.878-2.597
			c0.417,0.05,0.884,0.07,1.396,0.07c2.684,0,5.076-0.822,7.178-2.47c-1.253-0.021-2.375-0.407-3.366-1.153
			c-0.99-0.747-1.67-1.697-2.04-2.855c0.394,0.063,0.757,0.089,1.091,0.089c0.513,0,1.021-0.063,1.522-0.196
			c-1.337-0.274-2.443-0.94-3.32-1.996s-1.316-2.281-1.316-3.678V9.053c0.812,0.454,1.682,0.698,2.613,0.733
			c-0.787-0.524-1.414-1.21-1.88-2.058C2.415,6.882,2.182,5.963,2.182,4.973c0-1.049,0.263-2.021,0.787-2.917
			c1.444,1.778,3.2,3.202,5.271,4.269c2.07,1.067,4.286,1.661,6.649,1.78c-0.097-0.453-0.144-0.894-0.144-1.324
			c0-1.599,0.564-2.961,1.691-4.089C17.563,1.564,18.927,1,20.529,1c1.67,0,3.076,0.608,4.222,1.826
			c1.301-0.25,2.522-0.716,3.671-1.396c-0.444,1.372-1.29,2.434-2.543,3.186C26.988,4.496,28.098,4.198,29.207,3.72z"/>	
	</symbol>
	<symbol id="facebook" viewBox="0 0 16 31">
		<path d="M16,0.363v4.89h-2.905c-1.064,0-1.777,0.223-2.15,0.667c-0.367,0.445-0.553,1.112-0.553,2v3.501h5.426
			l-0.724,5.479h-4.702v14.06H4.723v-14.06H0V11.42h4.723V7.382c0-2.296,0.642-4.077,1.926-5.343c1.285-1.266,2.995-1.898,5.131-1.898
			C13.595,0.141,15.001,0.215,16,0.363z"/>	
	</symbol>
	<symbol id="instagram" viewBox="0 0 29 28">
		<path d="M27.939,3.687v20.726c0,0.979-0.35,1.821-1.051,2.525c-0.703,0.699-1.545,1.051-2.523,1.051H3.637
			c-0.981,0-1.821-0.352-2.524-1.051c-0.702-0.704-1.052-1.546-1.052-2.525V3.687c0-0.981,0.351-1.821,1.052-2.522
			c0.703-0.702,1.543-1.054,2.524-1.054h20.728c0.979,0,1.82,0.352,2.523,1.054C27.59,1.866,27.939,2.706,27.939,3.687z M24.783,23.67
			V11.91h-2.451c0.242,0.762,0.363,1.555,0.363,2.377c0,1.524-0.389,2.932-1.162,4.218c-0.773,1.289-1.826,2.309-3.158,3.061
			c-1.332,0.751-2.781,1.125-4.356,1.125c-2.384,0-4.423-0.818-6.116-2.459c-1.696-1.642-2.542-3.621-2.542-5.945
			c0-0.822,0.121-1.615,0.363-2.377h-2.56v11.76c0,0.314,0.106,0.579,0.318,0.791c0.211,0.212,0.475,0.317,0.79,0.317h19.401
			c0.305,0,0.564-0.105,0.781-0.317S24.783,23.984,24.783,23.67z M17.986,17.833c1.094-1.059,1.641-2.335,1.641-3.836
			c0-1.5-0.547-2.78-1.641-3.839c-1.096-1.059-2.42-1.588-3.968-1.588c-1.537,0-2.852,0.529-3.948,1.588
			c-1.094,1.059-1.642,2.339-1.642,3.839c0,1.501,0.548,2.778,1.642,3.836c1.096,1.059,2.412,1.588,3.948,1.588
			C15.566,19.421,16.891,18.892,17.986,17.833z M24.783,7.463V4.468c0-0.339-0.121-0.633-0.365-0.88
			c-0.24-0.249-0.537-0.373-0.889-0.373h-3.158c-0.352,0-0.648,0.125-0.889,0.373c-0.242,0.248-0.363,0.542-0.363,0.88v2.995
			c0,0.351,0.121,0.647,0.363,0.889c0.24,0.242,0.537,0.363,0.889,0.363h3.158c0.352,0,0.648-0.121,0.889-0.363
			C24.662,8.11,24.783,7.813,24.783,7.463z"/>	
	</symbol>
	<symbol id="inscripcion-icon" viewBox="0 0 20 20">
		<path d="M10.977,3.563l5.461,5.459L5.518,19.941H0.059v-5.459L10.977,3.563z M4.822,18.262l1.194-1.193
			l-3.084-3.084l-1.194,1.193v1.404h1.681v1.68H4.822z M11.687,6.082c0-0.192-0.097-0.289-0.289-0.289
			c-0.087,0-0.162,0.032-0.223,0.092L4.062,13C4,13.061,3.97,13.135,3.97,13.223c0,0.193,0.096,0.289,0.289,0.289
			c0.087,0,0.162-0.031,0.223-0.094l7.113-7.113C11.655,6.244,11.687,6.17,11.687,6.082z M19.941,4.823
			c0,0.463-0.161,0.857-0.486,1.181l-2.179,2.178l-5.459-5.459l2.179-2.166c0.314-0.332,0.708-0.499,1.182-0.499
			c0.463,0,0.862,0.167,1.191,0.499l3.086,3.072C19.78,3.969,19.941,4.367,19.941,4.823z"/>
	</symbol>
	<symbol id="roadbook-icon" viewBox="0 0 26 25">
		<path d="M23.199,6.27c1.108,1.898,1.663,3.97,1.663,6.217c0,2.247-0.555,4.319-1.663,6.218c-1.107,1.897-2.61,3.398-4.509,4.507
			c-1.895,1.106-3.969,1.661-6.214,1.661c-2.248,0-4.32-0.555-6.217-1.661c-1.898-1.108-3.401-2.609-4.508-4.507
			c-1.108-1.898-1.662-3.971-1.662-6.218c0-2.248,0.554-4.319,1.662-6.217c1.106-1.898,2.609-3.4,4.508-4.508
			c1.897-1.108,3.97-1.662,6.217-1.662c2.246,0,4.32,0.554,6.214,1.662C20.589,2.87,22.092,4.372,23.199,6.27z M20.071,16.89
			c0.785-1.344,1.179-2.812,1.179-4.402c0-1.591-0.394-3.059-1.179-4.403c-0.785-1.344-1.85-2.409-3.192-3.194
			c-1.345-0.784-2.813-1.177-4.403-1.177c-1.592,0-3.06,0.393-4.403,1.177c-1.344,0.786-2.41,1.85-3.194,3.194
			c-0.784,1.344-1.177,2.812-1.177,4.403c0,1.591,0.393,3.059,1.177,4.402c0.785,1.344,1.85,2.409,3.194,3.192
			c1.343,0.786,2.811,1.179,4.403,1.179c1.59,0,3.058-0.393,4.403-1.179C18.222,19.299,19.286,18.233,20.071,16.89z M16.604,6.052
			v8.742l-8.256,4.128v-8.741L16.604,6.052z M10.411,15.584l4.129-2.064l-4.129-2.065V15.584z"/>		
	</symbol>
	<symbol id="patrimonioIndustrial-icon" viewBox="0 0 25 25">
		<path d="M6.121,0.089c0.233,0,0.435,0.085,0.605,0.255c0.171,0.171,0.256,0.373,0.256,0.606v11.995l7.217-5.775
			c0.151-0.126,0.331-0.188,0.537-0.188c0.234,0,0.436,0.085,0.606,0.255c0.171,0.171,0.256,0.374,0.256,0.606v5.103l7.217-5.775
			c0.152-0.126,0.331-0.188,0.537-0.188c0.234,0,0.438,0.085,0.606,0.255c0.17,0.171,0.256,0.374,0.256,0.606v15.511
			c0,0.23-0.086,0.432-0.256,0.604c-0.169,0.17-0.372,0.256-0.606,0.256H0.951c-0.233,0-0.436-0.086-0.605-0.256
			c-0.171-0.173-0.256-0.374-0.256-0.604V0.951c0-0.233,0.085-0.436,0.256-0.606c0.17-0.17,0.372-0.255,0.605-0.255H6.121z"/>		
	</symbol>
	<symbol id="patrimonioNatural-icon" viewBox="0 0 21 25">
		<path d="M20.384,20.387c0,0.239-0.086,0.446-0.261,0.619c-0.175,0.175-0.382,0.262-0.621,0.262h-6.36
			c0.01,0.155,0.036,0.558,0.083,1.205c0.045,0.647,0.067,1.145,0.067,1.494c0,0.229-0.082,0.424-0.247,0.585
			c-0.166,0.16-0.363,0.241-0.592,0.241H8.046c-0.229,0-0.427-0.081-0.591-0.241c-0.166-0.161-0.249-0.355-0.249-0.585
			c0-0.35,0.022-0.847,0.069-1.494s0.073-1.05,0.083-1.205H0.998c-0.239,0-0.445-0.087-0.621-0.262
			c-0.173-0.173-0.261-0.38-0.261-0.619c0-0.238,0.087-0.445,0.261-0.62l5.537-5.548H2.76c-0.238,0-0.445-0.086-0.62-0.261
			c-0.175-0.175-0.262-0.382-0.262-0.619c0-0.239,0.087-0.446,0.262-0.621L7.676,7.17H4.962c-0.238,0-0.444-0.087-0.62-0.262
			c-0.175-0.175-0.261-0.381-0.261-0.62c0-0.238,0.086-0.444,0.261-0.62l5.287-5.288c0.176-0.173,0.381-0.261,0.621-0.261
			c0.238,0,0.445,0.087,0.62,0.261l5.288,5.288c0.175,0.175,0.261,0.381,0.261,0.62c0,0.239-0.086,0.445-0.261,0.62
			s-0.381,0.262-0.62,0.262h-2.713l5.536,5.547c0.174,0.175,0.261,0.382,0.261,0.621c0,0.237-0.087,0.444-0.261,0.619
			c-0.175,0.175-0.382,0.261-0.621,0.261h-3.15l5.534,5.548C20.298,19.941,20.384,20.148,20.384,20.387z"/>		
	</symbol>
	<symbol id="recorrido-icon" viewBox="0 0 25 25">
		<path d="M21.503,10.554c0.236,0,0.441,0.087,0.614,0.26s0.259,0.377,0.259,0.613v3.493c0,0.236-0.086,0.44-0.259,0.613
			s-0.378,0.26-0.614,0.26H3.167c-0.364,0-0.673-0.128-0.927-0.382l-1.924-1.924c-0.091-0.091-0.136-0.195-0.136-0.313
			s0.045-0.224,0.136-0.314l1.924-1.924c0.254-0.254,0.563-0.382,0.927-0.382h6.985V7.935h3.493v2.619H21.503z M23.481,4.128
			c0.091,0.091,0.137,0.196,0.137,0.314s-0.046,0.223-0.137,0.314L21.558,6.68c-0.255,0.255-0.563,0.382-0.928,0.382H2.294
			c-0.236,0-0.441-0.086-0.614-0.259C1.508,6.63,1.421,6.425,1.421,6.188V2.696c0-0.236,0.086-0.441,0.259-0.614
			C1.854,1.91,2.058,1.823,2.294,1.823h7.858V0.95c0-0.237,0.086-0.441,0.259-0.614c0.173-0.172,0.377-0.259,0.614-0.259h1.747
			c0.237,0,0.441,0.087,0.614,0.259c0.173,0.173,0.26,0.377,0.26,0.614v0.873h6.984c0.364,0,0.673,0.127,0.928,0.382L23.481,4.128z
			 M10.152,16.666h3.493v6.984c0,0.236-0.087,0.441-0.26,0.614s-0.377,0.259-0.614,0.259h-1.747c-0.236,0-0.441-0.086-0.614-0.259
			s-0.259-0.378-0.259-0.614V16.666z"/>		
	</symbol>
	<symbol id="email" viewBox="0 0 30 24">
		<path d="M29.489,3.2v17.599c0,0.713-0.253,1.322-0.76,1.828c-0.509,0.508-1.116,0.762-1.828,0.762H3.088
			c-0.712,0-1.322-0.254-1.828-0.762c-0.507-0.506-0.76-1.115-0.76-1.828V3.2c0-0.712,0.253-1.321,0.76-1.828
			c0.506-0.507,1.116-0.76,1.828-0.76h23.813c0.712,0,1.319,0.253,1.828,0.76C29.236,1.878,29.489,2.488,29.489,3.2z M27.419,3.798
			c0-0.022,0-0.081,0-0.178s0-0.17,0-0.218s-0.002-0.119-0.009-0.21c-0.006-0.091-0.022-0.159-0.049-0.202
			c-0.025-0.043-0.056-0.091-0.088-0.146c-0.033-0.054-0.081-0.095-0.146-0.121c-0.063-0.027-0.139-0.041-0.226-0.041H3.088
			c-0.141,0-0.262,0.051-0.364,0.154C2.622,2.938,2.571,3.06,2.571,3.2c0,1.812,0.792,3.343,2.378,4.594
			c2.082,1.64,4.244,3.348,6.487,5.127c0.064,0.054,0.253,0.213,0.566,0.477c0.313,0.265,0.56,0.467,0.744,0.607
			c0.183,0.141,0.422,0.311,0.72,0.51c0.296,0.2,0.568,0.349,0.817,0.445c0.248,0.097,0.479,0.146,0.695,0.146h0.015h0.016
			c0.216,0,0.448-0.049,0.696-0.146c0.249-0.097,0.52-0.246,0.818-0.445c0.296-0.199,0.535-0.369,0.72-0.51
			c0.185-0.14,0.431-0.342,0.744-0.607c0.313-0.264,0.501-0.423,0.566-0.477c2.242-1.779,4.406-3.488,6.487-5.127
			c0.582-0.464,1.124-1.086,1.625-1.868C27.168,5.144,27.419,4.435,27.419,3.798z M27.419,20.799V8.376
			c-0.347,0.388-0.718,0.744-1.116,1.068c-2.89,2.221-5.188,4.043-6.892,5.467c-0.55,0.464-0.997,0.825-1.343,1.084
			c-0.346,0.259-0.811,0.521-1.399,0.783c-0.589,0.266-1.142,0.396-1.659,0.396h-0.016h-0.015c-0.518,0-1.071-0.131-1.658-0.396
			c-0.588-0.263-1.054-0.524-1.399-0.783c-0.345-0.26-0.793-0.621-1.343-1.084c-1.704-1.424-4-3.246-6.891-5.467
			c-0.399-0.324-0.771-0.68-1.116-1.068v12.422c0,0.141,0.051,0.262,0.154,0.365c0.102,0.104,0.223,0.152,0.364,0.152h23.813
			c0.14,0,0.261-0.049,0.363-0.152C27.368,21.061,27.419,20.939,27.419,20.799z"/>		
	</symbol>
	<symbol id="marker" viewBox="0 0 17 25">
		<path d="M16.531,8.133c0,1.141-0.17,2.076-0.516,2.809l-5.711,12.142c-0.168,0.344-0.416,0.616-0.746,0.815
			c-0.329,0.198-0.682,0.297-1.058,0.297s-0.729-0.099-1.06-0.297c-0.329-0.199-0.573-0.472-0.729-0.815L0.986,10.941
			c-0.345-0.732-0.518-1.668-0.518-2.809c0-2.217,0.784-4.11,2.353-5.679c1.569-1.568,3.462-2.353,5.68-2.353
			c2.217,0,4.11,0.785,5.679,2.353C15.748,4.023,16.531,5.916,16.531,8.133z M11.34,10.972c0.785-0.784,1.178-1.73,1.178-2.839
			c0-1.108-0.393-2.055-1.178-2.839c-0.784-0.785-1.73-1.177-2.839-1.177c-1.109,0-2.056,0.393-2.84,1.177
			c-0.784,0.784-1.177,1.73-1.177,2.839c0,1.109,0.393,2.056,1.177,2.839c0.784,0.785,1.73,1.177,2.84,1.177
			C9.609,12.149,10.556,11.757,11.34,10.972z"/>		
	</symbol>
</svg>