<svg xmlns="http://www.w3.org/2000/svg"><symbol id="logo-tvs" viewBox="0 0 300 400"><path d="M34.92 92.54c0 0 31.82-44.52 44.22-45.99 8.83-1.05 22.05 22.13 30.96 21.81 14.06-0.49 30.15-41.44 44.22-41.44 13.27 0 29.81 33.42 44.22 33.59 6.45 0.08 17.69-21.81 26.53-17.89 11.91 5.29 39.8 49.92 39.8 49.92H34.92z"/><path d="M147.35 248.7c0 19.76-16.02 35.78-35.78 35.78 -19.76 0-35.78-16.02-35.78-35.78 0-19.76 16.02-35.78 35.78-35.78C131.33 212.92 147.35 228.94 147.35 248.7z"/><path d="M224.29 248.05c0 19.76-16.02 35.78-35.78 35.78 -19.76 0-35.78-16.02-35.78-35.78 0-19.76 16.02-35.78 35.78-35.78C208.27 212.27 224.29 228.29 224.29 248.05z"/><rect x="30.05" y="237.54" width="38.76" height="22.32"/><rect x="231.42" y="238.19" width="38.78" height="22.32"/><path d="M79.75 312.77v58.94H60.92v-58.94H38.8v-15.24h63.28v15.24H79.75z"/><path d="M139.54 371.71l-28.78-74.07h20.11l18.94 54.5 18.94-54.5h19.36l-29.1 74.07H139.54z"/><path d="M261.24 305.04l-7.09 14.71c-7.83-4.55-17.67-7.72-23.7-7.72 -4.87 0-8.15 1.8-8.15 5.4 0 12.8 39.15 5.5 39.15 32.27 0 14.82-13.12 22.65-29.63 22.65 -12.38 0-25.08-4.65-33.86-11.85l7.3-14.5c7.62 6.67 19.05 11.11 26.77 11.11 5.93 0 9.63-2.22 9.63-6.45 0-13.12-39.15-5.29-39.15-31.53 0-13.65 11.75-22.33 29.52-22.33C242.72 296.79 253.62 300.07 261.24 305.04z"/><path d="M229.08 231.2l-6.59-29.27c18.07-4.07 20.19-7.84 22.43-11.83 6.09-10.84 9.26-44.56 10.07-71.82H44.81c0.81 27.27 3.98 60.99 10.06 71.82 2.24 4 4.36 7.77 22.43 11.84l-6.58 29.27c-22.67-5.1-34.06-12.26-42-26.41 -13.72-24.44-14.16-88.9-14.11-101.57l0.06-14.94h270.47l0.06 14.94c0.05 12.67-0.39 77.13-14.11 101.57C263.13 218.94 251.75 226.1 229.08 231.2z"/></symbol><symbol id="logo-cumbre" viewBox="0 0 62 86"><path class="u-fill" fill="#757575" d="M9.85 1c3.02 0 5.31 1.24 6.87 3.72 0.39 1.45 0.58 2.73 0.58 3.82 0 0.67-0.07 2.98-0.21 6.91 0 2.01 0.36 7.11 1.1 15.29 6.83 0.25 13.48 0.37 19.96 0.37 3.75 0 5.63-0.15 5.63-0.48 1.02-11.11 1.97-18.95 2.85-23.52 1.51-2.52 3.75-3.77 6.73-3.77h0.73c2.92 0 5.12 1.21 6.58 3.66 0.25 0.49 0.37 0.94 0.37 1.33V8.86c-0.58 4.14-1.53 12.37-2.85 24.7 -0.34 1.66-0.88 3.04-1.61 4.14 -1.12 1.53-2.88 2.57-5.26 3.13 -0.69 0.43-5 0.76-12.94 1.01 -17.06 0-26.47-0.51-28.23-1.54 -2.29-0.67-3.99-1.77-5.12-3.29 -0.73-0.63-1.34-3.22-1.83-7.75 -0.54-7.43-0.8-12.04-0.8-13.8 0-0.96 0.07-3.23 0.22-6.8C2.37 7.38 2.25 6.58 2.25 6.25c0-2.4 1.87-4.1 5.63-5.1C8.75 1.06 9.41 1 9.85 1"/><path class="u-border" fill="none" stroke="#757575" stroke-miterlimit="10" d="M9.85 1c3.02 0 5.31 1.24 6.87 3.72 0.39 1.45 0.58 2.73 0.58 3.82 0 0.67-0.07 2.98-0.21 6.91 0 2.01 0.36 7.11 1.1 15.29 6.83 0.25 13.48 0.37 19.96 0.37 3.75 0 5.63-0.15 5.63-0.48 1.02-11.11 1.97-18.95 2.85-23.52 1.51-2.52 3.75-3.77 6.73-3.77h0.73c2.92 0 5.12 1.21 6.58 3.66 0.25 0.49 0.37 0.94 0.37 1.33V8.86c-0.58 4.14-1.53 12.37-2.85 24.7 -0.34 1.66-0.88 3.04-1.61 4.14 -1.12 1.53-2.88 2.57-5.26 3.13 -0.69 0.43-5 0.76-12.94 1.01 -17.06 0-26.47-0.51-28.23-1.54 -2.29-0.67-3.99-1.77-5.12-3.29 -0.73-0.63-1.34-3.22-1.83-7.75 -0.54-7.43-0.8-12.04-0.8-13.8 0-0.96 0.07-3.23 0.22-6.8C2.37 7.38 2.25 6.58 2.25 6.25c0-2.4 1.87-4.1 5.63-5.1C8.75 1.06 9.41 1 9.85 1z"/><path class="topDash-fill" fill="#757575" d="M49.26 50.39c2.97 0 5.24 1.42 6.8 4.24 0.35 0.87 0.52 1.67 0.52 2.41 0 2.83-1.69 4.89-5.05 6.2 -1.27 0.69-12.04 1.05-32.31 1.05 -3.03 0.13-6.71 0.42-11.04 0.85 -2.97 0-5.27-1.5-6.87-4.5C1.1 59.85 1 59.26 1 58.87v-0.39c0-3.26 2.07-5.42 6.22-6.46 4.68-0.7 15.69-1.04 33.04-1.04C42.89 50.98 45.89 50.77 49.26 50.39"/><path class="topDash-border" fill="none" stroke="#757575" stroke-width="0.2" stroke-miterlimit="10" d="M49.26 50.39c2.97 0 5.24 1.42 6.8 4.24 0.35 0.87 0.52 1.67 0.52 2.41 0 2.83-1.69 4.89-5.05 6.2 -1.27 0.69-12.04 1.05-32.31 1.05 -3.03 0.13-6.71 0.42-11.04 0.85 -2.97 0-5.27-1.5-6.87-4.5C1.1 59.85 1 59.26 1 58.87v-0.39c0-3.26 2.07-5.42 6.22-6.46 4.68-0.7 15.69-1.04 33.04-1.04C42.89 50.98 45.89 50.77 49.26 50.39z"/><path class="bottomDash" fill="#FFFFFF" stroke="#FFFFFF" stroke-width="0.2" stroke-miterlimit="10" d="M40.85 69.36c2.05 0 3.93 0.98 5.63 2.94 0.83 1.18 1.24 2.44 1.24 3.79 0 2.91-1.85 5.01-5.56 6.26 -4.73 0.53-11.75 1.07-21.06 1.64 -5.65 0-9.06-1.01-10.23-3.01 -0.98-1.17-1.46-2.46-1.46-3.85 0-3.04 1.86-5.18 5.56-6.4 0.78-0.13 1.32-0.2 1.61-0.2 2.78 0.14 4.29 0.23 4.53 0.26L40.85 69.36z"/></symbol><symbol id="twitter" viewBox="0 0 30 26"><path d="M29.21 3.72c-0.8 1.17-1.77 2.17-2.9 2.99 0.01 0.17 0.02 0.42 0.02 0.75 0 1.55-0.23 3.1-0.68 4.64 -0.45 1.55-1.14 3.03-2.07 4.45 -0.92 1.42-2.02 2.68-3.3 3.77 -1.28 1.09-2.82 1.96-4.62 2.62 -1.8 0.65-3.73 0.98-5.78 0.98 -3.23 0-6.19-0.87-8.88-2.6 0.42 0.05 0.88 0.07 1.4 0.07 2.68 0 5.08-0.82 7.18-2.47 -1.25-0.02-2.37-0.41-3.37-1.15 -0.99-0.75-1.67-1.7-2.04-2.85 0.39 0.06 0.76 0.09 1.09 0.09 0.51 0 1.02-0.06 1.52-0.2 -1.34-0.27-2.44-0.94-3.32-2s-1.32-2.28-1.32-3.68V9.05c0.81 0.45 1.68 0.7 2.61 0.73 -0.79-0.52-1.41-1.21-1.88-2.06C2.42 6.88 2.18 5.96 2.18 4.97c0-1.05 0.26-2.02 0.79-2.92 1.44 1.78 3.2 3.2 5.27 4.27 2.07 1.07 4.29 1.66 6.65 1.78 -0.1-0.45-0.14-0.89-0.14-1.32 0-1.6 0.56-2.96 1.69-4.09C17.56 1.56 18.93 1 20.53 1c1.67 0 3.08 0.61 4.22 1.83 1.3-0.25 2.52-0.72 3.67-1.4 -0.44 1.37-1.29 2.43-2.54 3.19C26.99 4.5 28.1 4.2 29.21 3.72z"/></symbol><symbol id="facebook" viewBox="0 0 16 31"><path d="M16 0.36v4.89h-2.9c-1.06 0-1.78 0.22-2.15 0.67 -0.37 0.45-0.55 1.11-0.55 2v3.5h5.43l-0.72 5.48h-4.7v14.06H4.72v-14.06H0V11.42h4.72V7.38c0-2.3 0.64-4.08 1.93-5.34 1.29-1.27 3-1.9 5.13-1.9C13.6 0.14 15 0.22 16 0.36z"/></symbol><symbol id="instagram" viewBox="0 0 29 28"><path d="M27.94 3.69v20.73c0 0.98-0.35 1.82-1.05 2.53 -0.7 0.7-1.54 1.05-2.52 1.05H3.64c-0.98 0-1.82-0.35-2.52-1.05 -0.7-0.7-1.05-1.55-1.05-2.52V3.69c0-0.98 0.35-1.82 1.05-2.52 0.7-0.7 1.54-1.05 2.52-1.05h20.73c0.98 0 1.82 0.35 2.52 1.05C27.59 1.87 27.94 2.71 27.94 3.69zM24.78 23.67V11.91h-2.45c0.24 0.76 0.36 1.56 0.36 2.38 0 1.52-0.39 2.93-1.16 4.22 -0.77 1.29-1.83 2.31-3.16 3.06 -1.33 0.75-2.78 1.13-4.36 1.13 -2.38 0-4.42-0.82-6.12-2.46 -1.7-1.64-2.54-3.62-2.54-5.94 0-0.82 0.12-1.61 0.36-2.38h-2.56v11.76c0 0.31 0.11 0.58 0.32 0.79 0.21 0.21 0.48 0.32 0.79 0.32h19.4c0.31 0 0.56-0.1 0.78-0.32S24.78 23.98 24.78 23.67zM17.99 17.83c1.09-1.06 1.64-2.33 1.64-3.84 0-1.5-0.55-2.78-1.64-3.84 -1.1-1.06-2.42-1.59-3.97-1.59 -1.54 0-2.85 0.53-3.95 1.59 -1.09 1.06-1.64 2.34-1.64 3.84 0 1.5 0.55 2.78 1.64 3.84 1.1 1.06 2.41 1.59 3.95 1.59C15.57 19.42 16.89 18.89 17.99 17.83zM24.78 7.46V4.47c0-0.34-0.12-0.63-0.36-0.88 -0.24-0.25-0.54-0.37-0.89-0.37h-3.16c-0.35 0-0.65 0.13-0.89 0.37 -0.24 0.25-0.36 0.54-0.36 0.88v3c0 0.35 0.12 0.65 0.36 0.89 0.24 0.24 0.54 0.36 0.89 0.36h3.16c0.35 0 0.65-0.12 0.89-0.36C24.66 8.11 24.78 7.81 24.78 7.46z"/></symbol><symbol id="inscripcion-icon" viewBox="0 0 20 20"><path d="M10.98 3.56l5.46 5.46L5.52 19.94H0.06v-5.46L10.98 3.56zM4.82 18.26l1.19-1.19 -3.08-3.08 -1.19 1.19v1.4h1.68v1.68H4.82zM11.69 6.08c0-0.19-0.1-0.29-0.29-0.29 -0.09 0-0.16 0.03-0.22 0.09L4.06 13C4 13.06 3.97 13.14 3.97 13.22c0 0.19 0.1 0.29 0.29 0.29 0.09 0 0.16-0.03 0.22-0.09l7.11-7.11C11.66 6.24 11.69 6.17 11.69 6.08zM19.94 4.82c0 0.46-0.16 0.86-0.49 1.18l-2.18 2.18 -5.46-5.46 2.18-2.17c0.31-0.33 0.71-0.5 1.18-0.5 0.46 0 0.86 0.17 1.19 0.5l3.09 3.07C19.78 3.97 19.94 4.37 19.94 4.82z"/></symbol><symbol id="roadbook-icon" viewBox="0 0 26 25"><path d="M23.2 6.27c1.11 1.9 1.66 3.97 1.66 6.22 0 2.25-0.56 4.32-1.66 6.22 -1.11 1.9-2.61 3.4-4.51 4.51 -1.89 1.11-3.97 1.66-6.21 1.66 -2.25 0-4.32-0.56-6.22-1.66 -1.9-1.11-3.4-2.61-4.51-4.51 -1.11-1.9-1.66-3.97-1.66-6.22 0-2.25 0.55-4.32 1.66-6.22 1.11-1.9 2.61-3.4 4.51-4.51 1.9-1.11 3.97-1.66 6.22-1.66 2.25 0 4.32 0.55 6.21 1.66C20.59 2.87 22.09 4.37 23.2 6.27zM20.07 16.89c0.79-1.34 1.18-2.81 1.18-4.4 0-1.59-0.39-3.06-1.18-4.4 -0.78-1.34-1.85-2.41-3.19-3.19 -1.34-0.78-2.81-1.18-4.4-1.18 -1.59 0-3.06 0.39-4.4 1.18 -1.34 0.79-2.41 1.85-3.19 3.19 -0.78 1.34-1.18 2.81-1.18 4.4 0 1.59 0.39 3.06 1.18 4.4 0.79 1.34 1.85 2.41 3.19 3.19 1.34 0.79 2.81 1.18 4.4 1.18 1.59 0 3.06-0.39 4.4-1.18C18.22 19.3 19.29 18.23 20.07 16.89zM16.6 6.05v8.74l-8.26 4.13v-8.74L16.6 6.05zM10.41 15.58l4.13-2.06 -4.13-2.06V15.58z"/></symbol><symbol id="patrimonioIndustrial-icon" viewBox="0 0 25 25"><path d="M6.12 0.09c0.23 0 0.44 0.09 0.61 0.26 0.17 0.17 0.26 0.37 0.26 0.61v12l7.22-5.77c0.15-0.13 0.33-0.19 0.54-0.19 0.23 0 0.44 0.09 0.61 0.26 0.17 0.17 0.26 0.37 0.26 0.61v5.1l7.22-5.77c0.15-0.13 0.33-0.19 0.54-0.19 0.23 0 0.44 0.09 0.61 0.26 0.17 0.17 0.26 0.37 0.26 0.61v15.51c0 0.23-0.09 0.43-0.26 0.6 -0.17 0.17-0.37 0.26-0.61 0.26H0.95c-0.23 0-0.44-0.09-0.6-0.26 -0.17-0.17-0.26-0.37-0.26-0.6V0.95c0-0.23 0.09-0.44 0.26-0.61 0.17-0.17 0.37-0.25 0.61-0.25H6.12z"/></symbol><symbol id="patrimonioNatural-icon" viewBox="0 0 21 25"><path d="M20.38 20.39c0 0.24-0.09 0.45-0.26 0.62 -0.17 0.18-0.38 0.26-0.62 0.26h-6.36c0.01 0.16 0.04 0.56 0.08 1.21 0.05 0.65 0.07 1.15 0.07 1.49 0 0.23-0.08 0.42-0.25 0.59 -0.17 0.16-0.36 0.24-0.59 0.24H8.05c-0.23 0-0.43-0.08-0.59-0.24 -0.17-0.16-0.25-0.35-0.25-0.58 0-0.35 0.02-0.85 0.07-1.49s0.07-1.05 0.08-1.2H1c-0.24 0-0.44-0.09-0.62-0.26 -0.17-0.17-0.26-0.38-0.26-0.62 0-0.24 0.09-0.44 0.26-0.62l5.54-5.55H2.76c-0.24 0-0.44-0.09-0.62-0.26 -0.17-0.17-0.26-0.38-0.26-0.62 0-0.24 0.09-0.45 0.26-0.62L7.68 7.17H4.96c-0.24 0-0.44-0.09-0.62-0.26 -0.17-0.17-0.26-0.38-0.26-0.62 0-0.24 0.09-0.44 0.26-0.62l5.29-5.29c0.18-0.17 0.38-0.26 0.62-0.26 0.24 0 0.45 0.09 0.62 0.26l5.29 5.29c0.18 0.18 0.26 0.38 0.26 0.62 0 0.24-0.09 0.45-0.26 0.62s-0.38 0.26-0.62 0.26h-2.71l5.54 5.55c0.17 0.18 0.26 0.38 0.26 0.62 0 0.24-0.09 0.44-0.26 0.62 -0.17 0.18-0.38 0.26-0.62 0.26h-3.15l5.53 5.55C20.3 19.94 20.38 20.15 20.38 20.39z"/></symbol><symbol id="recorrido-icon" viewBox="0 0 25 25"><path d="M21.5 10.55c0.24 0 0.44 0.09 0.61 0.26s0.26 0.38 0.26 0.61v3.49c0 0.24-0.09 0.44-0.26 0.61s-0.38 0.26-0.61 0.26H3.17c-0.36 0-0.67-0.13-0.93-0.38l-1.92-1.92c-0.09-0.09-0.14-0.19-0.14-0.31s0.05-0.22 0.14-0.31l1.92-1.92c0.25-0.25 0.56-0.38 0.93-0.38h6.99V7.94h3.49v2.62H21.5zM23.48 4.13c0.09 0.09 0.14 0.2 0.14 0.31s-0.05 0.22-0.14 0.31L21.56 6.68c-0.25 0.26-0.56 0.38-0.93 0.38H2.29c-0.24 0-0.44-0.09-0.61-0.26C1.51 6.63 1.42 6.43 1.42 6.19V2.7c0-0.24 0.09-0.44 0.26-0.61C1.85 1.91 2.06 1.82 2.29 1.82h7.86V0.95c0-0.24 0.09-0.44 0.26-0.61 0.17-0.17 0.38-0.26 0.61-0.26h1.75c0.24 0 0.44 0.09 0.61 0.26 0.17 0.17 0.26 0.38 0.26 0.61v0.87h6.98c0.36 0 0.67 0.13 0.93 0.38L23.48 4.13zM10.15 16.67h3.49v6.98c0 0.24-0.09 0.44-0.26 0.61s-0.38 0.26-0.61 0.26h-1.75c-0.24 0-0.44-0.09-0.61-0.26s-0.26-0.38-0.26-0.61V16.67z"/></symbol><symbol id="email" viewBox="0 0 30 24"><path d="M29.49 3.2v17.6c0 0.71-0.25 1.32-0.76 1.83 -0.51 0.51-1.12 0.76-1.83 0.76H3.09c-0.71 0-1.32-0.25-1.83-0.76 -0.51-0.51-0.76-1.11-0.76-1.83V3.2c0-0.71 0.25-1.32 0.76-1.83 0.51-0.51 1.12-0.76 1.83-0.76h23.81c0.71 0 1.32 0.25 1.83 0.76C29.24 1.88 29.49 2.49 29.49 3.2zM27.42 3.8c0-0.02 0-0.08 0-0.18s0-0.17 0-0.22 0-0.12-0.01-0.21c-0.01-0.09-0.02-0.16-0.05-0.2 -0.02-0.04-0.06-0.09-0.09-0.15 -0.03-0.05-0.08-0.09-0.15-0.12 -0.06-0.03-0.14-0.04-0.23-0.04H3.09c-0.14 0-0.26 0.05-0.36 0.15C2.62 2.94 2.57 3.06 2.57 3.2c0 1.81 0.79 3.34 2.38 4.59 2.08 1.64 4.24 3.35 6.49 5.13 0.06 0.05 0.25 0.21 0.57 0.48 0.31 0.27 0.56 0.47 0.74 0.61 0.18 0.14 0.42 0.31 0.72 0.51 0.3 0.2 0.57 0.35 0.82 0.45 0.25 0.1 0.48 0.15 0.7 0.15h0.02 0.02c0.22 0 0.45-0.05 0.7-0.15 0.25-0.1 0.52-0.25 0.82-0.44 0.3-0.2 0.54-0.37 0.72-0.51 0.19-0.14 0.43-0.34 0.74-0.61 0.31-0.26 0.5-0.42 0.57-0.48 2.24-1.78 4.41-3.49 6.49-5.13 0.58-0.46 1.12-1.09 1.63-1.87C27.17 5.14 27.42 4.43 27.42 3.8zM27.42 20.8V8.38c-0.35 0.39-0.72 0.74-1.12 1.07 -2.89 2.22-5.19 4.04-6.89 5.47 -0.55 0.46-1 0.83-1.34 1.08 -0.35 0.26-0.81 0.52-1.4 0.78 -0.59 0.27-1.14 0.4-1.66 0.4h-0.02 -0.01c-0.52 0-1.07-0.13-1.66-0.4 -0.59-0.26-1.05-0.52-1.4-0.78 -0.34-0.26-0.79-0.62-1.34-1.08 -1.7-1.42-4-3.25-6.89-5.47 -0.4-0.32-0.77-0.68-1.12-1.07v12.42c0 0.14 0.05 0.26 0.15 0.37 0.1 0.1 0.22 0.15 0.36 0.15h23.81c0.14 0 0.26-0.05 0.36-0.15C27.37 21.06 27.42 20.94 27.42 20.8z"/></symbol><symbol id="marker" viewBox="0 0 17 25"><path d="M16.53 8.13c0 1.14-0.17 2.08-0.52 2.81l-5.71 12.14c-0.17 0.34-0.42 0.62-0.75 0.82 -0.33 0.2-0.68 0.3-1.06 0.3s-0.73-0.1-1.06-0.3c-0.33-0.2-0.57-0.47-0.73-0.81L0.99 10.94c-0.34-0.73-0.52-1.67-0.52-2.81 0-2.22 0.78-4.11 2.35-5.68 1.57-1.57 3.46-2.35 5.68-2.35 2.22 0 4.11 0.79 5.68 2.35C15.75 4.02 16.53 5.92 16.53 8.13zM11.34 10.97c0.79-0.78 1.18-1.73 1.18-2.84 0-1.11-0.39-2.06-1.18-2.84 -0.78-0.78-1.73-1.18-2.84-1.18 -1.11 0-2.06 0.39-2.84 1.18 -0.78 0.78-1.18 1.73-1.18 2.84 0 1.11 0.39 2.06 1.18 2.84 0.78 0.79 1.73 1.18 2.84 1.18C9.61 12.15 10.56 11.76 11.34 10.97z"/></symbol><symbol id="homologacion" viewBox="0 0 213 102"><path fill-rule="evenodd" clip-rule="evenodd" fill="#AAAAAA" d="M146.03 86.44c2.08 3.25 5.18 5.41 8.01 7.94 -1.81 0.42-3.57 0.81-5.32 1.23 -2.76 0.68-5.55 1.22-8.38 1.46 -2.27 0.2-4.55 0.24-6.83 0.08 -7.13-0.49-13.6-2.69-19.27-7.04 -0.14-0.11-0.29-0.22-0.48-0.37 0.02 4.22 1.33 7.94 4.08 11.15 -0.04 0.03-0.08 0.06-0.12 0.09 -0.98-0.2-1.95-0.41-2.92-0.6 -3.27-0.64-6.51-1.4-9.63-2.59 -5.92-2.25-11.17-5.52-15.68-9.92 -0.11-0.11-0.21-0.24-0.39-0.45 -0.12 2.42-0.07 4.7 0.01 6.97 -0.19 0.09-0.28-0.04-0.39-0.09 -6.58-3.15-12.31-7.45-17.54-12.44 -1.81-1.73-3.54-3.52-5.19-5.39 -0.09-0.11-0.39-0.21-0.13-0.47 0.25-0.25 0.38-0.16 0.57 0.05 1.16 1.26 2.41 2.44 3.68 3.6 4.92 4.47 10.2 8.47 16.16 11.53 0.27 0.14 0.55 0.26 0.92 0.43 -0.18-3.11-0.07-6.16 0.18-9.24 3 3.75 6.66 6.73 10.83 9.13 4.16 2.39 8.6 4.06 13.37 5.11 -0.17-0.56-0.32-1.05-0.46-1.54 -0.7-2.53-0.97-5.12-0.93-7.74 0.03-1.95 0.07-3.9 0.11-5.85 0-0.08-0.04-0.17 0.08-0.25 0.88 0.93 1.78 1.84 2.64 2.8 2.25 2.52 4.99 4.38 8.02 5.86 2.77 1.34 5.69 2.21 8.72 2.68 2.93 0.45 5.87 0.47 8.82 0.22 1.78-0.15 3.51-0.53 5.26-0.79 0.08-0.17-0.06-0.23-0.14-0.31 -2.3-2.39-3.9-5.17-4.78-8.35 -0.12-0.44-0.27-0.87-0.44-1.29 -0.11-0.28-0.09-0.36 0.25-0.38 1.26-0.07 2.53-0.16 3.79-0.26 3.3-0.26 6.55-0.86 9.77-1.59 8.3-1.88 16.24-4.73 23.84-8.52 6.14-3.06 11.89-6.73 17.28-10.93 6.73-5.24 12.73-11.21 18.18-17.71 0.26-0.31 0.53-0.61 0.79-0.93 0.13-0.16 0.24-0.26 0.46-0.1 0.2 0.14 0.2 0.25 0.08 0.45 -2.53 4.38-5.38 8.55-8.63 12.46 -2.39 2.89-4.94 5.64-7.68 8.21 -5.43 5.11-11.41 9.49-17.95 13.14 -7.02 3.92-14.44 6.9-22.29 8.79C152.97 85.46 149.56 86.06 146.03 86.44z"/><path fill-rule="evenodd" clip-rule="evenodd" fill="#EEEEEE" d="M93.68 75.6c-4.04 0-7.29-0.11-10.53-0.43 -4.31-0.42-8.57-1.16-12.78-2.16 -5.71-1.35-11.26-3.18-16.6-5.6 -1.47-0.67-2.9-1.43-4.35-2.15 -0.19-0.09-0.36-0.18-0.26-0.45 0.09-0.26 0.26-0.26 0.48-0.23 1.6 0.28 3.2 0.56 4.79 0.85 3.29 0.61 6.6 1.15 9.91 1.67 3.67 0.58 7.35 1.07 11.04 1.49 3.05 0.35 6.1 0.64 9.15 0.94 2.69 0.27 5.38 0.54 8.08 0.78 1.59 0.14 3.18 0.24 4.77 0.33 2.64 0.13 5.27 0.22 7.91 0.18 3.67-0.06 7.33-0.17 10.98-0.44 3.15-0.23 6.28-0.48 9.41-0.86 7.61-0.91 15.16-2.17 22.61-3.97 3.64-0.88 7.25-1.83 10.8-2.99 0.22-0.07 0.44-0.22 0.56 0.15 0.13 0.35-0.16 0.36-0.33 0.44 -4.22 1.8-8.56 3.29-12.95 4.63 -6.93 2.11-13.97 3.81-21.11 5.07 -4.09 0.72-8.21 1.31-12.35 1.72 -3.53 0.35-7.06 0.61-10.61 0.76C99.17 75.47 96.04 75.56 93.68 75.6z"/><path fill-rule="evenodd" clip-rule="evenodd" fill="#AAAAAA" d="M164.12 14.34c1.41-1.92 2.82-3.84 4.24-5.76 0.53-0.72 1.08-1.44 1.63-2.14 0.7-0.91 1.25-0.92 1.93-0.02 4.37 5.68 8.5 11.52 12.16 17.67 3.86 6.47 7.46 13.06 10.32 20.02 0.85 2.09 1.68 4.19 2.52 6.28 0.16 0.39 0.24 0.78-0.07 1.14 -0.3 0.36-0.69 0.35-1.12 0.26 -6.32-1.28-12.63-2.55-18.95-3.82 -2.06-0.41-4.12-0.83-6.18-1.24 -0.63-0.12-1.22 0.13-1.81 0.26 -7.54 1.6-15.08 3.2-22.61 4.82 -0.42 0.09-0.78 0.08-1.08-0.25 -0.31-0.36-0.23-0.73-0.08-1.13 2.3-6.04 4.84-11.98 7.92-17.68 0.05-0.09 0.09-0.18 0.13-0.27 0.36-0.67 0.72-1.34 1.08-2.01 0.1-0.15 0.2-0.31 0.29-0.47 1.73-3.05 3.47-6.09 5.35-9.05 1.05-1.65 2.13-3.28 3.19-4.92C163.35 15.44 163.74 14.89 164.12 14.34zM194.7 49.73c-5.75-15.09-13.94-28.75-23.74-41.59 -9.79 12.84-17.97 26.46-23.71 41.54 0.24-0.03 0.37-0.05 0.5-0.08 6.4-1.37 12.8-2.74 19.2-4.1 1.7-0.36 3.35-0.77 5.19-0.36 5.37 1.2 10.78 2.21 16.18 3.29C190.42 48.86 192.52 49.29 194.7 49.73z"/><path fill-rule="evenodd" clip-rule="evenodd" fill="#EEEEEE" d="M154.14 30.42c-0.36 0.67-0.72 1.34-1.08 2.01 -1.69 0.35-3.38 0.69-5.06 1.05 -3.99 0.85-7.98 1.71-11.97 2.57 -0.38 0.08-0.72 0.02-0.98-0.28 -0.28-0.33-0.26-0.68-0.11-1.08 2.12-5.65 4.66-11.11 7.66-16.36 3.27-5.73 6.91-11.21 10.97-16.43 0.68-0.87 1.25-0.86 1.94 0.04 3.08 4 5.99 8.11 8.62 12.41 -0.38 0.55-0.76 1.1-1.14 1.65 -0.09-0.12-0.18-0.24-0.26-0.37 -1.81-2.99-3.75-5.9-5.82-8.73 -0.78-1.06-1.57-2.11-2.39-3.22 -7.12 9.37-13.06 19.29-17.29 30.23 0.2-0.02 0.31-0.02 0.43-0.05 4.62-0.99 9.24-1.99 13.87-2.96C152.39 30.7 153.24 30.39 154.14 30.42z"/><path fill-rule="evenodd" clip-rule="evenodd" fill="#AAAAAA" d="M86.14 26.98c0.77-3.51 1.54-7.01 2.29-10.51 0.07-0.3 0.15-0.43 0.48-0.41 0.5 0.03 1 0.02 1.49 0 0.27-0.01 0.35 0.08 0.34 0.34 -0.02 0.94-0.01 1.89-0.01 2.83 0 4.03-0.01 8.05 0.01 12.07 0 0.41-0.04 0.62-0.54 0.56 -0.47-0.06-1.12 0.15-1.39-0.09 -0.31-0.28-0.09-0.92-0.09-1.4 -0.01-1.79 0-3.57-0.01-5.36 0-0.17 0.06-0.36-0.1-0.58 -0.33 1.52-0.65 3-0.97 4.47 -0.18 0.85-0.37 1.71-0.54 2.56 -0.05 0.3-0.18 0.44-0.5 0.39 -0.2-0.03-0.41 0-0.62 0 -1.04 0-1.03 0-1.23-1.04 -0.41-2.19-0.84-4.38-1.35-6.56 0 0.19 0 0.38 0 0.56 0 2.21-0.01 4.41 0.01 6.62 0 0.32-0.06 0.46-0.42 0.43 -0.36-0.03-0.72-0.03-1.08 0 -0.43 0.04-0.57-0.06-0.57-0.53 0.02-4.36 0.02-8.72 0.02-13.08 0-0.61 0.01-1.21-0.01-1.82 -0.01-0.28 0.06-0.38 0.36-0.37 0.46 0.03 0.93 0.03 1.39 0 0.34-0.02 0.46 0.08 0.54 0.42 0.77 3.43 1.57 6.85 2.35 10.27C86 26.82 85.99 26.92 86.14 26.98z"/><path fill-rule="evenodd" clip-rule="evenodd" fill="#AAAAAA" d="M60.15 31.45c0 1.54-0.02 2.96 0.01 4.39 0.01 0.41-0.13 0.53-0.52 0.5 -0.49-0.04-1.12 0.2-1.44-0.09 -0.3-0.27-0.09-0.89-0.09-1.35 -0.01-4.62 0-9.23-0.01-13.85 0-0.42 0.11-0.57 0.54-0.53 0.31 0.03 0.62 0.01 0.92-0.01 0.33-0.02 0.61-0.01 0.43 0.53 1.1-1.25 2.74-0.76 3.46 0.04 0.67 0.75 1.04 1.61 1.04 2.62 0 1.63 0.01 3.27 0 4.9 -0.01 1.08-0.42 2-1.2 2.75 -0.66 0.63-1.47 0.75-2.34 0.66C60.64 31.97 60.42 31.75 60.15 31.45zM60.16 26.22c0 0-0.01 0-0.01 0 0 0.49-0.01 0.97 0 1.46 0.02 0.43-0.03 0.88 0.11 1.3 0.15 0.46 0.41 0.81 0.96 0.84 0.55 0.03 0.93-0.21 1.14-0.75 0.1-0.25 0.16-0.51 0.16-0.78 0-1.39 0-2.79 0-4.18 0-0.32-0.08-0.63-0.22-0.92 -0.24-0.52-0.71-0.72-1.27-0.56 -0.65 0.19-0.83 0.72-0.86 1.29C60.13 24.67 60.16 25.44 60.16 26.22z"/><path fill-rule="evenodd" clip-rule="evenodd" fill="#EEEEEE" d="M74.87 48.13c-0.97 0.89-2.18 0.91-3.14 0.08 -0.82-0.72-1.27-1.64-1.29-2.71 -0.03-1.71-0.03-3.43 0.01-5.15 0.03-1.17 0.52-2.15 1.49-2.86 0.86-0.62 2.02-0.62 2.76 0 0.13-0.15 0.06-0.32 0.06-0.47 0-1.28 0.01-2.56 0-3.84 0-0.32 0.06-0.45 0.42-0.43 0.39 0.03 0.79 0.01 1.18-0.02 0.35-0.03 0.47 0.07 0.47 0.43 -0.02 3.45-0.01 6.9-0.01 10.36 0 1.52-0.01 3.03 0.01 4.55 0 0.36-0.06 0.53-0.47 0.49 -0.32-0.04-0.65-0.02-0.98 0C75.07 48.56 74.84 48.53 74.87 48.13zM74.76 42.77c0 0 0 0 0 0 0-0.79 0.01-1.58 0-2.37 -0.01-0.61-0.29-0.97-0.78-1.1 -0.75-0.2-1.35 0.17-1.47 1.05 -0.22 1.62-0.13 3.25-0.04 4.88 0.01 0.16 0.06 0.33 0.11 0.49 0.13 0.41 0.39 0.72 0.84 0.78 0.47 0.06 0.82-0.17 1.08-0.54 0.19-0.27 0.27-0.57 0.27-0.9C74.76 44.28 74.76 43.53 74.76 42.77z"/><path fill-rule="evenodd" clip-rule="evenodd" fill="#AAAAAA" d="M0.02 23.93c0-1.54 0.01-3.07 0-4.6 0-0.51 0.08-1.01 0.26-1.48 0.53-1.4 1.54-2.12 2.98-2.1 1.35 0.02 2.37 0.78 2.84 2.15 0.44 1.26 0.17 2.57 0.24 3.86 0.01 0.22-0.16 0.17-0.29 0.17 -0.45 0-0.89-0.01-1.34 0.01 -0.29 0.01-0.35-0.1-0.33-0.35 0.05-0.67 0.08-1.34-0.01-2.01 -0.03-0.29-0.09-0.56-0.2-0.83 -0.19-0.48-0.51-0.8-1.07-0.8 -0.48 0-0.82 0.31-0.99 0.87 -0.1 0.33-0.13 0.66-0.13 1 0 2.71 0 5.43 0 8.14 0 0.42 0.04 0.85 0.24 1.23 0.21 0.43 0.56 0.67 1.07 0.63 0.48-0.03 0.73-0.3 0.9-0.71 0.16-0.4 0.2-0.81 0.2-1.24 0-0.6 0.02-1.22-0.01-1.82 -0.02-0.33 0.1-0.4 0.41-0.38 0.43 0.02 0.86 0 1.29 0 0.14 0 0.28-0.01 0.27 0.2 -0.05 1.26 0.16 2.53-0.14 3.78 -0.45 1.85-1.98 2.82-3.81 2.4 -1.28-0.29-1.87-1.27-2.23-2.41 -0.11-0.35-0.13-0.72-0.13-1.1C0.03 27 0.02 25.46 0.02 23.93z"/><path fill-rule="evenodd" clip-rule="evenodd" fill="#EEEEEE" d="M88.06 48.54c-1.05 0-1.04 0-1.15-1.01C86.82 46.77 86.7 46 86.6 45.23c-0.02-0.12-0.01-0.25-0.18-0.25 -0.38-0.01-0.75-0.01-1.13 0 -0.22 0.01-0.19 0.21-0.21 0.34 -0.12 0.85-0.24 1.7-0.33 2.55 -0.07 0.66-0.06 0.67-0.76 0.67 -0.15 0-0.31 0-0.46 0 -0.96 0-0.95 0-0.82-0.92 0.48-3.38 0.95-6.75 1.43-10.13 0.21-1.46 0.42-2.92 0.62-4.39 0.03-0.25 0.1-0.4 0.41-0.38 0.49 0.03 0.99 0.03 1.49 0.02 0.26-0.01 0.31 0.13 0.34 0.33 0.35 2.6 0.7 5.19 1.05 7.79 0.32 2.33 0.63 4.66 0.95 6.99 0.1 0.68 0.1 0.68-0.62 0.68C88.26 48.54 88.16 48.54 88.06 48.54zM85.92 39.18c-0.03 0-0.06 0-0.1 0.01 -0.09 0.93-0.18 1.85-0.28 2.78 -0.04 0.38 0.2 0.56 0.56 0.43 0.1-0.04 0.14-0.08 0.13-0.18C86.12 41.2 86.02 40.19 85.92 39.18z"/><path fill-rule="evenodd" clip-rule="evenodd" fill="#AAAAAA" d="M131.81 31.43c-0.97 1.03-2.59 0.72-3.37 0.11 -1.21-0.95-1.67-2.33-1.22-3.84 0.1-0.35 0.24-0.7 0.41-1.03 0.84-1.61 2.05-2.03 4.11-1.41 0.07-0.66 0.05-1.3-0.2-1.91 -0.18-0.44-0.53-0.7-1.03-0.69 -0.51 0-0.88 0.27-0.96 0.75 -0.11 0.61-0.46 0.73-1 0.65 -0.08-0.01-0.17 0-0.26 0 -1 0-1.01 0-0.81-0.98 0.17-0.83 0.57-1.54 1.22-2.11 1.17-1.02 3.25-0.76 4.24 0.54 0.54 0.71 0.79 1.53 0.8 2.4 0.01 2.51 0 5.01 0.01 7.53 0 0.32-0.07 0.45-0.42 0.42 -0.39-0.03-0.78-0.01-1.18-0.01C131.89 31.86 131.65 31.89 131.81 31.43zM131.77 28.48c0-0.79-0.68-1.58-1.36-1.58 -0.7 0.01-1.5 0.91-1.49 1.68 0.01 0.73 0.76 1.44 1.51 1.43C131.13 29.99 131.77 29.26 131.77 28.48z"/><path fill-rule="evenodd" clip-rule="evenodd" fill="#AAAAAA" d="M11.84 25.27c0.04-0.62 0.05-1.2-0.16-1.76 -0.21-0.57-0.56-0.85-1.08-0.85 -0.57 0-0.91 0.33-1 0.83 -0.1 0.52-0.38 0.64-0.86 0.57 -0.15-0.02-0.31 0-0.46 0 -0.86 0-0.87 0-0.73-0.86 0.14-0.87 0.56-1.6 1.22-2.22 0.87-0.82 3.17-0.99 4.22 0.48 0.51 0.71 0.82 1.48 0.83 2.34 0.02 2.56 0 5.12 0.02 7.68 0 0.32-0.1 0.41-0.41 0.39 -0.41-0.02-0.82-0.01-1.23 0 -0.24 0.01-0.43 0-0.29-0.38 -0.87 0.75-1.98 0.85-2.97 0.32 -1.28-0.69-1.98-2.12-1.74-3.53 0.1-0.57 0.29-1.1 0.56-1.62 0.76-1.45 2.05-1.99 3.64-1.51C11.53 25.17 11.67 25.22 11.84 25.27zM11.86 28.49c0.01-0.79-0.66-1.58-1.34-1.59 -0.7 0-1.51 0.89-1.51 1.66 0 0.72 0.75 1.44 1.5 1.44C11.22 30 11.85 29.29 11.86 28.49z"/><path fill-rule="evenodd" clip-rule="evenodd" fill="#AAAAAA" d="M116.65 31.43c-0.71 0.82-2.08 0.9-3.08 0.27 -1.42-0.9-1.96-2.54-1.39-4.21 0.06-0.16 0.12-0.31 0.18-0.47 0.82-1.86 2.14-2.43 4.11-1.79 0.05 0.02 0.1 0.02 0.16 0.03 0.02-0.61 0.06-1.21-0.16-1.8 -0.18-0.49-0.52-0.79-1.06-0.79 -0.54-0.01-0.91 0.3-0.99 0.78 -0.1 0.58-0.42 0.68-0.92 0.62 -0.15-0.02-0.31 0-0.46 0 -0.84 0-0.84 0-0.7-0.82 0.13-0.75 0.44-1.42 0.95-1.99 1.06-1.19 3.12-1.24 4.23-0.09 0.7 0.72 1.08 1.6 1.08 2.6 0.01 2.56 0 5.12 0.01 7.68 0 0.31-0.05 0.45-0.41 0.42 -0.41-0.03-0.82-0.03-1.23 0C116.68 31.88 116.63 31.74 116.65 31.43zM116.66 28.48c0-0.82-0.65-1.59-1.34-1.58 -0.71 0.01-1.5 0.88-1.5 1.67 0 0.72 0.76 1.44 1.5 1.43C116.03 29.99 116.65 29.29 116.66 28.48z"/><path fill-rule="evenodd" clip-rule="evenodd" fill="#EEEEEE" d="M119.24 42.72c0.06-0.86-0.11-1.91 0.09-2.94 0.29-1.46 1.43-3.12 3.76-2.7 1.13 0.2 2.19 1.35 2.42 2.71 0.22 1.34 0.05 2.69 0.1 4.03 0.01 0.31-0.2 0.25-0.38 0.25 -1.18 0-2.37 0.02-3.55-0.01 -0.39-0.01-0.53 0.1-0.47 0.48 0.06 0.37 0.05 0.74 0.18 1.09 0.24 0.63 0.96 1.03 1.61 0.86 0.42-0.11 0.49-0.52 0.53-0.84 0.06-0.46 0.26-0.59 0.7-0.54 0.25 0.03 0.52 0 0.77 0.01 0.68 0 0.67 0 0.56 0.69 -0.1 0.64-0.3 1.24-0.69 1.77 -1.41 1.92-4.18 1.63-5.22-0.54 -0.27-0.57-0.4-1.17-0.41-1.8C119.23 44.45 119.24 43.68 119.24 42.72zM122.42 42.02c0.31 0 0.61 0 0.92 0 0.14 0 0.29 0 0.29-0.2 0-0.7 0.03-1.41-0.32-2.06 -0.2-0.37-0.55-0.55-0.98-0.53 -0.41 0.03-0.68 0.25-0.86 0.61 -0.18 0.36-0.2 0.74-0.24 1.12 -0.12 1.05-0.11 1.05 0.94 1.05C122.25 42.02 122.34 42.02 122.42 42.02z"/><path fill-rule="evenodd" clip-rule="evenodd" fill="#AAAAAA" d="M39.89 26.04c0.05-0.95-0.13-2.13 0.19-3.29 0.48-1.76 1.93-2.65 3.74-2.33 1.09 0.19 2.13 1.39 2.33 2.74 0.2 1.33 0.04 2.66 0.09 3.99 0.01 0.32-0.21 0.25-0.38 0.25 -1.2 0-2.4 0.01-3.6-0.01 -0.34-0.01-0.47 0.09-0.42 0.42 0.05 0.3 0.05 0.61 0.11 0.9 0.16 0.78 0.83 1.23 1.63 1.13 0.45-0.05 0.55-0.43 0.58-0.73 0.05-0.57 0.34-0.73 0.86-0.64 0.12 0.02 0.24 0 0.36 0 0.94 0 0.94 0 0.78 0.94 -0.35 1.97-1.95 3.07-3.87 2.66 -1.12-0.23-2.12-1.45-2.31-2.81 -0.03-0.2-0.07-0.4-0.07-0.6C39.88 27.84 39.89 27.06 39.89 26.04zM43.06 25.35c0.31 0 0.62 0 0.92 0 0.14 0 0.29 0.02 0.3-0.19 0-0.69 0.05-1.38-0.28-2.02 -0.21-0.39-0.54-0.6-0.99-0.59 -0.46 0.01-0.76 0.27-0.93 0.68 -0.15 0.36-0.18 0.75-0.21 1.13 -0.09 0.99-0.09 0.99 0.89 0.99C42.86 25.35 42.96 25.35 43.06 25.35z"/><path fill-rule="evenodd" clip-rule="evenodd" fill="#AAAAAA" d="M30.83 27.39c-0.58 0-1.17 0.03-1.75-0.01 -0.39-0.02-0.48 0.12-0.43 0.46 0.04 0.3 0.05 0.61 0.11 0.9 0.16 0.78 0.85 1.23 1.65 1.09 0.4-0.07 0.51-0.41 0.53-0.71 0.05-0.59 0.36-0.76 0.91-0.66 0.13 0.02 0.27 0 0.41 0 0.85 0 0.85 0 0.71 0.84 -0.33 2.03-1.93 3.17-3.88 2.77 -1.08-0.22-2.06-1.36-2.3-2.65 -0.17-0.89-0.1-1.78-0.09-2.67 0.01-1.23-0.15-2.46 0.1-3.67 0.24-1.16 0.82-2.12 2.02-2.54 1.91-0.67 3.84 0.57 4.13 2.67 0.19 1.32 0.04 2.65 0.07 3.98 0.01 0.28-0.19 0.22-0.35 0.22C32.06 27.39 31.44 27.39 30.83 27.39zM29.84 25.35c0.31 0 0.62 0 0.93 0 0.13 0 0.3 0.03 0.31-0.17 0.02-0.73 0.09-1.49-0.34-2.15 -0.46-0.71-1.43-0.63-1.82 0.13 -0.14 0.28-0.19 0.57-0.23 0.87C28.51 25.35 28.51 25.35 29.84 25.35z"/><path fill-rule="evenodd" clip-rule="evenodd" fill="#AAAAAA" d="M101.24 20.66c1.25-0.9 2.73-0.66 3.59 0.55 0.47 0.67 0.72 1.41 0.73 2.22 0.01 2.68 0 5.36 0.01 8.03 0 0.3-0.06 0.43-0.39 0.4 -0.34-0.03-0.69-0.03-1.03 0 -0.39 0.04-0.52-0.08-0.52-0.49 0.01-2.37-0.02-4.75-0.02-7.12 0-0.42-0.03-0.84-0.21-1.23 -0.24-0.52-0.61-0.73-1.18-0.68 -0.54 0.05-0.8 0.37-0.92 0.87 -0.05 0.23-0.06 0.47-0.06 0.7 0.01 2.49 0.02 4.99 0.04 7.48 0 0.36-0.07 0.52-0.47 0.48 -0.41-0.04-0.82-0.02-1.24 0 -0.25 0.01-0.36-0.05-0.36-0.33 0-3.67-0.02-7.34-0.04-11.01 0-0.29 0.12-0.33 0.37-0.32 0.41 0.01 0.82 0 1.24 0C101.19 20.2 101.19 20.2 101.24 20.66z"/><path fill-rule="evenodd" clip-rule="evenodd" fill="#EEEEEE" d="M106.89 48.12c-1.34 0.9-2.84 0.59-3.66-0.66 -0.45-0.7-0.67-1.47-0.67-2.29 -0.01-2.63 0.01-5.26-0.01-7.88 0-0.31 0.08-0.42 0.4-0.39 0.5 0.05 1.17-0.21 1.48 0.11 0.25 0.25 0.08 0.89 0.08 1.36 0.01 2.04 0.01 4.08 0.03 6.11 0.01 0.33 0.04 0.67 0.13 1 0.19 0.72 0.61 1.01 1.3 0.93 0.58-0.06 0.91-0.47 0.92-1.2 0.01-1.38 0.01-2.76 0-4.14 0-1.26 0.01-2.52-0.01-3.79 0-0.32 0.1-0.41 0.41-0.38 0.54 0.05 1.25-0.22 1.57 0.11 0.26 0.26 0.08 0.96 0.09 1.46 0.01 3.2 0.01 6.4 0.03 9.6 0 0.41-0.08 0.59-0.53 0.54 -0.37-0.04-0.75-0.03-1.13-0.03C107.03 48.56 106.84 48.48 106.89 48.12z"/><path fill-rule="evenodd" clip-rule="evenodd" fill="#AAAAAA" d="M91.94 26.44c0-0.99 0-1.78 0-2.57 0-0.76 0.23-1.44 0.61-2.1 1.06-1.89 4.06-1.93 5.16 0.09 0.33 0.62 0.55 1.27 0.55 1.97 0 1.62 0 3.23 0 4.85 0 0.42-0.08 0.83-0.21 1.23 -0.54 1.56-1.62 2.3-3.25 2.22 -1.27-0.06-2.39-1.08-2.72-2.51C91.8 28.5 92 27.36 91.94 26.44zM96.29 26.35c0-0.74 0-1.33 0-1.91 0-0.41-0.05-0.8-0.21-1.18 -0.19-0.45-0.54-0.7-1.03-0.69 -0.48 0.01-0.79 0.28-0.95 0.71 -0.11 0.28-0.18 0.57-0.18 0.88 0 1.09-0.01 2.18-0.01 3.28 0 0.45-0.02 0.9 0.1 1.35 0.2 0.73 0.56 1.05 1.18 1.04 0.55-0.01 0.88-0.34 1.03-1.06C96.39 27.91 96.24 27.05 96.29 26.35z"/><path fill-rule="evenodd" clip-rule="evenodd" fill="#AAAAAA" d="M65.49 26.22c0.07-1.02-0.08-2.05 0.1-3.07 0.11-0.61 0.36-1.15 0.72-1.65 0.76-1.05 1.84-1.28 3.05-1.08 1.15 0.19 1.76 1.02 2.2 1.99 0.22 0.48 0.29 1.01 0.29 1.53 0.01 1.65 0.06 3.3-0.03 4.95 -0.02 0.3-0.07 0.61-0.16 0.89 -0.49 1.4-1.43 2.49-3.31 2.35 -1.31-0.1-2.48-1.24-2.75-2.73C65.41 28.34 65.55 27.28 65.49 26.22zM67.47 26.04c0 0.76-0.01 1.38 0 2 0.01 0.46 0.08 0.91 0.33 1.3 0.42 0.65 1.35 0.66 1.76 0.02 0.15-0.24 0.25-0.52 0.26-0.81 0.09-1.54 0.08-3.09 0.01-4.63 0-0.12-0.03-0.23-0.06-0.35 -0.18-0.67-0.6-1.04-1.16-1.02 -0.56 0.02-0.92 0.41-1.06 1.11C67.39 24.49 67.52 25.34 67.47 26.04z"/><path fill-rule="evenodd" clip-rule="evenodd" fill="#EEEEEE" d="M131.74 40.25c-0.15 0-0.31-0.01-0.46 0 -0.35 0.04-0.56-0.04-0.73-0.42 -0.32-0.7-1.16-0.79-1.71-0.24 -0.45 0.45-0.46 1.01-0.29 1.56 0.14 0.47 0.55 0.71 1.03 0.7 3.49-0.11 3.94 3.9 2.55 5.81 -0.73 1.01-1.72 1.37-2.95 1.21 -1.33-0.18-2.01-1.05-2.43-2.19 -0.36-0.98-0.34-0.98 0.68-0.98 0.16 0 0.31 0.01 0.46 0 0.43-0.04 0.76 0.01 0.95 0.5 0.2 0.48 0.81 0.61 1.28 0.4 0.54-0.25 0.86-0.94 0.73-1.59 -0.1-0.56-0.51-0.88-1.17-0.93 -1.71-0.13-2.67-0.81-3.06-2.2 -0.34-1.25-0.16-2.42 0.53-3.53 1.04-1.68 3.71-1.81 4.91-0.08 0.35 0.5 0.58 1.06 0.69 1.66 0.06 0.3-0.04 0.35-0.3 0.34C132.22 40.24 131.98 40.25 131.74 40.25z"/><path fill-rule="evenodd" clip-rule="evenodd" fill="#EEEEEE" d="M91.07 45.68c0.21 0 0.41 0.01 0.62 0 0.25-0.02 0.4 0.04 0.5 0.31 0.19 0.46 0.56 0.72 1.09 0.68 0.47-0.03 0.93-0.5 1.04-1 0.2-0.93-0.27-1.6-1.24-1.6 -2.23-0.01-3.31-1.88-3.12-3.78 0.12-1.12 0.54-2.09 1.47-2.77 1.63-1.19 3.95-0.3 4.64 1.73 0.35 1.01 0.35 1.01-0.72 1.01 -0.15 0-0.31-0.01-0.46 0 -0.42 0.04-0.72 0-0.91-0.48 -0.2-0.5-0.82-0.65-1.31-0.44 -0.55 0.24-0.83 0.86-0.71 1.58 0.09 0.55 0.47 0.94 1.1 0.92 2.71-0.08 3.8 2.45 3.05 4.77 -0.51 1.58-1.64 2.36-3.21 2.28 -1.34-0.07-2.44-1.08-2.79-2.55 -0.02-0.08-0.02-0.17-0.05-0.25 -0.15-0.36 0.03-0.44 0.35-0.41C90.63 45.7 90.85 45.68 91.07 45.68z"/><path fill-rule="evenodd" clip-rule="evenodd" fill="#AAAAAA" d="M47.17 29.01c0.63 0 1.22 0.01 1.82-0.01 0.24-0.01 0.28 0.13 0.35 0.29 0.19 0.44 0.52 0.71 1.02 0.71 0.53 0 0.86-0.33 1.04-0.77 0.33-0.82 0.03-1.77-1.09-1.86 -1.83-0.15-2.77-0.9-3.09-2.4 -0.19-0.88-0.14-1.78 0.23-2.63 0.61-1.41 1.61-2.04 3.12-1.96 1.21 0.06 2.27 0.94 2.68 2.24 0.31 0.96 0.31 0.96-0.72 0.96 -0.19 0-0.38-0.02-0.56 0 -0.38 0.05-0.6-0.06-0.77-0.44 -0.25-0.56-0.9-0.72-1.44-0.43 -0.51 0.27-0.75 0.87-0.63 1.53 0.11 0.59 0.42 0.87 1.08 0.95 0.37 0.05 0.76 0.03 1.12 0.14 1.24 0.35 1.89 1.22 2.11 2.42 0.13 0.71 0.1 1.44-0.12 2.15 -0.49 1.57-1.57 2.35-3.18 2.31 -1.34-0.04-2.46-1.02-2.82-2.5C47.24 29.47 47.22 29.26 47.17 29.01z"/><path fill-rule="evenodd" clip-rule="evenodd" fill="#AAAAAA" d="M119.84 31.86c-0.03-0.01-0.06-0.01-0.1-0.02 0-2.57-0.01-5.14-0.01-7.71 0-1.18 0.01-2.35-0.01-3.53 -0.01-0.32 0.09-0.4 0.41-0.39 0.39 0.02 0.78-0.01 1.18-0.02 0.13 0.14 0.26 0.26 0.37 0.4 0.86 1.04 2.28 1.82 3.73 0.73 0.47 0.7 0.66 1.47 0.66 2.29 0 2.63-0.02 5.25-0.02 7.88 0 0.28-0.06 0.39-0.37 0.37 -0.48-0.03-1.07 0.15-1.41-0.06 -0.33-0.22-0.11-0.84-0.12-1.28 -0.03-2.02-0.02-4.04-0.04-6.06 0-0.49-0.02-0.98-0.22-1.43 -0.24-0.53-0.61-0.74-1.17-0.69 -0.52 0.05-0.79 0.31-0.92 0.91 -0.13 0.18-0.08 0.39-0.08 0.59 -0.01 2.67-0.01 5.34-0.02 8.01 -0.03 0.01-0.06 0.01-0.1 0.02C121.02 31.82 120.42 31.81 119.84 31.86z"/><path fill-rule="evenodd" clip-rule="evenodd" fill="#AAAAAA" d="M83.35 59.95c0-0.96 0.01-1.92-0.01-2.88 0-0.28 0.08-0.4 0.38-0.37 0.27 0.02 0.55 0.01 0.82 0.01 0.05 0 0.13-0.02 0.15 0.01 0.36 0.49 0.69 0.02 1.01-0.04 0.62-0.13 1.2-0.09 1.71 0.29 0.19 0.14 0.29 0.18 0.51 0.03 0.58-0.38 1.25-0.46 1.92-0.36 1.1 0.16 1.78 0.9 1.8 2 0.03 1.41 0 2.83 0.02 4.24 0 0.25-0.08 0.3-0.32 0.31 -1.21 0.04-1.21 0.05-1.21-1.11 0-0.96 0.01-1.92 0-2.88 0-0.7-0.35-1.08-0.94-1.07 -0.57 0.01-0.93 0.43-0.93 1.11 0 1.19-0.01 2.39 0.01 3.59 0 0.28-0.06 0.37-0.36 0.37 -1.17 0.01-1.17 0.02-1.17-1.1 0-0.98 0-1.95 0-2.93 -0.01-0.67-0.34-1.03-0.92-1.03 -0.57 0-0.91 0.38-0.91 1.04 0 1.2-0.01 2.39 0.01 3.59 0.01 0.37-0.11 0.44-0.46 0.44 -1.11-0.02-1.11 0-1.11-1.11C83.35 61.37 83.35 60.66 83.35 59.95z"/><path fill-rule="evenodd" clip-rule="evenodd" fill="#EEEEEE" d="M98.03 43.24c0-1.11-0.01-2.22 0.01-3.33 0-0.32-0.08-0.48-0.43-0.42 -0.43 0.07-0.57-0.1-0.54-0.52 0.03-0.42 0.03-0.84 0-1.26 -0.02-0.33 0.09-0.48 0.42-0.41 0.48 0.09 0.58-0.13 0.54-0.55 -0.04-0.42 0-0.84-0.02-1.26 -0.01-0.27 0.09-0.35 0.35-0.34 0.51 0.02 1.16-0.16 1.5 0.08 0.33 0.24 0.09 0.91 0.1 1.39 0.02 0.68 0.01 0.68 0.69 0.68 0.75 0 0.75 0 0.75 0.75 0 0.08 0 0.17 0 0.25 -0.01 0.37 0.11 0.82-0.07 1.08 -0.18 0.26-0.67 0.08-1.02 0.09 -0.25 0.01-0.32 0.1-0.32 0.34 0.01 2.02 0 4.04 0.01 6.06 0 0.59 0.27 0.85 0.85 0.82 0.43-0.02 0.57 0.11 0.54 0.53 -0.03 0.43-0.01 0.88 0.02 1.31 0.02 0.33-0.11 0.42-0.42 0.37 -0.4-0.07-0.82-0.09-1.21-0.2 -1.13-0.29-1.75-1.08-1.76-2.24C98.02 45.39 98.03 44.32 98.03 43.24z"/><path fill-rule="evenodd" clip-rule="evenodd" fill="#AAAAAA" d="M107.58 26.61c0-1.13-0.01-2.25 0.01-3.38 0.01-0.34-0.1-0.47-0.43-0.41 -0.49 0.1-0.57-0.15-0.54-0.56 0.03-0.4 0-0.81-0.04-1.21 -0.03-0.34 0.06-0.52 0.44-0.44 0.48 0.09 0.62-0.12 0.57-0.57 -0.04-0.42-0.02-0.84-0.04-1.26 -0.01-0.24 0.08-0.32 0.32-0.31 0.43 0.02 0.86 0.02 1.28 0 0.27-0.01 0.36 0.07 0.35 0.34 -0.01 0.51 0.03 1.01 0.03 1.52 0 0.24 0.07 0.32 0.32 0.32 0.34 0 0.78-0.16 0.99 0.07 0.22 0.24 0.07 0.67 0.07 1.02 0 0.35 0.15 0.78-0.07 1.02 -0.21 0.22-0.65 0.07-0.99 0.07 -0.25 0-0.32 0.08-0.32 0.32 0.01 2.04 0 4.07 0.01 6.11 0 0.57 0.25 0.81 0.83 0.78 0.44-0.03 0.56 0.12 0.54 0.52 -0.02 0.45-0.01 0.91 0 1.36 0.01 0.22-0.04 0.36-0.31 0.32 -0.51-0.08-1.02-0.09-1.51-0.27 -0.97-0.35-1.5-1.04-1.51-2.05C107.57 28.81 107.58 27.71 107.58 26.61z"/><path fill-rule="evenodd" clip-rule="evenodd" fill="#AAAAAA" d="M20.52 29.31c-0.09-0.18-0.05-0.36-0.05-0.55 0-2.2 0-4.41 0-6.62 0-0.17 0.05-0.36-0.05-0.53 -0.53 0.5-1.06 0.99-1.6 1.49 -0.11-0.05-0.12-0.19-0.19-0.3 -0.28-0.42-0.69-0.53-1.16-0.46 -0.44 0.06-0.7 0.34-0.8 0.75 -0.06 0.24-0.06 0.5-0.06 0.75 0 2.53 0 5.05 0.02 7.58 0 0.35-0.07 0.48-0.44 0.45 -0.39-0.03-0.79-0.03-1.18 0 -0.36 0.03-0.45-0.08-0.45-0.44 0.01-2.74 0-5.49-0.01-8.23 0-0.87 0.01-1.75-0.01-2.62 0-0.27 0.06-0.39 0.36-0.37 0.41 0.03 0.82 0.03 1.23 0 0.31-0.02 0.5 0.04 0.43 0.47 0.68-0.5 1.38-0.62 2.13-0.48 0.78 0.14 1.27 0.66 1.74 1.34 0.04-0.49 0.06-0.88 0.09-1.27C20.52 23.27 20.52 26.29 20.52 29.31z"/><path fill-rule="evenodd" clip-rule="evenodd" fill="#AAAAAA" d="M74.44 20.68c1.28-0.93 2.82-0.67 3.67 0.53 0.15 0.21 0.18 0.36-0.04 0.55 -0.49 0.42-0.95 0.87-1.42 1.31 -0.2-0.48-0.55-0.79-1.16-0.75 -0.49 0.03-0.79 0.28-0.93 0.73 -0.08 0.26-0.09 0.53-0.09 0.8 0.02 2.51 0.02 5.02 0.04 7.53 0 0.36-0.06 0.52-0.47 0.48 -0.41-0.04-0.82-0.02-1.24 0 -0.25 0.01-0.36-0.04-0.36-0.33 0-3.67-0.02-7.34-0.04-11.01 0-0.29 0.12-0.33 0.37-0.32 0.43 0.01 0.86 0.03 1.28 0C74.42 20.16 74.51 20.31 74.44 20.68z"/><path fill-rule="evenodd" clip-rule="evenodd" fill="#EEEEEE" d="M114.03 39.81c-0.05-0.07-0.09-0.13-0.13-0.19 -0.33-0.54-0.74-0.72-1.28-0.59 -0.46 0.11-0.76 0.48-0.8 1.05 -0.02 0.37-0.01 0.74-0.01 1.11 0 2.29-0.01 4.58 0.01 6.87 0 0.36-0.07 0.52-0.47 0.48 -0.51-0.05-1.18 0.16-1.49-0.1 -0.33-0.26-0.1-0.95-0.1-1.45 -0.02-3.23-0.02-6.46-0.04-9.7 0-0.36 0.11-0.47 0.46-0.44 0.39 0.03 0.79 0.01 1.18 0.01 0.27 0 0.57-0.06 0.4 0.42 1.6-0.96 2.98-0.4 3.66 0.57 0.17 0.24 0.21 0.4-0.04 0.63C114.91 38.9 114.48 39.36 114.03 39.81z"/><path fill-rule="evenodd" clip-rule="evenodd" fill="#AAAAAA" d="M37.96 23.15c-0.07-0.12-0.11-0.21-0.17-0.29 -0.28-0.44-0.69-0.62-1.23-0.51 -0.49 0.1-0.71 0.44-0.79 0.89 -0.04 0.21-0.03 0.43-0.03 0.66 0 2.51 0 5.02 0.02 7.53 0.01 0.34-0.06 0.49-0.44 0.45 -0.39-0.04-0.79-0.03-1.18 0 -0.35 0.03-0.46-0.07-0.45-0.43 0.01-2.34 0-4.68-0.01-7.02 0-1.26 0.01-2.53-0.01-3.79 0-0.31 0.05-0.46 0.41-0.42 0.39 0.03 0.79 0.02 1.18 0 0.31-0.02 0.51 0.03 0.43 0.47 0.7-0.51 1.41-0.62 2.18-0.47 0.69 0.14 1.15 0.56 1.53 1.1 0.1 0.15 0.12 0.25-0.02 0.39C38.91 22.16 38.45 22.65 37.96 23.15z"/><path fill-rule="evenodd" clip-rule="evenodd" fill="#AAAAAA" d="M20.52 29.31c0-3.02 0-6.04 0-9.06 0.57-0.12 1.16-0.01 1.74-0.05 0.37-0.02 0.17 0.29 0.29 0.45 0.62-0.5 1.34-0.6 2.11-0.45 0.65 0.12 1.1 0.51 1.48 1 0.17 0.22 0.21 0.39-0.04 0.59 -0.48 0.4-0.95 0.82-1.41 1.22 -0.19-0.37-0.52-0.72-1.12-0.68 -0.51 0.04-0.86 0.31-0.97 0.81 -0.03 0.13-0.06 0.26-0.06 0.4 0.01 2.22 0.02 4.44 0.03 6.66 0 0.54 0.17 1.2-0.09 1.56 -0.23 0.33-0.96 0.05-1.46 0.1 -0.39 0.04-0.54-0.06-0.51-0.48C20.54 30.69 20.52 30 20.52 29.31z"/><path fill-rule="evenodd" clip-rule="evenodd" fill="#AAAAAA" d="M112.13 63.05c-1.83 0.52-3.02-0.18-3.43-1.97 -0.24-1.09-0.2-2.16 0.35-3.17 0.56-1.02 1.85-1.68 2.93-1.06 0.27 0.16 0.24-0.17 0.43-0.15 0.37 0.04 0.75 0.02 1.13 0.01 0.19 0 0.23 0.1 0.22 0.26 -0.05 2.08 0.15 4.17-0.11 6.25 -0.16 1.25-0.91 2.14-2.17 2.54 -0.32 0.1-0.54 0.08-0.51-0.33 0-0.09-0.04-0.19-0.07-0.29 -0.12-0.5-0.22-0.94 0.52-1.12C111.81 63.93 112.05 63.53 112.13 63.05zM112.23 59.96c0-0.29-0.01-0.57 0-0.86 0.03-0.49-0.18-0.81-0.67-0.93 -0.43-0.11-0.95 0.07-1.14 0.47 -0.41 0.87-0.38 1.77 0.01 2.63 0.18 0.39 0.73 0.54 1.22 0.38 0.4-0.13 0.62-0.39 0.59-0.83C112.21 60.54 112.23 60.25 112.23 59.96z"/><path fill-rule="evenodd" clip-rule="evenodd" fill="#AAAAAA" d="M124.68 56.86c0-0.16 0-0.3 0-0.45 0-1.29 0.15-1.46 1.54-1.74 0 0.51 0 1.01 0 1.51 0 2.15-0.01 4.31 0.01 6.46 0 0.4-0.08 0.59-0.53 0.53 -0.22-0.03-0.45-0.02-0.67 0 -0.27 0.03-0.4-0.06-0.36-0.35 -1.72 1.12-3.15 0.08-3.56-1.44 -0.24-0.91-0.24-1.83 0.01-2.74C121.61 56.88 122.88 56.26 124.68 56.86zM124.68 60.03c0-0.32 0.03-0.6-0.01-0.86 -0.06-0.46-0.36-0.76-0.81-0.85 -0.47-0.1-0.91-0.01-1.13 0.46 -0.35 0.77-0.36 1.55-0.03 2.33 0.17 0.4 0.51 0.58 0.93 0.59 0.41 0.01 0.7-0.2 0.92-0.54C124.79 60.77 124.63 60.36 124.68 60.03z"/><path fill-rule="evenodd" clip-rule="evenodd" fill="#AAAAAA" d="M56.34 54.62c0 0.79 0 1.52 0 2.3 0.28-0.09 0.51-0.18 0.75-0.24 0.92-0.23 1.8 0.11 2.32 0.88 0.84 1.24 0.81 3.48-0.01 4.71 -0.61 0.93-2 1.34-2.81 0.75 -0.13-0.09-0.24-0.13-0.26 0.1 0 0.06-1.39 0.09-1.46 0.05 -0.1-0.07-0.07-0.18-0.07-0.28 0-2.44 0-4.88 0-7.32 0-0.15-0.01-0.3 0.18-0.37C55.42 55.01 55.86 54.82 56.34 54.62zM56.36 59.97c0 0.24 0 0.47 0 0.71 0 0.59 0.23 0.91 0.75 1.04 0.43 0.11 0.94-0.09 1.16-0.53 0.42-0.83 0.4-1.69 0.01-2.52 -0.2-0.42-0.75-0.61-1.24-0.45 -0.45 0.15-0.7 0.46-0.68 0.94C56.36 59.43 56.36 59.7 56.36 59.97z"/><path fill-rule="evenodd" clip-rule="evenodd" fill="#AAAAAA" d="M31.41 59.04c0-1.25 0.01-2.49-0.01-3.74 0-0.32 0.07-0.44 0.42-0.42 1.08 0.06 2.16-0.1 3.23 0.08 1.48 0.25 2.18 1.29 2.04 2.92 -0.11 1.23-1.07 2.09-2.42 2.15 -0.43 0.02-0.86 0.03-1.28 0 -0.32-0.02-0.44 0.06-0.43 0.41 0.03 0.79 0 1.58 0.02 2.37 0.01 0.28-0.07 0.37-0.36 0.37 -1.2 0.02-1.2 0.03-1.2-1.16C31.41 61.03 31.41 60.04 31.41 59.04zM33.91 58.52c0.24 0 0.48 0.01 0.72 0 0.6-0.03 0.91-0.32 0.96-0.9 0.07-0.8-0.33-1.23-1.16-1.22 -0.47 0-1.09-0.19-1.38 0.08 -0.27 0.25-0.07 0.86-0.08 1.31C32.96 58.53 32.97 58.53 33.91 58.52z"/><path fill-rule="evenodd" clip-rule="evenodd" fill="#AAAAAA" d="M72.25 57.05c1.21-0.68 2.29-0.55 2.94 0.32 0.33 0.45 0.45 0.98 0.45 1.52 0.01 1.31 0 2.62 0.01 3.94 0 0.26-0.07 0.34-0.34 0.35 -1.18 0.04-1.18 0.05-1.18-1.12 0-0.96 0.01-1.92 0-2.88 -0.02-0.86-0.71-1.31-1.41-0.94 -0.36 0.19-0.47 0.5-0.47 0.88 0.01 1.21-0.01 2.42 0.01 3.64 0 0.32-0.07 0.43-0.42 0.43 -1.1-0.01-1.11 0.01-1.11-1.1 0-2.12 0.01-4.24-0.01-6.36 0-0.35 0.09-0.53 0.44-0.66 1.1-0.44 1.09-0.45 1.09 0.72C72.25 56.19 72.25 56.59 72.25 57.05z"/><path fill-rule="evenodd" clip-rule="evenodd" fill="#AAAAAA" d="M64.31 58.84c-0.3-0.75-0.94-0.95-1.67-0.5 -0.38 0.23-0.49 0.12-0.67-0.19 -0.48-0.85-0.44-0.98 0.5-1.34 1.76-0.68 3.32 0.32 3.39 2.2 0.05 1.28 0 2.56 0.02 3.84 0 0.27-0.09 0.35-0.35 0.34 -0.33-0.02-0.75 0.12-0.96-0.03 -0.42-0.32-0.68 0-1 0.08 -0.81 0.21-1.67-0.09-2.18-0.77 -0.99-1.35-0.45-3.29 1.05-3.69C63.04 58.6 63.65 58.63 64.31 58.84zM64.31 60.85c0.09-0.51-0.09-0.77-0.82-0.8 -0.62-0.03-1.01 0.29-1.02 0.8 -0.01 0.5 0.37 0.85 0.93 0.85C64.01 61.7 64.31 61.42 64.31 60.85z"/><path fill-rule="evenodd" clip-rule="evenodd" fill="#AAAAAA" d="M51.76 60.81c-0.51 0-1.03 0.01-1.54 0 -0.3 0-0.31 0.11-0.19 0.34 0.33 0.61 1.2 0.84 1.77 0.4 0.3-0.24 0.45-0.15 0.64 0.07 0.03 0.04 0.07 0.07 0.11 0.11 0.62 0.6 0.61 0.74-0.15 1.22 -1.31 0.83-3.25 0.2-3.77-1.27 -0.4-1.13-0.38-2.28 0.06-3.4 0.45-1.16 1.41-1.74 2.64-1.66 1.11 0.08 1.92 0.79 2.23 1.97 0.17 0.64 0.14 1.3 0.13 1.96 0 0.24-0.12 0.28-0.32 0.27C52.82 60.8 52.29 60.81 51.76 60.81zM51.03 59.33c0.29 0 0.58-0.01 0.87 0 0.18 0.01 0.24-0.06 0.21-0.23 -0.08-0.49-0.56-1-0.98-1.02 -0.49-0.03-1.01 0.38-1.16 0.89 -0.07 0.27-0.02 0.4 0.3 0.37C50.52 59.31 50.78 59.33 51.03 59.33z"/><path fill-rule="evenodd" clip-rule="evenodd" fill="#AAAAAA" d="M130.58 58.78c-0.29-0.7-0.96-0.89-1.69-0.42 -0.33 0.21-0.46 0.14-0.59-0.16 -0.01-0.03-0.03-0.06-0.05-0.08 -0.46-0.78-0.41-0.93 0.45-1.29 1.72-0.72 3.4 0.31 3.44 2.13 0.03 1.3 0 2.59 0.01 3.89 0 0.25-0.05 0.41-0.33 0.34 -0.41-0.09-0.89 0.23-1.26-0.2 -0.06-0.07-0.18 0.06-0.27 0.1 -1.44 0.64-2.89-0.23-3.05-1.77 -0.23-2.33 1.54-2.87 3.07-2.54C130.39 58.77 130.46 58.84 130.58 58.78zM130.64 60.85c0-0.6-0.23-0.82-0.87-0.81 -0.63 0.01-0.99 0.31-1 0.82 -0.01 0.49 0.38 0.83 0.95 0.84C130.31 61.7 130.64 61.41 130.64 60.85z"/><path fill-rule="evenodd" clip-rule="evenodd" fill="#AAAAAA" d="M118.12 58.78c-0.22-0.67-0.88-0.9-1.59-0.46 -0.42 0.26-0.54 0.13-0.73-0.23 -0.44-0.8-0.42-0.89 0.42-1.26 1.72-0.76 3.4 0.25 3.5 2.17 0.06 1.29 0.01 2.59 0.02 3.89 0 0.22-0.06 0.3-0.29 0.29 -0.33-0.01-0.73 0.12-0.96-0.03 -0.49-0.3-0.83 0.05-1.23 0.11 -1.22 0.2-2.35-0.69-2.46-1.93 -0.17-1.96 1.11-3.04 3.08-2.57C117.96 58.78 118.04 58.84 118.12 58.78zM118.18 60.85c0-0.61-0.22-0.82-0.87-0.81 -0.62 0.01-1 0.32-1 0.83 -0.01 0.49 0.38 0.83 0.95 0.83C117.87 61.7 118.18 61.42 118.18 60.85z"/><path fill-rule="evenodd" clip-rule="evenodd" fill="#EEEEEE" d="M116.15 42.65c0-1.78 0.01-3.57-0.01-5.35 0-0.31 0.06-0.46 0.42-0.44 0.43 0.03 0.86 0.02 1.29 0 0.26-0.01 0.36 0.06 0.36 0.34 -0.01 3.67-0.01 7.34 0 11.01 0 0.28-0.1 0.34-0.36 0.33 -0.43-0.02-0.86-0.03-1.28 0 -0.36 0.03-0.42-0.13-0.42-0.44C116.15 46.29 116.15 44.47 116.15 42.65z"/><path fill-rule="evenodd" clip-rule="evenodd" fill="#AAAAAA" d="M47.1 59.96c0 0.96-0.01 1.92 0.01 2.88 0 0.26-0.06 0.37-0.33 0.34 -0.31-0.02-0.62-0.01-0.92-0.01 -0.05 0-0.14 0.02-0.15 0 -0.3-0.52-0.6-0.04-0.85 0.04 -1.41 0.41-2.58-0.44-2.64-2.02 -0.05-1.38 0-2.76-0.02-4.14 0-0.26 0.09-0.34 0.35-0.35 1.17-0.04 1.17-0.05 1.17 1.09 0 0.98-0.01 1.95 0 2.93 0.01 0.71 0.39 1.08 1.02 1.03 0.5-0.04 0.81-0.36 0.81-0.85 0.01-1.25 0.02-2.49-0.01-3.73 -0.01-0.39 0.11-0.48 0.49-0.47 1.08 0.02 1.08 0 1.08 1.04C47.1 58.48 47.1 59.22 47.1 59.96z"/><path fill-rule="evenodd" clip-rule="evenodd" fill="#AAAAAA" d="M76.79 60.32c0-1.11 0.14-1.83 0.54-2.48 0.95-1.54 2.96-1.66 4.07-0.24 1.02 1.3 0.92 3.69-0.2 4.92 -0.97 1.06-2.71 1-3.64-0.13C76.99 61.68 76.78 60.84 76.79 60.32zM80.62 59.94c-0.07-0.41-0.07-0.83-0.29-1.21 -0.41-0.71-1.34-0.76-1.73-0.04 -0.46 0.85-0.46 1.75 0.04 2.59 0.37 0.63 1.19 0.61 1.61 0.01C80.53 60.87 80.55 60.4 80.62 59.94z"/><path fill-rule="evenodd" clip-rule="evenodd" fill="#AAAAAA" d="M107.5 60.06c-0.03 0.75-0.21 1.54-0.72 2.23 -1.02 1.38-3.06 1.35-3.98-0.1 -0.88-1.39-0.91-2.87-0.11-4.3 0.97-1.74 3.28-1.71 4.28 0.02C107.35 58.54 107.5 59.24 107.5 60.06zM105.95 59.9c0.04-0.39-0.04-0.78-0.23-1.15 -0.18-0.35-0.46-0.58-0.89-0.58 -0.41 0-0.73 0.19-0.9 0.56 -0.37 0.81-0.37 1.62 0 2.43 0.17 0.37 0.5 0.57 0.9 0.56 0.4 0 0.71-0.22 0.89-0.58C105.91 60.75 105.99 60.35 105.95 59.9z"/><path fill-rule="evenodd" clip-rule="evenodd" fill="#AAAAAA" d="M98.13 60.38c-0.01 0.52-0.23 1.41-0.9 2.13 -1.06 1.13-2.83 1.02-3.73-0.24 -0.93-1.29-0.94-3.3-0.02-4.61 0.96-1.37 2.92-1.41 3.93-0.07C97.88 58.2 98.13 59.03 98.13 60.38zM96.59 59.91c0.04-0.38-0.02-0.79-0.23-1.17 -0.19-0.35-0.47-0.57-0.89-0.56 -0.42 0-0.72 0.2-0.89 0.57 -0.37 0.79-0.36 1.59-0.01 2.38 0.18 0.39 0.5 0.61 0.92 0.6 0.4 0 0.7-0.24 0.88-0.6C96.56 60.76 96.62 60.36 96.59 59.91z"/><path fill-rule="evenodd" clip-rule="evenodd" fill="#EEEEEE" d="M125.4 21.32c-1.45 1.1-2.87 0.32-3.73-0.73 -0.11-0.14-0.25-0.27-0.37-0.4 -0.19-0.4-0.5-0.7-0.76-1.05 -0.21-0.27-0.39-0.19-0.55 0.05 -0.2 0.31-0.34 0.64-0.44 1 -0.13 0.36-0.27 0.73-0.39 1.09 -0.13 0.38-0.42 0.55-0.8 0.43 -0.39-0.12-0.51-0.43-0.37-0.81 0.27-0.72 0.46-1.47 0.84-2.15 0.73-1.29 1.74-1.39 2.72-0.28 0.48 0.55 0.84 1.19 1.39 1.67 0.58 0.61 1.04 0.69 1.55 0.29 0.59-0.44 0.86-1.07 1.11-1.72 0.28-0.74 0.5-1.49 0.76-2.24 0.12-0.35 0.36-0.55 0.74-0.47 0.41 0.08 0.56 0.4 0.45 0.77 -0.38 1.27-0.72 2.56-1.45 3.7C125.9 20.77 125.64 21.04 125.4 21.32z"/><path fill-rule="evenodd" clip-rule="evenodd" fill="#AAAAAA" d="M100.83 54.64c0.12 0.16 0.07 0.3 0.07 0.43 0 2.56 0 5.12 0.01 7.67 0 0.34-0.06 0.46-0.44 0.45 -1.11-0.02-1.11 0-1.11-1.1 0-2.1 0.02-4.21-0.01-6.31 0-0.41 0.12-0.61 0.51-0.73C100.19 54.95 100.49 54.78 100.83 54.64z"/><path fill-rule="evenodd" clip-rule="evenodd" fill="#AAAAAA" d="M38.02 59.93c0-0.96 0.01-1.92-0.01-2.88 0-0.25 0.06-0.4 0.33-0.34 0.41 0.09 0.87-0.2 1.25 0.18 0.02 0.02 0.15-0.05 0.21-0.09 0.22-0.14 0.46-0.2 0.73-0.19 0.68 0.03 0.85 0.24 0.64 0.85 -0.03 0.1-0.06 0.19-0.1 0.29 -0.11 0.3-0.1 0.66-0.66 0.4 -0.44-0.2-0.85 0.21-0.86 0.77 -0.01 1.26-0.02 2.53 0.01 3.79 0.01 0.37-0.09 0.48-0.47 0.47 -1.07-0.02-1.07-0.01-1.07-1.03C38.02 61.41 38.02 60.67 38.02 59.93z"/><path fill-rule="evenodd" clip-rule="evenodd" fill="#EEEEEE" d="M80.75 32.65c1.17 0.01 1.16 0 0.88 1.12 -0.41 1.61-0.81 3.22-1.19 4.83 -0.08 0.34-0.21 0.43-0.54 0.42 -1.01-0.01-1.03 0-0.92-0.97 0.19-1.7 0.42-3.4 0.61-5.1 0.03-0.23 0.09-0.32 0.33-0.31C80.21 32.66 80.48 32.65 80.75 32.65z"/><path fill-rule="evenodd" clip-rule="evenodd" fill="#EEEEEE" d="M118.21 34.13c-0.05 0.43 0.19 0.99-0.1 1.26 -0.28 0.27-0.84 0.07-1.29 0.08 -0.77 0-0.67 0.1-0.68-0.67 0-0.59 0.01-1.18-0.01-1.76 -0.01-0.25 0.08-0.34 0.32-0.31 0.1 0.01 0.2 0 0.31 0 0.46 0.02 1.06-0.13 1.34 0.1C118.4 33.07 118.15 33.68 118.21 34.13z"/><path fill-rule="evenodd" clip-rule="evenodd" fill="#909090" d="M121.81 31.54c0 0.11 0.04 0.24-0.11 0.31 0.01-2.67 0.01-5.34 0.02-8.01 0-0.2-0.05-0.41 0.08-0.59"/><path fill-rule="evenodd" clip-rule="evenodd" fill="#AAAAAA" d="M124.5 20.43c-0.5 0.41-0.97 0.32-1.55-0.29C123.49 20.09 124.02 20.13 124.5 20.43z"/><path fill-rule="evenodd" clip-rule="evenodd" fill="#B9C0B1" d="M119.84 31.86c0.59-0.05 1.18-0.05 1.77 0C121.02 31.98 120.42 31.98 119.84 31.86z"/></symbol></svg>