<svg xmlns="http://www.w3.org/2000/svg" viewBox="0 0 15.3 9.9">
<g>
	<path fill="#292529" d="M14.947,8.031L13.4,9.568c-0.119,0.118-0.258,0.178-0.419,0.178c-0.161,0-0.301-0.06-0.419-0.178L7.612,4.62L2.664,9.568
		C2.545,9.687,2.405,9.746,2.244,9.746c-0.162,0-0.302-0.06-0.42-0.178L0.277,8.031C0.159,7.913,0.1,7.771,0.1,7.607
		c0-0.165,0.059-0.307,0.177-0.425l6.916-6.906C7.311,0.159,7.451,0.1,7.612,0.1s0.301,0.059,0.419,0.177l6.916,6.906
		c0.117,0.118,0.176,0.26,0.176,0.425C15.123,7.771,15.064,7.913,14.947,8.031z"/>
</g>
</svg>
