<?xml version="1.0" encoding="utf-8"?>
<!-- Generator: Adobe Illustrator 16.0.0, SVG Export Plug-In . SVG Version: 6.00 Build 0)  -->
<!DOCTYPE svg PUBLIC "-//W3C//DTD SVG 1.1//EN" "http://www.w3.org/Graphics/SVG/1.1/DTD/svg11.dtd">
<svg version="1.1" id="Layer_1" xmlns="http://www.w3.org/2000/svg" xmlns:xlink="http://www.w3.org/1999/xlink" x="0px" y="0px"
	 width="25px" height="25px" viewBox="0 0 25 25" enable-background="new 0 0 25 25" xml:space="preserve">
<g>
	<path d="M23.199,6.27c1.108,1.898,1.663,3.97,1.663,6.217c0,2.247-0.555,4.319-1.663,6.218c-1.107,1.897-2.61,3.398-4.509,4.507
		c-1.895,1.106-3.969,1.661-6.214,1.661c-2.248,0-4.32-0.555-6.217-1.661c-1.898-1.108-3.401-2.609-4.508-4.507
		c-1.108-1.898-1.662-3.971-1.662-6.218c0-2.248,0.554-4.319,1.662-6.217c1.106-1.898,2.609-3.4,4.508-4.508
		c1.897-1.108,3.97-1.662,6.217-1.662c2.246,0,4.32,0.554,6.214,1.662C20.589,2.87,22.092,4.372,23.199,6.27z M20.071,16.89
		c0.785-1.344,1.179-2.812,1.179-4.402c0-1.591-0.394-3.059-1.179-4.403c-0.785-1.344-1.85-2.409-3.192-3.194
		c-1.345-0.784-2.813-1.177-4.403-1.177c-1.592,0-3.06,0.393-4.403,1.177c-1.344,0.786-2.41,1.85-3.194,3.194
		c-0.784,1.344-1.177,2.812-1.177,4.403c0,1.591,0.393,3.059,1.177,4.402c0.785,1.344,1.85,2.409,3.194,3.192
		c1.343,0.786,2.811,1.179,4.403,1.179c1.59,0,3.058-0.393,4.403-1.179C18.222,19.299,19.286,18.233,20.071,16.89z M16.604,6.052
		v8.742l-8.256,4.128v-8.741L16.604,6.052z M10.411,15.584l4.129-2.064l-4.129-2.065V15.584z"/>
</g>
</svg>
