<?xml version="1.0" encoding="utf-8"?>
<!-- Generator: Adobe Illustrator 16.0.0, SVG Export Plug-In . SVG Version: 6.00 Build 0)  -->
<!DOCTYPE svg PUBLIC "-//W3C//DTD SVG 1.1//EN" "http://www.w3.org/Graphics/SVG/1.1/DTD/svg11.dtd">
<svg version="1.1" id="Layer_1" xmlns="http://www.w3.org/2000/svg" xmlns:xlink="http://www.w3.org/1999/xlink" x="0px" y="0px"
	 width="30px" height="24px" viewBox="0 0 30 24" enable-background="new 0 0 30 24" xml:space="preserve">
<g>
	<path d="M29.489,3.2v17.599c0,0.713-0.253,1.322-0.76,1.828c-0.509,0.508-1.116,0.762-1.828,0.762H3.088
		c-0.712,0-1.322-0.254-1.828-0.762c-0.507-0.506-0.76-1.115-0.76-1.828V3.2c0-0.712,0.253-1.321,0.76-1.828
		c0.506-0.507,1.116-0.76,1.828-0.76h23.813c0.712,0,1.319,0.253,1.828,0.76C29.236,1.878,29.489,2.488,29.489,3.2z M27.419,3.798
		c0-0.022,0-0.081,0-0.178s0-0.17,0-0.218s-0.002-0.119-0.009-0.21c-0.006-0.091-0.022-0.159-0.049-0.202
		c-0.025-0.043-0.056-0.091-0.088-0.146c-0.033-0.054-0.081-0.095-0.146-0.121c-0.063-0.027-0.139-0.041-0.226-0.041H3.088
		c-0.141,0-0.262,0.051-0.364,0.154C2.622,2.938,2.571,3.06,2.571,3.2c0,1.812,0.792,3.343,2.378,4.594
		c2.082,1.64,4.244,3.348,6.487,5.127c0.064,0.054,0.253,0.213,0.566,0.477c0.313,0.265,0.56,0.467,0.744,0.607
		c0.183,0.141,0.422,0.311,0.72,0.51c0.296,0.2,0.568,0.349,0.817,0.445c0.248,0.097,0.479,0.146,0.695,0.146h0.015h0.016
		c0.216,0,0.448-0.049,0.696-0.146c0.249-0.097,0.52-0.246,0.818-0.445c0.296-0.199,0.535-0.369,0.72-0.51
		c0.185-0.14,0.431-0.342,0.744-0.607c0.313-0.264,0.501-0.423,0.566-0.477c2.242-1.779,4.406-3.488,6.487-5.127
		c0.582-0.464,1.124-1.086,1.625-1.868C27.168,5.144,27.419,4.435,27.419,3.798z M27.419,20.799V8.376
		c-0.347,0.388-0.718,0.744-1.116,1.068c-2.89,2.221-5.188,4.043-6.892,5.467c-0.55,0.464-0.997,0.825-1.343,1.084
		c-0.346,0.259-0.811,0.521-1.399,0.783c-0.589,0.266-1.142,0.396-1.659,0.396h-0.016h-0.015c-0.518,0-1.071-0.131-1.658-0.396
		c-0.588-0.263-1.054-0.524-1.399-0.783c-0.345-0.26-0.793-0.621-1.343-1.084c-1.704-1.424-4-3.246-6.891-5.467
		c-0.399-0.324-0.771-0.68-1.116-1.068v12.422c0,0.141,0.051,0.262,0.154,0.365c0.102,0.104,0.223,0.152,0.364,0.152h23.813
		c0.14,0,0.261-0.049,0.363-0.152C27.368,21.061,27.419,20.939,27.419,20.799z"/>
</g>
</svg>
