<?xml version="1.0" encoding="utf-8"?>
<!-- Generator: Adobe Illustrator 16.0.0, SVG Export Plug-In . SVG Version: 6.00 Build 0)  -->
<!DOCTYPE svg PUBLIC "-//W3C//DTD SVG 1.1//EN" "http://www.w3.org/Graphics/SVG/1.1/DTD/svg11.dtd">
<svg version="1.1" id="Layer_1" xmlns="http://www.w3.org/2000/svg" xmlns:xlink="http://www.w3.org/1999/xlink" x="0px" y="0px"
	 width="213px" height="102px" viewBox="0 0 213 102" enable-background="new 0 0 213 102" xml:space="preserve">
<g>
	<path fill-rule="evenodd" clip-rule="evenodd" fill="#AAAAAA" d="M146.028,86.437c2.079,3.247,5.182,5.409,8.007,7.937
		c-1.813,0.419-3.574,0.809-5.322,1.232c-2.761,0.676-5.547,1.218-8.381,1.464c-2.271,0.195-4.547,0.24-6.83,0.083
		c-7.129-0.489-13.602-2.691-19.268-7.044c-0.142-0.111-0.289-0.218-0.485-0.369c0.02,4.225,1.327,7.937,4.083,11.146
		c-0.041,0.033-0.083,0.063-0.12,0.093c-0.977-0.202-1.949-0.413-2.925-0.603c-3.273-0.636-6.509-1.399-9.631-2.586
		c-5.92-2.253-11.173-5.517-15.681-9.919c-0.113-0.112-0.21-0.241-0.39-0.45c-0.116,2.424-0.071,4.702,0.009,6.973
		c-0.187,0.09-0.284-0.041-0.395-0.094c-6.576-3.153-12.313-7.447-17.541-12.441c-1.808-1.728-3.544-3.517-5.191-5.392
		c-0.095-0.109-0.393-0.207-0.131-0.475c0.247-0.252,0.381-0.156,0.568,0.049c1.16,1.264,2.411,2.442,3.68,3.597
		c4.922,4.473,10.199,8.466,16.164,11.526c0.27,0.138,0.551,0.259,0.924,0.434c-0.182-3.113-0.072-6.157,0.182-9.24
		c3.003,3.752,6.662,6.731,10.83,9.129c4.161,2.392,8.598,4.063,13.374,5.105c-0.166-0.559-0.319-1.048-0.456-1.542
		c-0.704-2.535-0.966-5.12-0.932-7.739c0.027-1.952,0.066-3.905,0.105-5.855c0-0.077-0.042-0.168,0.077-0.25
		c0.881,0.931,1.784,1.843,2.638,2.796c2.251,2.521,4.986,4.384,8.024,5.861c2.765,1.343,5.69,2.211,8.724,2.675
		c2.925,0.448,5.869,0.471,8.822,0.218c1.777-0.151,3.512-0.532,5.257-0.792c0.078-0.174-0.06-0.23-0.136-0.308
		c-2.297-2.391-3.896-5.173-4.784-8.347c-0.123-0.438-0.271-0.869-0.438-1.288c-0.114-0.281-0.087-0.358,0.247-0.377
		c1.265-0.068,2.528-0.159,3.791-0.263c3.302-0.265,6.546-0.863,9.768-1.59c8.301-1.877,16.243-4.734,23.836-8.523
		c6.137-3.062,11.887-6.728,17.283-10.926c6.73-5.242,12.725-11.211,18.183-17.714c0.262-0.312,0.533-0.615,0.794-0.927
		c0.13-0.158,0.236-0.257,0.46-0.101c0.203,0.143,0.203,0.245,0.084,0.447c-2.527,4.382-5.383,8.547-8.628,12.455
		c-2.392,2.891-4.945,5.635-7.684,8.211c-5.432,5.11-11.415,9.489-17.954,13.144c-7.021,3.924-14.436,6.896-22.29,8.791
		C152.972,85.462,149.555,86.056,146.028,86.437z"/>
	<path fill-rule="evenodd" clip-rule="evenodd" fill="#EEEEEE" d="M93.684,75.601c-4.037,0.004-7.29-0.11-10.532-0.426
		c-4.311-0.421-8.569-1.16-12.782-2.156c-5.715-1.354-11.265-3.183-16.605-5.604c-1.474-0.666-2.904-1.427-4.354-2.147
		c-0.193-0.093-0.358-0.181-0.259-0.454c0.092-0.261,0.263-0.264,0.483-0.229c1.598,0.285,3.2,0.557,4.794,0.853
		c3.292,0.609,6.6,1.151,9.908,1.673c3.668,0.581,7.348,1.067,11.037,1.492c3.045,0.351,6.095,0.639,9.145,0.942
		c2.69,0.27,5.382,0.539,8.076,0.775c1.587,0.143,3.176,0.244,4.768,0.326c2.635,0.133,5.273,0.221,7.913,0.177
		c3.667-0.059,7.326-0.175,10.982-0.439c3.146-0.228,6.284-0.484,9.413-0.857c7.611-0.908,15.162-2.166,22.613-3.968
		c3.636-0.879,7.246-1.832,10.798-2.995c0.222-0.072,0.437-0.224,0.564,0.153c0.125,0.351-0.158,0.362-0.332,0.438
		c-4.223,1.8-8.56,3.293-12.951,4.632c-6.931,2.113-13.967,3.807-21.108,5.066c-4.094,0.719-8.207,1.313-12.347,1.72
		c-3.528,0.346-7.062,0.605-10.606,0.759C99.171,75.47,96.039,75.564,93.684,75.601z"/>
	<path fill-rule="evenodd" clip-rule="evenodd" fill="#AAAAAA" d="M164.117,14.338c1.411-1.921,2.818-3.842,4.237-5.76
		c0.531-0.723,1.081-1.436,1.63-2.144c0.7-0.909,1.245-0.917,1.934-0.025c4.373,5.676,8.497,11.52,12.161,17.665
		c3.856,6.469,7.463,13.057,10.315,20.02c0.853,2.089,1.677,4.187,2.517,6.278c0.158,0.392,0.243,0.779-0.067,1.135
		c-0.305,0.356-0.686,0.352-1.124,0.261c-6.316-1.282-12.635-2.553-18.954-3.825c-2.06-0.415-4.119-0.829-6.182-1.24
		c-0.632-0.125-1.216,0.13-1.812,0.256c-7.538,1.597-15.078,3.202-22.612,4.815c-0.424,0.09-0.785,0.08-1.076-0.252
		c-0.313-0.356-0.234-0.729-0.079-1.133c2.3-6.041,4.842-11.978,7.921-17.682c0.047-0.088,0.088-0.181,0.13-0.274
		c0.362-0.67,0.722-1.339,1.084-2.013c0.097-0.153,0.202-0.306,0.293-0.466c1.725-3.051,3.473-6.087,5.354-9.048
		c1.048-1.651,2.126-3.284,3.189-4.925C163.355,15.435,163.737,14.888,164.117,14.338z M194.699,49.732
		c-5.755-15.093-13.945-28.751-23.742-41.591c-9.787,12.835-17.968,26.461-23.712,41.536c0.236-0.034,0.37-0.047,0.501-0.077
		c6.4-1.366,12.799-2.744,19.201-4.098c1.704-0.362,3.35-0.775,5.188-0.364c5.368,1.202,10.781,2.207,16.177,3.294
		C190.416,48.856,192.522,49.29,194.699,49.732z"/>
	<path fill-rule="evenodd" clip-rule="evenodd" fill="#EEEEEE" d="M154.14,30.421c-0.362,0.673-0.722,1.343-1.084,2.013
		c-1.687,0.351-3.377,0.691-5.063,1.05c-3.989,0.851-7.977,1.708-11.968,2.565c-0.379,0.082-0.722,0.016-0.981-0.279
		c-0.285-0.327-0.26-0.685-0.11-1.084c2.118-5.651,4.659-11.108,7.655-16.364c3.265-5.734,6.914-11.212,10.971-16.431
		c0.68-0.875,1.247-0.859,1.939,0.038c3.083,3.995,5.985,8.111,8.618,12.41c-0.38,0.55-0.762,1.097-1.142,1.645
		c-0.086-0.124-0.18-0.242-0.258-0.373c-1.806-2.995-3.749-5.903-5.817-8.731c-0.778-1.063-1.566-2.113-2.387-3.219
		c-7.117,9.371-13.062,19.285-17.29,30.23c0.197-0.021,0.314-0.021,0.428-0.046c4.624-0.99,9.244-1.991,13.873-2.962
		C152.389,30.698,153.235,30.392,154.14,30.421z"/>
	<path fill-rule="evenodd" clip-rule="evenodd" fill="#AAAAAA" d="M86.138,26.978c0.768-3.512,1.54-7.008,2.29-10.507
		c0.066-0.305,0.147-0.432,0.479-0.412c0.498,0.028,0.995,0.023,1.493,0.001c0.274-0.01,0.345,0.078,0.34,0.34
		c-0.017,0.943-0.006,1.885-0.006,2.828c0,4.025-0.007,8.051,0.009,12.073c0.002,0.408-0.045,0.621-0.539,0.56
		c-0.472-0.057-1.12,0.152-1.393-0.089c-0.313-0.276-0.091-0.918-0.094-1.4c-0.013-1.786-0.005-3.57-0.008-5.356
		c-0.003-0.171,0.057-0.358-0.104-0.581c-0.333,1.524-0.654,2.995-0.971,4.467c-0.185,0.854-0.374,1.707-0.543,2.563
		c-0.055,0.297-0.178,0.436-0.502,0.392c-0.201-0.027-0.41-0.004-0.618-0.004c-1.042,0-1.029-0.002-1.226-1.041
		c-0.412-2.19-0.843-4.381-1.354-6.565c0,0.19,0,0.376,0,0.564c0,2.208-0.006,4.413,0.007,6.62c0.002,0.315-0.059,0.459-0.417,0.428
		c-0.356-0.032-0.72-0.034-1.078,0c-0.429,0.044-0.571-0.061-0.569-0.529c0.021-4.361,0.016-8.724,0.016-13.083
		c0-0.606,0.013-1.213-0.007-1.82c-0.011-0.276,0.061-0.384,0.36-0.367c0.464,0.025,0.929,0.025,1.388,0
		c0.336-0.019,0.463,0.082,0.539,0.418c0.77,3.428,1.565,6.846,2.352,10.267C86.001,26.823,85.986,26.918,86.138,26.978z"/>
	<path fill-rule="evenodd" clip-rule="evenodd" fill="#AAAAAA" d="M60.148,31.45c0,1.536-0.018,2.961,0.013,4.388
		c0.009,0.413-0.133,0.527-0.517,0.497c-0.491-0.038-1.12,0.198-1.445-0.088c-0.303-0.27-0.088-0.889-0.09-1.353
		c-0.006-4.616,0.002-9.231-0.015-13.846c-0.002-0.423,0.112-0.571,0.541-0.526c0.305,0.034,0.617,0.011,0.924-0.011
		c0.33-0.021,0.613-0.014,0.427,0.532c1.102-1.246,2.736-0.765,3.458,0.044c0.669,0.747,1.044,1.608,1.044,2.616
		c0,1.632,0.007,3.267-0.002,4.9c-0.009,1.077-0.418,1.995-1.205,2.747c-0.656,0.63-1.471,0.746-2.336,0.656
		C60.638,31.972,60.421,31.746,60.148,31.45z M60.161,26.217c-0.004,0-0.008,0-0.013,0c0,0.487-0.01,0.973,0.004,1.461
		c0.015,0.434-0.03,0.875,0.109,1.3c0.152,0.461,0.412,0.809,0.96,0.836c0.549,0.028,0.927-0.214,1.135-0.754
		c0.097-0.25,0.163-0.511,0.163-0.783c0-1.394,0-2.788,0-4.182c0-0.325-0.082-0.635-0.218-0.925
		c-0.244-0.519-0.71-0.717-1.272-0.556c-0.655,0.189-0.832,0.718-0.857,1.286C60.131,24.671,60.161,25.443,60.161,26.217z"/>
	<path fill-rule="evenodd" clip-rule="evenodd" fill="#EEEEEE" d="M74.871,48.126c-0.966,0.886-2.176,0.911-3.138,0.08
		c-0.821-0.716-1.268-1.637-1.287-2.713c-0.028-1.715-0.034-3.435,0.005-5.152c0.026-1.169,0.521-2.15,1.49-2.858
		c0.856-0.623,2.02-0.616,2.764-0.004c0.125-0.147,0.062-0.32,0.062-0.471c0.004-1.278,0.013-2.56-0.001-3.84
		c-0.005-0.316,0.064-0.452,0.418-0.427c0.393,0.025,0.79,0.01,1.181-0.021c0.348-0.028,0.468,0.067,0.466,0.434
		c-0.018,3.452-0.013,6.904-0.015,10.357c0,1.518-0.013,3.031,0.007,4.545c0.003,0.36-0.064,0.531-0.472,0.488
		c-0.324-0.035-0.651-0.025-0.976-0.001C75.074,48.562,74.841,48.532,74.871,48.126z M74.764,42.772c0.002,0,0.002,0,0.002,0
		c0-0.791,0.014-1.583-0.005-2.372c-0.015-0.615-0.289-0.971-0.783-1.104c-0.752-0.202-1.35,0.169-1.473,1.047
		c-0.22,1.621-0.133,3.25-0.042,4.877c0.008,0.163,0.06,0.327,0.109,0.488c0.133,0.41,0.386,0.72,0.844,0.779
		c0.473,0.061,0.817-0.168,1.079-0.543c0.191-0.274,0.271-0.573,0.271-0.904C74.761,44.284,74.764,43.527,74.764,42.772z"/>
	<path fill-rule="evenodd" clip-rule="evenodd" fill="#AAAAAA" d="M0.022,23.932c0-1.536,0.007-3.066-0.002-4.6
		c-0.002-0.512,0.078-1.006,0.256-1.484c0.525-1.405,1.535-2.115,2.976-2.101c1.345,0.017,2.37,0.777,2.842,2.147
		c0.437,1.263,0.173,2.573,0.237,3.862c0.013,0.219-0.161,0.172-0.287,0.172c-0.446,0.004-0.893-0.015-1.339,0.008
		c-0.287,0.012-0.35-0.101-0.33-0.354c0.047-0.669,0.076-1.341-0.009-2.014c-0.034-0.286-0.093-0.562-0.199-0.83
		c-0.189-0.482-0.508-0.8-1.066-0.797c-0.481,0.002-0.818,0.313-0.991,0.874c-0.103,0.326-0.131,0.662-0.131,0.999
		c0,2.712,0,5.425,0,8.136c0,0.423,0.043,0.845,0.236,1.23c0.214,0.43,0.555,0.667,1.065,0.634c0.477-0.03,0.734-0.305,0.899-0.71
		c0.163-0.397,0.195-0.814,0.197-1.236c0.003-0.605,0.022-1.215-0.008-1.819c-0.016-0.328,0.103-0.402,0.408-0.383
		c0.428,0.023,0.858,0.004,1.286,0.004c0.139,0,0.281-0.013,0.271,0.196c-0.054,1.258,0.161,2.532-0.14,3.777
		c-0.448,1.854-1.977,2.82-3.813,2.397c-1.28-0.292-1.868-1.269-2.23-2.413c-0.111-0.352-0.133-0.725-0.131-1.097
		C0.027,26.996,0.022,25.462,0.022,23.932z"/>
	<path fill-rule="evenodd" clip-rule="evenodd" fill="#EEEEEE" d="M88.058,48.538c-1.048,0-1.04-0.002-1.153-1.006
		C86.816,46.765,86.7,46,86.602,45.234c-0.017-0.121-0.013-0.251-0.176-0.255c-0.377-0.009-0.755-0.015-1.129,0
		c-0.22,0.008-0.193,0.21-0.212,0.344c-0.12,0.85-0.237,1.701-0.334,2.549c-0.075,0.663-0.061,0.665-0.76,0.665
		c-0.154,0-0.308,0-0.464,0c-0.962,0-0.947,0.003-0.816-0.917c0.482-3.376,0.954-6.752,1.431-10.128
		c0.206-1.463,0.416-2.925,0.616-4.389c0.034-0.248,0.103-0.404,0.412-0.385c0.493,0.028,0.992,0.034,1.488,0.023
		c0.262-0.009,0.313,0.13,0.339,0.333c0.348,2.597,0.698,5.194,1.047,7.791c0.315,2.332,0.629,4.661,0.945,6.99
		c0.095,0.683,0.103,0.681-0.619,0.683C88.264,48.538,88.161,48.538,88.058,48.538z M85.916,39.176
		c-0.032,0.002-0.064,0.004-0.097,0.006c-0.092,0.927-0.184,1.851-0.278,2.778c-0.041,0.377,0.199,0.559,0.563,0.425
		c0.095-0.036,0.135-0.079,0.126-0.181C86.124,41.197,86.021,40.186,85.916,39.176z"/>
	<path fill-rule="evenodd" clip-rule="evenodd" fill="#AAAAAA" d="M131.81,31.431c-0.968,1.033-2.59,0.724-3.371,0.109
		c-1.207-0.951-1.67-2.329-1.22-3.836c0.104-0.354,0.238-0.703,0.406-1.033c0.837-1.614,2.053-2.035,4.112-1.415
		c0.072-0.659,0.047-1.297-0.204-1.908c-0.18-0.443-0.527-0.698-1.032-0.691c-0.515,0.004-0.879,0.272-0.962,0.748
		c-0.11,0.612-0.464,0.731-1.001,0.651c-0.082-0.013-0.171-0.002-0.257-0.002c-0.998,0-1.007-0.002-0.807-0.978
		c0.171-0.83,0.567-1.544,1.215-2.109c1.173-1.025,3.254-0.759,4.235,0.538c0.541,0.714,0.792,1.527,0.796,2.405
		c0.011,2.509,0,5.015,0.011,7.525c0.002,0.323-0.072,0.451-0.423,0.424c-0.391-0.029-0.785-0.009-1.179-0.006
		C131.893,31.857,131.651,31.885,131.81,31.431z M131.77,28.476c0-0.795-0.679-1.585-1.36-1.577
		c-0.697,0.008-1.499,0.91-1.491,1.676c0.008,0.733,0.755,1.438,1.508,1.426C131.131,29.989,131.77,29.26,131.77,28.476z"/>
	<path fill-rule="evenodd" clip-rule="evenodd" fill="#AAAAAA" d="M11.841,25.267c0.036-0.617,0.045-1.201-0.156-1.765
		c-0.206-0.572-0.562-0.849-1.076-0.847c-0.569,0.002-0.91,0.325-1.003,0.834c-0.099,0.518-0.38,0.644-0.856,0.568
		c-0.15-0.025-0.309-0.003-0.463-0.003c-0.864,0-0.87-0.002-0.731-0.864c0.142-0.875,0.564-1.605,1.216-2.218
		c0.866-0.82,3.165-0.99,4.215,0.48c0.507,0.708,0.818,1.483,0.826,2.342c0.016,2.557,0,5.118,0.015,7.675
		c0.001,0.32-0.099,0.408-0.408,0.39c-0.409-0.025-0.821-0.012-1.232-0.004c-0.239,0.006-0.434-0.004-0.288-0.385
		c-0.867,0.75-1.983,0.848-2.966,0.32c-1.277-0.687-1.979-2.116-1.744-3.534c0.097-0.568,0.286-1.101,0.556-1.616
		c0.757-1.454,2.05-1.99,3.644-1.51C11.533,25.171,11.674,25.216,11.841,25.267z M11.861,28.489c0.014-0.787-0.663-1.585-1.343-1.59
		c-0.7,0-1.507,0.893-1.507,1.661c-0.002,0.723,0.749,1.443,1.501,1.441C11.215,29.998,11.848,29.29,11.861,28.489z"/>
	<path fill-rule="evenodd" clip-rule="evenodd" fill="#AAAAAA" d="M116.65,31.431c-0.713,0.818-2.08,0.902-3.079,0.266
		c-1.419-0.901-1.96-2.542-1.394-4.214c0.055-0.16,0.116-0.315,0.184-0.469c0.823-1.86,2.14-2.431,4.114-1.789
		c0.047,0.017,0.099,0.017,0.163,0.027c0.023-0.615,0.057-1.214-0.163-1.801c-0.184-0.494-0.516-0.789-1.062-0.793
		c-0.544-0.009-0.908,0.297-0.987,0.783c-0.096,0.584-0.423,0.675-0.919,0.616c-0.151-0.017-0.307-0.002-0.461-0.002
		c-0.838,0-0.845-0.002-0.703-0.819c0.127-0.748,0.444-1.416,0.949-1.987c1.059-1.186,3.122-1.236,4.232-0.088
		c0.701,0.721,1.076,1.598,1.081,2.597c0.013,2.559-0.002,5.12,0.011,7.679c0.002,0.312-0.053,0.453-0.412,0.424
		c-0.408-0.032-0.824-0.032-1.231,0C116.68,31.882,116.629,31.743,116.65,31.431z M116.656,28.481
		c0.002-0.817-0.65-1.591-1.336-1.582c-0.712,0.01-1.497,0.884-1.5,1.669c-0.005,0.715,0.758,1.443,1.504,1.433
		C116.033,29.991,116.652,29.288,116.656,28.481z"/>
	<path fill-rule="evenodd" clip-rule="evenodd" fill="#EEEEEE" d="M119.236,42.724c0.056-0.862-0.113-1.911,0.094-2.942
		c0.294-1.46,1.425-3.124,3.756-2.705c1.126,0.202,2.195,1.346,2.416,2.711c0.218,1.335,0.052,2.686,0.102,4.029
		c0.013,0.308-0.2,0.249-0.382,0.25c-1.181,0.003-2.365,0.019-3.548-0.008c-0.389-0.009-0.526,0.104-0.471,0.477
		c0.057,0.367,0.05,0.738,0.18,1.092c0.239,0.629,0.964,1.032,1.611,0.861c0.424-0.109,0.493-0.516,0.53-0.842
		c0.057-0.464,0.263-0.594,0.698-0.543c0.253,0.029,0.515,0.004,0.769,0.006c0.682,0.002,0.668,0.002,0.56,0.687
		c-0.098,0.644-0.304,1.244-0.687,1.771c-1.408,1.922-4.181,1.634-5.219-0.542c-0.27-0.568-0.405-1.172-0.409-1.802
		C119.231,44.45,119.236,43.675,119.236,42.724z M122.419,42.024c0.306,0,0.612,0,0.922,0c0.145,0,0.287-0.004,0.287-0.196
		c0.004-0.702,0.029-1.413-0.324-2.06c-0.203-0.373-0.553-0.548-0.978-0.527c-0.406,0.025-0.684,0.245-0.865,0.611
		c-0.178,0.358-0.201,0.743-0.242,1.123c-0.123,1.049-0.111,1.049,0.944,1.049C122.249,42.024,122.335,42.024,122.419,42.024z"/>
	<path fill-rule="evenodd" clip-rule="evenodd" fill="#AAAAAA" d="M39.89,26.037c0.052-0.948-0.135-2.132,0.188-3.293
		c0.484-1.756,1.926-2.651,3.744-2.327c1.094,0.193,2.132,1.387,2.331,2.738c0.198,1.325,0.04,2.658,0.091,3.987
		c0.011,0.316-0.209,0.246-0.383,0.246c-1.199,0.002-2.4,0.012-3.6-0.006c-0.338-0.007-0.469,0.086-0.417,0.418
		c0.047,0.299,0.049,0.607,0.109,0.902c0.162,0.779,0.825,1.228,1.625,1.126c0.449-0.054,0.552-0.431,0.581-0.735
		c0.053-0.574,0.336-0.726,0.861-0.644c0.115,0.019,0.239,0.002,0.357,0.002c0.942,0,0.942,0,0.775,0.938
		c-0.349,1.965-1.948,3.066-3.871,2.664c-1.125-0.235-2.125-1.452-2.311-2.813c-0.028-0.2-0.075-0.397-0.075-0.603
		C39.884,27.844,39.89,27.055,39.89,26.037z M43.062,25.353c0.307,0,0.616,0,0.922,0c0.138-0.001,0.294,0.017,0.296-0.186
		c0.004-0.686,0.053-1.384-0.279-2.021c-0.206-0.392-0.542-0.603-0.994-0.592c-0.458,0.014-0.757,0.269-0.93,0.675
		c-0.154,0.362-0.182,0.748-0.214,1.131c-0.088,0.992-0.088,0.992,0.889,0.992C42.856,25.353,42.959,25.353,43.062,25.353z"/>
	<path fill-rule="evenodd" clip-rule="evenodd" fill="#AAAAAA" d="M30.825,27.39c-0.583,0-1.167,0.025-1.746-0.01
		c-0.386-0.024-0.478,0.12-0.427,0.455c0.043,0.298,0.05,0.605,0.111,0.9c0.163,0.775,0.853,1.228,1.646,1.092
		c0.401-0.067,0.508-0.408,0.534-0.712c0.054-0.593,0.36-0.76,0.907-0.665c0.133,0.023,0.274,0.002,0.412,0.002
		c0.845,0,0.845,0,0.709,0.836c-0.332,2.028-1.928,3.166-3.883,2.765c-1.082-0.22-2.056-1.357-2.297-2.653
		c-0.166-0.887-0.097-1.78-0.086-2.669c0.013-1.226-0.147-2.464,0.103-3.674c0.24-1.157,0.824-2.123,2.016-2.545
		c1.906-0.671,3.841,0.567,4.132,2.669c0.185,1.316,0.039,2.653,0.071,3.984c0.007,0.278-0.188,0.223-0.351,0.223
		C32.061,27.39,31.443,27.39,30.825,27.39z M29.836,25.353c0.309,0,0.615,0,0.925,0c0.131-0.001,0.302,0.034,0.306-0.167
		c0.015-0.734,0.091-1.493-0.337-2.15c-0.463-0.715-1.434-0.632-1.822,0.128c-0.14,0.276-0.189,0.575-0.228,0.873
		C28.505,25.353,28.509,25.353,29.836,25.353z"/>
	<path fill-rule="evenodd" clip-rule="evenodd" fill="#AAAAAA" d="M101.239,20.661c1.246-0.9,2.734-0.657,3.589,0.545
		c0.474,0.666,0.721,1.411,0.725,2.222c0.007,2.679-0.001,5.358,0.009,8.034c0,0.301-0.061,0.426-0.391,0.397
		c-0.342-0.032-0.689-0.032-1.029,0c-0.393,0.036-0.517-0.078-0.517-0.489c0.009-2.374-0.017-4.747-0.025-7.121
		c-0.002-0.425-0.031-0.84-0.208-1.234c-0.236-0.52-0.61-0.735-1.183-0.682c-0.544,0.048-0.804,0.371-0.918,0.87
		c-0.053,0.234-0.06,0.465-0.06,0.702c0.011,2.491,0.015,4.985,0.041,7.476c0.003,0.363-0.066,0.521-0.472,0.481
		c-0.409-0.038-0.824-0.021-1.235-0.004c-0.254,0.01-0.36-0.046-0.36-0.331c-0.004-3.671-0.017-7.342-0.038-11.014
		c-0.003-0.292,0.124-0.328,0.366-0.319c0.412,0.01,0.824,0,1.235,0.002C101.191,20.197,101.191,20.197,101.239,20.661z"/>
	<path fill-rule="evenodd" clip-rule="evenodd" fill="#EEEEEE" d="M106.89,48.121c-1.337,0.896-2.845,0.592-3.658-0.663
		c-0.455-0.698-0.669-1.472-0.671-2.294c-0.006-2.629,0.006-5.257-0.006-7.883c0-0.31,0.077-0.425,0.401-0.394
		c0.504,0.048,1.165-0.207,1.475,0.107c0.245,0.248,0.077,0.893,0.08,1.362c0.008,2.039,0.008,4.076,0.027,6.112
		c0.005,0.332,0.041,0.674,0.127,0.996c0.191,0.723,0.613,1.008,1.298,0.933c0.577-0.061,0.911-0.474,0.917-1.196
		c0.011-1.38,0.005-2.764,0.003-4.143c0-1.264,0.008-2.525-0.013-3.789c-0.005-0.322,0.099-0.413,0.408-0.383
		c0.54,0.048,1.246-0.219,1.573,0.111c0.263,0.261,0.083,0.957,0.085,1.459c0.011,3.198,0.011,6.396,0.034,9.598
		c0.002,0.406-0.085,0.588-0.532,0.54c-0.371-0.044-0.751-0.034-1.128-0.034C107.029,48.562,106.84,48.479,106.89,48.121z"/>
	<path fill-rule="evenodd" clip-rule="evenodd" fill="#AAAAAA" d="M91.936,26.437c0-0.989,0-1.778,0-2.571
		c0-0.758,0.234-1.44,0.606-2.104c1.062-1.887,4.058-1.935,5.159,0.089c0.334,0.62,0.546,1.266,0.546,1.971c0,1.615,0,3.233,0,4.849
		c0,0.422-0.077,0.833-0.213,1.234c-0.543,1.563-1.622,2.298-3.253,2.219c-1.267-0.061-2.386-1.084-2.72-2.512
		C91.801,28.498,92.001,27.363,91.936,26.437z M96.292,26.345c0-0.739,0-1.329,0-1.915c-0.002-0.406-0.054-0.804-0.215-1.182
		c-0.195-0.449-0.536-0.697-1.032-0.691c-0.482,0.005-0.787,0.278-0.954,0.71c-0.109,0.282-0.182,0.572-0.185,0.881
		c-0.004,1.092-0.013,2.184-0.011,3.276c0,0.45-0.025,0.904,0.095,1.352c0.198,0.725,0.56,1.053,1.177,1.036
		c0.545-0.014,0.876-0.345,1.031-1.057C96.386,27.908,96.244,27.049,96.292,26.345z"/>
	<path fill-rule="evenodd" clip-rule="evenodd" fill="#AAAAAA" d="M65.488,26.223c0.065-1.024-0.08-2.051,0.101-3.073
		c0.109-0.608,0.36-1.152,0.723-1.651c0.763-1.051,1.839-1.285,3.05-1.083c1.153,0.193,1.763,1.018,2.198,1.994
		c0.216,0.482,0.29,1.009,0.293,1.528c0.013,1.648,0.063,3.3-0.032,4.947c-0.017,0.298-0.067,0.608-0.163,0.891
		c-0.487,1.403-1.433,2.494-3.309,2.353c-1.313-0.098-2.481-1.239-2.752-2.729C65.407,28.344,65.55,27.283,65.488,26.223z
		 M67.473,26.036c0,0.762-0.009,1.384,0.001,2.004c0.009,0.459,0.077,0.908,0.33,1.302c0.418,0.652,1.35,0.66,1.759,0.017
		c0.152-0.245,0.245-0.516,0.264-0.806c0.093-1.544,0.082-3.09,0.007-4.634c-0.005-0.116-0.03-0.234-0.059-0.348
		c-0.18-0.666-0.602-1.036-1.156-1.019c-0.556,0.017-0.925,0.406-1.063,1.105C67.388,24.494,67.517,25.335,67.473,26.036z"/>
	<path fill-rule="evenodd" clip-rule="evenodd" fill="#EEEEEE" d="M131.735,40.249c-0.154,0-0.312-0.014-0.465,0.004
		c-0.354,0.037-0.564-0.042-0.734-0.419c-0.317-0.702-1.156-0.794-1.706-0.244c-0.452,0.453-0.456,1.008-0.292,1.556
		c0.143,0.468,0.55,0.712,1.032,0.695c3.494-0.109,3.938,3.901,2.548,5.809c-0.734,1.013-1.723,1.37-2.95,1.205
		c-1.33-0.176-2.015-1.049-2.43-2.188c-0.358-0.976-0.341-0.982,0.68-0.982c0.155,0,0.31,0.011,0.463-0.002
		c0.432-0.04,0.755,0.005,0.954,0.498c0.195,0.479,0.812,0.612,1.282,0.397c0.537-0.246,0.857-0.939,0.732-1.59
		c-0.105-0.556-0.509-0.877-1.175-0.929c-1.708-0.131-2.668-0.807-3.058-2.201c-0.343-1.247-0.157-2.42,0.532-3.531
		c1.044-1.68,3.708-1.813,4.914-0.079c0.352,0.504,0.577,1.057,0.694,1.663c0.056,0.295-0.039,0.354-0.304,0.339
		C132.215,40.238,131.976,40.249,131.735,40.249z"/>
	<path fill-rule="evenodd" clip-rule="evenodd" fill="#EEEEEE" d="M91.074,45.684c0.208,0,0.414,0.014,0.618-0.002
		c0.25-0.021,0.396,0.042,0.497,0.305c0.187,0.464,0.562,0.717,1.088,0.675c0.465-0.034,0.93-0.501,1.036-0.998
		c0.2-0.932-0.272-1.597-1.244-1.599c-2.226-0.011-3.315-1.885-3.119-3.78c0.119-1.125,0.537-2.094,1.467-2.774
		c1.628-1.186,3.951-0.305,4.643,1.731c0.346,1.007,0.346,1.007-0.719,1.007c-0.151,0-0.308-0.011-0.46,0.002
		c-0.416,0.039-0.718-0.005-0.908-0.482c-0.199-0.502-0.816-0.655-1.313-0.437c-0.549,0.241-0.828,0.859-0.712,1.583
		c0.088,0.55,0.47,0.942,1.103,0.921c2.712-0.08,3.801,2.45,3.054,4.772c-0.508,1.583-1.636,2.364-3.208,2.279
		c-1.34-0.069-2.445-1.078-2.792-2.55c-0.019-0.082-0.022-0.17-0.051-0.247c-0.151-0.365,0.027-0.436,0.353-0.411
		C90.627,45.699,90.853,45.684,91.074,45.684z"/>
	<path fill-rule="evenodd" clip-rule="evenodd" fill="#AAAAAA" d="M47.174,29.005c0.625,0,1.224,0.014,1.821-0.006
		c0.238-0.007,0.281,0.128,0.347,0.288c0.185,0.444,0.521,0.714,1.019,0.707c0.525-0.005,0.862-0.328,1.042-0.773
		c0.334-0.816,0.03-1.771-1.089-1.864c-1.827-0.149-2.775-0.905-3.095-2.4c-0.189-0.884-0.136-1.776,0.228-2.626
		c0.607-1.412,1.612-2.043,3.123-1.964c1.208,0.062,2.265,0.944,2.678,2.238c0.31,0.96,0.31,0.96-0.723,0.96
		c-0.188,0-0.38-0.019-0.565,0.004c-0.381,0.046-0.604-0.065-0.772-0.444c-0.249-0.564-0.898-0.722-1.436-0.434
		c-0.506,0.271-0.751,0.866-0.628,1.529c0.105,0.589,0.42,0.871,1.079,0.954c0.373,0.049,0.763,0.034,1.117,0.135
		c1.235,0.35,1.894,1.224,2.109,2.424c0.129,0.711,0.099,1.441-0.125,2.146c-0.495,1.567-1.57,2.351-3.183,2.309
		c-1.34-0.036-2.46-1.025-2.824-2.504C47.244,29.473,47.219,29.258,47.174,29.005z"/>
	<path fill-rule="evenodd" clip-rule="evenodd" fill="#AAAAAA" d="M119.837,31.861c-0.032-0.008-0.064-0.013-0.099-0.021
		c-0.005-2.571-0.008-5.144-0.013-7.714c-0.002-1.176,0.013-2.351-0.006-3.528c-0.008-0.316,0.089-0.404,0.405-0.388
		c0.39,0.021,0.784-0.009,1.178-0.017c0.126,0.135,0.258,0.261,0.373,0.404c0.86,1.042,2.276,1.824,3.728,0.726
		c0.467,0.696,0.661,1.468,0.661,2.29c-0.002,2.626-0.021,5.253-0.021,7.877c0,0.278-0.065,0.385-0.366,0.369
		c-0.479-0.027-1.07,0.154-1.407-0.061c-0.335-0.219-0.109-0.84-0.116-1.281c-0.028-2.02-0.021-4.039-0.035-6.06
		c-0.003-0.488-0.021-0.977-0.225-1.435c-0.236-0.526-0.607-0.745-1.175-0.695c-0.525,0.048-0.787,0.308-0.92,0.912
		c-0.131,0.182-0.081,0.39-0.081,0.588c-0.009,2.671-0.011,5.341-0.019,8.011c-0.028,0.009-0.063,0.013-0.098,0.021
		C121.016,31.815,120.424,31.813,119.837,31.861z"/>
	<path fill-rule="evenodd" clip-rule="evenodd" fill="#AAAAAA" d="M83.349,59.954c0-0.958,0.008-1.921-0.007-2.88
		c-0.004-0.284,0.084-0.396,0.382-0.37c0.273,0.022,0.547,0.005,0.821,0.005c0.052,0,0.134-0.021,0.151,0.005
		c0.359,0.489,0.688,0.024,1.014-0.044c0.618-0.127,1.196-0.093,1.705,0.292c0.187,0.141,0.293,0.177,0.512,0.032
		c0.58-0.384,1.251-0.458,1.924-0.362c1.097,0.157,1.779,0.902,1.802,1.997c0.03,1.414,0.002,2.828,0.017,4.243
		c0.002,0.245-0.08,0.3-0.32,0.308c-1.208,0.04-1.208,0.05-1.208-1.109c0-0.957,0.007-1.919-0.003-2.878
		c-0.004-0.704-0.352-1.084-0.939-1.072c-0.574,0.014-0.931,0.431-0.933,1.106c0,1.192-0.006,2.391,0.007,3.585
		c0.004,0.275-0.06,0.366-0.361,0.372c-1.167,0.01-1.167,0.022-1.167-1.103c0-0.978,0.004-1.955,0-2.929
		c-0.006-0.666-0.343-1.034-0.924-1.032c-0.573,0.002-0.91,0.38-0.91,1.038c-0.002,1.196-0.015,2.389,0.009,3.587
		c0.009,0.365-0.113,0.441-0.461,0.438c-1.111-0.017-1.111,0-1.111-1.106C83.349,61.368,83.349,60.661,83.349,59.954z"/>
	<path fill-rule="evenodd" clip-rule="evenodd" fill="#EEEEEE" d="M98.026,43.239c-0.002-1.112-0.013-2.222,0.007-3.334
		c0.004-0.322-0.082-0.476-0.427-0.417c-0.426,0.072-0.575-0.097-0.537-0.518c0.034-0.417,0.028-0.843,0.002-1.262
		c-0.024-0.331,0.088-0.478,0.424-0.411c0.481,0.091,0.582-0.131,0.544-0.552c-0.037-0.418,0.002-0.841-0.02-1.261
		c-0.013-0.274,0.092-0.35,0.353-0.337c0.513,0.021,1.158-0.162,1.5,0.081c0.333,0.238,0.088,0.91,0.103,1.393
		c0.021,0.682,0.005,0.682,0.689,0.684c0.75,0,0.75,0,0.75,0.754c0,0.084,0.002,0.166,0,0.25c-0.011,0.369,0.107,0.823-0.07,1.083
		c-0.177,0.262-0.668,0.083-1.023,0.09c-0.249,0.006-0.322,0.1-0.322,0.335c0.007,2.018-0.002,4.037,0.007,6.056
		c0.004,0.585,0.271,0.846,0.854,0.819c0.428-0.019,0.573,0.109,0.54,0.533c-0.032,0.434-0.007,0.876,0.021,1.31
		c0.019,0.325-0.107,0.424-0.42,0.369c-0.403-0.07-0.817-0.095-1.212-0.196c-1.134-0.289-1.749-1.077-1.76-2.237
		C98.016,45.394,98.026,44.315,98.026,43.239z"/>
	<path fill-rule="evenodd" clip-rule="evenodd" fill="#AAAAAA" d="M107.581,26.614c0-1.126-0.015-2.255,0.009-3.379
		c0.006-0.342-0.104-0.473-0.434-0.407c-0.487,0.095-0.571-0.146-0.542-0.561c0.025-0.397,0.002-0.807-0.037-1.206
		c-0.032-0.342,0.063-0.517,0.439-0.445c0.482,0.09,0.62-0.12,0.571-0.569c-0.043-0.417-0.018-0.843-0.043-1.262
		c-0.014-0.244,0.075-0.324,0.323-0.313c0.426,0.017,0.858,0.019,1.283-0.002c0.271-0.01,0.358,0.072,0.354,0.339
		c-0.011,0.507,0.032,1.009,0.025,1.515c-0.002,0.238,0.068,0.316,0.317,0.316c0.337-0.002,0.779-0.161,0.986,0.065
		c0.219,0.239,0.068,0.673,0.068,1.023c0,0.35,0.15,0.784-0.068,1.024c-0.207,0.223-0.649,0.065-0.986,0.065
		c-0.249,0-0.317,0.076-0.317,0.315c0.011,2.039,0,4.074,0.013,6.11c0.002,0.567,0.249,0.812,0.829,0.778
		c0.438-0.029,0.557,0.124,0.536,0.523c-0.023,0.452-0.011,0.907,0.001,1.362c0.008,0.221-0.035,0.358-0.308,0.315
		c-0.507-0.076-1.018-0.095-1.509-0.269c-0.973-0.353-1.498-1.037-1.509-2.054C107.572,28.805,107.583,27.71,107.581,26.614z"/>
	<path fill-rule="evenodd" clip-rule="evenodd" fill="#AAAAAA" d="M20.522,29.311c-0.09-0.179-0.049-0.364-0.049-0.549
		c-0.003-2.205,0-4.411-0.003-6.618c0-0.175,0.052-0.362-0.055-0.535c-0.534,0.497-1.062,0.99-1.6,1.491
		c-0.112-0.051-0.123-0.195-0.189-0.299c-0.278-0.419-0.686-0.531-1.165-0.461c-0.443,0.064-0.699,0.343-0.799,0.748
		c-0.061,0.243-0.063,0.501-0.063,0.75c0,2.527,0,5.053,0.02,7.578c0.004,0.345-0.071,0.48-0.443,0.446
		c-0.391-0.034-0.79-0.034-1.181-0.002c-0.361,0.029-0.455-0.08-0.453-0.437c0.009-2.744-0.002-5.491-0.008-8.235
		c0-0.874,0.011-1.75-0.007-2.625c-0.004-0.272,0.056-0.392,0.362-0.373c0.41,0.027,0.824,0.025,1.233,0.002
		c0.311-0.021,0.504,0.044,0.433,0.466c0.682-0.499,1.376-0.617,2.132-0.481c0.781,0.142,1.266,0.659,1.743,1.339
		c0.036-0.488,0.063-0.877,0.09-1.267C20.522,23.269,20.522,26.289,20.522,29.311z"/>
	<path fill-rule="evenodd" clip-rule="evenodd" fill="#AAAAAA" d="M74.444,20.684c1.28-0.929,2.824-0.672,3.669,0.532
		c0.147,0.211,0.18,0.358-0.041,0.548c-0.486,0.42-0.951,0.87-1.417,1.305c-0.202-0.48-0.553-0.788-1.159-0.746
		c-0.488,0.034-0.791,0.281-0.933,0.727c-0.081,0.259-0.094,0.528-0.094,0.8c0.015,2.509,0.018,5.017,0.043,7.527
		c0.002,0.36-0.062,0.522-0.47,0.482c-0.41-0.038-0.823-0.019-1.235-0.004c-0.253,0.01-0.363-0.04-0.363-0.329
		c-0.004-3.671-0.019-7.342-0.041-11.013c-0.002-0.289,0.12-0.331,0.367-0.322c0.426,0.013,0.859,0.027,1.284-0.004
		C74.418,20.158,74.508,20.309,74.444,20.684z"/>
	<path fill-rule="evenodd" clip-rule="evenodd" fill="#EEEEEE" d="M114.033,39.81c-0.05-0.075-0.093-0.13-0.127-0.187
		c-0.333-0.536-0.741-0.724-1.282-0.594c-0.46,0.109-0.76,0.484-0.798,1.053c-0.025,0.371-0.008,0.741-0.008,1.111
		c0,2.292-0.009,4.582,0.008,6.871c0,0.364-0.072,0.515-0.474,0.481c-0.508-0.046-1.18,0.157-1.49-0.096
		c-0.329-0.265-0.097-0.948-0.099-1.447c-0.018-3.231-0.016-6.463-0.037-9.696c-0.002-0.362,0.109-0.47,0.463-0.445
		c0.394,0.029,0.79,0.008,1.183,0.006c0.265,0,0.573-0.057,0.397,0.423c1.598-0.958,2.978-0.396,3.655,0.57
		c0.166,0.243,0.21,0.403-0.045,0.628C114.913,38.904,114.484,39.363,114.033,39.81z"/>
	<path fill-rule="evenodd" clip-rule="evenodd" fill="#AAAAAA" d="M37.96,23.146c-0.066-0.119-0.113-0.208-0.167-0.293
		c-0.277-0.445-0.693-0.617-1.231-0.509c-0.487,0.101-0.708,0.444-0.791,0.886c-0.04,0.21-0.029,0.434-0.029,0.655
		c0.003,2.509,0.001,5.017,0.021,7.525c0.005,0.339-0.057,0.485-0.437,0.451c-0.393-0.036-0.792-0.034-1.184-0.002
		c-0.354,0.029-0.458-0.071-0.455-0.434c0.013-2.34-0.002-4.682-0.006-7.021c-0.002-1.265,0.008-2.528-0.007-3.79
		c-0.004-0.312,0.054-0.457,0.412-0.425c0.393,0.032,0.79,0.023,1.182,0.002c0.307-0.019,0.512,0.032,0.433,0.466
		c0.699-0.509,1.411-0.625,2.181-0.468c0.685,0.141,1.148,0.558,1.526,1.104c0.101,0.149,0.121,0.254-0.019,0.394
		C38.91,22.16,38.445,22.649,37.96,23.146z"/>
	<path fill-rule="evenodd" clip-rule="evenodd" fill="#AAAAAA" d="M20.522,29.311c0-3.022,0-6.042,0-9.063
		c0.575-0.12,1.156-0.015,1.735-0.055c0.366-0.025,0.17,0.286,0.288,0.446c0.622-0.501,1.339-0.603,2.11-0.455
		c0.645,0.121,1.098,0.506,1.481,1.002c0.174,0.224,0.211,0.388-0.036,0.591c-0.483,0.395-0.946,0.817-1.411,1.224
		c-0.189-0.37-0.516-0.725-1.125-0.679c-0.512,0.038-0.862,0.309-0.975,0.807c-0.03,0.13-0.061,0.263-0.061,0.397
		c0.009,2.22,0.021,4.44,0.031,6.66c0,0.535,0.169,1.198-0.087,1.564c-0.232,0.325-0.961,0.051-1.465,0.104
		c-0.386,0.044-0.539-0.061-0.51-0.479C20.54,30.69,20.517,29.998,20.522,29.311z"/>
	<path fill-rule="evenodd" clip-rule="evenodd" fill="#AAAAAA" d="M112.133,63.052c-1.832,0.517-3.023-0.177-3.426-1.972
		c-0.242-1.088-0.204-2.158,0.348-3.172c0.556-1.023,1.851-1.681,2.932-1.062c0.274,0.158,0.241-0.166,0.429-0.147
		c0.373,0.038,0.75,0.015,1.127,0.01c0.189-0.002,0.229,0.104,0.224,0.261c-0.051,2.082,0.152,4.172-0.108,6.247
		c-0.162,1.254-0.908,2.138-2.174,2.542c-0.317,0.102-0.536,0.084-0.511-0.329c0.002-0.094-0.045-0.192-0.067-0.294
		c-0.117-0.498-0.219-0.939,0.516-1.117C111.81,63.926,112.05,63.534,112.133,63.052z M112.228,59.961
		c0-0.286-0.01-0.573,0.002-0.86c0.026-0.491-0.184-0.808-0.668-0.934c-0.43-0.11-0.953,0.072-1.142,0.474
		c-0.41,0.87-0.38,1.765,0.013,2.629c0.179,0.394,0.727,0.539,1.215,0.379c0.398-0.129,0.622-0.388,0.585-0.832
		C112.211,60.535,112.228,60.247,112.228,59.961z"/>
	<path fill-rule="evenodd" clip-rule="evenodd" fill="#AAAAAA" d="M124.684,56.863c0-0.156,0-0.304,0-0.45
		c0.002-1.287,0.15-1.459,1.536-1.739c0,0.505,0,1.007,0,1.505c0,2.153-0.011,4.308,0.011,6.46c0.004,0.402-0.084,0.593-0.528,0.528
		c-0.217-0.03-0.446-0.022-0.667,0c-0.268,0.03-0.4-0.063-0.359-0.355c-1.717,1.117-3.155,0.077-3.562-1.443
		c-0.24-0.909-0.24-1.833,0.012-2.739C121.613,56.883,122.88,56.258,124.684,56.863z M124.684,60.028
		c0-0.325,0.03-0.599-0.007-0.862c-0.063-0.46-0.362-0.758-0.814-0.854c-0.466-0.099-0.911-0.008-1.128,0.46
		c-0.354,0.766-0.362,1.553-0.027,2.331c0.169,0.397,0.506,0.58,0.929,0.59c0.413,0.006,0.702-0.202,0.915-0.544
		C124.787,60.774,124.632,60.362,124.684,60.028z"/>
	<path fill-rule="evenodd" clip-rule="evenodd" fill="#AAAAAA" d="M56.344,54.621c0,0.789,0,1.522,0,2.3
		c0.281-0.091,0.513-0.177,0.753-0.238c0.916-0.229,1.801,0.109,2.32,0.876c0.835,1.236,0.81,3.478-0.006,4.707
		c-0.611,0.925-2,1.337-2.815,0.746c-0.131-0.095-0.237-0.127-0.262,0.101c-0.004,0.055-1.387,0.094-1.457,0.046
		c-0.102-0.071-0.07-0.181-0.07-0.277c-0.002-2.438-0.002-4.879-0.002-7.322c0-0.152-0.006-0.298,0.18-0.372
		C55.424,55.012,55.857,54.824,56.344,54.621z M56.356,59.971c0,0.236,0,0.473,0,0.707c0.002,0.585,0.234,0.91,0.747,1.042
		c0.432,0.114,0.935-0.088,1.163-0.532c0.42-0.828,0.398-1.688,0.012-2.521c-0.197-0.424-0.746-0.606-1.239-0.446
		c-0.448,0.146-0.697,0.458-0.683,0.943C56.363,59.434,56.356,59.703,56.356,59.971z"/>
	<path fill-rule="evenodd" clip-rule="evenodd" fill="#AAAAAA" d="M31.413,59.044c0-1.247,0.011-2.49-0.006-3.737
		c-0.004-0.319,0.066-0.441,0.418-0.422c1.075,0.055,2.164-0.104,3.229,0.076c1.482,0.245,2.18,1.286,2.038,2.924
		c-0.107,1.233-1.068,2.091-2.421,2.146c-0.427,0.018-0.858,0.026-1.283,0c-0.323-0.019-0.442,0.063-0.432,0.407
		c0.03,0.788,0,1.58,0.018,2.371c0.006,0.277-0.068,0.366-0.364,0.37c-1.197,0.018-1.197,0.03-1.197-1.161
		C31.413,61.028,31.413,60.036,31.413,59.044z M33.914,58.524c0.238,0,0.478,0.01,0.718-0.001c0.596-0.028,0.91-0.322,0.961-0.897
		c0.07-0.796-0.333-1.231-1.163-1.222c-0.474,0.002-1.086-0.195-1.384,0.079c-0.274,0.254-0.068,0.858-0.078,1.308
		C32.959,58.529,32.968,58.529,33.914,58.524z"/>
	<path fill-rule="evenodd" clip-rule="evenodd" fill="#AAAAAA" d="M72.251,57.051c1.211-0.682,2.292-0.548,2.938,0.323
		c0.334,0.45,0.448,0.979,0.454,1.522c0.013,1.311-0.002,2.623,0.009,3.937c0.002,0.258-0.069,0.339-0.343,0.347
		c-1.182,0.037-1.182,0.045-1.182-1.12c0-0.96,0.013-1.92-0.002-2.878c-0.018-0.858-0.708-1.308-1.408-0.942
		c-0.359,0.186-0.472,0.495-0.468,0.881c0.011,1.214-0.008,2.424,0.011,3.637c0.003,0.317-0.069,0.43-0.423,0.427
		c-1.104-0.012-1.106,0.007-1.106-1.097c0-2.121,0.009-4.241-0.008-6.362c-0.003-0.349,0.087-0.527,0.435-0.665
		c1.102-0.436,1.094-0.453,1.094,0.722C72.251,56.187,72.251,56.588,72.251,57.051z"/>
	<path fill-rule="evenodd" clip-rule="evenodd" fill="#AAAAAA" d="M64.307,58.835c-0.303-0.751-0.938-0.946-1.667-0.499
		c-0.381,0.234-0.488,0.12-0.669-0.195c-0.483-0.846-0.442-0.982,0.496-1.342c1.759-0.677,3.322,0.317,3.393,2.203
		c0.05,1.278,0.002,2.559,0.017,3.838c0.002,0.271-0.086,0.354-0.353,0.338c-0.326-0.021-0.755,0.123-0.957-0.033
		c-0.418-0.323-0.681-0.002-0.996,0.077c-0.812,0.208-1.673-0.087-2.178-0.768c-0.995-1.346-0.448-3.29,1.046-3.69
		C63.043,58.602,63.653,58.631,64.307,58.835z M64.309,60.846c0.086-0.51-0.088-0.77-0.822-0.801
		c-0.622-0.03-1.01,0.293-1.023,0.802c-0.015,0.499,0.365,0.845,0.931,0.851C64.008,61.703,64.309,61.424,64.309,60.846z"/>
	<path fill-rule="evenodd" clip-rule="evenodd" fill="#AAAAAA" d="M51.756,60.805c-0.514,0.002-1.028,0.005-1.542-0.002
		c-0.298-0.004-0.313,0.111-0.188,0.337c0.334,0.609,1.199,0.842,1.765,0.399c0.304-0.24,0.452-0.149,0.643,0.072
		c0.032,0.036,0.073,0.069,0.107,0.106c0.624,0.598,0.607,0.74-0.154,1.223c-1.312,0.834-3.254,0.2-3.772-1.269
		c-0.398-1.127-0.377-2.278,0.058-3.399c0.452-1.16,1.407-1.743,2.641-1.665c1.11,0.075,1.924,0.792,2.228,1.971
		c0.165,0.644,0.143,1.298,0.128,1.955c-0.004,0.239-0.122,0.276-0.319,0.273C52.818,60.803,52.289,60.805,51.756,60.805z
		 M51.032,59.331c0.289,0,0.578-0.009,0.871,0.002c0.184,0.006,0.235-0.056,0.207-0.232c-0.077-0.492-0.556-0.997-0.983-1.021
		c-0.492-0.027-1.015,0.377-1.161,0.892c-0.075,0.268-0.022,0.397,0.301,0.366C50.519,59.311,50.778,59.331,51.032,59.331z"/>
	<path fill-rule="evenodd" clip-rule="evenodd" fill="#AAAAAA" d="M130.584,58.776c-0.294-0.701-0.964-0.892-1.695-0.425
		c-0.335,0.214-0.461,0.144-0.588-0.163c-0.014-0.027-0.031-0.057-0.047-0.085c-0.463-0.782-0.411-0.931,0.45-1.29
		c1.718-0.719,3.399,0.31,3.444,2.128c0.031,1.295,0,2.591,0.01,3.885c0.002,0.253-0.055,0.407-0.335,0.341
		c-0.412-0.093-0.893,0.232-1.259-0.197c-0.058-0.068-0.179,0.056-0.271,0.095c-1.442,0.635-2.894-0.23-3.048-1.773
		c-0.233-2.327,1.542-2.868,3.067-2.539C130.394,58.768,130.461,58.843,130.584,58.776z M130.635,60.854
		c0-0.604-0.232-0.822-0.875-0.815c-0.628,0.007-0.992,0.306-1.004,0.823c-0.01,0.487,0.378,0.83,0.945,0.836
		C130.307,61.701,130.635,61.406,130.635,60.854z"/>
	<path fill-rule="evenodd" clip-rule="evenodd" fill="#AAAAAA" d="M118.123,58.784c-0.219-0.673-0.882-0.904-1.591-0.465
		c-0.419,0.257-0.544,0.131-0.731-0.226c-0.438-0.799-0.423-0.889,0.418-1.261c1.722-0.763,3.403,0.25,3.503,2.167
		c0.063,1.294,0.007,2.592,0.02,3.887c0,0.222-0.063,0.302-0.29,0.289c-0.326-0.014-0.729,0.115-0.961-0.029
		c-0.486-0.296-0.826,0.049-1.229,0.114c-1.221,0.197-2.351-0.688-2.46-1.931c-0.172-1.964,1.114-3.039,3.081-2.569
		C117.964,58.78,118.037,58.84,118.123,58.784z M118.182,60.851c0-0.61-0.221-0.819-0.871-0.813
		c-0.619,0.007-1.001,0.323-1.001,0.828c-0.006,0.49,0.382,0.829,0.945,0.831C117.872,61.701,118.179,61.418,118.182,60.851z"/>
	<path fill-rule="evenodd" clip-rule="evenodd" fill="#EEEEEE" d="M116.147,42.651c0-1.784,0.005-3.567-0.006-5.354
		c-0.002-0.313,0.062-0.461,0.418-0.436c0.428,0.029,0.857,0.019,1.287,0.002c0.255-0.008,0.358,0.058,0.356,0.335
		c-0.007,3.669-0.007,7.337,0,11.009c0.002,0.28-0.104,0.341-0.359,0.333c-0.427-0.018-0.856-0.026-1.284,0.003
		c-0.358,0.025-0.42-0.126-0.418-0.438C116.152,46.289,116.147,44.471,116.147,42.651z"/>
	<path fill-rule="evenodd" clip-rule="evenodd" fill="#AAAAAA" d="M47.096,59.959c0,0.957-0.008,1.918,0.005,2.875
		c0.004,0.255-0.056,0.365-0.334,0.344c-0.307-0.025-0.618-0.006-0.924-0.006c-0.052,0-0.138,0.019-0.153-0.005
		c-0.304-0.52-0.599-0.035-0.855,0.039c-1.409,0.408-2.58-0.437-2.643-2.019c-0.054-1.377-0.004-2.759-0.018-4.139
		c0-0.26,0.086-0.337,0.354-0.347c1.171-0.035,1.171-0.046,1.171,1.093c0,0.975-0.009,1.952,0.002,2.93
		c0.009,0.705,0.389,1.078,1.023,1.034c0.495-0.036,0.813-0.358,0.814-0.852c0.006-1.246,0.017-2.49-0.008-3.735
		c-0.007-0.389,0.109-0.479,0.488-0.473c1.076,0.019,1.076,0.003,1.076,1.037C47.096,58.475,47.096,59.218,47.096,59.959z"/>
	<path fill-rule="evenodd" clip-rule="evenodd" fill="#AAAAAA" d="M76.786,60.316c0-1.111,0.139-1.826,0.54-2.477
		c0.948-1.542,2.959-1.663,4.073-0.238c1.017,1.299,0.92,3.693-0.198,4.922c-0.967,1.063-2.715,1.005-3.639-0.135
		C76.986,61.677,76.777,60.844,76.786,60.316z M80.619,59.938c-0.073-0.41-0.072-0.835-0.292-1.211
		c-0.414-0.715-1.343-0.764-1.729-0.042c-0.459,0.849-0.459,1.745,0.042,2.587c0.374,0.625,1.188,0.607,1.609,0.008
		C80.533,60.874,80.554,60.4,80.619,59.938z"/>
	<path fill-rule="evenodd" clip-rule="evenodd" fill="#AAAAAA" d="M107.499,60.06c-0.032,0.745-0.208,1.537-0.721,2.225
		c-1.025,1.379-3.063,1.346-3.98-0.104c-0.882-1.393-0.909-2.872-0.107-4.299c0.973-1.736,3.281-1.707,4.28,0.017
		C107.345,58.536,107.499,59.236,107.499,60.06z M105.953,59.902c0.041-0.394-0.045-0.784-0.231-1.15
		c-0.178-0.353-0.459-0.577-0.886-0.576c-0.414,0.002-0.729,0.188-0.896,0.555c-0.372,0.805-0.37,1.621,0.001,2.429
		c0.171,0.369,0.496,0.567,0.895,0.565c0.401,0,0.709-0.222,0.886-0.583C105.908,60.754,105.991,60.348,105.953,59.902z"/>
	<path fill-rule="evenodd" clip-rule="evenodd" fill="#AAAAAA" d="M98.129,60.376c-0.013,0.522-0.229,1.405-0.9,2.13
		c-1.058,1.133-2.832,1.016-3.732-0.238c-0.931-1.295-0.937-3.304-0.021-4.61c0.961-1.369,2.923-1.408,3.934-0.075
		C97.877,58.199,98.129,59.029,98.129,60.376z M96.589,59.913c0.039-0.382-0.023-0.791-0.227-1.174
		c-0.189-0.351-0.475-0.566-0.895-0.563c-0.421,0.004-0.718,0.202-0.89,0.566c-0.369,0.791-0.36,1.589-0.011,2.383
		c0.176,0.393,0.504,0.605,0.924,0.602c0.403-0.004,0.695-0.243,0.882-0.598C96.563,60.761,96.617,60.364,96.589,59.913z"/>
	<path fill-rule="evenodd" clip-rule="evenodd" fill="#EEEEEE" d="M125.403,21.324c-1.451,1.098-2.867,0.316-3.728-0.726
		c-0.115-0.144-0.247-0.27-0.373-0.404c-0.186-0.396-0.501-0.703-0.763-1.047c-0.208-0.273-0.388-0.191-0.548,0.05
		c-0.204,0.306-0.344,0.643-0.438,0.997c-0.131,0.364-0.267,0.725-0.392,1.088c-0.134,0.383-0.42,0.546-0.798,0.43
		c-0.39-0.121-0.51-0.432-0.374-0.806c0.268-0.722,0.461-1.475,0.843-2.153c0.728-1.289,1.744-1.39,2.72-0.285
		c0.479,0.545,0.839,1.186,1.394,1.673c0.576,0.606,1.044,0.693,1.549,0.286c0.589-0.436,0.864-1.074,1.108-1.719
		c0.281-0.737,0.504-1.495,0.758-2.243c0.116-0.346,0.357-0.552,0.736-0.472c0.409,0.084,0.565,0.399,0.454,0.77
		c-0.382,1.27-0.725,2.559-1.45,3.696C125.902,20.77,125.636,21.036,125.403,21.324z"/>
	<path fill-rule="evenodd" clip-rule="evenodd" fill="#AAAAAA" d="M100.833,54.635c0.118,0.16,0.071,0.298,0.071,0.425
		c0.004,2.56-0.004,5.118,0.01,7.674c0.002,0.339-0.063,0.457-0.436,0.45c-1.109-0.02-1.109,0-1.109-1.103
		c0-2.104,0.015-4.207-0.01-6.311c-0.004-0.408,0.116-0.608,0.506-0.726C100.19,54.952,100.49,54.782,100.833,54.635z"/>
	<path fill-rule="evenodd" clip-rule="evenodd" fill="#AAAAAA" d="M38.021,59.928c0-0.957,0.006-1.92-0.007-2.879
		c-0.004-0.253,0.055-0.396,0.334-0.337c0.411,0.087,0.873-0.197,1.247,0.177c0.02,0.019,0.146-0.049,0.214-0.09
		c0.224-0.14,0.464-0.201,0.729-0.191c0.682,0.026,0.845,0.241,0.635,0.853c-0.032,0.097-0.061,0.194-0.097,0.287
		c-0.109,0.303-0.105,0.659-0.661,0.404c-0.444-0.204-0.854,0.206-0.857,0.772c-0.011,1.264-0.02,2.526,0.006,3.789
		c0.008,0.374-0.088,0.48-0.474,0.471c-1.07-0.025-1.07-0.006-1.07-1.033C38.021,61.411,38.021,60.669,38.021,59.928z"/>
	<path fill-rule="evenodd" clip-rule="evenodd" fill="#EEEEEE" d="M80.752,32.645c1.166,0.006,1.16,0.004,0.879,1.118
		c-0.406,1.607-0.813,3.218-1.186,4.833c-0.078,0.34-0.208,0.429-0.539,0.424c-1.012-0.008-1.032,0.002-0.922-0.969
		c0.193-1.701,0.418-3.396,0.611-5.099c0.025-0.235,0.094-0.324,0.334-0.312C80.205,32.657,80.477,32.645,80.752,32.645z"/>
	<path fill-rule="evenodd" clip-rule="evenodd" fill="#EEEEEE" d="M118.207,34.125c-0.052,0.43,0.187,0.992-0.096,1.261
		c-0.277,0.266-0.844,0.074-1.286,0.078c-0.775,0.004-0.671,0.097-0.678-0.668c-0.004-0.587,0.012-1.177-0.006-1.765
		c-0.009-0.248,0.077-0.336,0.319-0.312c0.101,0.012,0.204-0.002,0.307,0.004c0.459,0.019,1.055-0.126,1.337,0.103
		C118.404,33.073,118.153,33.679,118.207,34.125z"/>
	<path fill-rule="evenodd" clip-rule="evenodd" fill="#909090" d="M121.813,31.535c0,0.109,0.035,0.242-0.113,0.305
		c0.008-2.67,0.01-5.34,0.019-8.011c0-0.198-0.05-0.407,0.081-0.588"/>
	<path fill-rule="evenodd" clip-rule="evenodd" fill="#AAAAAA" d="M124.495,20.427c-0.505,0.407-0.973,0.32-1.549-0.286
		C123.488,20.092,124.02,20.13,124.495,20.427z"/>
	<path fill-rule="evenodd" clip-rule="evenodd" fill="#B9C0B1" d="M119.837,31.861c0.587-0.048,1.179-0.046,1.765,0
		C121.016,31.975,120.424,31.975,119.837,31.861z"/>
</g>
</svg>
