<?xml version="1.0" encoding="utf-8"?>
<!-- Generator: Adobe Illustrator 16.0.0, SVG Export Plug-In . SVG Version: 6.00 Build 0)  -->
<!DOCTYPE svg PUBLIC "-//W3C//DTD SVG 1.1//EN" "http://www.w3.org/Graphics/SVG/1.1/DTD/svg11.dtd">
<svg version="1.1" id="Layer_1" xmlns="http://www.w3.org/2000/svg" xmlns:xlink="http://www.w3.org/1999/xlink" x="0px" y="0px"
	 width="25px" height="25px" viewBox="0 0 25 25" enable-background="new 0 0 25 25" xml:space="preserve">
<g>
	<path d="M6.121,0.089c0.233,0,0.435,0.085,0.605,0.255c0.171,0.171,0.256,0.373,0.256,0.606v11.995l7.217-5.775
		c0.151-0.126,0.331-0.188,0.537-0.188c0.234,0,0.436,0.085,0.606,0.255c0.171,0.171,0.256,0.374,0.256,0.606v5.103l7.217-5.775
		c0.152-0.126,0.331-0.188,0.537-0.188c0.234,0,0.438,0.085,0.606,0.255c0.17,0.171,0.256,0.374,0.256,0.606v15.511
		c0,0.23-0.086,0.432-0.256,0.604c-0.169,0.17-0.372,0.256-0.606,0.256H0.951c-0.233,0-0.436-0.086-0.605-0.256
		c-0.171-0.173-0.256-0.374-0.256-0.604V0.951c0-0.233,0.085-0.436,0.256-0.606c0.17-0.17,0.372-0.255,0.605-0.255H6.121z"/>
</g>
</svg>
