<?xml version="1.0" encoding="utf-8"?> <!-- Generator: Adobe Illustrator 16.0.0, SVG Export Plug-In . SVG Version: 6.00 Build 0)  --> <!DOCTYPE svg PUBLIC "-//W3C//DTD SVG 1.1//EN" "http://www.w3.org/Graphics/SVG/1.1/DTD/svg11.dtd"> <svg version="1.1" id="Layer_1" xmlns="http://www.w3.org/2000/svg" xmlns:xlink="http://www.w3.org/1999/xlink" x="0px" y="0px" 	 width="400px" height="400px" viewBox="0 0 400 400" enable-background="new 0 0 400 400" xml:space="preserve"> <path d="M130.626,320.451v15.271c0,4.173-0.029,8.347,0.021,12.521c0.008,0.877-0.236,1.097-1.095,1.085 	c-4.078-0.043-8.16-0.051-12.241,0.004c-0.959,0.016-1.139-0.31-1.139-1.192c0.021-16.789,0.027-33.578-0.006-50.368 	c-0.002-1.013,0.287-1.235,1.252-1.222c3.751,0.058,7.505,0.047,11.256,0.004c0.83-0.008,1.347,0.233,1.867,0.905 	c6.733,8.716,13.5,17.402,20.26,26.096c0.137,0.178,0.278,0.348,0.647,0.82v-1.77c0-8.254,0.026-16.507-0.027-24.762 	c-0.005-1.077,0.286-1.313,1.32-1.296c4.034,0.065,8.068,0.055,12.1,0.006c0.87-0.012,1.105,0.229,1.105,1.098 	c-0.026,16.837-0.028,33.675,0,50.511c0.002,0.941-0.281,1.178-1.192,1.166c-3.561-0.051-7.126-0.037-10.69-0.004 	c-0.734,0.004-1.174-0.245-1.625-0.828c-6.852-8.856-13.734-17.696-20.607-26.536C131.517,321.557,131.191,321.162,130.626,320.451" 	/> <path d="M280.646,349.31c-5.563,0-10.807-0.021-16.058,0.017c-0.83,0.011-1.123-0.472-1.489-1.026 	c-3.071-4.645-6.175-9.273-9.214-13.935c-0.5-0.766-1.026-1.075-1.932-1.021c-1.356,0.077-2.719,0.077-4.075,0 	c-0.896-0.055-1.083,0.264-1.075,1.107c0.041,4.547-0.01,9.095,0.041,13.64c0.014,0.985-0.258,1.253-1.239,1.24 	c-4.126-0.055-8.252-0.044-12.376-0.006c-0.763,0.006-1.045-0.152-1.042-0.99c0.027-16.923,0.024-33.843,0.002-50.768 	c-0.002-0.793,0.218-1.013,1.013-1.01c8.767,0.04,17.533,0.006,26.297,0.081c3.058,0.03,6.054,0.635,8.892,1.805 	c8.086,3.332,11.331,10.232,10.39,18.702c-0.687,6.188-4.038,10.544-9.581,13.244c-0.92,0.447-0.975,0.756-0.409,1.576 	c3.676,5.308,7.306,10.652,10.948,15.986C279.993,348.328,280.244,348.707,280.646,349.31 M246.822,315.606c0,1.779,0,3.562,0,5.345 	c0,0.461-0.095,0.963,0.662,0.938c3.791-0.119,7.604,0.307,11.375-0.267c3.353-0.51,5.351-2.838,5.392-6.007 	c0.043-3.255-1.783-5.492-5.229-6.079c-3.854-0.662-7.762-0.162-11.645-0.291c-0.694-0.024-0.549,0.487-0.549,0.876 	C246.817,311.95,246.822,313.776,246.822,315.606"/> <path d="M332.508,323.057c-0.03-13.382,9.56-24.751,22.83-27.029c8.855-1.52,17.025,0.107,24.045,5.852 	c15.416,12.626,12.32,37.082-5.688,45.646c-11.773,5.598-26.068,2.898-34.499-6.588 	C334.679,335.857,332.592,329.818,332.508,323.057 M347.55,323.063c-0.051,0.925,0.061,2.045,0.324,3.142 	c1.177,4.933,3.939,8.617,8.831,10.242c4.838,1.604,9.36,0.735,13.205-2.721c5.193-4.673,5.924-13.638,1.65-19.525 	c-2.529-3.479-5.98-5.346-10.26-5.47C353.362,308.508,347.544,314.537,347.55,323.063"/> <path d="M222.081,303.206c-2.705,3.258-5.389,6.452-8.011,9.697c-0.609,0.76-0.954,0.331-1.424-0.044 	c-3.155-2.522-6.683-4.063-10.777-4.246c-6.121-0.274-11.168,2.928-13.439,8.631c-2.614,6.565-0.602,14.359,4.874,17.995 	c5.025,3.337,10.375,3.277,15.791,0.884c0.676-0.296,0.975-0.705,0.931-1.497c-0.075-1.449-0.081-2.909,0-4.358 	c0.055-0.917-0.287-1.073-1.112-1.063c-2.722,0.051-5.439-0.022-8.162,0.043c-0.952,0.021-1.172-0.299-1.155-1.193 	c0.054-2.812,0.051-5.628,0.002-8.441c-0.013-0.839,0.193-1.128,1.083-1.126c7.361,0.032,14.725,0.038,22.086-0.002 	c0.971-0.006,1.155,0.324,1.149,1.2c-0.03,7.224-0.024,14.443-0.008,21.664c0.002,0.621-0.157,1.061-0.668,1.432 	c-11.229,8.13-23.309,10.24-36.12,4.421c-10.127-4.6-15.653-15.408-14.714-26.522c1.27-15.021,14.198-26.699,31.749-25.06 	c6.225,0.586,11.839,2.623,16.723,6.571C221.277,302.514,221.66,302.851,222.081,303.206"/> <path d="M285.413,322.921c0-8.349,0.02-16.695-0.024-25.043c-0.008-1.028,0.215-1.33,1.295-1.33 	c13.271,0.043,26.544,0.038,39.817,0.006c0.982,0,1.395,0.138,1.365,1.274c-0.087,3.327-0.073,6.658-0.006,9.988 	c0.024,1.036-0.345,1.213-1.278,1.204c-8.395-0.032-16.789,0.014-25.185-0.052c-1.277-0.011-1.582,0.35-1.508,1.55 	c0.105,1.731,0.086,3.473,0.002,5.203c-0.049,0.996,0.261,1.249,1.239,1.243c7.506-0.041,15.011,0.008,22.516-0.057 	c1.256-0.011,1.576,0.314,1.53,1.553c-0.099,2.905-0.093,5.816,0,8.72c0.041,1.17-0.372,1.362-1.419,1.356 	c-7.459-0.043-14.915,0.003-22.371-0.049c-1.145-0.011-1.56,0.261-1.495,1.457c0.098,1.869,0.09,3.752,0.003,5.625 	c-0.052,1.042,0.228,1.323,1.299,1.317c8.488-0.048,16.978-0.002,25.468-0.053c1.183-0.012,1.59,0.197,1.547,1.492 	c-0.111,3.326-0.063,6.66-0.02,9.99c0.011,0.803-0.228,1.009-1.021,1.009c-13.553-0.024-27.108-0.03-40.66,0.006 	c-1.013,0.005-1.111-0.395-1.107-1.225C285.423,339.71,285.413,331.318,285.413,322.921"/> <path d="M111.405,349.31c-5.069,0-9.945-0.016-14.82,0.017c-0.727,0.002-0.938-0.366-1.164-0.934 	c-1-2.521-2.069-5.014-3.042-7.543c-0.284-0.732-0.647-0.955-1.426-0.949c-6.048,0.034-12.1,0.044-18.147-0.006 	c-0.94-0.011-1.285,0.364-1.584,1.156c-0.944,2.491-1.979,4.946-2.942,7.429c-0.208,0.529-0.422,0.849-1.078,0.845 	c-4.734-0.03-9.472-0.024-14.209-0.036c-0.08,0-0.162-0.071-0.342-0.157c1.532-3.651,3.057-7.308,4.597-10.956 	c5.7-13.521,11.424-27.035,17.086-40.572c0.472-1.131,1.037-1.506,2.256-1.478c3.796,0.089,7.596,0.054,11.394,0.016 	c0.753-0.006,1.183,0.19,1.489,0.922c7.213,17.143,14.445,34.28,21.669,51.417C111.23,348.69,111.283,348.919,111.405,349.31 	 M81.913,313.57c-2.048,5.178-3.945,9.969-5.89,14.892h8.921c2.776,0,2.779,0,1.787-2.551 	C85.177,321.919,83.616,317.935,81.913,313.57"/> <path d="M8.481,322.844c0-8.345,0.017-16.693-0.022-25.04c-0.005-0.95,0.181-1.27,1.206-1.256 	c4.079,0.065,8.16,0.065,12.238,0c1.02-0.014,1.217,0.304,1.214,1.262c-0.033,12.378,0.002,24.759-0.056,37.139 	c-0.008,1.349,0.414,1.583,1.643,1.577c7.5-0.057,15.005-0.006,22.506-0.055c1.097-0.008,1.42,0.264,1.395,1.385 	c-0.078,3.371-0.086,6.752,0,10.125c0.031,1.178-0.388,1.352-1.43,1.348c-12.476-0.032-24.947-0.034-37.422,0.006 	c-1.064,0.006-1.303-0.266-1.297-1.308C8.501,339.635,8.481,331.239,8.481,322.844"/> <path d="M258.265,383.98c1.563,2.029,3.126,4.059,4.688,6.088c1.541,2.003,3.079,4.011,4.681,6.094 	c-1.611,0.3-2.809,0.185-3.875-1.332c-2.338-3.334-4.936-6.482-7.383-9.74c-0.534-0.714-1.102-0.985-1.994-0.963 	c-2.39,0.064-4.784,0.07-7.169,0c-0.962-0.028-1.172,0.298-1.158,1.194c0.047,3.277-0.002,6.56,0.033,9.841 	c0.008,0.773-0.058,1.217-1.025,1.152c-0.798-0.055-1.238-0.07-1.232-1.115c0.049-9.046,0.024-18.089,0.036-27.135 	c0-0.459-0.234-1.118,0.642-1.091c4.914,0.151,9.857-0.456,14.736,0.322c5.552,0.888,8.608,5.676,7.005,10.672 	c-1.047,3.25-3.618,4.722-6.698,5.552c-0.313,0.087-0.641,0.13-0.958,0.208C258.512,383.75,258.449,383.836,258.265,383.98 	 M251.901,382.167v-0.016c1.594,0,3.191,0.093,4.773-0.017c3.009-0.217,5.769-1.059,7.193-4.049 	c1.909-4.021-0.636-8.215-5.381-8.863c-3.863-0.526-7.76-0.128-11.637-0.247c-0.787-0.021-0.782,0.45-0.782,0.998 	c0.009,3.745,0.03,7.492-0.014,11.233c-0.01,0.865,0.342,0.996,1.075,0.977C248.719,382.141,250.31,382.167,251.901,382.167"/> <path d="M96.283,381.473c0-4.405,0.047-8.807-0.03-13.214c-0.023-1.155,0.355-1.383,1.403-1.334 	c3.923,0.174,7.871-0.312,11.779,0.325c7.166,1.161,12.158,7.068,12.158,14.31c-0.002,7.242-4.99,13.203-12.116,14.37 	c-4.137,0.678-8.322,0.162-12.484,0.317c-1,0.041-0.7-0.659-0.703-1.144C96.277,390.563,96.283,386.018,96.283,381.473 	 M98.506,381.451c0,3.889-0.007,7.777,0.006,11.664c0.002,0.508-0.243,1.175,0.732,1.134c3.085-0.124,6.18,0.193,9.263-0.225 	c6.14-0.832,10.429-5.486,10.801-11.765c0.355-6.008-3.46-11.262-9.274-12.773c-3.411-0.891-6.899-0.375-10.349-0.554 	c-1.045-0.052-1.212,0.341-1.198,1.272C98.533,373.952,98.506,377.701,98.506,381.451"/> <path d="M152.284,381.457c0-4.452,0.023-8.906-0.019-13.355c-0.008-0.873,0.158-1.226,1.129-1.181 	c3.972,0.183,7.967-0.319,11.924,0.318c7.301,1.175,12.283,7.022,12.277,14.337c-0.002,7.294-5.04,13.229-12.271,14.369 	c-4.096,0.646-8.232,0.146-12.348,0.304c-0.875,0.033-0.689-0.542-0.689-1.02C152.282,390.638,152.284,386.048,152.284,381.457 	 M154.508,381.622c0,3.843-0.003,7.688,0.003,11.529c0,0.531-0.181,1.139,0.767,1.102c3.04-0.131,6.087,0.192,9.125-0.221 	c6.284-0.852,10.552-5.462,10.91-11.808c0.345-6.113-3.528-11.289-9.584-12.799c-3.327-0.83-6.718-0.316-10.075-0.488 	c-0.925-0.047-1.179,0.238-1.168,1.162C154.538,373.936,154.508,377.78,154.508,381.622"/> <path d="M120.977,396.162c4.061-8.796,8.054-17.446,12.049-26.099c0.334-0.722,0.681-1.436,0.989-2.167 	c0.297-0.717,0.57-1.271,1.577-1.232c0.91,0.036,1.26,0.398,1.61,1.161c4.207,9.176,8.454,18.336,12.689,27.501 	c0.114,0.251,0.206,0.517,0.314,0.782c-2.228,0.336-2.228,0.336-3.129-1.645c-0.809-1.79-1.664-3.56-2.402-5.377 	c-0.342-0.845-0.829-1.053-1.693-1.048c-4.923,0.044-9.846,0.052-14.77,0c-0.933-0.014-1.428,0.233-1.787,1.112 	c-0.738,1.818-1.594,3.587-2.4,5.373C123.203,396.351,123.203,396.351,120.977,396.162 M135.579,369.198 	c-2.522,5.529-4.932,10.825-7.357,16.117c-0.427,0.927,0.228,0.759,0.72,0.765c4.359,0,8.715-0.03,13.075,0.022 	c1.056,0.011,1.178-0.223,0.741-1.156c-1.546-3.3-3.022-6.632-4.528-9.947C137.383,373.138,136.53,371.276,135.579,369.198"/> <path d="M389.188,396.152c-1.7,0.431-2.637,0.004-3.195-1.632c-0.659-1.939-1.68-3.752-2.494-5.641 	c-0.261-0.607-0.599-0.819-1.265-0.813c-5.157,0.026-10.315,0.026-15.474,0c-0.672-0.006-0.979,0.228-1.236,0.836 	c-0.826,1.932-1.832,3.798-2.554,5.762c-0.548,1.498-1.397,1.96-2.908,1.492c0.038-0.626,0.434-1.154,0.694-1.725 	c4.081-8.872,8.169-17.745,12.258-26.617c0.275-0.597,0.47-1.213,1.365-1.096c0.635,0.084,1.232-0.082,1.604,0.732 	C380.356,377.009,384.763,386.552,389.188,396.152 M382.185,386.08c-2.579-5.682-5.075-11.171-7.658-16.865 	c-2.624,5.763-5.124,11.258-7.679,16.865H382.185z"/> <path d="M65.035,396.087c-1.812,0.626-2.643-0.119-3.215-1.693c-0.669-1.839-1.62-3.573-2.387-5.378 	c-0.292-0.678-0.625-0.985-1.434-0.977c-5.106,0.044-10.213,0.035-15.321,0.005c-0.716-0.002-1.061,0.223-1.339,0.891 	c-0.794,1.894-1.783,3.712-2.493,5.639c-0.557,1.524-1.432,2.037-3.044,1.54c1.734-3.753,3.47-7.515,5.207-11.281 	c2.644-5.722,5.297-11.445,7.917-17.178c0.31-0.681,0.641-1.045,1.442-0.963c0.612,0.06,1.124-0.006,1.459,0.729 	C56.202,376.969,60.611,386.504,65.035,396.087 M58.042,386.056c-2.573-5.668-5.065-11.154-7.662-16.876 	c-2.634,5.787-5.132,11.278-7.68,16.876H58.042z"/> <path d="M290.094,366.577c3.156,0.036,5.959,1.068,8.479,2.938c0.543,0.404,0.859,0.733,0.228,1.284 	c-0.441,0.385-0.564,1.334-1.571,0.53c-3.19-2.571-6.861-3.391-10.822-2.356c-3.311,0.864-4.931,3.656-4.136,6.726 	c0.396,1.536,1.493,2.437,2.83,3.109c2.027,1.026,4.241,1.433,6.428,1.935c1.693,0.386,3.346,0.888,4.876,1.718 	c4.677,2.539,5.209,8.813,0.974,12.071c-3.516,2.705-7.502,2.58-11.533,1.587c-2.445-0.607-4.54-1.929-6.496-3.512 	c-0.766-0.617-0.375-0.96,0.057-1.438c0.413-0.458,0.67-0.925,1.393-0.261c3.294,3.034,7.192,4.277,11.643,3.644 	c3.891-0.545,6.186-3.607,5.401-7.086c-0.342-1.506-1.321-2.429-2.613-3.113c-1.97-1.044-4.143-1.432-6.28-1.915 	c-1.739-0.387-3.438-0.889-5.039-1.69c-2.518-1.259-3.974-3.247-4.042-6.1c-0.065-2.862,1.216-5.033,3.63-6.552 	C285.52,366.821,287.77,366.51,290.094,366.577"/> <path d="M237.904,376.932c0-2.996,0.047-5.996-0.024-8.995c-0.026-1.05,0.534-0.937,1.221-0.979 	c0.787-0.052,1.031,0.192,1.026,1.001c-0.041,5.763,0.051,11.528-0.07,17.292c-0.122,5.676-3.324,9.854-8.401,11.086 	c-7.278,1.77-15.393-1.563-15.5-11.803c-0.057-5.48,0.002-10.967-0.022-16.448c-0.002-0.775,0.068-1.185,1.031-1.147 	c0.86,0.036,1.219,0.172,1.208,1.147c-0.049,5.063-0.03,10.127-0.017,15.184c0.003,1.263,0.017,2.519,0.279,3.775 	c1.09,5.152,4.854,8.05,10.115,7.719c5.535-0.342,8.877-3.696,9.09-9.258c0.107-2.852,0.019-5.714,0.019-8.573H237.904z"/> <path d="M34.615,391.647c-4.159,4.331-9.178,6.094-15.031,4.694c-5.951-1.427-9.552-5.438-10.758-11.353 	c-1.644-8.065,2.521-15.591,9.78-17.831c5.571-1.721,10.63-0.565,15.073,3.234c0.475,0.407,1.003,0.749,0.213,1.389 	c-0.552,0.45-0.828,1.14-1.756,0.302c-4.117-3.723-8.846-4.775-14.028-2.57c-5.426,2.312-8.252,8.434-7.088,14.912 	c1.037,5.764,5.731,10.018,11.529,10.338c3.527,0.195,6.612-0.999,9.274-3.321C33.248,390.198,33.265,390.215,34.615,391.647"/> <path d="M333.702,381.614c0.279-6.219,2.8-11.233,8.736-13.835c6.002-2.635,11.612-1.5,16.608,2.732 	c0.494,0.418,0.813,0.74,0.136,1.286c-0.54,0.429-0.796,1.223-1.745,0.347c-3.729-3.45-8.102-4.594-12.983-3.011 	c-5.519,1.785-8.79,7.209-8.397,13.625c0.434,7.041,6.108,12.318,12.985,12.047c3.39-0.13,6.26-1.524,8.626-3.88 	c0.86-0.857,1.188-0.25,1.747,0.23c0.784,0.67,0.041,0.963-0.298,1.291c-4.499,4.339-11.128,5.671-16.643,3.162 	C336.559,392.923,333.97,388.028,333.702,381.614"/> <path d="M202.667,382.667c0,4.173-0.019,8.341,0.016,12.514c0.006,0.798-0.107,1.166-1.047,1.14 	c-0.878-0.03-1.202-0.207-1.196-1.17c0.038-8.246-0.002-16.494,0.049-24.742c0.006-1.178-0.314-1.493-1.476-1.449 	c-2.573,0.093-5.155-0.002-7.729,0.043c-0.795,0.017-1.032-0.217-1.026-1.014c0.006-0.771,0.186-1.037,1.008-1.031 	c6.888,0.03,13.776,0.026,20.663,0c0.733-0.006,0.988,0.195,0.954,0.934c-0.026,0.668,0.004,1.14-0.93,1.117 	c-2.717-0.059-5.436,0.022-8.15-0.043c-0.953-0.021-1.164,0.293-1.153,1.193C202.692,374.326,202.667,378.499,202.667,382.667"/> <path d="M312.158,382.58c0-4.124-0.03-8.248,0.022-12.369c0.014-0.98-0.247-1.273-1.241-1.246 	c-2.669,0.067-5.341-0.016-8.012,0.037c-0.88,0.022-0.961-0.352-0.961-1.073c0.004-0.689,0.14-0.978,0.921-0.972 	c6.935,0.03,13.87,0.03,20.8-0.002c0.844-0.004,0.879,0.379,0.873,1.017c-0.005,0.619,0,1.051-0.857,1.03 	c-2.528-0.053-5.063,0.061-7.589-0.048c-1.351-0.055-1.804,0.217-1.786,1.71c0.091,8.104,0.024,16.211,0.065,24.315 	c0.006,1.007-0.171,1.405-1.28,1.341c-0.85-0.049-0.974-0.353-0.969-1.091C312.172,391.013,312.158,386.797,312.158,382.58"/> <path d="M67.034,381.535c0-4.502,0.023-9.005-0.02-13.503c-0.008-0.842,0.178-1.132,1.072-1.121 	c0.887,0.008,1.19,0.192,1.187,1.149c-0.042,8.254,0.003,16.506-0.056,24.76c-0.005,1.178,0.289,1.47,1.458,1.451 	c4.876-0.073,9.753-0.019,14.631-0.047c0.774-0.002,1.153,0.077,1.161,1.032c0.005,0.998-0.464,0.998-1.186,0.992 	c-5.678-0.016-11.351-0.032-17.025,0.011c-0.963,0.012-1.263-0.211-1.249-1.217C67.068,390.541,67.034,386.036,67.034,381.535"/> <path d="M271.596,381.592c0-4.451,0.019-8.899-0.017-13.352c-0.006-0.854,0.021-1.348,1.142-1.321 	c1.023,0.022,1.1,0.435,1.096,1.249c-0.023,8.993-0.028,17.987,0.012,26.98c0.003,0.943-0.279,1.128-1.17,1.172 	c-1.071,0.057-1.077-0.456-1.074-1.24C271.608,390.585,271.596,386.086,271.596,381.592"/> <path d="M327.597,381.489c0-4.446,0.017-8.892-0.016-13.338c-0.006-0.844,0.108-1.232,1.109-1.219 	c0.949,0.014,1.149,0.313,1.147,1.199c-0.032,8.988-0.03,17.976-0.002,26.964c0.002,0.866-0.152,1.227-1.132,1.227 	c-0.978,0.004-1.129-0.35-1.123-1.207C327.615,390.573,327.597,386.031,327.597,381.489"/> <path d="M89.776,381.473c0-4.455,0.021-8.91-0.016-13.365c-0.008-0.862,0.144-1.211,1.122-1.205 	c0.992,0,1.131,0.377,1.127,1.232c-0.024,8.953-0.03,17.913,0.007,26.867c0.002,0.96-0.223,1.245-1.223,1.286 	c-1.163,0.04-1.022-0.598-1.02-1.312C89.779,390.474,89.776,385.972,89.776,381.473"/> <path d="M278.329,360.57c-2.349,1.161-3.381,3.879-6.585,3.723c1.354-1.71,2.54-3.211,3.73-4.711 	c0.299-0.374,0.579-0.1,0.86,0.032C276.875,359.876,277.416,360.133,278.329,360.57"/> <path d="M196.894,3.097C125.327,4.125,67.084,62.496,67.036,135.255c0.145,73.155,59.258,132.185,132.174,131.968 	c73.229-0.218,131.976-59.725,131.433-133.222C330.109,60.907,270.26,2.042,196.894,3.097 M272.026,189.466 	c-9.011,12.893-20.686,22.335-36.108,26.394c-17.645,4.646-35.055,4.16-51.644-4.098c-18.71-9.306-30.158-24.462-34.814-44.795 	c-1.217-5.322-1.609-10.739-1.614-16.188c-0.011-10.691-0.027-21.386,0.028-32.079c0.006-1.325-0.397-1.614-1.656-1.608 	c-11.069,0.046-22.138,0.027-33.205,0.027h-1.867c3.09-4.121,5.954-7.938,8.822-11.753c4.958-6.596,9.929-13.181,14.863-19.793 	c0.528-0.708,1.06-1.024,1.973-1.008c3.187,0.063,6.38-0.023,9.567,0.058c1.175,0.03,1.501-0.317,1.494-1.489 	c-0.041-11.726-0.027-23.449-0.022-35.175c0.003-1.994-0.292-1.83,1.773-1.833c11.117-0.008,22.233,0.019,33.346-0.034 	c1.32-0.006,1.731,0.264,1.723,1.665c-0.061,11.771-0.012,23.544-0.071,35.316c-0.005,1.256,0.323,1.547,1.532,1.542 	c11.303-0.059,22.604-0.042,33.908-0.095c1.131-0.005,1.413,0.358,1.41,1.442c-0.038,9.896-0.046,19.791-0.006,29.687 	c0.006,1.167-0.317,1.498-1.487,1.495c-11.254-0.045-22.511-0.012-33.768-0.056c-1.197-0.005-1.592,0.242-1.587,1.53 	c0.059,11.397-0.104,22.797,0.084,34.191c0.154,9.362,3.103,17.787,9.785,24.591c6.89,7.022,15.42,9.394,25.044,8.474 	c10.21-0.974,17.965-6.24,24.4-13.84c1.818-2.146,3.57-4.328,6.074-5.779c6.654-3.869,15.064-2.68,20.34,2.949 	C275.491,174.695,276.335,183.304,272.026,189.466"/> </svg> 