<?xml version="1.0" encoding="utf-8"?>
<!-- Generator: Adobe Illustrator 16.0.0, SVG Export Plug-In . SVG Version: 6.00 Build 0)  -->
<!DOCTYPE svg PUBLIC "-//W3C//DTD SVG 1.1//EN" "http://www.w3.org/Graphics/SVG/1.1/DTD/svg11.dtd">
<svg version="1.1" id="Layer_1" xmlns="http://www.w3.org/2000/svg" xmlns:xlink="http://www.w3.org/1999/xlink" x="0px" y="0px"
	 width="16.945px" height="25px" viewBox="0 0 16.945 25" enable-background="new 0 0 16.945 25" xml:space="preserve">
<g>
	<path d="M16.531,8.133c0,1.141-0.17,2.076-0.516,2.809l-5.711,12.142c-0.168,0.344-0.416,0.616-0.746,0.815
		c-0.329,0.198-0.682,0.297-1.058,0.297s-0.729-0.099-1.06-0.297c-0.329-0.199-0.573-0.472-0.729-0.815L0.986,10.941
		c-0.345-0.732-0.518-1.668-0.518-2.809c0-2.217,0.784-4.11,2.353-5.679c1.569-1.568,3.462-2.353,5.68-2.353
		c2.217,0,4.11,0.785,5.679,2.353C15.748,4.023,16.531,5.916,16.531,8.133z M11.34,10.972c0.785-0.784,1.178-1.73,1.178-2.839
		c0-1.108-0.393-2.055-1.178-2.839c-0.784-0.785-1.73-1.177-2.839-1.177c-1.109,0-2.056,0.393-2.84,1.177
		c-0.784,0.784-1.177,1.73-1.177,2.839c0,1.109,0.393,2.056,1.177,2.839c0.784,0.785,1.73,1.177,2.84,1.177
		C9.609,12.149,10.556,11.757,11.34,10.972z"/>
</g>
</svg>
