<?xml version="1.0" encoding="utf-8"?> <!-- Generator: Adobe Illustrator 16.0.0, SVG Export Plug-In . SVG Version: 6.00 Build 0)  --> <!DOCTYPE svg PUBLIC "-//W3C//DTD SVG 1.1//EN" "http://www.w3.org/Graphics/SVG/1.1/DTD/svg11.dtd"> <svg version="1.1" id="Layer_1" xmlns="http://www.w3.org/2000/svg" xmlns:xlink="http://www.w3.org/1999/xlink" x="0px" y="0px" 	 width="264px" height="400px" viewBox="0 0 264 400" enable-background="new 0 0 264 400" xml:space="preserve"> <g> 	<path d="M5.046,184.495c3.131,2.023,14.52-1.207,14.52-1.207c5.997-0.48,8.536,0.354,10.35,2.301 		c-2.429-7.135-3.955-14.158-4.728-20.935c-0.083,0.204-0.164,0.421-0.25,0.593c-0.319,0.004-0.638,0.045-0.949,0.026 		c-1.346-0.054-2.703-0.297-4.02-0.702c-2.637-0.795-5.535-1.8-7.785-3.507c2.039,1.95,4.788,3.265,7.448,4.422 		c1.331,0.576,2.745,1.01,4.21,1.243c0.231,0.036,0.468,0.033,0.699,0.053c0.459,1.288,1.327,4.682-1.701,6.533 		c-4.324,2.641-9.627-0.701-13.24-5.432c-3.615-4.725-8.993-17.624-6.643-15.251c2.354,2.373,12.949,1.734,12.949,1.734 		c5.528,0.759,7.549,2.041,8.744,4.225c-0.425-7.766,0.049-15.067,1.055-21.709c-0.197,0.257-0.394,0.483-0.572,0.669 		c-0.257-0.079-0.526-0.13-0.773-0.22c-1.083-0.393-2.117-0.938-3.077-1.599c-1.933-1.324-4.025-2.88-5.416-4.839 		c1.156,2.104,3.045,3.873,4.907,5.49c0.928,0.809,1.966,1.521,3.091,2.088c0.18,0.088,0.374,0.144,0.555,0.223 		c0.043,1.158-0.125,4.13-3.052,4.854c-4.178,1.036-7.622-3.032-9.338-7.793c-1.719-4.756-2.771-16.582-1.475-14.057 		c1.298,2.52,10.048,4.723,10.048,4.723c4.158,1.969,5.513,3.494,5.966,5.478c1.123-5.62,2.588-10.611,4.167-14.807 		c-0.394,0.282-0.795,0.513-1.121,0.636c-0.158-0.134-0.323-0.256-0.472-0.397c-0.617-0.617-1.159-1.324-1.613-2.09 		c-0.914-1.527-1.864-3.269-2.201-5.064c0.128,1.823,0.872,3.647,1.639,5.356c0.389,0.855,0.876,1.678,1.475,2.426 		c0.097,0.122,0.211,0.217,0.309,0.33c-0.337,0.818-1.402,2.815-3.653,2.386c-3.219-0.618-4.304-4.524-3.972-8.362 		c0.329-3.836,3.368-12.343,3.459-10.183c0.092,2.154,5.441,6.459,5.441,6.459c1.653,1.979,2.27,3.287,2.391,4.455 		c1.525-3.177,3.945-6.965,6.833-10.965c-0.089,0.036-0.195,0.117-0.276,0.144c-0.135-0.126-0.28-0.237-0.404-0.361 		c-0.531-0.565-0.99-1.2-1.368-1.891c-0.773-1.375-1.565-2.936-1.817-4.537c0.067,1.616,0.676,3.249,1.307,4.778 		c0.324,0.766,0.729,1.508,1.24,2.185c0.084,0.107,0.181,0.197,0.266,0.3c-0.319,0.713-1.315,2.453-3.292,2.01 		c-2.826-0.628-3.682-4.113-3.29-7.497c0.394-3.383,3.31-10.818,3.334-8.908c0.023,1.911,4.636,5.857,4.636,5.857 		c1.755,2.238,2.193,3.53,2.003,4.757c2.319-3.061,4.796-6.149,7.235-9.085c-0.325,0.148-0.653,0.25-0.904,0.289 		c-0.095-0.118-0.193-0.224-0.275-0.348c-0.346-0.52-0.625-1.094-0.826-1.701c-0.424-1.207-0.84-2.562-0.818-3.876 		c-0.171,1.302,0.085,2.689,0.378,4c0.148,0.658,0.368,1.307,0.68,1.918c0.054,0.098,0.12,0.184,0.174,0.276 		c-0.36,0.525-1.396,1.776-2.913,1.146c-2.17-0.899-2.367-3.801-1.575-6.451c0.786-2.647,4.157-8.18,3.91-6.649 		c-0.25,1.529,2.881,5.328,2.881,5.328c1.097,2.048,1.263,3.146,0.93,4.106c3.154-3.744,6.148-7.16,8.482-9.769 		c-0.147,0.058-0.303,0.122-0.423,0.143c-0.061-0.077-0.121-0.145-0.172-0.221c-0.229-0.326-0.404-0.687-0.532-1.068 		c-0.279-0.759-0.546-1.615-0.543-2.45c-0.099,0.826,0.076,1.703,0.264,2.529c0.095,0.416,0.242,0.827,0.44,1.21 		c0.04,0.065,0.076,0.115,0.115,0.174c-0.223,0.329-0.875,1.13-1.835,0.743c-1.374-0.556-1.521-2.392-1.042-4.067 		c0.484-1.677,2.581-5.201,2.434-4.229c-0.152,0.965,1.858,3.354,1.858,3.354c0.703,1.284,0.811,1.974,0.608,2.588 		c0.733-0.816,1.397-1.548,1.928-2.126c-0.045-0.253-0.055-0.572,0.142-0.898c0.303-0.483,0.622-0.759,1.431-0.815 		c0.009-0.01,0.036-0.041,0.04-0.047c0,0-0.031,0.04-0.04,0.047c0.233-0.018,0.49-0.023,0.81,0c0,0,2.199,0.588,2.793,0.19 		c0.597-0.398-1.083,2.081-2.044,2.916c-0.967,0.842-2.222,1.315-3.018,0.579c-0.553-0.516-0.228-1.194-0.079-1.446 		c0.051,0.002,0.104,0.017,0.15,0.017c0.316,0.016,0.635-0.014,0.938-0.082c0.611-0.128,1.246-0.287,1.756-0.608 		c-0.547,0.26-1.199,0.349-1.79,0.405c-0.295,0.032-0.588,0.02-0.874-0.024c-0.065-0.009-0.13-0.032-0.198-0.042 		c-0.004-0.02-0.002-0.041-0.004-0.056c-1.07,1.273-2.59,3.099-4.439,5.367c0.616-0.353,1.473-0.516,3.025-0.411 		c0,0,4.019,1.072,5.107,0.348c1.09-0.729-1.987,3.805-3.744,5.34c-1.762,1.532-4.062,2.404-5.513,1.052 		c-1.02-0.946-0.421-2.188-0.145-2.644c0.089,0.006,0.185,0.026,0.276,0.028c0.58,0.029,1.154-0.024,1.71-0.148 		c1.112-0.23,2.274-0.526,3.211-1.115c-0.999,0.48-2.186,0.642-3.268,0.744c-0.539,0.051-1.074,0.033-1.6-0.047 		c-0.119-0.016-0.241-0.056-0.359-0.084c-0.103-0.385-0.119-0.986,0.108-1.592c-2.025,2.499-4.288,5.339-6.636,8.372 		c0.738-0.273,1.743-0.379,3.305-0.279c0,0,5.028,1.345,6.392,0.437c1.365-0.907-2.485,4.765-4.686,6.679 		c-2.2,1.922-5.077,3.007-6.895,1.315c-1.276-1.184-0.525-2.733-0.179-3.307c0.113,0.012,0.229,0.034,0.343,0.044 		c0.724,0.027,1.444-0.039,2.138-0.19c1.394-0.293,2.849-0.657,4.02-1.394c-1.25,0.602-2.737,0.799-4.086,0.927 		c-0.676,0.063-1.348,0.045-2.001-0.059c-0.15-0.021-0.299-0.073-0.455-0.105c-0.085-0.312-0.136-0.739-0.103-1.203 		c-2.492,3.281-4.966,6.655-7.192,9.88c0.942-0.287,2.201-0.398,4.034-0.309c0,0,6.657,1.664,8.435,0.435 		c1.774-1.23-3.172,6.329-6.032,8.906c-2.861,2.579-6.626,4.071-9.06,1.881c-1.703-1.532-0.758-3.594-0.312-4.354 		c0.148,0.014,0.302,0.036,0.454,0.05c0.962,0.02,1.907-0.086,2.817-0.295c1.833-0.419,3.738-0.932,5.265-1.928 		c-1.632,0.819-3.588,1.116-5.363,1.313c-0.887,0.098-1.775,0.088-2.637-0.033c-0.203-0.025-0.401-0.09-0.603-0.131 		c-0.062-0.22-0.117-0.485-0.153-0.774c-1.823,2.88-3.322,5.524-4.212,7.643c-0.179,0.425-1.148,2.896-2.253,6.911 		c1.011-0.645,2.386-1.25,4.349-1.858c0,0,8.965-0.949,10.604-3.269c1.635-2.316-1.058,9.25-3.423,13.715 		c-2.366,4.47-6.342,8.014-10.335,6.415c-2.797-1.128-2.552-4.095-2.346-5.238c0.19-0.053,0.387-0.085,0.583-0.141 		c1.192-0.407,2.315-0.966,3.345-1.638c2.074-1.348,4.188-2.832,5.629-4.755c-1.645,1.75-3.932,2.999-6.034,4.039 		c-1.052,0.522-2.146,0.914-3.269,1.154c-0.263,0.059-0.535,0.067-0.802,0.11c-0.065-0.092-0.135-0.219-0.2-0.322 		c-1.045,5.521-1.862,12.311-1.875,19.933c1.011-1.129,2.565-2.287,5.027-3.64c0,0,10.114-3.205,11.454-6.266 		c1.341-3.052,0.959,10.912-0.722,16.624c-1.673,5.71-5.424,10.732-10.406,9.825c-3.488-0.639-3.903-4.124-3.936-5.487 		c0.207-0.107,0.432-0.191,0.638-0.303c1.285-0.746,2.447-1.654,3.474-2.668c2.075-2.047,4.164-4.252,5.368-6.806 		c-1.482,2.4-3.832,4.377-6.004,6.073c-1.089,0.848-2.262,1.555-3.5,2.096c-0.286,0.128-0.595,0.205-0.897,0.317 		c-0.027-0.025-0.058-0.065-0.085-0.091c0.657,7.306,2.161,15.138,4.899,23.209c0.263-2.063,1.555-4.313,4.734-7.674 		c0,0,9.663-6.839,10.053-10.541c0.381-3.704,4.717,11.269,4.869,17.904c0.163,6.635-2.121,13.245-7.721,13.967 		c-3.922,0.506-5.549-3.054-6.047-4.488c0.185-0.184,0.391-0.35,0.58-0.542c1.104-1.227,2.032-2.589,2.782-4.016 		c1.509-2.874,2.979-5.93,3.395-9.05c-0.762,3.055-2.583,5.95-4.32,8.488c-0.867,1.272-1.875,2.424-3.002,3.419 		c-0.263,0.23-0.565,0.42-0.85,0.638c-0.547-0.249-1.212-0.654-1.854-1.184c3.143,7.383,7.398,14.888,13.077,22.303 		c-1.141-2.503-0.931-5.394,1.707-11.071c0,0,7.555-10.32,6.681-14.246c-0.875-3.926,8.696,9.923,11.132,16.666 		c2.44,6.745,2.369,14.298-3.12,16.959c-3.847,1.863-6.732-1.226-7.733-2.526c0.125-0.254,0.283-0.492,0.402-0.753 		c0.719-1.635,1.202-3.346,1.479-5.07c0.559-3.459,1.019-7.096,0.372-10.433c0.267,3.392-0.604,6.979-1.514,10.181 		c-0.452,1.597-1.09,3.124-1.903,4.527c-0.187,0.327-0.438,0.625-0.651,0.943c-1.029-0.11-2.462-0.465-3.774-1.343 		c0.125,0.15,0.243,0.307,0.371,0.461c6.557,7.75,13.597,13.691,20.672,18.33c-1.501-2.43-1.703-5.534,0.08-11.811 		c0,0,6.268-12.221,4.678-16.239c-1.596-4.018,10.903,9.057,14.626,15.796c3.729,6.737,4.933,14.759-0.441,18.512 		c-3.761,2.624-7.345-0.163-8.628-1.371c0.089-0.291,0.215-0.569,0.299-0.862c0.486-1.861,0.707-3.757,0.711-5.629 		c0.009-3.766-0.117-7.7-1.369-11.13c0.853,3.551,0.538,7.504,0.116,11.051c-0.209,1.772-0.625,3.502-1.252,5.124 		c-0.144,0.383-0.353,0.737-0.53,1.114c-0.151,0.007-0.348-0.007-0.513-0.007c25.885,13.558,50.083,10.752,50.391,10.699 		c0.305,0.053,24.506,2.858,50.396-10.699c-0.172,0-0.37,0.014-0.521,0.007c-0.171-0.377-0.383-0.731-0.525-1.114 		c-0.63-1.622-1.048-3.352-1.254-5.124c-0.425-3.547-0.741-7.5,0.116-11.051c-1.253,3.43-1.382,7.364-1.37,11.13 		c0.005,1.872,0.227,3.768,0.709,5.629c0.083,0.293,0.211,0.571,0.301,0.862c-1.283,1.208-4.866,3.995-8.627,1.371 		c-5.375-3.753-4.171-11.774-0.442-18.512c3.726-6.739,16.223-19.813,14.628-15.796c-1.587,4.019,4.676,16.239,4.676,16.239 		c1.78,6.277,1.582,9.381,0.077,11.811c7.08-4.639,14.121-10.58,20.678-18.33c0.126-0.154,0.239-0.311,0.368-0.461 		c-1.312,0.878-2.748,1.232-3.772,1.343c-0.217-0.318-0.463-0.616-0.65-0.943c-0.814-1.403-1.453-2.931-1.904-4.527 		c-0.91-3.201-1.781-6.789-1.514-10.181c-0.646,3.337-0.188,6.974,0.376,10.433c0.273,1.725,0.756,3.436,1.475,5.07 		c0.121,0.261,0.276,0.499,0.403,0.753c-1.002,1.301-3.886,4.39-7.732,2.526c-5.492-2.661-5.559-10.214-3.12-16.959 		c2.433-6.743,12.004-20.592,11.131-16.666s6.68,14.246,6.68,14.246c2.638,5.678,2.848,8.568,1.713,11.071 		c5.672-7.415,9.931-14.92,13.071-22.303c-0.643,0.53-1.308,0.935-1.854,1.184c-0.283-0.217-0.586-0.407-0.849-0.638 		c-1.13-0.995-2.136-2.147-3.003-3.419c-1.738-2.538-3.561-5.433-4.32-8.488c0.415,3.12,1.885,6.176,3.394,9.05 		c0.751,1.427,1.678,2.789,2.784,4.016c0.186,0.192,0.395,0.358,0.577,0.542c-0.498,1.434-2.122,4.994-6.045,4.488 		c-5.603-0.723-7.885-7.333-7.724-13.967c0.154-6.635,4.488-21.607,4.872-17.904c0.389,3.702,10.053,10.541,10.053,10.541 		c3.176,3.361,4.465,5.611,4.732,7.674c2.734-8.071,4.243-15.904,4.898-23.209c-0.026,0.026-0.056,0.065-0.082,0.091 		c-0.304-0.112-0.613-0.188-0.901-0.317c-1.235-0.541-2.407-1.248-3.498-2.096c-2.177-1.696-4.521-3.672-6.004-6.073 		c1.207,2.554,3.294,4.758,5.365,6.806c1.032,1.014,2.197,1.922,3.477,2.668c0.206,0.112,0.433,0.196,0.641,0.303 		c-0.033,1.363-0.45,4.848-3.938,5.487c-4.982,0.908-8.732-4.115-10.403-9.825c-1.682-5.712-2.065-19.676-0.725-16.624 		c1.34,3.062,11.456,6.266,11.456,6.266c2.462,1.353,4.018,2.51,5.031,3.64c-0.017-7.622-0.836-14.412-1.877-19.933 		c-0.067,0.103-0.135,0.229-0.202,0.322c-0.271-0.043-0.539-0.052-0.803-0.11c-1.122-0.24-2.216-0.632-3.268-1.154 		c-2.099-1.04-4.39-2.289-6.033-4.039c1.44,1.923,3.555,3.407,5.624,4.755c1.033,0.671,2.154,1.23,3.35,1.638 		c0.19,0.056,0.394,0.088,0.581,0.141c0.207,1.144,0.451,4.11-2.345,5.238c-3.994,1.599-7.97-1.945-10.334-6.415 		c-2.366-4.465-5.059-16.032-3.424-13.715c1.638,2.32,10.605,3.269,10.605,3.269c1.96,0.608,3.336,1.213,4.348,1.858 		c-1.108-4.015-2.077-6.486-2.253-6.911c-0.889-2.119-2.388-4.762-4.213-7.643c-0.035,0.29-0.088,0.554-0.152,0.774 		c-0.202,0.041-0.4,0.105-0.6,0.131c-0.865,0.121-1.749,0.131-2.639,0.033c-1.774-0.197-3.733-0.494-5.365-1.313 		c1.529,0.997,3.431,1.509,5.267,1.928c0.91,0.209,1.855,0.315,2.816,0.295c0.151-0.014,0.303-0.036,0.452-0.05 		c0.448,0.759,1.395,2.821-0.308,4.354c-2.437,2.19-6.199,0.698-9.063-1.881c-2.856-2.577-7.806-10.136-6.031-8.906 		c1.776,1.229,8.432-0.435,8.432-0.435c1.837-0.089,3.091,0.022,4.034,0.309c-2.226-3.225-4.694-6.599-7.188-9.88 		c0.032,0.464-0.02,0.892-0.104,1.203c-0.157,0.033-0.301,0.084-0.454,0.105c-0.655,0.104-1.325,0.122-2.001,0.059 		c-1.351-0.128-2.837-0.325-4.086-0.927c1.173,0.737,2.624,1.101,4.015,1.394c0.698,0.152,1.417,0.218,2.145,0.19 		c0.111-0.01,0.229-0.032,0.342-0.044c0.348,0.573,1.096,2.123-0.181,3.307c-1.816,1.692-4.692,0.607-6.896-1.315 		c-2.198-1.915-6.048-7.586-4.685-6.679c1.364,0.909,6.392-0.437,6.392-0.437c1.565-0.1,2.568,0.006,3.308,0.279 		c-2.348-3.033-4.613-5.873-6.636-8.372c0.225,0.606,0.215,1.207,0.109,1.592c-0.12,0.028-0.242,0.068-0.36,0.084 		c-0.521,0.081-1.061,0.099-1.6,0.047c-1.081-0.102-2.269-0.264-3.268-0.744c0.937,0.589,2.101,0.885,3.209,1.115 		c0.558,0.125,1.137,0.178,1.713,0.148c0.089-0.001,0.186-0.021,0.277-0.028c0.273,0.455,0.871,1.697-0.148,2.644 		c-1.45,1.352-3.752,0.48-5.509-1.052c-1.759-1.535-4.836-6.069-3.749-5.34c1.092,0.724,5.109-0.348,5.109-0.348 		c1.547-0.105,2.412,0.058,3.026,0.411c-1.849-2.269-3.369-4.094-4.438-5.367c-0.002,0.015,0,0.037-0.007,0.056 		c-0.065,0.011-0.131,0.033-0.196,0.042c-0.286,0.044-0.582,0.056-0.876,0.024c-0.593-0.056-1.241-0.145-1.788-0.405 		c0.509,0.322,1.146,0.48,1.757,0.608c0.305,0.068,0.621,0.098,0.935,0.082c0.05,0,0.104-0.014,0.152-0.017 		c0.148,0.252,0.477,0.931-0.078,1.446c-0.796,0.737-2.052,0.264-3.018-0.579c-0.961-0.835-2.643-3.314-2.047-2.916 		c0.596,0.397,2.796-0.19,2.796-0.19c0.326-0.023,0.577-0.018,0.805,0c-0.001-0.007-0.034-0.046-0.034-0.046 		c0.002,0.006,0.033,0.036,0.039,0.046c0.81,0.056,1.129,0.332,1.43,0.815c0.195,0.326,0.184,0.645,0.145,0.898 		c0.531,0.578,1.193,1.311,1.927,2.126c-0.202-0.614-0.095-1.304,0.608-2.588c0,0,2.008-2.388,1.857-3.354 		c-0.146-0.972,1.947,2.552,2.43,4.229c0.483,1.675,0.342,3.511-1.036,4.067c-0.963,0.387-1.613-0.415-1.834-0.743 		c0.036-0.059,0.072-0.108,0.111-0.174c0.199-0.383,0.348-0.795,0.444-1.21c0.186-0.826,0.361-1.703,0.263-2.529 		c0.003,0.835-0.263,1.691-0.542,2.45c-0.132,0.381-0.307,0.742-0.533,1.068c-0.053,0.076-0.116,0.144-0.177,0.221 		c-0.119-0.021-0.274-0.085-0.419-0.143c2.333,2.609,5.327,6.024,8.485,9.769c-0.337-0.959-0.171-2.058,0.925-4.106 		c0,0,3.131-3.798,2.882-5.328c-0.248-1.531,3.127,4.002,3.912,6.649c0.789,2.65,0.593,5.552-1.574,6.451 		c-1.518,0.63-2.56-0.621-2.914-1.146c0.058-0.092,0.118-0.178,0.172-0.276c0.314-0.612,0.533-1.26,0.681-1.918 		c0.293-1.312,0.549-2.698,0.377-4c0.023,1.314-0.392,2.669-0.812,3.876c-0.207,0.607-0.483,1.181-0.831,1.701 		c-0.081,0.124-0.181,0.229-0.274,0.348c-0.253-0.04-0.578-0.141-0.905-0.289c2.438,2.936,4.917,6.024,7.235,9.085 		c-0.189-1.228,0.25-2.519,2.003-4.757c0,0,4.609-3.946,4.637-5.857c0.022-1.91,2.94,5.525,3.333,8.908 		c0.396,3.384-0.464,6.869-3.289,7.497c-1.979,0.443-2.974-1.297-3.292-2.01c0.084-0.103,0.182-0.193,0.265-0.3 		c0.513-0.676,0.916-1.418,1.236-2.185c0.632-1.529,1.242-3.162,1.313-4.778c-0.254,1.601-1.046,3.162-1.816,4.537 		c-0.381,0.691-0.84,1.326-1.371,1.891c-0.12,0.125-0.265,0.235-0.403,0.361c-0.082-0.027-0.188-0.108-0.276-0.144 		c2.891,4,5.307,7.788,6.833,10.965c0.12-1.168,0.738-2.476,2.394-4.455c0,0,5.345-4.305,5.438-6.459 		c0.096-2.16,3.133,6.347,3.46,10.183c0.332,3.838-0.754,7.744-3.974,8.362c-2.248,0.429-3.313-1.568-3.651-2.386 		c0.102-0.112,0.214-0.208,0.312-0.33c0.598-0.749,1.085-1.571,1.474-2.426c0.769-1.709,1.51-3.534,1.643-5.356 		c-0.341,1.796-1.287,3.538-2.204,5.064c-0.454,0.766-0.995,1.474-1.618,2.09c-0.141,0.141-0.309,0.263-0.467,0.397 		c-0.322-0.124-0.729-0.354-1.118-0.636c1.577,4.195,3.042,9.187,4.165,14.807c0.454-1.984,1.808-3.509,5.965-5.478 		c0,0,8.752-2.204,10.051-4.723c1.297-2.525,0.243,9.3-1.475,14.057c-1.718,4.761-5.159,8.829-9.339,7.793 		c-2.929-0.723-3.096-3.695-3.053-4.854c0.183-0.079,0.375-0.135,0.554-0.223c1.127-0.567,2.162-1.28,3.092-2.088 		c1.863-1.617,3.751-3.386,4.905-5.49c-1.388,1.959-3.481,3.515-5.413,4.839c-0.96,0.661-1.995,1.206-3.076,1.599 		c-0.244,0.09-0.519,0.141-0.777,0.22c-0.181-0.186-0.374-0.412-0.567-0.669c1.002,6.642,1.479,13.943,1.051,21.709 		c1.197-2.184,3.217-3.466,8.746-4.225c0,0,10.599,0.638,12.949-1.734c2.348-2.373-3.03,10.526-6.643,15.251 		c-3.615,4.731-8.917,8.072-13.241,5.432c-3.029-1.852-2.16-5.245-1.707-6.533c0.238-0.021,0.475-0.017,0.705-0.053 		c1.467-0.233,2.88-0.667,4.21-1.243c2.662-1.157,5.407-2.472,7.448-4.422c-2.251,1.708-5.149,2.712-7.788,3.507 		c-1.313,0.405-2.67,0.648-4.019,0.702c-0.309,0.019-0.629-0.022-0.947-0.026c-0.085-0.171-0.167-0.389-0.252-0.593 		c-0.772,6.776-2.3,13.8-4.729,20.935c1.817-1.946,4.356-2.781,10.357-2.301c0,0,11.383,3.229,14.513,1.207 		c3.126-2.022-5.81,10.743-10.879,15.032c-5.072,4.285-11.642,6.663-15.725,2.75c-2.855-2.736-1.104-6.232-0.295-7.522 		c0.261,0.032,0.52,0.088,0.779,0.108c1.652,0.095,3.296-0.037,4.881-0.347c3.179-0.63,6.482-1.4,9.175-3.04 		c-2.86,1.324-6.257,1.723-9.322,1.962c-1.531,0.125-3.067,0.069-4.55-0.193c-0.343-0.057-0.681-0.171-1.026-0.26 		c-0.092-0.366-0.17-0.807-0.22-1.285c-2.442,5.892-5.565,11.81-9.482,17.683c2.302-0.896,5.159-0.654,10.386,1.46 		c0,0,10.693,7.02,14.57,5.945c3.88-1.07-9.471,9.189-16.083,11.965c-6.614,2.775-14.157,3.094-17.096-2.256 		c-2.054-3.748,0.886-6.787,2.133-7.852c0.259,0.113,0.51,0.26,0.773,0.361c1.668,0.639,3.404,1.032,5.14,1.224 		c3.478,0.385,7.135,0.66,10.438-0.158c-3.374,0.441-7.003-0.251-10.244-0.997c-1.616-0.368-3.18-0.926-4.62-1.668 		c-0.304-0.159-0.582-0.357-0.873-0.54c-0.558,0.701-1.034,1.408-1.613,2.107c-4.853,5.807-9.815,10.683-14.789,14.849 		c2.87-1.03,5.938-0.553,11.847,3.016c0,0,10.153,9.254,14.446,8.771c4.296-0.479-11.603,8.145-19.083,9.97 		c-7.479,1.824-15.538,0.881-17.746-5.286c-1.546-4.322,2.082-7.049,3.587-7.966c0.256,0.161,0.494,0.355,0.757,0.511 		c1.664,0.958,3.438,1.671,5.244,2.167c3.626,0.996,7.461,1.907,11.101,1.601c-3.652-0.108-7.385-1.452-10.696-2.791 		c-1.654-0.665-3.216-1.52-4.616-2.557c-0.329-0.239-0.617-0.534-0.937-0.802c0.162-0.738,0.467-1.669,0.976-2.601 		c-6.698,4.948-13.314,8.598-19.614,11.289c3.878-0.19,6.647,1.017,11.154,7.851c0,0,5.186,12.723,9.269,14.138 		c4.084,1.412-13.979,2.354-21.519,0.784c-7.538-1.574-14.402-5.891-13.745-12.409c0.467-4.566,4.916-5.465,6.669-5.646 		c0.16,0.259,0.29,0.538,0.463,0.79c1.089,1.58,2.382,2.985,3.801,4.209c2.844,2.464,5.912,4.933,9.331,6.225 		c-3.252-1.671-6.042-4.49-8.456-7.126c-1.204-1.309-2.249-2.753-3.071-4.291c-0.188-0.359-0.323-0.749-0.492-1.128 		c0.309-0.399,0.738-0.845,1.229-1.289c-11.783,4.18-22.02,5.126-28.649,5.126c-4.635,0-7.519,0.071-7.959,0 		c-0.441,0.071-3.324,0-7.96,0c-6.63,0-16.865-0.946-28.647-5.126c0.488,0.444,0.92,0.89,1.23,1.289 		c-0.168,0.379-0.306,0.769-0.497,1.128c-0.82,1.538-1.862,2.982-3.071,4.291c-2.413,2.636-5.207,5.455-8.454,7.126 		c3.417-1.292,6.49-3.761,9.332-6.225c1.417-1.224,2.709-2.629,3.798-4.209c0.174-0.252,0.305-0.531,0.466-0.79 		c1.75,0.182,6.202,1.08,6.666,5.646c0.658,6.519-6.206,10.835-13.744,12.409c-7.538,1.569-25.602,0.628-21.518-0.784 		c4.084-1.415,9.267-14.138,9.267-14.138c4.51-6.834,7.278-8.041,11.155-7.851c-6.296-2.691-12.916-6.341-19.613-11.289 		c0.51,0.932,0.812,1.862,0.974,2.601c-0.319,0.268-0.606,0.563-0.935,0.802c-1.401,1.037-2.962,1.892-4.619,2.557 		c-3.309,1.339-7.044,2.683-10.697,2.791c3.641,0.307,7.478-0.604,11.102-1.601c1.808-0.496,3.581-1.209,5.243-2.167 		c0.265-0.155,0.5-0.35,0.759-0.511c1.506,0.917,5.134,3.644,3.589,7.966c-2.21,6.167-10.27,7.11-17.749,5.286 		c-7.48-1.825-23.379-10.449-19.084-9.97c4.295,0.482,14.448-8.771,14.448-8.771c5.909-3.568,8.98-4.046,11.847-3.016 		c-4.973-4.166-9.938-9.042-14.787-14.849c-0.583-0.699-1.059-1.406-1.615-2.107c-0.292,0.183-0.573,0.381-0.872,0.54 		c-1.443,0.742-3.005,1.3-4.625,1.668c-3.237,0.746-6.867,1.438-10.24,0.997c3.301,0.818,6.958,0.543,10.436,0.158 		c1.736-0.191,3.472-0.585,5.139-1.224c0.265-0.102,0.517-0.248,0.777-0.361c1.244,1.064,4.183,4.104,2.127,7.852 		c-2.936,5.35-10.48,5.031-17.091,2.256c-6.613-2.775-19.962-13.035-16.083-11.965c3.879,1.074,14.569-5.945,14.569-5.945 		c5.226-2.114,8.083-2.355,10.385-1.46c-3.916-5.873-7.039-11.791-9.482-17.683c-0.05,0.479-0.126,0.919-0.22,1.285 		c-0.346,0.088-0.683,0.203-1.026,0.26c-1.48,0.262-3.016,0.318-4.548,0.193c-3.068-0.239-6.465-0.638-9.323-1.962 		c2.691,1.64,5.992,2.41,9.174,3.04c1.585,0.31,3.228,0.442,4.878,0.347c0.262-0.02,0.521-0.076,0.782-0.108 		c0.809,1.291,2.561,4.786-0.296,7.522c-4.081,3.912-10.651,1.534-15.723-2.75C10.859,195.238,1.922,182.473,5.046,184.495"/> 	<path d="M202.044,6.913c0.958-0.558,3.705-1.502,3.563-1.877c-0.29-0.769-3.674,0.4-4.553,0.8 		c-0.879,0.398-2.35,1.32-2.35,1.32L198.5,7.034c0,0,0.878-1.463,1.996-2.05c1.118-0.586,3.514-1.307,3.993-1.466 		c0.479-0.157,1.597-1.409-2.503-0.772l-0.372-0.051c0,0,0.222-0.775-1.004-0.669c-1.226,0.105-2.724,0.403-3.203,0.56 		c-0.478,0.161-1.864,1.599-1.864,1.599s-0.206-1.528,2.298-2.274c0.358,0.064,0.603-1.057-0.911-0.814 		c-1.413,0.224-3.517,2.501-3.836,4.314c-0.318,1.81-1.81,3.885-2.608,4.577s-3.141,2.024-6.656,3.568 		c-3.514,1.544-14.59,6.07-16.348,7.402c-1.755,1.332-10.169,11.712-10.169,11.712s-6.123,1.333-8.359,4.795 		c-2.236,3.459-2.662,6.121-2.662,6.121s-3.993,2.45-5.06,2.822c-1.064,0.375-8.465-0.583-8.465-0.583s-1.064-2.185-1.811-2.876 		c1.225-1.493,5.379-5.006,5.379-5.006l6.336-0.532c0,0,1.811-0.141,2.981-0.656c1.172-0.516,2.022-0.942,2.769-1.259 		c0.745-0.321,1.171-1.067,1.171-1.067s-0.532-0.531-2.236,0c-1.703,0.532-2.662,0.426-2.662,0.426s0.532-2.345,2.874-3.302 		c2.345-0.958,3.941-0.532,4.367-0.958c0.426-0.426,0.958-1.277-0.745-1.172c-1.704,0.106-3.301,0.215-3.939,0.32 		c-0.64,0.106-2.13,0.747-2.13,0.747s1.171-1.492,2.98-1.918c1.812-0.426,3.621-0.211,4.048-0.532 		c0.426-0.321-0.214-1.384-2.663-1.172c0.106-0.746-0.716-1.416-1.486-1.409c-1.611,0.017-1.708,0.131-1.708,0.131 		s-1.724,0.256-2.018,0.615c-0.294,0.359-0.654,1.079-0.654,1.079s0.23-1.243,0.524-1.374c0.293-0.127,2.147-0.32,2.147-0.32 		s0.856-1.127-1.703-0.852c-1.492,0.164-2.557,1.598-2.557,1.598s-2.343,3.62-4.26,5.433c-1.917,1.809-11.182,5.428-12.78,6.495 		c-1.597,1.063-3.088,2.13-2.663,4.471c0.427,2.345,2.876,8.307,2.876,8.627c0,0.319-7.774,7.135-9.798,35.461 		c-0.212,1.598-0.212,2.237-0.851,2.77s-8.199,4.971-10.33,16.648c-2.129,11.679-3.088,37.875-3.088,37.875l-2.241,1.941 		c0,0-2.738-1.761-8.409-1.761c-5.672,0-16.233,3.715-16.233,3.715s1.369-1.758,0-2.542c-1.368-0.783-9.778-5.085-11.343-4.107 		c-1.563,0.979-4.302,1.564-3.715,13.69c-5.477,4.106-4.107,9.191-3.912,10.756c0.195,1.564,0.586,7.626,3.715,7.626 		s5.867-3.911,6.65-7.235c0.781-3.324,9.973-7.042,10.169-7.627c0.195-0.587-0.196-2.739-0.196-2.739s10.562,0.443,19.752,1.494 		c9.193,1.049,15.646-0.727,16.819-4.923c1.173-4.197,6.063-30.208,6.063-30.208s3.519,1.173,4.302,2.346 		c0.782,1.173,4.063,1.173,4.063,1.173l16.275,23.469c0,0,0.196,3.324,0,4.497c-1.174,2.542-1.563,7.041-1.563,10.953 		c0,3.91,4.497,11.929,5.278,15.253c0.783,3.325,2.151,10.169,1.956,13.69c-1.173,0.194-0.782,1.173-1.759,2.933 		c-0.979,1.76-3.325,5.281-3.131,7.236c0.197,1.957-0.157,2.348,4.909,3.323c5.066,0.979,9.563,1.371,9.563,1.371 		s5.085,2.737,8.41,3.129c3.325,0.39,8.997-2.151,8.997-3.129s-6.454-3.129-7.432-3.913c-0.979-0.781-6.845-8.605-10.17-10.95 		c-0.782-3.13-1.957-10.951-1.957-20.34c-0.194-5.669-2.15-15.253-2.15-15.253s2.738-5.475,2.348-8.605 		c-0.392-3.127-2.934-6.257-2.934-6.257s-2.543-13.495-14.472-36.181c0.195-5.671,3.127-9.387,3.324-10.169 		c0.195-0.782,4.303-18.187,4.497-19.752c0.197-1.564,4.051-7.407,5.085-13.689c0.731-4.433,2.718-4.039,3.325-4.107 		c0.435-0.049,4.106-0.273,4.106-0.273s0.978-3.834,2.347-5.203c1.369-1.369,5.28-0.782,5.868-3.521 		c0.587-2.739-3.13-15.058-3.13-15.058s6.65-6.845,8.215-8.411c1.563-1.563,16.818-9.583,19.556-11.927 		c2.542,0,5.234-0.531,6.272-1.092c1.037-0.557,5.17-3.26,4.872-3.833c-0.642-1.224-2.582,0.829-3.103,1.047 		c-0.696,0.294-2.218,0.262-1.529-1.147C199.146,8.476,201.086,7.474,202.044,6.913 M146.875,27.277c0,0-1.257,0.452-1.729,1.044 		l-0.475,0.593C144.671,28.914,144.695,27.04,146.875,27.277 M197.245,5.28c0,0,0.612-1.25,1.004-1.592s2.524-0.538,2.524-0.538 		s-1.422,0.343-1.715,0.513C198.765,3.835,197.245,5.28,197.245,5.28"/> 	<path d="M68.293,295.591v8.775h-1.422v-25.298h6.639c1.93,0.263,3.568,1.069,4.917,2.42 		c1.614,1.611,2.42,3.557,2.42,5.833c0,2.288-0.806,4.236-2.42,5.851c-1.612,1.612-3.558,2.419-5.834,2.419H68.293z M68.293,280.508 		v13.644h4.3c1.876,0,3.481-0.665,4.815-1.998c1.333-1.334,2-2.944,2-4.832c0-1.886-0.667-3.494-2-4.821 		c-1.333-1.328-2.938-1.992-4.815-1.992H68.293z"/> 	<path d="M90.239,295.574c-0.137,0.01-0.279,0.017-0.427,0.017h-4.3v8.775h-1.422v-25.298h6.639 		c1.93,0.263,3.568,1.069,4.917,2.42c1.614,1.611,2.42,3.557,2.42,5.833c0,2.288-0.806,4.236-2.42,5.851 		c-1.117,1.117-2.398,1.849-3.842,2.196l5.835,8.998h-1.755L90.239,295.574z M85.512,280.508v13.644h4.3 		c1.876,0,3.481-0.665,4.815-1.998c1.333-1.334,2-2.944,2-4.832c0-1.886-0.667-3.494-2-4.821c-1.333-1.328-2.938-1.992-4.815-1.992 		H85.512z"/> 	<polygon points="113.954,279.068 113.954,280.49 102.729,280.49 102.729,291.005 113.954,291.005 113.954,292.43  		102.729,292.43 102.729,302.942 113.954,302.942 113.954,304.365 101.306,304.365 101.306,279.068 	"/> 	<polygon points="119.931,279.068 129.433,295.511 138.92,279.068 140.549,279.068 140.485,279.18 140.485,304.365  		139.062,304.365 139.062,281.646 129.433,298.311 119.788,281.646 119.788,304.365 118.365,304.365 118.365,279.18  		118.303,279.068 	"/> 	<rect x="145.606" y="279.068" width="1.424" height="25.297"/> 	<path d="M173.852,282.509c2.536,2.533,3.804,5.593,3.804,9.177c0,3.583-1.268,6.643-3.804,9.178 		c-2.533,2.535-5.595,3.802-9.177,3.802c-3.584,0-6.645-1.267-9.178-3.802c-2.535-2.535-3.802-5.595-3.802-9.178 		c0-3.584,1.267-6.644,3.802-9.177c2.533-2.536,5.594-3.805,9.178-3.805C168.257,278.704,171.318,279.973,173.852,282.509 		 M164.675,280.159c-3.184,0-5.901,1.126-8.15,3.377c-2.251,2.249-3.377,4.967-3.377,8.149s1.126,5.903,3.377,8.158 		c2.249,2.256,4.967,3.383,8.15,3.383c3.183,0,5.899-1.127,8.149-3.383c2.25-2.255,3.377-4.976,3.377-8.158s-1.127-5.9-3.377-8.149 		C170.574,281.285,167.857,280.159,164.675,280.159"/> 	<path d="M188.295,290.356c-1.803-0.601-3.225-1.422-4.269-2.466c-1.043-1.043-1.563-2.309-1.563-3.794 		c0-1.455,0.521-2.706,1.563-3.756c1.044-1.049,2.309-1.573,3.795-1.573c1.477,0,2.74,0.521,3.794,1.564 		c0.579,0.561,0.979,1.188,1.201,1.883l-1.28,0.506c-0.188-0.517-0.5-0.99-0.933-1.423c-0.77-0.76-1.697-1.139-2.782-1.139 		c-1.086,0-2.014,0.382-2.783,1.146c-0.77,0.764-1.153,1.694-1.153,2.791c0,1.086,0.384,2.013,1.153,2.782 		c0.717,0.706,1.707,1.354,2.973,1.945c2.023,0.652,3.727,1.67,5.106,3.052c1.464,1.452,2.197,3.215,2.197,5.281 		c0,2.074-0.733,3.845-2.197,5.311c-1.465,1.465-3.23,2.197-5.296,2.197c-2.066,0-3.832-0.737-5.296-2.214 		c-1.171-1.17-1.872-2.528-2.104-4.077l1.344-0.49c0.148,1.369,0.732,2.565,1.755,3.589c1.191,1.19,2.625,1.785,4.301,1.785 		c1.686,0,3.125-0.595,4.316-1.785c1.19-1.192,1.786-2.632,1.786-4.315c0-1.677-0.596-3.109-1.786-4.302 		C191.094,291.812,189.813,290.979,188.295,290.356"/> 	<polygon points="11.513,309.105 14.081,309.105 35.401,346.014 35.401,309.105 37.735,309.105 37.735,350.604  		35.401,350.604 13.848,313.334 13.848,350.604 11.513,350.604 	"/> 	<path d="M81.217,314.747c4.158,4.159,6.238,9.178,6.238,15.057s-2.08,10.897-6.238,15.056 		c-4.159,4.158-9.178,6.238-15.056,6.238c-5.879,0-10.897-2.08-15.056-6.238s-6.238-9.177-6.238-15.056s2.079-10.897,6.238-15.057 		s9.177-6.238,15.056-6.238C72.04,308.509,77.059,310.588,81.217,314.747 M66.161,310.896c-5.222,0-9.678,1.845-13.37,5.538 		c-3.691,3.691-5.538,8.147-5.538,13.37c0,5.222,1.846,9.683,5.538,13.384c3.692,3.699,8.148,5.551,13.37,5.551 		c5.222,0,9.678-1.852,13.371-5.551c3.691-3.701,5.537-8.162,5.537-13.384c0-5.223-1.845-9.679-5.537-13.37 		C75.839,312.74,71.383,310.896,66.161,310.896"/> 	<path d="M104.677,336.185c-0.224,0.018-0.458,0.025-0.701,0.025h-7.054v14.395h-2.334v-41.499h10.895 		c3.164,0.433,5.852,1.756,8.065,3.969c2.645,2.646,3.968,5.836,3.968,9.57c0,3.753-1.323,6.951-3.968,9.598 		c-1.834,1.833-3.934,3.033-6.303,3.605l9.571,14.757h-2.879L104.677,336.185z M96.922,311.467v22.384h7.054 		c3.078,0,5.711-1.094,7.898-3.282c2.188-2.187,3.282-4.827,3.282-7.924c0-3.095-1.095-5.731-3.282-7.909 		c-2.187-2.179-4.82-3.269-7.898-3.269H96.922z"/> 	<polygon points="135.309,314.475 135.309,350.604 129.914,350.604 129.914,314.475 120.239,314.475  		120.239,309.105 144.983,309.105 144.983,314.475 	"/> 	<path d="M160.44,337.325h-4.901v13.28h-5.369v-41.5h11.775c3.337,0.449,6.156,1.825,8.455,4.125 		c2.75,2.767,4.123,6.088,4.123,9.96c0,3.907-1.373,7.244-4.123,10.011c-1.901,1.901-3.354,2.973-4.357,3.216l9.207,14.188h-6.51 		L160.44,337.325z M155.539,314.501v17.429h4.901c2.386,0,4.431-0.852,6.136-2.554c1.703-1.704,2.554-3.765,2.554-6.186 		c0-2.404-0.851-4.454-2.554-6.148c-1.705-1.694-3.75-2.541-6.136-2.541H155.539z"/> 	<path d="M195.949,309.105l15.095,41.499h-5.707l-5.342-14.68h-10.999l-5.315,14.68h-5.732l15.095-41.499H195.949z 		 M198.05,330.556l-3.555-9.726l-3.527,9.726H198.05z"/> 	<rect x="216.75" y="309.105" width="5.369" height="41.499"/> 	<polygon points="230.444,350.604 230.444,309.105 235.813,309.105 235.813,345.209 250.647,345.209  		250.647,350.604 	"/> 	<line x1="58.824" y1="289.296" x2="12.739" y2="289.296"/> 	<rect x="12.739" y="287.516" width="46.085" height="3.56"/> 	<line x1="247.866" y1="289.296" x2="201.78" y2="289.296"/> 	<rect x="201.78" y="287.516" width="46.085" height="3.56"/> 	<g> 		<path d="M12.504,360.56l5.398,9.341l5.389-9.341h0.925l-0.036,0.063v14.309h-0.808v-12.907l-5.47,9.467 			l-5.479-9.467v12.907h-0.809v-14.309l-0.036-0.063H12.504z"/> 		<path d="M33.545,360.56v0.808h-6.377v5.974h6.377v0.809h-6.377v5.973h6.377v0.809h-7.186V360.56H33.545z"/> 		<path d="M40.422,372.2c0,0.91-0.24,1.604-0.719,2.084c-0.509,0.515-1.126,0.772-1.85,0.772 			c-0.725,0-1.342-0.256-1.851-0.769c-0.509-0.512-0.764-1.073-0.764-1.684l0.53-0.207c0.12,0.646,0.374,1.132,0.763,1.455 			c0.324,0.275,0.689,0.413,1.096,0.413c0.072,0,0.146-0.006,0.225-0.018c0.497,0,0.925-0.177,1.284-0.53 			c0.317-0.317,0.476-0.853,0.476-1.607V360.56h0.809V372.2z"/> 		<path d="M54.974,362.513c1.44,1.44,2.16,3.179,2.16,5.214c0,2.036-0.72,3.774-2.16,5.215 			c-1.44,1.439-3.178,2.16-5.214,2.16s-3.774-0.721-5.214-2.16c-1.44-1.44-2.161-3.179-2.161-5.215c0-2.035,0.72-3.773,2.161-5.214 			c1.44-1.44,3.178-2.16,5.214-2.16S53.533,361.072,54.974,362.513z M49.759,361.179c-1.809,0-3.352,0.64-4.63,1.918 			s-1.917,2.822-1.917,4.63c0,1.809,0.639,3.354,1.917,4.635c1.278,1.282,2.822,1.923,4.63,1.923s3.352-0.641,4.63-1.923 			c1.278-1.281,1.917-2.826,1.917-4.635c0-1.808-0.639-3.352-1.917-4.63S51.568,361.179,49.759,361.179z"/> 		<path d="M62.546,369.937c-0.078,0.006-0.159,0.009-0.242,0.009H59.86v4.985h-0.809V360.56h3.772 			c1.096,0.149,2.027,0.607,2.793,1.374c0.917,0.916,1.375,2.021,1.375,3.314c0,1.299-0.458,2.407-1.375,3.323 			c-0.635,0.635-1.362,1.051-2.183,1.248l3.314,5.111h-0.997L62.546,369.937z M59.86,361.377v7.751h2.443 			c1.065,0,1.977-0.378,2.735-1.136c0.757-0.758,1.136-1.672,1.136-2.744s-0.379-1.985-1.136-2.739 			c-0.758-0.755-1.669-1.132-2.735-1.132H59.86z"/> 		<path d="M85.559,372.641l0.611,0.548c-1.401,1.275-3.051,1.913-4.949,1.913c-2.036,0-3.771-0.717-5.205-2.151 			s-2.151-3.169-2.151-5.205c0-2.03,0.717-3.764,2.151-5.201c1.434-1.437,3.169-2.155,5.205-2.155c1.898,0,3.548,0.638,4.949,1.913 			l-0.611,0.557c-1.233-1.096-2.68-1.644-4.338-1.644c-1.802,0-3.341,0.638-4.617,1.913s-1.913,2.814-1.913,4.617 			c0,1.809,0.638,3.351,1.913,4.626s2.814,1.913,4.617,1.913C82.879,374.284,84.326,373.736,85.559,372.641z"/> 		<path d="M94.448,369.425h-4.976l-2.003,5.506h-0.862l5.354-14.704l5.344,14.704h-0.854L94.448,369.425z 			 M94.151,368.616l-2.191-6.027l-2.192,6.027H94.151z"/> 		<path d="M102.042,369.937c-0.078,0.006-0.159,0.009-0.242,0.009h-2.443v4.985h-0.809V360.56h3.772 			c1.096,0.149,2.027,0.607,2.793,1.374c0.917,0.916,1.375,2.021,1.375,3.314c0,1.299-0.458,2.407-1.375,3.323 			c-0.635,0.635-1.362,1.051-2.183,1.248l3.314,5.111h-0.997L102.042,369.937z M99.357,361.377v7.751h2.443 			c1.065,0,1.977-0.378,2.735-1.136c0.757-0.758,1.136-1.672,1.136-2.744s-0.379-1.985-1.136-2.739 			c-0.758-0.755-1.669-1.132-2.735-1.132H99.357z"/> 		<path d="M111.272,369.937c-0.078,0.006-0.159,0.009-0.242,0.009h-2.443v4.985h-0.809V360.56h3.772 			c1.096,0.149,2.027,0.607,2.793,1.374c0.917,0.916,1.375,2.021,1.375,3.314c0,1.299-0.458,2.407-1.375,3.323 			c-0.635,0.635-1.362,1.051-2.183,1.248l3.314,5.111h-0.997L111.272,369.937z M108.587,361.377v7.751h2.443 			c1.065,0,1.977-0.378,2.735-1.136c0.757-0.758,1.136-1.672,1.136-2.744s-0.379-1.985-1.136-2.739 			c-0.758-0.755-1.669-1.132-2.735-1.132H108.587z"/> 		<path d="M124.194,360.56v0.808h-6.377v5.974h6.377v0.809h-6.377v5.973h6.377v0.809h-7.186V360.56H124.194z"/> 		<path d="M129.606,369.937c-0.078,0.006-0.159,0.009-0.243,0.009h-2.443v4.985h-0.809V360.56h3.773 			c1.096,0.149,2.026,0.607,2.793,1.374c0.916,0.916,1.374,2.021,1.374,3.314c0,1.299-0.458,2.407-1.374,3.323 			c-0.635,0.635-1.362,1.051-2.183,1.248l3.314,5.111h-0.997L129.606,369.937z M126.92,361.377v7.751h2.443 			c1.066,0,1.978-0.378,2.735-1.136s1.136-1.672,1.136-2.744s-0.378-1.985-1.136-2.739c-0.758-0.755-1.669-1.132-2.735-1.132H126.92 			z"/> 		<path d="M142.285,369.425h-4.977l-2.003,5.506h-0.862l5.354-14.704l5.344,14.704h-0.853L142.285,369.425z 			 M141.988,368.616l-2.191-6.027l-2.192,6.027H141.988z"/> 		<path d="M153.001,368.49v6.44h-0.808V360.56h0.808v7.122h6.019v-7.122h0.809v14.371h-0.809v-6.44H153.001z"/> 		<path d="M168.915,369.425h-4.977l-2.003,5.506h-0.862l5.354-14.704l5.344,14.704h-0.853L168.915,369.425z 			 M168.618,368.616l-2.191-6.027l-2.192,6.027H168.618z"/> 		<path d="M177.102,366.973c-1.023-0.342-1.832-0.809-2.425-1.401s-0.89-1.312-0.89-2.156 			c0-0.826,0.297-1.537,0.89-2.133s1.312-0.894,2.155-0.894c0.839,0,1.558,0.296,2.156,0.889c0.329,0.317,0.557,0.674,0.683,1.069 			l-0.728,0.287c-0.107-0.293-0.284-0.563-0.53-0.809c-0.437-0.431-0.964-0.646-1.581-0.646c-0.616,0-1.144,0.218-1.58,0.651 			c-0.438,0.435-0.656,0.963-0.656,1.585c0,0.617,0.219,1.145,0.656,1.581c0.407,0.401,0.97,0.77,1.688,1.105 			c1.149,0.371,2.116,0.949,2.901,1.733c0.832,0.826,1.248,1.826,1.248,3c0,1.18-0.416,2.186-1.248,3.018 			c-0.833,0.833-1.836,1.249-3.01,1.249c-1.173,0-2.177-0.419-3.009-1.258c-0.664-0.665-1.063-1.438-1.194-2.317l0.764-0.278 			c0.083,0.778,0.416,1.458,0.997,2.039c0.676,0.677,1.49,1.015,2.442,1.015c0.958,0,1.775-0.338,2.452-1.015 			s1.016-1.494,1.016-2.452c0-0.952-0.339-1.767-1.016-2.443C178.691,367.799,177.964,367.326,177.102,366.973z"/> 		<path d="M185.883,361.367v13.563h-0.809v-13.563h-3.638v-0.808h8.084v0.808H185.883z"/> 		<path d="M197.053,369.425h-4.977l-2.003,5.506h-0.862l5.354-14.704l5.344,14.704h-0.853L197.053,369.425z 			 M196.756,368.616l-2.191-6.027l-2.192,6.027H196.756z"/> 		<path d="M208.914,371.037c0.991-0.739,1.867-1.396,2.628-1.968c0.76-0.571,1.467-1.214,2.119-1.926 			c0.652-0.713,0.979-1.542,0.979-2.488c0-0.952-0.336-1.764-1.006-2.435c-0.671-0.67-1.482-1.006-2.435-1.006 			c-0.94,0-1.749,0.336-2.425,1.006c-0.575,0.575-0.904,1.261-0.988,2.057l-0.817-0.296c0.138-0.898,0.539-1.683,1.203-2.354 			c0.839-0.844,1.848-1.267,3.027-1.267c1.186,0,2.196,0.42,3.031,1.258c0.836,0.838,1.253,1.851,1.253,3.036 			c0,1.18-0.41,2.209-1.23,3.09c-0.557,0.604-1.216,1.191-1.976,1.761c-0.761,0.568-1.617,1.209-2.569,1.922 			s-1.545,1.61-1.778,2.694h7.554v0.809h-8.47C207.29,373.074,207.923,371.776,208.914,371.037z"/> 		<path d="M218.822,365.023c0.299-0.096,0.635-0.186,1.006-0.27c0.383-0.065,0.755-0.099,1.113-0.099 			c0.659,0,1.291,0.104,1.896,0.314c1.354,0.461,2.359,1.312,3.019,2.551c0.413,0.772,0.619,1.563,0.619,2.371 			c0,0.503-0.078,1.009-0.233,1.518c-0.413,1.348-1.239,2.354-2.479,3.019c-0.755,0.401-1.533,0.602-2.336,0.602 			c-0.509,0-1.027-0.081-1.554-0.242c-1.078-0.329-1.922-0.91-2.533-1.743l0.575-0.638c0.509,0.755,1.245,1.279,2.209,1.572 			c0.432,0.132,0.856,0.197,1.276,0.197c0.67,0,1.323-0.167,1.958-0.503c1.035-0.551,1.728-1.389,2.074-2.515 			c0.132-0.432,0.198-0.856,0.198-1.275c0-0.671-0.171-1.326-0.513-1.967c-0.551-1.03-1.389-1.743-2.515-2.139 			c-0.485-0.167-1.018-0.251-1.599-0.251c-0.761,0-1.605,0.146-2.533,0.44l-0.646-0.566l1.652-4.554v-0.287h4.491v0.808h-3.817 			L218.822,365.023z"/> 		<path d="M229.121,367.97v6.961h-0.808V360.56h0.808v6.116l4.591-6.116h1.041l-4.311,5.784l5.568,8.587h-0.997 			l-5.102-7.94L229.121,367.97z"/> 		<path d="M238.539,360.56l5.398,9.341l5.39-9.341h0.925l-0.036,0.063v14.309h-0.809v-12.907l-5.47,9.467 			l-5.479-9.467v12.907h-0.809v-14.309l-0.035-0.063H238.539z"/> 	</g> 	<g> 		<path d="M107.285,387.167c0.186,0.184,0.279,0.407,0.279,0.67c0,0.271-0.093,0.498-0.279,0.682 			c-0.186,0.185-0.41,0.276-0.672,0.276c-0.258,0-0.481-0.092-0.669-0.276c-0.188-0.184-0.282-0.411-0.282-0.682 			c0-0.263,0.094-0.486,0.282-0.67c0.188-0.184,0.411-0.275,0.669-0.275C106.875,386.892,107.099,386.983,107.285,387.167z"/> 		<path d="M113.226,390.126c0.839-0.625,1.554-1.159,2.146-1.602c0.592-0.443,1.121-0.919,1.586-1.429 			s0.699-1.075,0.699-1.698s-0.22-1.153-0.66-1.591c-0.44-0.437-0.972-0.655-1.594-0.655c-0.613,0-1.14,0.219-1.583,0.655 			c-0.376,0.376-0.61,1.024-0.703,1.946l-1.598-0.579c0.165-1.07,0.548-1.909,1.15-2.517c0.756-0.762,1.667-1.143,2.733-1.143 			c1.076,0,1.99,0.378,2.744,1.135c0.754,0.756,1.131,1.673,1.131,2.748c0,1.061-0.366,1.984-1.096,2.771 			c-0.463,0.499-1.002,0.979-1.618,1.439c-0.615,0.461-1.298,0.975-2.049,1.54c-0.659,0.489-1.027,0.911-1.104,1.267h5.867v1.605 			h-7.743C111.824,392.05,112.387,390.751,113.226,390.126z"/> 		<path d="M129.816,389.829c0,1.209-0.429,2.242-1.285,3.099c-0.857,0.857-1.893,1.286-3.107,1.286 			c-1.209,0-2.243-0.429-3.1-1.286c-0.857-0.856-1.285-1.89-1.285-3.099v-3.775c0-1.209,0.428-2.243,1.285-3.1s1.89-1.285,3.1-1.285 			c1.214,0,2.25,0.429,3.107,1.285c0.856,0.856,1.285,1.891,1.285,3.1V389.829z M128.18,386.054c0-0.757-0.269-1.402-0.807-1.938 			c-0.538-0.535-1.188-0.803-1.949-0.803c-0.757,0-1.404,0.268-1.941,0.803c-0.538,0.535-0.807,1.181-0.807,1.938v3.775 			c0,0.762,0.269,1.41,0.807,1.945c0.538,0.535,1.185,0.803,1.941,0.803c0.762,0,1.411-0.268,1.949-0.803 			c0.538-0.535,0.807-1.184,0.807-1.945V386.054z"/> 		<path d="M137.296,381.669v12.352h-1.598v-10.268h-1.182l1.622-2.084H137.296z"/> 		<path d="M148.324,386.335c-1.279,1.434-2.269,2.647-2.968,3.641c-0.7,0.993-1.076,2.342-1.128,4.045H142.6 			c0.063-2.104,0.489-3.712,1.282-4.821c0.792-1.108,1.736-2.277,2.833-3.505c1.096-1.228,1.686-2.036,1.768-2.428h-5.867v-1.598 			h7.682C150.261,383.347,149.604,384.902,148.324,386.335z"/> 		<path d="M153.881,387.167c0.187,0.184,0.279,0.407,0.279,0.67c0,0.271-0.093,0.498-0.279,0.682 			c-0.186,0.185-0.409,0.276-0.672,0.276c-0.259,0-0.481-0.092-0.67-0.276c-0.188-0.184-0.281-0.411-0.281-0.682 			c0-0.263,0.094-0.486,0.281-0.67c0.188-0.184,0.411-0.275,0.67-0.275C153.472,386.892,153.695,386.983,153.881,387.167z"/> 	</g> </g> </svg> 