<?xml version="1.0" encoding="utf-8"?>
<!-- Generator: Adobe Illustrator 16.0.0, SVG Export Plug-In . SVG Version: 6.00 Build 0)  -->
<!DOCTYPE svg PUBLIC "-//W3C//DTD SVG 1.1//EN" "http://www.w3.org/Graphics/SVG/1.1/DTD/svg11.dtd">
<svg version="1.1" id="Layer_1" xmlns="http://www.w3.org/2000/svg" xmlns:xlink="http://www.w3.org/1999/xlink" x="0px" y="0px"
	 width="25px" height="25px" viewBox="0 0 25 25" enable-background="new 0 0 25 25" xml:space="preserve">
<g enable-background="new    ">
	<path d="M21.503,10.554c0.236,0,0.441,0.087,0.614,0.26s0.259,0.377,0.259,0.613v3.493c0,0.236-0.086,0.44-0.259,0.613
		s-0.378,0.26-0.614,0.26H3.167c-0.364,0-0.673-0.128-0.927-0.382l-1.924-1.924c-0.091-0.091-0.136-0.195-0.136-0.313
		s0.045-0.224,0.136-0.314l1.924-1.924c0.254-0.254,0.563-0.382,0.927-0.382h6.985V7.935h3.493v2.619H21.503z M23.481,4.128
		c0.091,0.091,0.137,0.196,0.137,0.314s-0.046,0.223-0.137,0.314L21.558,6.68c-0.255,0.255-0.563,0.382-0.928,0.382H2.294
		c-0.236,0-0.441-0.086-0.614-0.259C1.508,6.63,1.421,6.425,1.421,6.188V2.696c0-0.236,0.086-0.441,0.259-0.614
		C1.854,1.91,2.058,1.823,2.294,1.823h7.858V0.95c0-0.237,0.086-0.441,0.259-0.614c0.173-0.172,0.377-0.259,0.614-0.259h1.747
		c0.237,0,0.441,0.087,0.614,0.259c0.173,0.173,0.26,0.377,0.26,0.614v0.873h6.984c0.364,0,0.673,0.127,0.928,0.382L23.481,4.128z
		 M10.152,16.666h3.493v6.984c0,0.236-0.087,0.441-0.26,0.614s-0.377,0.259-0.614,0.259h-1.747c-0.236,0-0.441-0.086-0.614-0.259
		s-0.259-0.378-0.259-0.614V16.666z"/>
</g>
</svg>
