<?xml version="1.0" encoding="utf-8"?>
<!-- Generator: Adobe Illustrator 16.0.0, SVG Export Plug-In . SVG Version: 6.00 Build 0)  -->
<!DOCTYPE svg PUBLIC "-//W3C//DTD SVG 1.1//EN" "http://www.w3.org/Graphics/SVG/1.1/DTD/svg11.dtd">
<svg version="1.1" id="Layer_1" xmlns="http://www.w3.org/2000/svg" xmlns:xlink="http://www.w3.org/1999/xlink" x="0px" y="0px"
	 width="300px" height="400px" viewBox="0 0 300 400" enable-background="new 0 0 300 400" xml:space="preserve">
<path d="M34.92,92.542c0,0,31.824-44.516,44.221-45.99c8.834-1.051,22.049,22.126,30.955,21.813
	c14.06-0.494,30.15-41.445,44.222-41.445c13.267,0,29.807,33.424,44.221,33.592c6.446,0.076,17.688-21.813,26.533-17.886
	c11.906,5.286,39.798,49.917,39.798,49.917H34.92z"/>
<path d="M147.351,248.702c0,19.758-16.017,35.776-35.777,35.776c-19.759,0-35.777-16.019-35.777-35.776
	c0-19.762,16.018-35.779,35.777-35.779C131.334,212.923,147.351,228.94,147.351,248.702z"/>
<path d="M224.288,248.05c0,19.758-16.021,35.776-35.78,35.776c-19.758,0-35.776-16.019-35.776-35.776
	c0-19.763,16.019-35.779,35.776-35.779C208.268,212.271,224.288,228.287,224.288,248.05z"/>
<rect x="30.048" y="237.54" width="38.757" height="22.32"/>
<rect x="231.421" y="238.192" width="38.778" height="22.32"/>
<path d="M79.753,312.767v58.94H60.918v-58.94H38.801v-15.238h63.28v15.238H79.753z"/>
<path d="M139.542,371.707l-28.783-74.072h20.106l18.941,54.496l18.941-54.496h19.365l-29.101,74.072H139.542z"/>
<path d="M261.235,305.042l-7.09,14.708c-7.83-4.55-17.671-7.725-23.703-7.725c-4.867,0-8.148,1.798-8.148,5.397
	c0,12.803,39.152,5.502,39.152,32.273c0,14.815-13.12,22.646-29.628,22.646c-12.381,0-25.079-4.655-33.862-11.852l7.302-14.498
	c7.619,6.669,19.047,11.112,26.771,11.112c5.927,0,9.63-2.222,9.63-6.455c0-13.121-39.153-5.29-39.153-31.534
	c0-13.65,11.747-22.327,29.523-22.327C242.718,296.788,253.616,300.067,261.235,305.042z"/>
<path d="M229.075,231.196l-6.586-29.268c18.07-4.066,20.189-7.84,22.433-11.835
	c6.09-10.845,9.262-44.565,10.065-71.821H44.805c0.81,27.267,3.983,60.994,10.063,71.821c2.244,3.996,4.362,7.77,22.432,11.835
	l-6.585,29.268c-22.673-5.101-34.057-12.26-42.005-26.415c-13.722-24.438-14.164-88.896-14.113-101.569l0.06-14.94h270.474
	l0.061,14.939c0.051,12.673-0.39,77.132-14.111,101.57C263.132,218.937,251.747,226.096,229.075,231.196z"/>
</svg>
