<?xml version="1.0" encoding="utf-8"?>
<!-- Generator: Adobe Illustrator 16.0.0, SVG Export Plug-In . SVG Version: 6.00 Build 0)  -->
<!DOCTYPE svg PUBLIC "-//W3C//DTD SVG 1.1//EN" "http://www.w3.org/Graphics/SVG/1.1/DTD/svg11.dtd">
<svg version="1.1" id="Layer_1" xmlns="http://www.w3.org/2000/svg" xmlns:xlink="http://www.w3.org/1999/xlink" x="0px" y="0px"
	 width="30px" height="25.463px" viewBox="0 0 30 25.463" enable-background="new 0 0 30 25.463" xml:space="preserve">
<path d="M29.207,3.72c-0.801,1.169-1.768,2.167-2.899,2.99c0.01,0.167,0.019,0.417,0.019,0.751
	c0,1.551-0.228,3.1-0.682,4.644c-0.454,1.547-1.143,3.03-2.067,4.448c-0.925,1.422-2.025,2.675-3.299,3.766
	c-1.279,1.094-2.818,1.963-4.62,2.615c-1.802,0.649-3.729,0.977-5.781,0.977c-3.233,0-6.192-0.867-8.878-2.597
	c0.417,0.05,0.884,0.07,1.396,0.07c2.684,0,5.076-0.822,7.178-2.47c-1.253-0.021-2.375-0.407-3.366-1.153
	c-0.99-0.747-1.67-1.697-2.04-2.855c0.394,0.063,0.757,0.089,1.091,0.089c0.513,0,1.021-0.063,1.522-0.196
	c-1.337-0.274-2.443-0.94-3.32-1.996s-1.316-2.281-1.316-3.678V9.053c0.812,0.454,1.682,0.698,2.613,0.733
	c-0.787-0.524-1.414-1.21-1.88-2.058C2.415,6.882,2.182,5.963,2.182,4.973c0-1.049,0.263-2.021,0.787-2.917
	c1.444,1.778,3.2,3.202,5.271,4.269c2.07,1.067,4.286,1.661,6.649,1.78c-0.097-0.453-0.144-0.894-0.144-1.324
	c0-1.599,0.564-2.961,1.691-4.089C17.563,1.564,18.927,1,20.529,1c1.67,0,3.076,0.608,4.222,1.826
	c1.301-0.25,2.522-0.716,3.671-1.396c-0.444,1.372-1.29,2.434-2.543,3.186C26.988,4.496,28.098,4.198,29.207,3.72z"/>
</svg>
